M48
; DRILL file {KiCad 7.0.11+dfsg-1build4} date Sat Oct  3 07:13:53 2026
; FORMAT={-:-/ absolute / metric / decimal}
; #@! TF.CreationDate,2026-10-03T07:13:53+00:00
; #@! TF.GenerationSoftware,Kicad,Pcbnew,7.0.11+dfsg-1build4
; #@! TF.FileFunction,Plated,1,2,PTH
FMAT,2
METRIC
; #@! TA.AperFunction,Plated,PTH,ViaDrill
T1C0.300
; #@! TA.AperFunction,Plated,PTH,ViaDrill
T2C0.450
; #@! TA.AperFunction,Plated,PTH,ComponentDrill
T3C0.800
; #@! TA.AperFunction,Plated,PTH,ComponentDrill
T4C0.950
; #@! TA.AperFunction,Plated,PTH,ComponentDrill
T5C1.000
; #@! TA.AperFunction,Plated,PTH,ComponentDrill
T6C1.300
; #@! TA.AperFunction,Plated,PTH,ComponentDrill
T7C1.520
%
G90
G05
T1
X139.518Y-101.8
X141.65Y-130.85
X145.45Y-106.95
X146.05Y-108.85
X148.843Y-109.25
X150.55Y-130.2
X151.25Y-140.6
X151.45Y-147.65
X155.25Y-136.75
X156.15Y-112.487
X162.35Y-91.787
X163.2Y-149.1
T2
X130.75Y-126.35
X136.9Y-120.65
X146.3Y-120.55
X152.8Y-122.7
X156.85Y-99.75
X164.862Y-120.612
T3
X128.55Y-64.25
X136.05Y-66.95
T4
X168.15Y-89.45
X168.15Y-91.95
X168.15Y-94.45
T5
X125.5Y-113.9
X127.75Y-72.35
X128.41Y-135.51
X128.41Y-138.05
X128.41Y-140.59
X130.95Y-135.51
X130.95Y-138.05
X130.95Y-140.59
X131.5Y-80.3
X137.5Y-80.3
X137.75Y-72.35
X143.5Y-113.9
X143.59Y-71.99
X143.6Y-66.91
X168.575Y-133.05
X168.575Y-137.55
T6
X152.05Y-67.078
X152.05Y-79.278
X158.05Y-81.278
X164.05Y-67.078
X164.05Y-79.278
X166.075Y-131.8
X166.075Y-138.8
T7
X136.14Y-56.3
X141.22Y-56.3
X146.3Y-56.3
X151.38Y-56.3
X156.46Y-56.3
M30
