%TF.GenerationSoftware,KiCad,Pcbnew,7.0.11+dfsg-1build4*%
%TF.CreationDate,2026-10-03T06:47:29+00:00*%
%TF.ProjectId,t,742e6b69-6361-4645-9f70-636258585858,rev?*%
%TF.SameCoordinates,Original*%
%TF.FileFunction,Legend,Top*%
%TF.FilePolarity,Positive*%
%FSLAX46Y46*%
G04 Gerber Fmt 4.6, Leading zero omitted, Abs format (unit mm)*
G04 Created by KiCad (PCBNEW 7.0.11+dfsg-1build4) date 2026-10-03 06:47:29*
%MOMM*%
%LPD*%
G01*
G04 APERTURE LIST*
%ADD10C,0.100000*%
%ADD11C,0.150000*%
%ADD12C,0.120000*%
G04 APERTURE END LIST*
D10*
G36*
X86528633Y-152255017D02*
G01*
X86548540Y-152256114D01*
X86567760Y-152257923D01*
X86586296Y-152260424D01*
X86604150Y-152263601D01*
X86621325Y-152267437D01*
X86637821Y-152271914D01*
X86653643Y-152277014D01*
X86668792Y-152282721D01*
X86683271Y-152289017D01*
X86697081Y-152295884D01*
X86710225Y-152303306D01*
X86722706Y-152311264D01*
X86734525Y-152319742D01*
X86745685Y-152328722D01*
X86756189Y-152338187D01*
X86766038Y-152348119D01*
X86775235Y-152358501D01*
X86783783Y-152369315D01*
X86791683Y-152380545D01*
X86798937Y-152392173D01*
X86805549Y-152404181D01*
X86811520Y-152416552D01*
X86816853Y-152429269D01*
X86821549Y-152442314D01*
X86825613Y-152455670D01*
X86829044Y-152469319D01*
X86831847Y-152483245D01*
X86834023Y-152497430D01*
X86835574Y-152511856D01*
X86836503Y-152526506D01*
X86836812Y-152541363D01*
X86836575Y-152554244D01*
X86835871Y-152566684D01*
X86834713Y-152578690D01*
X86833115Y-152590269D01*
X86831088Y-152601428D01*
X86828647Y-152612174D01*
X86825804Y-152622515D01*
X86822571Y-152632457D01*
X86814989Y-152651172D01*
X86806004Y-152668376D01*
X86795720Y-152684125D01*
X86784239Y-152698474D01*
X86771664Y-152711480D01*
X86758097Y-152723199D01*
X86743643Y-152733686D01*
X86728404Y-152742997D01*
X86712482Y-152751189D01*
X86695981Y-152758318D01*
X86679004Y-152764439D01*
X86661653Y-152769608D01*
X86661653Y-152779610D01*
X86671052Y-152780459D01*
X86690054Y-152783635D01*
X86709163Y-152788768D01*
X86728184Y-152795840D01*
X86737600Y-152800098D01*
X86746920Y-152804835D01*
X86756120Y-152810047D01*
X86765175Y-152815733D01*
X86774060Y-152821891D01*
X86782752Y-152828518D01*
X86791224Y-152835612D01*
X86799454Y-152843171D01*
X86807416Y-152851193D01*
X86815086Y-152859676D01*
X86822438Y-152868617D01*
X86829450Y-152878014D01*
X86836095Y-152887865D01*
X86842350Y-152898167D01*
X86848190Y-152908920D01*
X86853591Y-152920119D01*
X86858527Y-152931764D01*
X86862974Y-152943852D01*
X86866908Y-152956380D01*
X86870304Y-152969347D01*
X86873138Y-152982750D01*
X86875385Y-152996587D01*
X86877020Y-153010856D01*
X86878019Y-153025555D01*
X86878358Y-153040681D01*
X86878046Y-153055341D01*
X86877104Y-153069784D01*
X86875526Y-153083995D01*
X86873304Y-153097957D01*
X86870431Y-153111654D01*
X86866900Y-153125069D01*
X86862703Y-153138186D01*
X86857833Y-153150989D01*
X86852284Y-153163461D01*
X86846047Y-153175587D01*
X86839116Y-153187349D01*
X86831484Y-153198732D01*
X86823142Y-153209718D01*
X86814084Y-153220293D01*
X86804303Y-153230438D01*
X86793792Y-153240139D01*
X86782542Y-153249379D01*
X86770548Y-153258140D01*
X86757801Y-153266408D01*
X86744295Y-153274166D01*
X86730022Y-153281396D01*
X86714975Y-153288084D01*
X86699147Y-153294212D01*
X86682530Y-153299765D01*
X86665118Y-153304726D01*
X86646903Y-153309078D01*
X86627878Y-153312805D01*
X86608035Y-153315892D01*
X86587368Y-153318321D01*
X86565869Y-153320076D01*
X86543531Y-153321141D01*
X86520347Y-153321500D01*
X86128996Y-153321500D01*
X86128996Y-152845519D01*
X86265430Y-152845519D01*
X86265430Y-153200966D01*
X86516756Y-153200966D01*
X86532061Y-153200758D01*
X86546771Y-153200143D01*
X86560894Y-153199129D01*
X86574438Y-153197726D01*
X86587409Y-153195943D01*
X86599814Y-153193791D01*
X86611661Y-153191279D01*
X86622957Y-153188415D01*
X86633708Y-153185211D01*
X86643922Y-153181675D01*
X86662766Y-153173647D01*
X86679546Y-153164408D01*
X86694319Y-153154034D01*
X86707142Y-153142603D01*
X86718071Y-153130190D01*
X86727163Y-153116873D01*
X86734475Y-153102727D01*
X86740063Y-153087831D01*
X86743984Y-153072259D01*
X86746295Y-153056090D01*
X86747053Y-153039399D01*
X86746052Y-153020021D01*
X86743083Y-153001101D01*
X86738198Y-152982748D01*
X86731449Y-152965071D01*
X86722888Y-152948181D01*
X86712567Y-152932185D01*
X86700537Y-152917195D01*
X86686850Y-152903318D01*
X86671559Y-152890664D01*
X86654714Y-152879343D01*
X86645726Y-152874216D01*
X86636368Y-152869463D01*
X86626649Y-152865098D01*
X86616573Y-152861135D01*
X86606149Y-152857586D01*
X86595381Y-152854467D01*
X86584277Y-152851790D01*
X86572843Y-152849569D01*
X86561085Y-152847817D01*
X86549011Y-152846550D01*
X86536626Y-152845779D01*
X86523937Y-152845519D01*
X86265430Y-152845519D01*
X86128996Y-152845519D01*
X86128996Y-152375437D01*
X86265430Y-152375437D01*
X86265430Y-152730627D01*
X86500856Y-152730627D01*
X86511554Y-152730412D01*
X86522097Y-152729770D01*
X86532473Y-152728709D01*
X86552675Y-152725352D01*
X86572064Y-152720392D01*
X86590543Y-152713882D01*
X86608014Y-152705872D01*
X86624382Y-152696414D01*
X86639548Y-152685560D01*
X86653417Y-152673360D01*
X86665890Y-152659867D01*
X86676872Y-152645132D01*
X86686266Y-152629206D01*
X86693973Y-152612141D01*
X86699898Y-152593988D01*
X86703944Y-152574799D01*
X86706013Y-152554625D01*
X86706277Y-152544184D01*
X86706093Y-152535397D01*
X86704616Y-152518214D01*
X86701643Y-152501618D01*
X86697154Y-152485691D01*
X86691131Y-152470512D01*
X86683553Y-152456159D01*
X86674400Y-152442714D01*
X86663655Y-152430255D01*
X86651296Y-152418862D01*
X86637305Y-152408615D01*
X86621661Y-152399593D01*
X86604346Y-152391876D01*
X86585339Y-152385544D01*
X86575196Y-152382923D01*
X86564622Y-152380677D01*
X86553616Y-152378817D01*
X86542174Y-152377353D01*
X86530296Y-152376295D01*
X86517977Y-152375653D01*
X86505216Y-152375437D01*
X86265430Y-152375437D01*
X86128996Y-152375437D01*
X86128996Y-152254647D01*
X86508037Y-152254647D01*
X86528633Y-152255017D01*
G37*
G36*
X87508724Y-153337913D02*
G01*
X87532078Y-153337445D01*
X87554909Y-153336056D01*
X87577204Y-153333763D01*
X87598947Y-153330586D01*
X87620126Y-153326542D01*
X87640724Y-153321650D01*
X87660728Y-153315929D01*
X87680124Y-153309398D01*
X87698897Y-153302075D01*
X87717033Y-153293978D01*
X87734517Y-153285127D01*
X87751336Y-153275540D01*
X87767474Y-153265235D01*
X87782917Y-153254231D01*
X87797651Y-153242547D01*
X87811662Y-153230202D01*
X87824935Y-153217213D01*
X87837455Y-153203599D01*
X87849209Y-153189380D01*
X87860183Y-153174573D01*
X87870361Y-153159197D01*
X87879729Y-153143272D01*
X87888273Y-153126814D01*
X87895979Y-153109844D01*
X87902832Y-153092379D01*
X87908818Y-153074439D01*
X87913923Y-153056041D01*
X87918132Y-153037205D01*
X87921430Y-153017949D01*
X87923804Y-152998291D01*
X87925239Y-152978251D01*
X87925720Y-152957846D01*
X87925720Y-152254647D01*
X87789286Y-152254647D01*
X87789286Y-152947075D01*
X87788976Y-152961305D01*
X87788051Y-152975278D01*
X87786518Y-152988982D01*
X87784383Y-153002405D01*
X87781654Y-153015533D01*
X87778338Y-153028353D01*
X87774442Y-153040853D01*
X87769972Y-153053019D01*
X87764935Y-153064840D01*
X87759339Y-153076302D01*
X87753190Y-153087392D01*
X87746496Y-153098098D01*
X87739263Y-153108406D01*
X87731498Y-153118305D01*
X87723209Y-153127780D01*
X87714401Y-153136820D01*
X87705083Y-153145411D01*
X87695260Y-153153541D01*
X87684941Y-153161197D01*
X87674132Y-153168365D01*
X87662839Y-153175034D01*
X87651070Y-153181190D01*
X87638833Y-153186821D01*
X87626133Y-153191914D01*
X87612977Y-153196455D01*
X87599373Y-153200432D01*
X87585328Y-153203833D01*
X87570848Y-153206644D01*
X87555941Y-153208853D01*
X87540614Y-153210447D01*
X87524872Y-153211412D01*
X87508724Y-153211737D01*
X87492504Y-153211412D01*
X87476691Y-153210447D01*
X87461291Y-153208853D01*
X87446313Y-153206644D01*
X87431763Y-153203833D01*
X87417647Y-153200432D01*
X87403974Y-153196455D01*
X87390751Y-153191914D01*
X87377984Y-153186821D01*
X87365680Y-153181190D01*
X87353847Y-153175034D01*
X87342492Y-153168365D01*
X87331621Y-153161197D01*
X87321243Y-153153541D01*
X87311363Y-153145411D01*
X87301989Y-153136820D01*
X87293129Y-153127780D01*
X87284789Y-153118305D01*
X87276976Y-153108406D01*
X87269698Y-153098098D01*
X87262961Y-153087392D01*
X87256773Y-153076302D01*
X87251140Y-153064840D01*
X87246070Y-153053019D01*
X87241570Y-153040853D01*
X87237647Y-153028353D01*
X87234309Y-153015533D01*
X87231561Y-153002405D01*
X87229412Y-152988982D01*
X87227867Y-152975278D01*
X87226936Y-152961305D01*
X87226624Y-152947075D01*
X87226624Y-152254647D01*
X87090190Y-152254647D01*
X87090190Y-152957846D01*
X87090671Y-152978251D01*
X87092106Y-152998291D01*
X87094481Y-153017949D01*
X87097781Y-153037205D01*
X87101993Y-153056041D01*
X87107101Y-153074439D01*
X87113093Y-153092379D01*
X87119954Y-153109844D01*
X87127671Y-153126814D01*
X87136228Y-153143272D01*
X87145611Y-153159197D01*
X87155808Y-153174573D01*
X87166803Y-153189380D01*
X87178583Y-153203599D01*
X87191134Y-153217213D01*
X87204440Y-153230202D01*
X87218489Y-153242547D01*
X87233267Y-153254231D01*
X87248758Y-153265235D01*
X87264950Y-153275540D01*
X87281827Y-153285127D01*
X87299377Y-153293978D01*
X87317584Y-153302075D01*
X87336435Y-153309398D01*
X87355915Y-153315929D01*
X87376011Y-153321650D01*
X87396708Y-153326542D01*
X87417993Y-153330586D01*
X87439851Y-153333763D01*
X87462269Y-153336056D01*
X87485231Y-153337445D01*
X87508724Y-153337913D01*
G37*
G36*
X88616610Y-153337913D02*
G01*
X88637011Y-153337523D01*
X88657138Y-153336362D01*
X88676973Y-153334437D01*
X88696500Y-153331757D01*
X88715701Y-153328331D01*
X88734559Y-153324169D01*
X88753056Y-153319279D01*
X88771176Y-153313670D01*
X88788901Y-153307351D01*
X88806214Y-153300330D01*
X88823098Y-153292618D01*
X88839535Y-153284222D01*
X88855508Y-153275152D01*
X88871001Y-153265417D01*
X88885995Y-153255025D01*
X88900473Y-153243986D01*
X88914419Y-153232308D01*
X88927815Y-153220000D01*
X88940644Y-153207072D01*
X88952889Y-153193531D01*
X88964532Y-153179388D01*
X88975556Y-153164651D01*
X88985944Y-153149328D01*
X88995678Y-153133430D01*
X89004742Y-153116964D01*
X89013119Y-153099940D01*
X89020790Y-153082366D01*
X89027739Y-153064252D01*
X89033948Y-153045606D01*
X89039401Y-153026438D01*
X89044080Y-153006756D01*
X89047967Y-152986569D01*
X88911533Y-152986569D01*
X88908444Y-153000054D01*
X88904815Y-153013145D01*
X88900658Y-153025842D01*
X88895989Y-153038140D01*
X88890822Y-153050039D01*
X88885173Y-153061536D01*
X88879055Y-153072628D01*
X88872484Y-153083313D01*
X88865473Y-153093589D01*
X88858038Y-153103454D01*
X88850193Y-153112905D01*
X88841952Y-153121940D01*
X88833331Y-153130557D01*
X88824343Y-153138753D01*
X88815004Y-153146526D01*
X88805329Y-153153874D01*
X88795330Y-153160795D01*
X88785024Y-153167285D01*
X88774425Y-153173344D01*
X88763548Y-153178968D01*
X88752407Y-153184156D01*
X88741016Y-153188904D01*
X88729390Y-153193211D01*
X88717545Y-153197075D01*
X88705494Y-153200492D01*
X88693252Y-153203462D01*
X88680834Y-153205981D01*
X88668254Y-153208047D01*
X88655527Y-153209658D01*
X88642668Y-153210811D01*
X88629690Y-153211505D01*
X88616610Y-153211737D01*
X88598775Y-153211302D01*
X88581203Y-153209999D01*
X88563915Y-153207834D01*
X88546930Y-153204810D01*
X88530267Y-153200931D01*
X88513947Y-153196203D01*
X88497990Y-153190628D01*
X88482416Y-153184212D01*
X88467243Y-153176958D01*
X88452493Y-153168872D01*
X88438185Y-153159956D01*
X88424339Y-153150216D01*
X88410975Y-153139656D01*
X88398112Y-153128280D01*
X88385771Y-153116091D01*
X88373971Y-153103096D01*
X88362733Y-153089297D01*
X88352075Y-153074700D01*
X88342019Y-153059308D01*
X88332583Y-153043125D01*
X88323788Y-153026157D01*
X88315654Y-153008406D01*
X88308200Y-152989878D01*
X88301447Y-152970577D01*
X88295413Y-152950507D01*
X88290120Y-152929672D01*
X88285586Y-152908076D01*
X88281832Y-152885725D01*
X88278878Y-152862621D01*
X88276743Y-152838770D01*
X88275448Y-152814176D01*
X88275012Y-152788842D01*
X88275446Y-152763460D01*
X88276735Y-152738816D01*
X88278860Y-152714913D01*
X88281801Y-152691758D01*
X88285539Y-152669353D01*
X88290054Y-152647704D01*
X88295327Y-152626816D01*
X88301338Y-152606691D01*
X88308069Y-152587336D01*
X88315499Y-152568754D01*
X88323609Y-152550950D01*
X88332380Y-152533929D01*
X88341793Y-152517694D01*
X88351827Y-152502251D01*
X88362463Y-152487603D01*
X88373683Y-152473755D01*
X88385466Y-152460713D01*
X88397793Y-152448479D01*
X88410644Y-152437059D01*
X88424001Y-152426457D01*
X88437844Y-152416678D01*
X88452152Y-152407725D01*
X88466908Y-152399604D01*
X88482091Y-152392319D01*
X88497682Y-152385874D01*
X88513662Y-152380274D01*
X88530010Y-152375524D01*
X88546709Y-152371627D01*
X88563737Y-152368588D01*
X88581077Y-152366412D01*
X88598707Y-152365103D01*
X88616610Y-152364666D01*
X88629623Y-152364896D01*
X88642541Y-152365583D01*
X88655349Y-152366727D01*
X88668033Y-152368324D01*
X88680577Y-152370374D01*
X88692966Y-152372875D01*
X88705186Y-152375824D01*
X88717220Y-152379220D01*
X88729055Y-152383060D01*
X88740675Y-152387344D01*
X88752065Y-152392068D01*
X88763210Y-152397232D01*
X88774095Y-152402833D01*
X88784705Y-152408869D01*
X88795025Y-152415339D01*
X88805040Y-152422240D01*
X88814735Y-152429571D01*
X88824095Y-152437330D01*
X88833105Y-152445515D01*
X88841749Y-152454125D01*
X88850014Y-152463156D01*
X88857883Y-152472608D01*
X88865342Y-152482478D01*
X88872376Y-152492765D01*
X88878969Y-152503467D01*
X88885107Y-152514581D01*
X88890775Y-152526107D01*
X88895957Y-152538042D01*
X88900639Y-152550383D01*
X88904806Y-152563131D01*
X88908442Y-152576281D01*
X88911533Y-152589833D01*
X89047967Y-152589833D01*
X89044005Y-152569398D01*
X89039249Y-152549497D01*
X89033715Y-152530138D01*
X89027423Y-152511330D01*
X89020390Y-152493078D01*
X89012635Y-152475392D01*
X89004175Y-152458277D01*
X88995029Y-152441743D01*
X88985215Y-152425795D01*
X88974750Y-152410442D01*
X88963653Y-152395692D01*
X88951942Y-152381550D01*
X88939635Y-152368026D01*
X88926750Y-152355127D01*
X88913306Y-152342859D01*
X88899319Y-152331231D01*
X88884809Y-152320249D01*
X88869794Y-152309922D01*
X88854290Y-152300257D01*
X88838318Y-152291261D01*
X88821894Y-152282942D01*
X88805036Y-152275307D01*
X88787764Y-152268364D01*
X88770094Y-152262120D01*
X88752045Y-152256583D01*
X88733636Y-152251759D01*
X88714883Y-152247658D01*
X88695806Y-152244285D01*
X88676422Y-152241649D01*
X88656749Y-152239756D01*
X88636806Y-152238616D01*
X88616610Y-152238234D01*
X88591128Y-152238848D01*
X88566103Y-152240681D01*
X88541557Y-152243718D01*
X88517512Y-152247945D01*
X88493994Y-152253346D01*
X88471023Y-152259906D01*
X88448625Y-152267611D01*
X88426821Y-152276445D01*
X88405635Y-152286395D01*
X88385091Y-152297445D01*
X88365210Y-152309580D01*
X88346017Y-152322786D01*
X88327535Y-152337047D01*
X88309786Y-152352349D01*
X88292794Y-152368677D01*
X88276582Y-152386016D01*
X88261174Y-152404351D01*
X88246592Y-152423668D01*
X88232859Y-152443951D01*
X88219999Y-152465186D01*
X88208034Y-152487358D01*
X88196989Y-152510452D01*
X88186885Y-152534454D01*
X88177747Y-152559347D01*
X88169597Y-152585119D01*
X88162459Y-152611753D01*
X88156356Y-152639234D01*
X88151310Y-152667549D01*
X88147345Y-152696682D01*
X88144484Y-152726619D01*
X88142751Y-152757344D01*
X88142168Y-152788842D01*
X88142751Y-152820292D01*
X88144484Y-152850964D01*
X88147345Y-152880846D01*
X88151310Y-152909922D01*
X88156356Y-152938178D01*
X88162459Y-152965600D01*
X88169597Y-152992172D01*
X88177747Y-153017881D01*
X88186885Y-153042711D01*
X88196989Y-153066648D01*
X88208034Y-153089678D01*
X88219999Y-153111786D01*
X88232859Y-153132958D01*
X88246592Y-153153178D01*
X88261174Y-153172433D01*
X88276582Y-153190707D01*
X88292794Y-153207987D01*
X88309786Y-153224258D01*
X88327535Y-153239504D01*
X88346017Y-153253712D01*
X88365210Y-153266867D01*
X88385091Y-153278955D01*
X88405635Y-153289960D01*
X88426821Y-153299869D01*
X88448625Y-153308667D01*
X88471023Y-153316338D01*
X88493994Y-153322870D01*
X88517512Y-153328246D01*
X88541557Y-153332454D01*
X88566103Y-153335477D01*
X88591128Y-153337301D01*
X88616610Y-153337913D01*
G37*
G36*
X89256721Y-153321500D02*
G01*
X89393155Y-153321500D01*
X89393155Y-152971438D01*
X89547541Y-152808846D01*
X89912733Y-153321500D01*
X90074300Y-153321500D01*
X89641404Y-152716522D01*
X90073531Y-152254647D01*
X89894781Y-152254647D01*
X89575495Y-152599066D01*
X89563301Y-152612243D01*
X89551236Y-152625429D01*
X89539293Y-152638632D01*
X89527462Y-152651863D01*
X89515734Y-152665131D01*
X89504102Y-152678443D01*
X89492556Y-152691809D01*
X89481087Y-152705238D01*
X89469688Y-152718740D01*
X89458350Y-152732322D01*
X89447063Y-152745995D01*
X89435819Y-152759767D01*
X89424610Y-152773647D01*
X89413427Y-152787644D01*
X89402261Y-152801768D01*
X89391104Y-152816027D01*
X89393155Y-152619839D01*
X89393155Y-152254647D01*
X89256721Y-152254647D01*
X89256721Y-153321500D01*
G37*
G36*
X91089862Y-153337913D02*
G01*
X91110263Y-153337523D01*
X91130390Y-153336362D01*
X91150225Y-153334437D01*
X91169752Y-153331757D01*
X91188953Y-153328331D01*
X91207811Y-153324169D01*
X91226308Y-153319279D01*
X91244428Y-153313670D01*
X91262153Y-153307351D01*
X91279466Y-153300330D01*
X91296350Y-153292618D01*
X91312787Y-153284222D01*
X91328760Y-153275152D01*
X91344252Y-153265417D01*
X91359247Y-153255025D01*
X91373725Y-153243986D01*
X91387671Y-153232308D01*
X91401067Y-153220000D01*
X91413896Y-153207072D01*
X91426141Y-153193531D01*
X91437784Y-153179388D01*
X91448808Y-153164651D01*
X91459196Y-153149328D01*
X91468930Y-153133430D01*
X91477994Y-153116964D01*
X91486370Y-153099940D01*
X91494042Y-153082366D01*
X91500991Y-153064252D01*
X91507200Y-153045606D01*
X91512653Y-153026438D01*
X91517331Y-153006756D01*
X91521219Y-152986569D01*
X91384785Y-152986569D01*
X91381696Y-153000054D01*
X91378066Y-153013145D01*
X91373910Y-153025842D01*
X91369241Y-153038140D01*
X91364074Y-153050039D01*
X91358425Y-153061536D01*
X91352307Y-153072628D01*
X91345736Y-153083313D01*
X91338725Y-153093589D01*
X91331290Y-153103454D01*
X91323445Y-153112905D01*
X91315204Y-153121940D01*
X91306583Y-153130557D01*
X91297595Y-153138753D01*
X91288256Y-153146526D01*
X91278580Y-153153874D01*
X91268582Y-153160795D01*
X91258276Y-153167285D01*
X91247677Y-153173344D01*
X91236800Y-153178968D01*
X91225658Y-153184156D01*
X91214268Y-153188904D01*
X91202642Y-153193211D01*
X91190797Y-153197075D01*
X91178746Y-153200492D01*
X91166504Y-153203462D01*
X91154086Y-153205981D01*
X91141506Y-153208047D01*
X91128779Y-153209658D01*
X91115919Y-153210811D01*
X91102942Y-153211505D01*
X91089862Y-153211737D01*
X91072027Y-153211302D01*
X91054455Y-153209999D01*
X91037167Y-153207834D01*
X91020182Y-153204810D01*
X91003519Y-153200931D01*
X90987199Y-153196203D01*
X90971242Y-153190628D01*
X90955668Y-153184212D01*
X90940495Y-153176958D01*
X90925745Y-153168872D01*
X90911437Y-153159956D01*
X90897591Y-153150216D01*
X90884227Y-153139656D01*
X90871364Y-153128280D01*
X90859023Y-153116091D01*
X90847223Y-153103096D01*
X90835985Y-153089297D01*
X90825327Y-153074700D01*
X90815271Y-153059308D01*
X90805835Y-153043125D01*
X90797040Y-153026157D01*
X90788906Y-153008406D01*
X90781452Y-152989878D01*
X90774699Y-152970577D01*
X90768665Y-152950507D01*
X90763372Y-152929672D01*
X90758838Y-152908076D01*
X90755084Y-152885725D01*
X90752130Y-152862621D01*
X90749995Y-152838770D01*
X90748700Y-152814176D01*
X90748264Y-152788842D01*
X90748698Y-152763460D01*
X90749987Y-152738816D01*
X90752112Y-152714913D01*
X90755053Y-152691758D01*
X90758791Y-152669353D01*
X90763306Y-152647704D01*
X90768579Y-152626816D01*
X90774590Y-152606691D01*
X90781321Y-152587336D01*
X90788751Y-152568754D01*
X90796861Y-152550950D01*
X90805632Y-152533929D01*
X90815045Y-152517694D01*
X90825079Y-152502251D01*
X90835715Y-152487603D01*
X90846935Y-152473755D01*
X90858718Y-152460713D01*
X90871045Y-152448479D01*
X90883896Y-152437059D01*
X90897253Y-152426457D01*
X90911095Y-152416678D01*
X90925404Y-152407725D01*
X90940160Y-152399604D01*
X90955343Y-152392319D01*
X90970934Y-152385874D01*
X90986914Y-152380274D01*
X91003262Y-152375524D01*
X91019961Y-152371627D01*
X91036989Y-152368588D01*
X91054329Y-152366412D01*
X91071959Y-152365103D01*
X91089862Y-152364666D01*
X91102875Y-152364896D01*
X91115793Y-152365583D01*
X91128601Y-152366727D01*
X91141285Y-152368324D01*
X91153829Y-152370374D01*
X91166218Y-152372875D01*
X91178438Y-152375824D01*
X91190472Y-152379220D01*
X91202307Y-152383060D01*
X91213927Y-152387344D01*
X91225317Y-152392068D01*
X91236462Y-152397232D01*
X91247347Y-152402833D01*
X91257957Y-152408869D01*
X91268277Y-152415339D01*
X91278292Y-152422240D01*
X91287987Y-152429571D01*
X91297347Y-152437330D01*
X91306357Y-152445515D01*
X91315001Y-152454125D01*
X91323266Y-152463156D01*
X91331135Y-152472608D01*
X91338594Y-152482478D01*
X91345627Y-152492765D01*
X91352221Y-152503467D01*
X91358359Y-152514581D01*
X91364027Y-152526107D01*
X91369209Y-152538042D01*
X91373891Y-152550383D01*
X91378058Y-152563131D01*
X91381694Y-152576281D01*
X91384785Y-152589833D01*
X91521219Y-152589833D01*
X91517257Y-152569398D01*
X91512501Y-152549497D01*
X91506967Y-152530138D01*
X91500675Y-152511330D01*
X91493642Y-152493078D01*
X91485887Y-152475392D01*
X91477427Y-152458277D01*
X91468281Y-152441743D01*
X91458467Y-152425795D01*
X91448002Y-152410442D01*
X91436905Y-152395692D01*
X91425194Y-152381550D01*
X91412887Y-152368026D01*
X91400002Y-152355127D01*
X91386558Y-152342859D01*
X91372571Y-152331231D01*
X91358061Y-152320249D01*
X91343045Y-152309922D01*
X91327542Y-152300257D01*
X91311570Y-152291261D01*
X91295145Y-152282942D01*
X91278288Y-152275307D01*
X91261016Y-152268364D01*
X91243346Y-152262120D01*
X91225297Y-152256583D01*
X91206888Y-152251759D01*
X91188135Y-152247658D01*
X91169058Y-152244285D01*
X91149674Y-152241649D01*
X91130001Y-152239756D01*
X91110057Y-152238616D01*
X91089862Y-152238234D01*
X91064380Y-152238848D01*
X91039355Y-152240681D01*
X91014809Y-152243718D01*
X90990764Y-152247945D01*
X90967246Y-152253346D01*
X90944275Y-152259906D01*
X90921877Y-152267611D01*
X90900073Y-152276445D01*
X90878887Y-152286395D01*
X90858342Y-152297445D01*
X90838462Y-152309580D01*
X90819269Y-152322786D01*
X90800787Y-152337047D01*
X90783038Y-152352349D01*
X90766046Y-152368677D01*
X90749834Y-152386016D01*
X90734426Y-152404351D01*
X90719844Y-152423668D01*
X90706111Y-152443951D01*
X90693251Y-152465186D01*
X90681286Y-152487358D01*
X90670241Y-152510452D01*
X90660137Y-152534454D01*
X90650999Y-152559347D01*
X90642849Y-152585119D01*
X90635711Y-152611753D01*
X90629607Y-152639234D01*
X90624562Y-152667549D01*
X90620597Y-152696682D01*
X90617736Y-152726619D01*
X90616003Y-152757344D01*
X90615420Y-152788842D01*
X90616003Y-152820292D01*
X90617736Y-152850964D01*
X90620597Y-152880846D01*
X90624562Y-152909922D01*
X90629607Y-152938178D01*
X90635711Y-152965600D01*
X90642849Y-152992172D01*
X90650999Y-153017881D01*
X90660137Y-153042711D01*
X90670241Y-153066648D01*
X90681286Y-153089678D01*
X90693251Y-153111786D01*
X90706111Y-153132958D01*
X90719844Y-153153178D01*
X90734426Y-153172433D01*
X90749834Y-153190707D01*
X90766046Y-153207987D01*
X90783038Y-153224258D01*
X90800787Y-153239504D01*
X90819269Y-153253712D01*
X90838462Y-153266867D01*
X90858342Y-153278955D01*
X90878887Y-153289960D01*
X90900073Y-153299869D01*
X90921877Y-153308667D01*
X90944275Y-153316338D01*
X90967246Y-153322870D01*
X90990764Y-153328246D01*
X91014809Y-153332454D01*
X91039355Y-153335477D01*
X91064380Y-153337301D01*
X91089862Y-153337913D01*
G37*
G36*
X92189118Y-152238848D02*
G01*
X92214137Y-152240681D01*
X92238673Y-152243718D01*
X92262703Y-152247945D01*
X92286204Y-152253346D01*
X92309154Y-152259906D01*
X92331529Y-152267611D01*
X92353307Y-152276445D01*
X92374465Y-152286395D01*
X92394979Y-152297445D01*
X92414828Y-152309580D01*
X92433988Y-152322786D01*
X92452436Y-152337047D01*
X92470149Y-152352349D01*
X92487106Y-152368677D01*
X92503281Y-152386016D01*
X92518654Y-152404351D01*
X92533200Y-152423668D01*
X92546898Y-152443951D01*
X92559724Y-152465186D01*
X92571655Y-152487358D01*
X92582669Y-152510452D01*
X92592742Y-152534454D01*
X92601852Y-152559347D01*
X92609976Y-152585119D01*
X92617091Y-152611753D01*
X92623174Y-152639234D01*
X92628202Y-152667549D01*
X92632153Y-152696682D01*
X92635003Y-152726619D01*
X92636730Y-152757344D01*
X92637311Y-152788842D01*
X92636730Y-152820292D01*
X92635003Y-152850964D01*
X92632153Y-152880846D01*
X92628202Y-152909922D01*
X92623174Y-152938178D01*
X92617091Y-152965600D01*
X92609976Y-152992172D01*
X92601852Y-153017881D01*
X92592742Y-153042711D01*
X92582669Y-153066648D01*
X92571655Y-153089678D01*
X92559724Y-153111786D01*
X92546898Y-153132958D01*
X92533200Y-153153178D01*
X92518654Y-153172433D01*
X92503281Y-153190707D01*
X92487106Y-153207987D01*
X92470149Y-153224258D01*
X92452436Y-153239504D01*
X92433988Y-153253712D01*
X92414828Y-153266867D01*
X92394979Y-153278955D01*
X92374465Y-153289960D01*
X92353307Y-153299869D01*
X92331529Y-153308667D01*
X92309154Y-153316338D01*
X92286204Y-153322870D01*
X92262703Y-153328246D01*
X92238673Y-153332454D01*
X92214137Y-153335477D01*
X92189118Y-153337301D01*
X92163639Y-153337913D01*
X92138155Y-153337301D01*
X92113123Y-153335477D01*
X92088567Y-153332454D01*
X92064508Y-153328246D01*
X92040972Y-153322870D01*
X92017981Y-153316338D01*
X91995559Y-153308667D01*
X91973730Y-153299869D01*
X91952516Y-153289960D01*
X91931941Y-153278955D01*
X91912029Y-153266867D01*
X91892803Y-153253712D01*
X91874286Y-153239504D01*
X91856502Y-153224258D01*
X91839475Y-153207987D01*
X91823227Y-153190707D01*
X91807782Y-153172433D01*
X91793164Y-153153178D01*
X91779396Y-153132958D01*
X91766502Y-153111786D01*
X91754504Y-153089678D01*
X91743427Y-153066648D01*
X91733293Y-153042711D01*
X91724127Y-153017881D01*
X91715951Y-152992172D01*
X91708790Y-152965600D01*
X91702666Y-152938178D01*
X91697602Y-152909922D01*
X91693624Y-152880846D01*
X91690753Y-152850964D01*
X91689013Y-152820292D01*
X91688428Y-152788842D01*
X91821271Y-152788842D01*
X91821708Y-152814108D01*
X91823003Y-152838644D01*
X91825138Y-152862444D01*
X91828093Y-152885504D01*
X91831849Y-152907820D01*
X91836384Y-152929386D01*
X91841681Y-152950199D01*
X91847718Y-152970252D01*
X91854477Y-152989543D01*
X91861937Y-153008065D01*
X91870079Y-153025815D01*
X91878884Y-153042787D01*
X91888330Y-153058977D01*
X91898399Y-153074380D01*
X91909072Y-153088992D01*
X91920327Y-153102808D01*
X91932146Y-153115822D01*
X91944509Y-153128031D01*
X91957395Y-153139430D01*
X91970787Y-153150013D01*
X91984662Y-153159777D01*
X91999003Y-153168717D01*
X92013789Y-153176827D01*
X92029000Y-153184104D01*
X92044617Y-153190542D01*
X92060620Y-153196137D01*
X92076989Y-153200884D01*
X92093705Y-153204778D01*
X92110747Y-153207816D01*
X92128097Y-153209991D01*
X92145734Y-153211300D01*
X92163639Y-153211737D01*
X92181404Y-153211302D01*
X92198910Y-153209999D01*
X92216137Y-153207834D01*
X92233065Y-153204810D01*
X92249674Y-153200931D01*
X92265944Y-153196203D01*
X92281856Y-153190628D01*
X92297388Y-153184212D01*
X92312521Y-153176958D01*
X92327236Y-153168872D01*
X92341511Y-153159956D01*
X92355328Y-153150216D01*
X92368665Y-153139656D01*
X92381504Y-153128280D01*
X92393823Y-153116091D01*
X92405604Y-153103096D01*
X92416826Y-153089297D01*
X92427468Y-153074700D01*
X92437512Y-153059308D01*
X92446936Y-153043125D01*
X92455722Y-153026157D01*
X92463848Y-153008406D01*
X92471296Y-152989878D01*
X92478045Y-152970577D01*
X92484074Y-152950507D01*
X92489364Y-152929672D01*
X92493896Y-152908076D01*
X92497648Y-152885725D01*
X92500602Y-152862621D01*
X92502736Y-152838770D01*
X92504031Y-152814176D01*
X92504467Y-152788842D01*
X92504031Y-152763415D01*
X92502736Y-152738731D01*
X92500602Y-152714795D01*
X92497648Y-152691610D01*
X92493896Y-152669182D01*
X92489364Y-152647514D01*
X92484074Y-152626610D01*
X92478045Y-152606475D01*
X92471296Y-152587112D01*
X92463848Y-152568527D01*
X92455722Y-152550722D01*
X92446936Y-152533703D01*
X92437512Y-152517474D01*
X92427468Y-152502038D01*
X92416826Y-152487399D01*
X92405604Y-152473563D01*
X92393823Y-152460533D01*
X92381504Y-152448313D01*
X92368665Y-152436908D01*
X92355328Y-152426322D01*
X92341511Y-152416558D01*
X92327236Y-152407622D01*
X92312521Y-152399517D01*
X92297388Y-152392247D01*
X92281856Y-152385817D01*
X92265944Y-152380230D01*
X92249674Y-152375492D01*
X92233065Y-152371606D01*
X92216137Y-152368576D01*
X92198910Y-152366406D01*
X92181404Y-152365102D01*
X92163639Y-152364666D01*
X92145734Y-152365103D01*
X92128097Y-152366412D01*
X92110747Y-152368588D01*
X92093705Y-152371627D01*
X92076989Y-152375524D01*
X92060620Y-152380274D01*
X92044617Y-152385874D01*
X92029000Y-152392319D01*
X92013789Y-152399604D01*
X91999003Y-152407725D01*
X91984662Y-152416678D01*
X91970787Y-152426457D01*
X91957395Y-152437059D01*
X91944509Y-152448479D01*
X91932146Y-152460713D01*
X91920327Y-152473755D01*
X91909072Y-152487603D01*
X91898399Y-152502251D01*
X91888330Y-152517694D01*
X91878884Y-152533929D01*
X91870079Y-152550950D01*
X91861937Y-152568754D01*
X91854477Y-152587336D01*
X91847718Y-152606691D01*
X91841681Y-152626816D01*
X91836384Y-152647704D01*
X91831849Y-152669353D01*
X91828093Y-152691758D01*
X91825138Y-152714913D01*
X91823003Y-152738816D01*
X91821708Y-152763460D01*
X91821271Y-152788842D01*
X91688428Y-152788842D01*
X91689013Y-152757344D01*
X91690753Y-152726619D01*
X91693624Y-152696682D01*
X91697602Y-152667549D01*
X91702666Y-152639234D01*
X91708790Y-152611753D01*
X91715951Y-152585119D01*
X91724127Y-152559347D01*
X91733293Y-152534454D01*
X91743427Y-152510452D01*
X91754504Y-152487358D01*
X91766502Y-152465186D01*
X91779396Y-152443951D01*
X91793164Y-152423668D01*
X91807782Y-152404351D01*
X91823227Y-152386016D01*
X91839475Y-152368677D01*
X91856502Y-152352349D01*
X91874286Y-152337047D01*
X91892803Y-152322786D01*
X91912029Y-152309580D01*
X91931941Y-152297445D01*
X91952516Y-152286395D01*
X91973730Y-152276445D01*
X91995559Y-152267611D01*
X92017981Y-152259906D01*
X92040972Y-152253346D01*
X92064508Y-152247945D01*
X92088567Y-152243718D01*
X92113123Y-152240681D01*
X92138155Y-152238848D01*
X92163639Y-152238234D01*
X92189118Y-152238848D01*
G37*
G36*
X92853246Y-153321500D02*
G01*
X92990450Y-153321500D01*
X92990450Y-152712932D01*
X92990391Y-152702627D01*
X92990218Y-152691066D01*
X92989939Y-152678287D01*
X92989560Y-152664326D01*
X92989088Y-152649219D01*
X92988529Y-152633005D01*
X92987891Y-152615719D01*
X92987180Y-152597399D01*
X92986403Y-152578081D01*
X92985566Y-152557802D01*
X92985127Y-152547313D01*
X92984677Y-152536598D01*
X92984215Y-152525662D01*
X92983742Y-152514508D01*
X92983259Y-152503141D01*
X92982768Y-152491567D01*
X92982268Y-152479789D01*
X92981761Y-152467812D01*
X92981248Y-152455641D01*
X92980729Y-152443280D01*
X92980206Y-152430735D01*
X92979678Y-152418009D01*
X92987369Y-152431683D01*
X92994820Y-152444923D01*
X93002039Y-152457744D01*
X93009037Y-152470161D01*
X93015823Y-152482188D01*
X93022405Y-152493840D01*
X93028793Y-152505134D01*
X93034997Y-152516083D01*
X93041025Y-152526702D01*
X93046887Y-152537007D01*
X93052592Y-152547012D01*
X93058149Y-152556733D01*
X93063568Y-152566185D01*
X93068858Y-152575381D01*
X93074028Y-152584339D01*
X93084045Y-152601594D01*
X93093693Y-152618071D01*
X93103046Y-152633889D01*
X93112179Y-152649169D01*
X93121165Y-152664029D01*
X93130078Y-152678590D01*
X93138993Y-152692972D01*
X93147983Y-152707294D01*
X93152529Y-152714471D01*
X93540289Y-153321500D01*
X93702369Y-153321500D01*
X93702369Y-152254647D01*
X93566191Y-152254647D01*
X93566191Y-152909120D01*
X93566199Y-152920277D01*
X93566230Y-152932184D01*
X93566296Y-152944811D01*
X93566407Y-152958127D01*
X93566576Y-152972101D01*
X93566813Y-152986703D01*
X93567130Y-153001901D01*
X93567537Y-153017664D01*
X93568047Y-153033963D01*
X93568670Y-153050766D01*
X93569418Y-153068042D01*
X93570302Y-153085761D01*
X93571334Y-153103892D01*
X93572523Y-153122403D01*
X93573883Y-153141265D01*
X93575423Y-153160446D01*
X93566289Y-153142500D01*
X93557179Y-153124940D01*
X93548123Y-153107797D01*
X93539151Y-153091103D01*
X93530293Y-153074887D01*
X93521580Y-153059183D01*
X93513041Y-153044020D01*
X93504706Y-153029429D01*
X93496606Y-153015443D01*
X93488770Y-153002092D01*
X93481228Y-152989408D01*
X93474012Y-152977421D01*
X93467149Y-152966163D01*
X93460672Y-152955665D01*
X93454609Y-152945958D01*
X93448991Y-152937073D01*
X93014043Y-152254647D01*
X92853246Y-152254647D01*
X92853246Y-153321500D01*
G37*
G36*
X94261697Y-153321500D02*
G01*
X94418904Y-153321500D01*
X94807946Y-152254647D01*
X94662793Y-152254647D01*
X94442498Y-152887834D01*
X94438089Y-152900569D01*
X94433421Y-152914173D01*
X94428494Y-152928672D01*
X94423308Y-152944094D01*
X94417861Y-152960465D01*
X94412154Y-152977814D01*
X94406187Y-152996166D01*
X94399958Y-153015549D01*
X94396746Y-153025635D01*
X94393468Y-153035989D01*
X94390125Y-153046615D01*
X94386716Y-153057515D01*
X94383242Y-153068693D01*
X94379702Y-153080153D01*
X94376097Y-153091897D01*
X94372425Y-153103929D01*
X94368688Y-153116253D01*
X94364886Y-153128872D01*
X94361017Y-153141789D01*
X94357083Y-153155008D01*
X94353082Y-153168532D01*
X94349016Y-153182364D01*
X94344884Y-153196508D01*
X94340685Y-153210967D01*
X94336532Y-153196824D01*
X94332439Y-153182956D01*
X94328406Y-153169361D01*
X94324433Y-153156038D01*
X94320520Y-153142987D01*
X94316668Y-153130204D01*
X94312876Y-153117689D01*
X94309145Y-153105440D01*
X94305474Y-153093456D01*
X94301864Y-153081736D01*
X94298314Y-153070277D01*
X94294825Y-153059079D01*
X94291397Y-153048140D01*
X94288029Y-153037459D01*
X94284722Y-153027034D01*
X94281476Y-153016863D01*
X94278291Y-153006946D01*
X94272103Y-152987864D01*
X94266159Y-152969779D01*
X94260460Y-152952676D01*
X94255005Y-152936546D01*
X94249796Y-152921377D01*
X94244832Y-152907156D01*
X94240113Y-152893872D01*
X94237847Y-152887578D01*
X94011910Y-152254647D01*
X93868295Y-152254647D01*
X94261697Y-153321500D01*
G37*
G36*
X94973616Y-153321500D02*
G01*
X95631936Y-153321500D01*
X95631936Y-153200966D01*
X95110050Y-153200966D01*
X95110050Y-152845519D01*
X95590134Y-152845519D01*
X95590134Y-152724985D01*
X95110050Y-152724985D01*
X95110050Y-152375437D01*
X95625525Y-152375437D01*
X95625525Y-152254647D01*
X94973616Y-152254647D01*
X94973616Y-153321500D01*
G37*
G36*
X96246087Y-152255053D02*
G01*
X96268321Y-152256260D01*
X96289771Y-152258253D01*
X96310440Y-152261016D01*
X96330332Y-152264532D01*
X96349451Y-152268786D01*
X96367801Y-152273762D01*
X96385385Y-152279443D01*
X96402207Y-152285814D01*
X96418271Y-152292858D01*
X96433581Y-152300561D01*
X96448140Y-152308905D01*
X96461952Y-152317875D01*
X96475022Y-152327455D01*
X96487352Y-152337629D01*
X96498946Y-152348381D01*
X96509809Y-152359695D01*
X96519943Y-152371555D01*
X96529354Y-152383945D01*
X96538044Y-152396849D01*
X96546017Y-152410251D01*
X96553277Y-152424136D01*
X96559827Y-152438486D01*
X96565673Y-152453287D01*
X96570816Y-152468522D01*
X96575262Y-152484176D01*
X96579013Y-152500231D01*
X96582074Y-152516674D01*
X96584448Y-152533486D01*
X96586139Y-152550653D01*
X96587151Y-152568159D01*
X96587487Y-152585987D01*
X96587302Y-152599281D01*
X96586746Y-152612378D01*
X96585817Y-152625272D01*
X96584513Y-152637957D01*
X96582833Y-152650428D01*
X96580776Y-152662679D01*
X96578339Y-152674705D01*
X96575522Y-152686501D01*
X96572322Y-152698061D01*
X96568738Y-152709379D01*
X96564769Y-152720451D01*
X96560412Y-152731270D01*
X96555667Y-152741832D01*
X96550531Y-152752131D01*
X96545003Y-152762161D01*
X96539081Y-152771916D01*
X96532765Y-152781393D01*
X96526051Y-152790584D01*
X96518939Y-152799485D01*
X96511427Y-152808091D01*
X96503514Y-152816395D01*
X96495197Y-152824392D01*
X96486476Y-152832077D01*
X96477348Y-152839444D01*
X96467812Y-152846489D01*
X96457867Y-152853204D01*
X96447510Y-152859586D01*
X96436741Y-152865629D01*
X96425557Y-152871326D01*
X96413958Y-152876674D01*
X96401940Y-152881665D01*
X96389504Y-152886295D01*
X96629289Y-153321500D01*
X96471313Y-153321500D01*
X96248710Y-152910659D01*
X96244776Y-152910863D01*
X96233910Y-152911137D01*
X96223578Y-152911172D01*
X95993281Y-152911172D01*
X95993281Y-153321500D01*
X95856847Y-153321500D01*
X95856847Y-152374668D01*
X95993281Y-152374668D01*
X95993281Y-152789868D01*
X96217166Y-152789868D01*
X96232687Y-152789642D01*
X96247613Y-152788965D01*
X96261952Y-152787844D01*
X96275709Y-152786283D01*
X96288892Y-152784288D01*
X96301508Y-152781865D01*
X96313562Y-152779019D01*
X96325062Y-152775755D01*
X96336014Y-152772079D01*
X96346425Y-152767995D01*
X96356302Y-152763510D01*
X96365651Y-152758628D01*
X96382792Y-152747696D01*
X96397903Y-152735243D01*
X96411036Y-152721312D01*
X96422245Y-152705944D01*
X96431583Y-152689184D01*
X96439104Y-152671074D01*
X96444861Y-152651656D01*
X96447094Y-152641470D01*
X96448906Y-152630973D01*
X96450304Y-152620171D01*
X96451295Y-152609069D01*
X96451884Y-152597673D01*
X96452079Y-152585987D01*
X96451884Y-152574144D01*
X96451294Y-152562567D01*
X96450303Y-152551262D01*
X96448904Y-152540238D01*
X96447089Y-152529502D01*
X96444852Y-152519060D01*
X96442186Y-152508920D01*
X96439084Y-152499088D01*
X96431544Y-152480382D01*
X96422178Y-152462999D01*
X96410929Y-152446997D01*
X96397743Y-152432434D01*
X96382564Y-152419368D01*
X96374210Y-152413414D01*
X96365338Y-152407856D01*
X96355939Y-152402701D01*
X96346008Y-152397956D01*
X96335538Y-152393629D01*
X96324521Y-152389726D01*
X96312950Y-152386256D01*
X96300820Y-152383225D01*
X96288122Y-152380640D01*
X96274850Y-152378509D01*
X96260997Y-152376840D01*
X96246557Y-152375638D01*
X96231521Y-152374911D01*
X96215884Y-152374668D01*
X95993281Y-152374668D01*
X95856847Y-152374668D01*
X95856847Y-152254647D01*
X96223065Y-152254647D01*
X96246087Y-152255053D01*
G37*
G36*
X96743925Y-152375437D02*
G01*
X97080394Y-152375437D01*
X97080394Y-153321500D01*
X97216828Y-153321500D01*
X97216828Y-152375437D01*
X97552015Y-152375437D01*
X97552015Y-152254647D01*
X96743925Y-152254647D01*
X96743925Y-152375437D01*
G37*
G36*
X97751536Y-153321500D02*
G01*
X98409856Y-153321500D01*
X98409856Y-153200966D01*
X97887971Y-153200966D01*
X97887971Y-152845519D01*
X98368054Y-152845519D01*
X98368054Y-152724985D01*
X97887971Y-152724985D01*
X97887971Y-152375437D01*
X98403445Y-152375437D01*
X98403445Y-152254647D01*
X97751536Y-152254647D01*
X97751536Y-153321500D01*
G37*
G36*
X99024007Y-152255053D02*
G01*
X99046241Y-152256260D01*
X99067691Y-152258253D01*
X99088360Y-152261016D01*
X99108252Y-152264532D01*
X99127371Y-152268786D01*
X99145721Y-152273762D01*
X99163305Y-152279443D01*
X99180127Y-152285814D01*
X99196192Y-152292858D01*
X99211501Y-152300561D01*
X99226061Y-152308905D01*
X99239873Y-152317875D01*
X99252942Y-152327455D01*
X99265272Y-152337629D01*
X99276867Y-152348381D01*
X99287729Y-152359695D01*
X99297864Y-152371555D01*
X99307274Y-152383945D01*
X99315964Y-152396849D01*
X99323937Y-152410251D01*
X99331197Y-152424136D01*
X99337748Y-152438486D01*
X99343593Y-152453287D01*
X99348737Y-152468522D01*
X99353182Y-152484176D01*
X99356933Y-152500231D01*
X99359994Y-152516674D01*
X99362368Y-152533486D01*
X99364059Y-152550653D01*
X99365071Y-152568159D01*
X99365408Y-152585987D01*
X99365223Y-152599281D01*
X99364666Y-152612378D01*
X99363737Y-152625272D01*
X99362433Y-152637957D01*
X99360754Y-152650428D01*
X99358696Y-152662679D01*
X99356260Y-152674705D01*
X99353443Y-152686501D01*
X99350243Y-152698061D01*
X99346659Y-152709379D01*
X99342689Y-152720451D01*
X99338333Y-152731270D01*
X99333587Y-152741832D01*
X99328451Y-152752131D01*
X99322923Y-152762161D01*
X99317002Y-152771916D01*
X99310685Y-152781393D01*
X99303972Y-152790584D01*
X99296860Y-152799485D01*
X99289348Y-152808091D01*
X99281434Y-152816395D01*
X99273118Y-152824392D01*
X99264396Y-152832077D01*
X99255268Y-152839444D01*
X99245733Y-152846489D01*
X99235787Y-152853204D01*
X99225431Y-152859586D01*
X99214661Y-152865629D01*
X99203478Y-152871326D01*
X99191878Y-152876674D01*
X99179861Y-152881665D01*
X99167424Y-152886295D01*
X99407210Y-153321500D01*
X99249234Y-153321500D01*
X99026631Y-152910659D01*
X99022696Y-152910863D01*
X99011830Y-152911137D01*
X99001498Y-152911172D01*
X98771202Y-152911172D01*
X98771202Y-153321500D01*
X98634767Y-153321500D01*
X98634767Y-152374668D01*
X98771202Y-152374668D01*
X98771202Y-152789868D01*
X98995087Y-152789868D01*
X99010607Y-152789642D01*
X99025534Y-152788965D01*
X99039872Y-152787844D01*
X99053630Y-152786283D01*
X99066813Y-152784288D01*
X99079428Y-152781865D01*
X99091482Y-152779019D01*
X99102982Y-152775755D01*
X99113934Y-152772079D01*
X99124345Y-152767995D01*
X99134222Y-152763510D01*
X99143571Y-152758628D01*
X99160713Y-152747696D01*
X99175823Y-152735243D01*
X99188957Y-152721312D01*
X99200166Y-152705944D01*
X99209504Y-152689184D01*
X99217024Y-152671074D01*
X99222781Y-152651656D01*
X99225014Y-152641470D01*
X99226827Y-152630973D01*
X99228225Y-152620171D01*
X99229215Y-152609069D01*
X99229805Y-152597673D01*
X99230000Y-152585987D01*
X99229805Y-152574144D01*
X99229215Y-152562567D01*
X99228224Y-152551262D01*
X99226824Y-152540238D01*
X99225010Y-152529502D01*
X99222773Y-152519060D01*
X99220107Y-152508920D01*
X99217004Y-152499088D01*
X99209465Y-152480382D01*
X99200098Y-152462999D01*
X99188849Y-152446997D01*
X99175663Y-152432434D01*
X99160484Y-152419368D01*
X99152131Y-152413414D01*
X99143258Y-152407856D01*
X99133860Y-152402701D01*
X99123929Y-152397956D01*
X99113458Y-152393629D01*
X99102441Y-152389726D01*
X99090871Y-152386256D01*
X99078740Y-152383225D01*
X99066042Y-152380640D01*
X99052771Y-152378509D01*
X99038918Y-152376840D01*
X99024477Y-152375638D01*
X99009442Y-152374911D01*
X98993804Y-152374668D01*
X98771202Y-152374668D01*
X98634767Y-152374668D01*
X98634767Y-152254647D01*
X99000985Y-152254647D01*
X99024007Y-152255053D01*
G37*
D11*
X128238095Y-148804819D02*
X128238095Y-147804819D01*
X128238095Y-148281009D02*
X128809523Y-148281009D01*
X128809523Y-148804819D02*
X128809523Y-147804819D01*
X129714285Y-148138152D02*
X129714285Y-148804819D01*
X129476190Y-147757200D02*
X129238095Y-148471485D01*
X129238095Y-148471485D02*
X129857142Y-148471485D01*
X123333333Y-150859580D02*
X123285714Y-150907200D01*
X123285714Y-150907200D02*
X123142857Y-150954819D01*
X123142857Y-150954819D02*
X123047619Y-150954819D01*
X123047619Y-150954819D02*
X122904762Y-150907200D01*
X122904762Y-150907200D02*
X122809524Y-150811961D01*
X122809524Y-150811961D02*
X122761905Y-150716723D01*
X122761905Y-150716723D02*
X122714286Y-150526247D01*
X122714286Y-150526247D02*
X122714286Y-150383390D01*
X122714286Y-150383390D02*
X122761905Y-150192914D01*
X122761905Y-150192914D02*
X122809524Y-150097676D01*
X122809524Y-150097676D02*
X122904762Y-150002438D01*
X122904762Y-150002438D02*
X123047619Y-149954819D01*
X123047619Y-149954819D02*
X123142857Y-149954819D01*
X123142857Y-149954819D02*
X123285714Y-150002438D01*
X123285714Y-150002438D02*
X123333333Y-150050057D01*
X123714286Y-150050057D02*
X123761905Y-150002438D01*
X123761905Y-150002438D02*
X123857143Y-149954819D01*
X123857143Y-149954819D02*
X124095238Y-149954819D01*
X124095238Y-149954819D02*
X124190476Y-150002438D01*
X124190476Y-150002438D02*
X124238095Y-150050057D01*
X124238095Y-150050057D02*
X124285714Y-150145295D01*
X124285714Y-150145295D02*
X124285714Y-150240533D01*
X124285714Y-150240533D02*
X124238095Y-150383390D01*
X124238095Y-150383390D02*
X123666667Y-150954819D01*
X123666667Y-150954819D02*
X124285714Y-150954819D01*
X81238095Y-125454819D02*
X81238095Y-124454819D01*
X81238095Y-124931009D02*
X81809523Y-124931009D01*
X81809523Y-125454819D02*
X81809523Y-124454819D01*
X82809523Y-125454819D02*
X82238095Y-125454819D01*
X82523809Y-125454819D02*
X82523809Y-124454819D01*
X82523809Y-124454819D02*
X82428571Y-124597676D01*
X82428571Y-124597676D02*
X82333333Y-124692914D01*
X82333333Y-124692914D02*
X82238095Y-124740533D01*
X96963095Y-148904819D02*
X96963095Y-149714342D01*
X96963095Y-149714342D02*
X97010714Y-149809580D01*
X97010714Y-149809580D02*
X97058333Y-149857200D01*
X97058333Y-149857200D02*
X97153571Y-149904819D01*
X97153571Y-149904819D02*
X97344047Y-149904819D01*
X97344047Y-149904819D02*
X97439285Y-149857200D01*
X97439285Y-149857200D02*
X97486904Y-149809580D01*
X97486904Y-149809580D02*
X97534523Y-149714342D01*
X97534523Y-149714342D02*
X97534523Y-148904819D01*
X98534523Y-149904819D02*
X97963095Y-149904819D01*
X98248809Y-149904819D02*
X98248809Y-148904819D01*
X98248809Y-148904819D02*
X98153571Y-149047676D01*
X98153571Y-149047676D02*
X98058333Y-149142914D01*
X98058333Y-149142914D02*
X97963095Y-149190533D01*
X90602319Y-134828333D02*
X91316604Y-134828333D01*
X91316604Y-134828333D02*
X91459461Y-134875952D01*
X91459461Y-134875952D02*
X91554700Y-134971190D01*
X91554700Y-134971190D02*
X91602319Y-135114047D01*
X91602319Y-135114047D02*
X91602319Y-135209285D01*
X91602319Y-133828333D02*
X91602319Y-134399761D01*
X91602319Y-134114047D02*
X90602319Y-134114047D01*
X90602319Y-134114047D02*
X90745176Y-134209285D01*
X90745176Y-134209285D02*
X90840414Y-134304523D01*
X90840414Y-134304523D02*
X90888033Y-134399761D01*
X116109580Y-128666666D02*
X116157200Y-128714285D01*
X116157200Y-128714285D02*
X116204819Y-128857142D01*
X116204819Y-128857142D02*
X116204819Y-128952380D01*
X116204819Y-128952380D02*
X116157200Y-129095237D01*
X116157200Y-129095237D02*
X116061961Y-129190475D01*
X116061961Y-129190475D02*
X115966723Y-129238094D01*
X115966723Y-129238094D02*
X115776247Y-129285713D01*
X115776247Y-129285713D02*
X115633390Y-129285713D01*
X115633390Y-129285713D02*
X115442914Y-129238094D01*
X115442914Y-129238094D02*
X115347676Y-129190475D01*
X115347676Y-129190475D02*
X115252438Y-129095237D01*
X115252438Y-129095237D02*
X115204819Y-128952380D01*
X115204819Y-128952380D02*
X115204819Y-128857142D01*
X115204819Y-128857142D02*
X115252438Y-128714285D01*
X115252438Y-128714285D02*
X115300057Y-128666666D01*
X116204819Y-127714285D02*
X116204819Y-128285713D01*
X116204819Y-127999999D02*
X115204819Y-127999999D01*
X115204819Y-127999999D02*
X115347676Y-128095237D01*
X115347676Y-128095237D02*
X115442914Y-128190475D01*
X115442914Y-128190475D02*
X115490533Y-128285713D01*
X119634819Y-134838333D02*
X120349104Y-134838333D01*
X120349104Y-134838333D02*
X120491961Y-134885952D01*
X120491961Y-134885952D02*
X120587200Y-134981190D01*
X120587200Y-134981190D02*
X120634819Y-135124047D01*
X120634819Y-135124047D02*
X120634819Y-135219285D01*
X119730057Y-134409761D02*
X119682438Y-134362142D01*
X119682438Y-134362142D02*
X119634819Y-134266904D01*
X119634819Y-134266904D02*
X119634819Y-134028809D01*
X119634819Y-134028809D02*
X119682438Y-133933571D01*
X119682438Y-133933571D02*
X119730057Y-133885952D01*
X119730057Y-133885952D02*
X119825295Y-133838333D01*
X119825295Y-133838333D02*
X119920533Y-133838333D01*
X119920533Y-133838333D02*
X120063390Y-133885952D01*
X120063390Y-133885952D02*
X120634819Y-134457380D01*
X120634819Y-134457380D02*
X120634819Y-133838333D01*
X96761905Y-123454819D02*
X96761905Y-122454819D01*
X96761905Y-122454819D02*
X97000000Y-122454819D01*
X97000000Y-122454819D02*
X97142857Y-122502438D01*
X97142857Y-122502438D02*
X97238095Y-122597676D01*
X97238095Y-122597676D02*
X97285714Y-122692914D01*
X97285714Y-122692914D02*
X97333333Y-122883390D01*
X97333333Y-122883390D02*
X97333333Y-123026247D01*
X97333333Y-123026247D02*
X97285714Y-123216723D01*
X97285714Y-123216723D02*
X97238095Y-123311961D01*
X97238095Y-123311961D02*
X97142857Y-123407200D01*
X97142857Y-123407200D02*
X97000000Y-123454819D01*
X97000000Y-123454819D02*
X96761905Y-123454819D01*
X98285714Y-123454819D02*
X97714286Y-123454819D01*
X98000000Y-123454819D02*
X98000000Y-122454819D01*
X98000000Y-122454819D02*
X97904762Y-122597676D01*
X97904762Y-122597676D02*
X97809524Y-122692914D01*
X97809524Y-122692914D02*
X97714286Y-122740533D01*
X101048095Y-127754819D02*
X101048095Y-126754819D01*
X101619523Y-127754819D02*
X101190952Y-127183390D01*
X101619523Y-126754819D02*
X101048095Y-127326247D01*
X81238095Y-148804819D02*
X81238095Y-147804819D01*
X81238095Y-148281009D02*
X81809523Y-148281009D01*
X81809523Y-148804819D02*
X81809523Y-147804819D01*
X82190476Y-147804819D02*
X82809523Y-147804819D01*
X82809523Y-147804819D02*
X82476190Y-148185771D01*
X82476190Y-148185771D02*
X82619047Y-148185771D01*
X82619047Y-148185771D02*
X82714285Y-148233390D01*
X82714285Y-148233390D02*
X82761904Y-148281009D01*
X82761904Y-148281009D02*
X82809523Y-148376247D01*
X82809523Y-148376247D02*
X82809523Y-148614342D01*
X82809523Y-148614342D02*
X82761904Y-148709580D01*
X82761904Y-148709580D02*
X82714285Y-148757200D01*
X82714285Y-148757200D02*
X82619047Y-148804819D01*
X82619047Y-148804819D02*
X82333333Y-148804819D01*
X82333333Y-148804819D02*
X82238095Y-148757200D01*
X82238095Y-148757200D02*
X82190476Y-148709580D01*
X111333333Y-137504819D02*
X110857143Y-137504819D01*
X110857143Y-137504819D02*
X110857143Y-136504819D01*
X112190476Y-137504819D02*
X111619048Y-137504819D01*
X111904762Y-137504819D02*
X111904762Y-136504819D01*
X111904762Y-136504819D02*
X111809524Y-136647676D01*
X111809524Y-136647676D02*
X111714286Y-136742914D01*
X111714286Y-136742914D02*
X111619048Y-136790533D01*
X128238095Y-125288093D02*
X128238095Y-124288093D01*
X128238095Y-124764283D02*
X128809523Y-124764283D01*
X128809523Y-125288093D02*
X128809523Y-124288093D01*
X129238095Y-124383331D02*
X129285714Y-124335712D01*
X129285714Y-124335712D02*
X129380952Y-124288093D01*
X129380952Y-124288093D02*
X129619047Y-124288093D01*
X129619047Y-124288093D02*
X129714285Y-124335712D01*
X129714285Y-124335712D02*
X129761904Y-124383331D01*
X129761904Y-124383331D02*
X129809523Y-124478569D01*
X129809523Y-124478569D02*
X129809523Y-124573807D01*
X129809523Y-124573807D02*
X129761904Y-124716664D01*
X129761904Y-124716664D02*
X129190476Y-125288093D01*
X129190476Y-125288093D02*
X129809523Y-125288093D01*
D12*
%TO.C,C2*%
X127620000Y-145000000D02*
G75*
G03*
X119380000Y-145000000I-4120000J0D01*
G01*
X119380000Y-145000000D02*
G75*
G03*
X127620000Y-145000000I4120000J0D01*
G01*
%TO.C,U1*%
X92300000Y-137050000D02*
X93250000Y-137050000D01*
X92300000Y-138415000D02*
X92300000Y-137050000D01*
X102700000Y-137050000D02*
X101750000Y-137050000D01*
X102700000Y-138415000D02*
X102700000Y-137050000D01*
X102180000Y-134565000D02*
X101710000Y-134225000D01*
X102180000Y-133885000D01*
X102180000Y-134565000D01*
G36*
X102180000Y-134565000D02*
G01*
X101710000Y-134225000D01*
X102180000Y-133885000D01*
X102180000Y-134565000D01*
G37*
%TO.C,J1*%
X80107500Y-129295000D02*
X90147500Y-129295000D01*
X80107500Y-131655000D02*
X80107500Y-129295000D01*
X80107500Y-139695000D02*
X80107500Y-132255000D01*
X80727500Y-129295000D02*
X80727500Y-139695000D01*
X82227500Y-129295000D02*
X82227500Y-139695000D01*
X87127500Y-129295000D02*
X87127500Y-139695000D01*
X90147500Y-129295000D02*
X90147500Y-139695000D01*
X90147500Y-139695000D02*
X80107500Y-139695000D01*
X80107500Y-131955000D02*
X79497500Y-132395000D01*
X79497500Y-131515000D01*
X80107500Y-131955000D01*
G36*
X80107500Y-131955000D02*
G01*
X79497500Y-132395000D01*
X79497500Y-131515000D01*
X80107500Y-131955000D01*
G37*
%TO.C,C1*%
X114620000Y-128500000D02*
G75*
G03*
X106380000Y-128500000I-4120000J0D01*
G01*
X106380000Y-128500000D02*
G75*
G03*
X114620000Y-128500000I4120000J0D01*
G01*
%TO.C,J2*%
X121180000Y-129305000D02*
X131220000Y-129305000D01*
X121180000Y-139705000D02*
X121180000Y-129305000D01*
X124200000Y-139705000D02*
X124200000Y-129305000D01*
X129100000Y-139705000D02*
X129100000Y-129305000D01*
X130600000Y-139705000D02*
X130600000Y-129305000D01*
X131220000Y-129305000D02*
X131220000Y-136745000D01*
X131220000Y-137345000D02*
X131220000Y-139705000D01*
X131220000Y-139705000D02*
X121180000Y-139705000D01*
X131830000Y-137485000D02*
X131220000Y-137045000D01*
X131830000Y-136605000D01*
X131830000Y-137485000D01*
G36*
X131830000Y-137485000D02*
G01*
X131220000Y-137045000D01*
X131830000Y-136605000D01*
X131830000Y-137485000D01*
G37*
%TO.C,D1*%
X94730000Y-125500000D02*
X95380000Y-125500000D01*
X98780000Y-126620000D02*
X98780000Y-124380000D01*
X98900000Y-126620000D02*
X98900000Y-124380000D01*
X99020000Y-126620000D02*
X99020000Y-124380000D01*
X100270000Y-125500000D02*
X99620000Y-125500000D01*
X99620000Y-126620000D02*
X95380000Y-126620000D01*
X95380000Y-126620000D02*
X95380000Y-124380000D01*
X95380000Y-124380000D02*
X99620000Y-124380000D01*
X99620000Y-124380000D02*
X99620000Y-126620000D01*
%TO.C,L1*%
X105390000Y-137890000D02*
X106953000Y-137890000D01*
X105390000Y-140990000D02*
X105390000Y-137890000D01*
X105390000Y-150110000D02*
X105390000Y-147010000D01*
X107547000Y-137890000D02*
X117610000Y-137890000D01*
X117610000Y-137890000D02*
X117610000Y-140990000D01*
X117610000Y-147010000D02*
X117610000Y-150110000D01*
X117610000Y-150110000D02*
X105390000Y-150110000D01*
X107250000Y-137890000D02*
X107010000Y-137560000D01*
X107490000Y-137560000D01*
X107250000Y-137890000D01*
G36*
X107250000Y-137890000D02*
G01*
X107010000Y-137560000D01*
X107490000Y-137560000D01*
X107250000Y-137890000D01*
G37*
%TD*%
M02*
