%TF.GenerationSoftware,KiCad,Pcbnew,7.0.11+dfsg-1build4*%
%TF.CreationDate,2026-10-03T06:47:29+00:00*%
%TF.ProjectId,t,742e6b69-6361-4645-9f70-636258585858,rev?*%
%TF.SameCoordinates,Original*%
%TF.FileFunction,Copper,L2,Bot*%
%TF.FilePolarity,Positive*%
%FSLAX46Y46*%
G04 Gerber Fmt 4.6, Leading zero omitted, Abs format (unit mm)*
G04 Created by KiCad (PCBNEW 7.0.11+dfsg-1build4) date 2026-10-03 06:47:29*
%MOMM*%
%LPD*%
G01*
G04 APERTURE LIST*
G04 Aperture macros list*
%AMRoundRect*
0 Rectangle with rounded corners*
0 $1 Rounding radius*
0 $2 $3 $4 $5 $6 $7 $8 $9 X,Y pos of 4 corners*
0 Add a 4 corners polygon primitive as box body*
4,1,4,$2,$3,$4,$5,$6,$7,$8,$9,$2,$3,0*
0 Add four circle primitives for the rounded corners*
1,1,$1+$1,$2,$3*
1,1,$1+$1,$4,$5*
1,1,$1+$1,$6,$7*
1,1,$1+$1,$8,$9*
0 Add four rect primitives between the rounded corners*
20,1,$1+$1,$2,$3,$4,$5,0*
20,1,$1+$1,$4,$5,$6,$7,0*
20,1,$1+$1,$6,$7,$8,$9,0*
20,1,$1+$1,$8,$9,$2,$3,0*%
G04 Aperture macros list end*
%TA.AperFunction,ComponentPad*%
%ADD10C,0.700000*%
%TD*%
%TA.AperFunction,ComponentPad*%
%ADD11C,4.400000*%
%TD*%
%TA.AperFunction,ComponentPad*%
%ADD12C,1.600000*%
%TD*%
%TA.AperFunction,ComponentPad*%
%ADD13RoundRect,0.250000X-1.050000X1.050000X-1.050000X-1.050000X1.050000X-1.050000X1.050000X1.050000X0*%
%TD*%
%TA.AperFunction,ComponentPad*%
%ADD14C,2.600000*%
%TD*%
%TA.AperFunction,ComponentPad*%
%ADD15RoundRect,0.250000X1.050000X-1.050000X1.050000X1.050000X-1.050000X1.050000X-1.050000X-1.050000X0*%
%TD*%
%TA.AperFunction,ComponentPad*%
%ADD16RoundRect,0.250000X0.550000X0.550000X-0.550000X0.550000X-0.550000X-0.550000X0.550000X-0.550000X0*%
%TD*%
%TA.AperFunction,Conductor*%
%ADD17C,1.500000*%
%TD*%
G04 APERTURE END LIST*
D10*
%TO.P,H4,1,1_1*%
%TO.N,unconnected-(H4-Pad1)_3*%
X127350000Y-151500000D03*
%TO.N,unconnected-(H4-Pad1)_8*%
X127833274Y-150333274D03*
%TO.N,unconnected-(H4-Pad1)_5*%
X127833274Y-152666726D03*
%TO.N,unconnected-(H4-Pad1)_6*%
X129000000Y-149850000D03*
D11*
%TO.N,unconnected-(H4-Pad1)_4*%
X129000000Y-151500000D03*
D10*
%TO.N,unconnected-(H4-Pad1)_2*%
X129000000Y-153150000D03*
%TO.N,unconnected-(H4-Pad1)_7*%
X130166726Y-150333274D03*
%TO.N,unconnected-(H4-Pad1)*%
X130166726Y-152666726D03*
%TO.N,unconnected-(H4-Pad1)_1*%
X130650000Y-151500000D03*
%TD*%
D12*
%TO.P,C2,1*%
%TO.N,+5V*%
X121750000Y-145000000D03*
%TO.P,C2,2*%
%TO.N,GND*%
X125250000Y-145000000D03*
%TD*%
D10*
%TO.P,H1,1,1_1*%
%TO.N,unconnected-(H1-Pad1)_7*%
X80350000Y-121500000D03*
%TO.N,unconnected-(H1-Pad1)_4*%
X80833274Y-120333274D03*
%TO.N,unconnected-(H1-Pad1)_5*%
X80833274Y-122666726D03*
%TO.N,unconnected-(H1-Pad1)_1*%
X82000000Y-119850000D03*
D11*
%TO.N,unconnected-(H1-Pad1)_8*%
X82000000Y-121500000D03*
D10*
%TO.N,unconnected-(H1-Pad1)*%
X82000000Y-123150000D03*
%TO.N,unconnected-(H1-Pad1)_3*%
X83166726Y-120333274D03*
%TO.N,unconnected-(H1-Pad1)_6*%
X83166726Y-122666726D03*
%TO.N,unconnected-(H1-Pad1)_2*%
X83650000Y-121500000D03*
%TD*%
D13*
%TO.P,J1,1,Pin_1_1*%
%TO.N,GND*%
X84827500Y-131955000D03*
D14*
%TO.P,J1,2,Pin_2_2*%
%TO.N,VCC*%
X84827500Y-137035000D03*
%TD*%
D12*
%TO.P,C1,1*%
%TO.N,VCC*%
X110500000Y-126750000D03*
%TO.P,C1,2*%
%TO.N,GND*%
X110500000Y-130250000D03*
%TD*%
D15*
%TO.P,J2,1,Pin_1_1*%
%TO.N,GND*%
X126500000Y-137045000D03*
D14*
%TO.P,J2,2,Pin_2_2*%
%TO.N,+5V*%
X126500000Y-131965000D03*
%TD*%
D16*
%TO.P,D1,1,K_1*%
%TO.N,Net-(D1-K)*%
X101310000Y-125500000D03*
D12*
%TO.P,D1,2,A_2*%
%TO.N,GND*%
X93690000Y-125500000D03*
%TD*%
D10*
%TO.P,H3,1,1_1*%
%TO.N,unconnected-(H3-Pad1)_5*%
X80350000Y-151500000D03*
%TO.N,unconnected-(H3-Pad1)_8*%
X80833274Y-150333274D03*
%TO.N,unconnected-(H3-Pad1)_1*%
X80833274Y-152666726D03*
%TO.N,unconnected-(H3-Pad1)_6*%
X82000000Y-149850000D03*
D11*
%TO.N,unconnected-(H3-Pad1)_3*%
X82000000Y-151500000D03*
D10*
%TO.N,unconnected-(H3-Pad1)_2*%
X82000000Y-153150000D03*
%TO.N,unconnected-(H3-Pad1)*%
X83166726Y-150333274D03*
%TO.N,unconnected-(H3-Pad1)_7*%
X83166726Y-152666726D03*
%TO.N,unconnected-(H3-Pad1)_4*%
X83650000Y-151500000D03*
%TD*%
%TO.P,H2,1,1_1*%
%TO.N,unconnected-(H2-Pad1)_4*%
X127350000Y-121500000D03*
%TO.N,unconnected-(H2-Pad1)_1*%
X127833274Y-120333274D03*
%TO.N,unconnected-(H2-Pad1)_2*%
X127833274Y-122666726D03*
%TO.N,unconnected-(H2-Pad1)_6*%
X129000000Y-119850000D03*
D11*
%TO.N,unconnected-(H2-Pad1)*%
X129000000Y-121500000D03*
D10*
%TO.N,unconnected-(H2-Pad1)_5*%
X129000000Y-123150000D03*
%TO.N,unconnected-(H2-Pad1)_3*%
X130166726Y-120333274D03*
%TO.N,unconnected-(H2-Pad1)_7*%
X130166726Y-122666726D03*
%TO.N,unconnected-(H2-Pad1)_8*%
X130650000Y-121500000D03*
%TD*%
D17*
%TO.N,VCC*%
X103500000Y-132500000D02*
X103500000Y-137000000D01*
X110500000Y-128000000D02*
X110000000Y-128500000D01*
X107500000Y-128500000D02*
X103500000Y-132500000D01*
X84327500Y-138172500D02*
X84327500Y-137035000D01*
X84327500Y-137535000D02*
X84827500Y-138035000D01*
X110500000Y-126750000D02*
X110500000Y-128000000D01*
X85155000Y-139000000D02*
X84327500Y-138172500D01*
X110000000Y-128500000D02*
X107500000Y-128500000D01*
X101500000Y-139000000D02*
X85155000Y-139000000D01*
X103500000Y-137000000D02*
X101500000Y-139000000D01*
%TD*%
%TA.AperFunction,Conductor*%
%TO.N,GND*%
G36*
X127506914Y-118880564D02*
G01*
X127573953Y-118900249D01*
X127617169Y-118922855D01*
X127633204Y-118938327D01*
X127678959Y-118991131D01*
X127703093Y-119033514D01*
X127708218Y-119055199D01*
X127718162Y-119124357D01*
X127715551Y-119173059D01*
X127708138Y-119194074D01*
X127679113Y-119257630D01*
X127650586Y-119297190D01*
X127646784Y-119300588D01*
X127619043Y-119324379D01*
X127604172Y-119335335D01*
X127507281Y-119396215D01*
X127281117Y-119576574D01*
X127076574Y-119781117D01*
X126896210Y-120007287D01*
X126742310Y-120252216D01*
X126616798Y-120512845D01*
X126521257Y-120785883D01*
X126456884Y-121067922D01*
X126424500Y-121355354D01*
X126424500Y-121644642D01*
X126456888Y-121932090D01*
X126521261Y-122214126D01*
X126616798Y-122487153D01*
X126742312Y-122747785D01*
X126896211Y-122992713D01*
X127076575Y-123218882D01*
X127281117Y-123423424D01*
X127507286Y-123603788D01*
X127752214Y-123757687D01*
X128012849Y-123883202D01*
X128285883Y-123978741D01*
X128567922Y-124043114D01*
X128855361Y-124075499D01*
X129144641Y-124075499D01*
X129432091Y-124043112D01*
X129714115Y-123978741D01*
X129987150Y-123883202D01*
X130247785Y-123757687D01*
X130492713Y-123603788D01*
X130718882Y-123423424D01*
X130923424Y-123218882D01*
X131103786Y-122992716D01*
X131164665Y-122895827D01*
X131187690Y-122868701D01*
X131240024Y-122822411D01*
X131282158Y-122797845D01*
X131303789Y-122792500D01*
X131372843Y-122781851D01*
X131421569Y-122783965D01*
X131442658Y-122791163D01*
X131506506Y-122819538D01*
X131546355Y-122847660D01*
X131560203Y-122865116D01*
X131598576Y-122923506D01*
X131616896Y-122968707D01*
X131617751Y-122973737D01*
X131623136Y-123009884D01*
X131624500Y-123028303D01*
X131624500Y-149971696D01*
X131619436Y-150006914D01*
X131599751Y-150073953D01*
X131577145Y-150117169D01*
X131561673Y-150133204D01*
X131508869Y-150178959D01*
X131466486Y-150203093D01*
X131444801Y-150208218D01*
X131375643Y-150218162D01*
X131326941Y-150215551D01*
X131305926Y-150208138D01*
X131242370Y-150179113D01*
X131202810Y-150150586D01*
X131199412Y-150146784D01*
X131175621Y-150119043D01*
X131164666Y-150104172D01*
X131103788Y-150007286D01*
X130923424Y-149781117D01*
X130718882Y-149576575D01*
X130492713Y-149396211D01*
X130247782Y-149242310D01*
X129987153Y-149116798D01*
X129714115Y-149021257D01*
X129432076Y-148956884D01*
X129144638Y-148924500D01*
X128855356Y-148924500D01*
X128567908Y-148956888D01*
X128285872Y-149021261D01*
X128012845Y-149116798D01*
X127752216Y-149242310D01*
X127507287Y-149396210D01*
X127281117Y-149576574D01*
X127076574Y-149781117D01*
X126896210Y-150007287D01*
X126742310Y-150252216D01*
X126616798Y-150512845D01*
X126521257Y-150785883D01*
X126456884Y-151067922D01*
X126424500Y-151355354D01*
X126424500Y-151644642D01*
X126456888Y-151932090D01*
X126521261Y-152214126D01*
X126616798Y-152487153D01*
X126742312Y-152747785D01*
X126896211Y-152992713D01*
X127076575Y-153218882D01*
X127281117Y-153423424D01*
X127507286Y-153603788D01*
X127604172Y-153664666D01*
X127631297Y-153687690D01*
X127677588Y-153740025D01*
X127702154Y-153782159D01*
X127707499Y-153803791D01*
X127718147Y-153872844D01*
X127716033Y-153921571D01*
X127708835Y-153942658D01*
X127680460Y-154006507D01*
X127652338Y-154046356D01*
X127634881Y-154060205D01*
X127576491Y-154098577D01*
X127531290Y-154116896D01*
X127526261Y-154117750D01*
X127490115Y-154123135D01*
X127471696Y-154124500D01*
X83528304Y-154124500D01*
X83493086Y-154119436D01*
X83426047Y-154099751D01*
X83382831Y-154077145D01*
X83366796Y-154061673D01*
X83321041Y-154008869D01*
X83296907Y-153966486D01*
X83291782Y-153944801D01*
X83281838Y-153875643D01*
X83284449Y-153826941D01*
X83291862Y-153805926D01*
X83320887Y-153742370D01*
X83349414Y-153702810D01*
X83353216Y-153699412D01*
X83380957Y-153675621D01*
X83395828Y-153664666D01*
X83492713Y-153603788D01*
X83718882Y-153423424D01*
X83923424Y-153218882D01*
X84103788Y-152992713D01*
X84257687Y-152747785D01*
X84383202Y-152487150D01*
X84478741Y-152214115D01*
X84543112Y-151932091D01*
X84575500Y-151644638D01*
X84575500Y-151355361D01*
X84543112Y-151067908D01*
X84478741Y-150785884D01*
X84383202Y-150512849D01*
X84257687Y-150252214D01*
X84103788Y-150007286D01*
X83923424Y-149781117D01*
X83718882Y-149576575D01*
X83492713Y-149396211D01*
X83247782Y-149242310D01*
X82987153Y-149116798D01*
X82714115Y-149021257D01*
X82432076Y-148956884D01*
X82144638Y-148924500D01*
X81855356Y-148924500D01*
X81567908Y-148956888D01*
X81285872Y-149021261D01*
X81012845Y-149116798D01*
X80752216Y-149242310D01*
X80507287Y-149396210D01*
X80281117Y-149576574D01*
X80076574Y-149781117D01*
X79896215Y-150007281D01*
X79835335Y-150104172D01*
X79812310Y-150131297D01*
X79759975Y-150177588D01*
X79717841Y-150202154D01*
X79696209Y-150207499D01*
X79627156Y-150218147D01*
X79578429Y-150216033D01*
X79557342Y-150208835D01*
X79493493Y-150180460D01*
X79453644Y-150152338D01*
X79439795Y-150134881D01*
X79401423Y-150076491D01*
X79383104Y-150031290D01*
X79382250Y-150026261D01*
X79376865Y-149990115D01*
X79375500Y-149971696D01*
X79375500Y-145092514D01*
X120574500Y-145092514D01*
X120603443Y-145275261D01*
X120660623Y-145451241D01*
X120744623Y-145616097D01*
X120853375Y-145765784D01*
X120984214Y-145896623D01*
X121133902Y-146005376D01*
X121298766Y-146089378D01*
X121474735Y-146146555D01*
X121657486Y-146175500D01*
X121842514Y-146175500D01*
X122025263Y-146146554D01*
X122201233Y-146089378D01*
X122273386Y-146052614D01*
X124727712Y-146052614D01*
X124798952Y-146088913D01*
X124974854Y-146146068D01*
X125157521Y-146175000D01*
X125342479Y-146175000D01*
X125525144Y-146146068D01*
X125701046Y-146088913D01*
X125772285Y-146052614D01*
X125250000Y-145530329D01*
X124727712Y-146052614D01*
X122273386Y-146052614D01*
X122366098Y-146005375D01*
X122515784Y-145896622D01*
X122646623Y-145765783D01*
X122755378Y-145616093D01*
X122839378Y-145451233D01*
X122896554Y-145275263D01*
X122925500Y-145092513D01*
X122925500Y-145092480D01*
X124075000Y-145092480D01*
X124103930Y-145275144D01*
X124161086Y-145451049D01*
X124197384Y-145522285D01*
X124719670Y-144999999D01*
X124965761Y-144999999D01*
X124969848Y-145020548D01*
X124970741Y-145020309D01*
X124993741Y-145106147D01*
X125029945Y-145168855D01*
X125081144Y-145220054D01*
X125143852Y-145256258D01*
X125229691Y-145279259D01*
X125229451Y-145280151D01*
X125250000Y-145284238D01*
X125270548Y-145280151D01*
X125270309Y-145279259D01*
X125356147Y-145256258D01*
X125418855Y-145220054D01*
X125470054Y-145168855D01*
X125506258Y-145106147D01*
X125529259Y-145020309D01*
X125530151Y-145020548D01*
X125534239Y-144999999D01*
X125534239Y-144999998D01*
X125780327Y-144999998D01*
X126302614Y-145522285D01*
X126338913Y-145451046D01*
X126396068Y-145275144D01*
X126425000Y-145092478D01*
X126425000Y-144907520D01*
X126396068Y-144724854D01*
X126338913Y-144548952D01*
X126302614Y-144477711D01*
X125780327Y-144999998D01*
X125534239Y-144999998D01*
X125530151Y-144979451D01*
X125529259Y-144979691D01*
X125506258Y-144893852D01*
X125470054Y-144831144D01*
X125418855Y-144779945D01*
X125356147Y-144743741D01*
X125270309Y-144720741D01*
X125270548Y-144719848D01*
X125250000Y-144715761D01*
X125229451Y-144719848D01*
X125229691Y-144720741D01*
X125143852Y-144743741D01*
X125081144Y-144779945D01*
X125029945Y-144831144D01*
X124993741Y-144893852D01*
X124970741Y-144979691D01*
X124969848Y-144979451D01*
X124965761Y-144999999D01*
X124719670Y-144999999D01*
X124197383Y-144477713D01*
X124161085Y-144548952D01*
X124103930Y-144724854D01*
X124075000Y-144907518D01*
X124075000Y-145092480D01*
X122925500Y-145092480D01*
X122925500Y-144907486D01*
X122896555Y-144724737D01*
X122839375Y-144548760D01*
X122755376Y-144383902D01*
X122646623Y-144234214D01*
X122515784Y-144103375D01*
X122366097Y-143994623D01*
X122273387Y-143947384D01*
X124727713Y-143947384D01*
X125249999Y-144469669D01*
X125772284Y-143947383D01*
X125701046Y-143911085D01*
X125525144Y-143853930D01*
X125342480Y-143825000D01*
X125157520Y-143825000D01*
X124974854Y-143853930D01*
X124798952Y-143911085D01*
X124727713Y-143947384D01*
X122273387Y-143947384D01*
X122201238Y-143910622D01*
X122025261Y-143853443D01*
X121842515Y-143824500D01*
X121657485Y-143824500D01*
X121474737Y-143853443D01*
X121298757Y-143910623D01*
X121133901Y-143994623D01*
X120984214Y-144103375D01*
X120853375Y-144234214D01*
X120744623Y-144383901D01*
X120660623Y-144548757D01*
X120603443Y-144724737D01*
X120574500Y-144907484D01*
X120574500Y-145092514D01*
X79375500Y-145092514D01*
X79375500Y-137144824D01*
X83152000Y-137144824D01*
X83180668Y-137362579D01*
X83193515Y-137410522D01*
X83196706Y-137426560D01*
X83200931Y-137458653D01*
X83202000Y-137474968D01*
X83202000Y-138261085D01*
X83229711Y-138436053D01*
X83284458Y-138604545D01*
X83364885Y-138762389D01*
X83469022Y-138905720D01*
X84421790Y-139858488D01*
X84565106Y-139962612D01*
X84722959Y-140043042D01*
X84891443Y-140097786D01*
X85066420Y-140125500D01*
X101588584Y-140125500D01*
X101763555Y-140097786D01*
X101932040Y-140043042D01*
X102089892Y-139962612D01*
X102233215Y-139858482D01*
X104358482Y-137733215D01*
X104462612Y-137589892D01*
X104543042Y-137432040D01*
X104597786Y-137263555D01*
X104625500Y-137088583D01*
X104625500Y-136670000D01*
X124825000Y-136670000D01*
X125899999Y-136670000D01*
X125947834Y-136679515D01*
X125988387Y-136706612D01*
X126015484Y-136747165D01*
X126024999Y-136795000D01*
X126015484Y-136842835D01*
X126015483Y-136842837D01*
X125995175Y-136891863D01*
X125975000Y-136993291D01*
X125975000Y-137096708D01*
X125995175Y-137198136D01*
X126015483Y-137247163D01*
X126024999Y-137294999D01*
X126015484Y-137342834D01*
X125988388Y-137383388D01*
X125947836Y-137410484D01*
X125900000Y-137420000D01*
X124825001Y-137420000D01*
X124825001Y-138138615D01*
X124833455Y-138221374D01*
X124879701Y-138360935D01*
X124956405Y-138485290D01*
X125059708Y-138588593D01*
X125184069Y-138665299D01*
X125323629Y-138711544D01*
X125406389Y-138719998D01*
X126125000Y-138719998D01*
X126125000Y-137645001D01*
X126134515Y-137597166D01*
X126161612Y-137556613D01*
X126202165Y-137529516D01*
X126250000Y-137520001D01*
X126297835Y-137529516D01*
X126297837Y-137529517D01*
X126346863Y-137549824D01*
X126448291Y-137570000D01*
X126551709Y-137570000D01*
X126653136Y-137549824D01*
X126702163Y-137529517D01*
X126749999Y-137520001D01*
X126797834Y-137529516D01*
X126838388Y-137556612D01*
X126865484Y-137597164D01*
X126875000Y-137645000D01*
X126875000Y-138719998D01*
X127593615Y-138719998D01*
X127676374Y-138711543D01*
X127815935Y-138665297D01*
X127940290Y-138588593D01*
X128043593Y-138485290D01*
X128120299Y-138360929D01*
X128166544Y-138221369D01*
X128175000Y-138138601D01*
X128175000Y-137420000D01*
X127100001Y-137420000D01*
X127052166Y-137410485D01*
X127011613Y-137383388D01*
X126984516Y-137342835D01*
X126975001Y-137295000D01*
X126984516Y-137247165D01*
X126984517Y-137247163D01*
X127004824Y-137198136D01*
X127025000Y-137096708D01*
X127025000Y-136993291D01*
X127004824Y-136891863D01*
X126984517Y-136842837D01*
X126975001Y-136795001D01*
X126984516Y-136747166D01*
X127011612Y-136706612D01*
X127052164Y-136679516D01*
X127100000Y-136670000D01*
X128174999Y-136670000D01*
X128174998Y-135951383D01*
X128166543Y-135868624D01*
X128120297Y-135729063D01*
X128043593Y-135604708D01*
X127940290Y-135501405D01*
X127815929Y-135424699D01*
X127676369Y-135378454D01*
X127593614Y-135370000D01*
X126875000Y-135370000D01*
X126875000Y-136444998D01*
X126865485Y-136492833D01*
X126838388Y-136533386D01*
X126797835Y-136560483D01*
X126750000Y-136569998D01*
X126702165Y-136560483D01*
X126653136Y-136540175D01*
X126551709Y-136520000D01*
X126448291Y-136520000D01*
X126346863Y-136540175D01*
X126297835Y-136560483D01*
X126249999Y-136569998D01*
X126202164Y-136560483D01*
X126161611Y-136533386D01*
X126134515Y-136492833D01*
X126125000Y-136444998D01*
X126125000Y-135370000D01*
X125406382Y-135370000D01*
X125323624Y-135378455D01*
X125184063Y-135424701D01*
X125059708Y-135501405D01*
X124956405Y-135604708D01*
X124879699Y-135729069D01*
X124833454Y-135868629D01*
X124825000Y-135951385D01*
X124825000Y-136670000D01*
X104625500Y-136670000D01*
X104625500Y-133069336D01*
X104630564Y-133034118D01*
X104650249Y-132967079D01*
X104672854Y-132923864D01*
X104689488Y-132903222D01*
X104698431Y-132893267D01*
X105516875Y-132074823D01*
X124824500Y-132074823D01*
X124853167Y-132292573D01*
X124910014Y-132504725D01*
X124994068Y-132707650D01*
X125103889Y-132897862D01*
X125237591Y-133072106D01*
X125392899Y-133227413D01*
X125567144Y-133361116D01*
X125757352Y-133470932D01*
X125960274Y-133554985D01*
X126172423Y-133611831D01*
X126390191Y-133640500D01*
X126609815Y-133640500D01*
X126827577Y-133611831D01*
X127039725Y-133554985D01*
X127242647Y-133470932D01*
X127432855Y-133361116D01*
X127607105Y-133227409D01*
X127762409Y-133072105D01*
X127896116Y-132897855D01*
X128005932Y-132707647D01*
X128089985Y-132504725D01*
X128146831Y-132292577D01*
X128175500Y-132074814D01*
X128175500Y-131855185D01*
X128146831Y-131637422D01*
X128089985Y-131425274D01*
X128005929Y-131222345D01*
X127896116Y-131032144D01*
X127762407Y-130857892D01*
X127607099Y-130702585D01*
X127432855Y-130568884D01*
X127242640Y-130459063D01*
X127039728Y-130375014D01*
X126827572Y-130318167D01*
X126609816Y-130289500D01*
X126390175Y-130289500D01*
X126172425Y-130318167D01*
X125960273Y-130375014D01*
X125757348Y-130459068D01*
X125567136Y-130568889D01*
X125392892Y-130702591D01*
X125237585Y-130857899D01*
X125103886Y-131032139D01*
X124994063Y-131222358D01*
X124910014Y-131425270D01*
X124853167Y-131637426D01*
X124824500Y-131855189D01*
X124824500Y-132074823D01*
X105516875Y-132074823D01*
X106289084Y-131302614D01*
X109977712Y-131302614D01*
X110048952Y-131338913D01*
X110224854Y-131396068D01*
X110407521Y-131425000D01*
X110592479Y-131425000D01*
X110775144Y-131396068D01*
X110951046Y-131338913D01*
X111022285Y-131302614D01*
X110500000Y-130780329D01*
X109977712Y-131302614D01*
X106289084Y-131302614D01*
X107893267Y-129698431D01*
X107921749Y-129677109D01*
X107983072Y-129643624D01*
X108029615Y-129629050D01*
X108055973Y-129626216D01*
X108069336Y-129625500D01*
X109124724Y-129625500D01*
X109159942Y-129630564D01*
X109226981Y-129650249D01*
X109270197Y-129672855D01*
X109286232Y-129688327D01*
X109331987Y-129741131D01*
X109356121Y-129783514D01*
X109361246Y-129805199D01*
X109371190Y-129874357D01*
X109369213Y-129920461D01*
X109364406Y-129941131D01*
X109361538Y-129951442D01*
X109353932Y-129974851D01*
X109325000Y-130157520D01*
X109325000Y-130342480D01*
X109353930Y-130525144D01*
X109411086Y-130701049D01*
X109447384Y-130772285D01*
X110011612Y-130208058D01*
X110052165Y-130180961D01*
X110100000Y-130171446D01*
X110147835Y-130180961D01*
X110188388Y-130208058D01*
X110215485Y-130248611D01*
X110219848Y-130270548D01*
X110220741Y-130270309D01*
X110243741Y-130356147D01*
X110279945Y-130418855D01*
X110331144Y-130470054D01*
X110393852Y-130506258D01*
X110479691Y-130529259D01*
X110479451Y-130530151D01*
X110500000Y-130534238D01*
X110520548Y-130530151D01*
X110520309Y-130529259D01*
X110606147Y-130506258D01*
X110668855Y-130470054D01*
X110720054Y-130418855D01*
X110756258Y-130356147D01*
X110779259Y-130270309D01*
X110780151Y-130270548D01*
X110784239Y-130249999D01*
X110784239Y-130249998D01*
X111030327Y-130249998D01*
X111552614Y-130772285D01*
X111588913Y-130701046D01*
X111646068Y-130525144D01*
X111675000Y-130342478D01*
X111675000Y-130157520D01*
X111646068Y-129974854D01*
X111588913Y-129798952D01*
X111552614Y-129727711D01*
X111030327Y-130249998D01*
X110784239Y-130249998D01*
X110780151Y-130229451D01*
X110779259Y-130229691D01*
X110756258Y-130143852D01*
X110720054Y-130081144D01*
X110668855Y-130029945D01*
X110606147Y-129993741D01*
X110520309Y-129970741D01*
X110520548Y-129969848D01*
X110498611Y-129965485D01*
X110458058Y-129938388D01*
X110430961Y-129897835D01*
X110421446Y-129850000D01*
X110430961Y-129802165D01*
X110458058Y-129761612D01*
X111096888Y-129122781D01*
X111098158Y-129112054D01*
X111096072Y-129087759D01*
X111101460Y-129039285D01*
X111110060Y-129018731D01*
X111142666Y-128956936D01*
X111164170Y-128927548D01*
X111165227Y-128926475D01*
X111165889Y-128925808D01*
X111358486Y-128733211D01*
X111462612Y-128589893D01*
X111543042Y-128432040D01*
X111597787Y-128263555D01*
X111625500Y-128088583D01*
X111625500Y-127129500D01*
X111627039Y-127109946D01*
X111633108Y-127071628D01*
X111637687Y-127052554D01*
X111646555Y-127025261D01*
X111675500Y-126842513D01*
X111675500Y-126657486D01*
X111646555Y-126474737D01*
X111589375Y-126298760D01*
X111505376Y-126133902D01*
X111396623Y-125984214D01*
X111265784Y-125853375D01*
X111116097Y-125744623D01*
X110951238Y-125660622D01*
X110775261Y-125603443D01*
X110592515Y-125574500D01*
X110407485Y-125574500D01*
X110224737Y-125603443D01*
X110048757Y-125660623D01*
X109883901Y-125744623D01*
X109734214Y-125853375D01*
X109603375Y-125984214D01*
X109494623Y-126133901D01*
X109410623Y-126298757D01*
X109353443Y-126474737D01*
X109324500Y-126657484D01*
X109324500Y-126842513D01*
X109353444Y-127025264D01*
X109361013Y-127048556D01*
X109367080Y-127083614D01*
X109369075Y-127153455D01*
X109360930Y-127201542D01*
X109351169Y-127221574D01*
X109315088Y-127281407D01*
X109282238Y-127317457D01*
X109263196Y-127329033D01*
X109200495Y-127359860D01*
X109156041Y-127372225D01*
X109134897Y-127374041D01*
X109124200Y-127374500D01*
X107411415Y-127374500D01*
X107236442Y-127402212D01*
X107067955Y-127456958D01*
X106910109Y-127537385D01*
X106766778Y-127641522D01*
X102641520Y-131766781D01*
X102537385Y-131910109D01*
X102456954Y-132067964D01*
X102402212Y-132236442D01*
X102374500Y-132411414D01*
X102374500Y-136430664D01*
X102369436Y-136465882D01*
X102349751Y-136532921D01*
X102327146Y-136576136D01*
X102310512Y-136596778D01*
X102301569Y-136606733D01*
X101106733Y-137801569D01*
X101078251Y-137822891D01*
X101016928Y-137856376D01*
X100970385Y-137870950D01*
X100944027Y-137873784D01*
X100930664Y-137874500D01*
X86661665Y-137874500D01*
X86626447Y-137869436D01*
X86559408Y-137849751D01*
X86516192Y-137827145D01*
X86500157Y-137811673D01*
X86454402Y-137758869D01*
X86430268Y-137716486D01*
X86425143Y-137694801D01*
X86415199Y-137625643D01*
X86416476Y-137582737D01*
X86419439Y-137568291D01*
X86421149Y-137561055D01*
X86474331Y-137362577D01*
X86503000Y-137144814D01*
X86503000Y-136925185D01*
X86474331Y-136707422D01*
X86417485Y-136495274D01*
X86333429Y-136292345D01*
X86223616Y-136102144D01*
X86089907Y-135927892D01*
X85934599Y-135772585D01*
X85760355Y-135638884D01*
X85570140Y-135529063D01*
X85367228Y-135445014D01*
X85155072Y-135388167D01*
X84937316Y-135359500D01*
X84717675Y-135359500D01*
X84499925Y-135388167D01*
X84287773Y-135445014D01*
X84084848Y-135529068D01*
X83894636Y-135638889D01*
X83720392Y-135772591D01*
X83565085Y-135927899D01*
X83431386Y-136102139D01*
X83321563Y-136292358D01*
X83237514Y-136495270D01*
X83180667Y-136707426D01*
X83152000Y-136925189D01*
X83152000Y-137144824D01*
X79375500Y-137144824D01*
X79375500Y-131580000D01*
X83152500Y-131580000D01*
X84227499Y-131580000D01*
X84275334Y-131589515D01*
X84315887Y-131616612D01*
X84342984Y-131657165D01*
X84352499Y-131705000D01*
X84342984Y-131752835D01*
X84342983Y-131752837D01*
X84322675Y-131801863D01*
X84302500Y-131903291D01*
X84302500Y-132006708D01*
X84322675Y-132108136D01*
X84342983Y-132157163D01*
X84352499Y-132204999D01*
X84342984Y-132252834D01*
X84315888Y-132293388D01*
X84275336Y-132320484D01*
X84227500Y-132330000D01*
X83152501Y-132330000D01*
X83152501Y-133048615D01*
X83160955Y-133131374D01*
X83207201Y-133270935D01*
X83283905Y-133395290D01*
X83387208Y-133498593D01*
X83511569Y-133575299D01*
X83651129Y-133621544D01*
X83733889Y-133629998D01*
X84452500Y-133629998D01*
X84452500Y-132555001D01*
X84462015Y-132507166D01*
X84489112Y-132466613D01*
X84529665Y-132439516D01*
X84577500Y-132430001D01*
X84625335Y-132439516D01*
X84625337Y-132439517D01*
X84674363Y-132459824D01*
X84775791Y-132480000D01*
X84879209Y-132480000D01*
X84980636Y-132459824D01*
X85029663Y-132439517D01*
X85077499Y-132430001D01*
X85125334Y-132439516D01*
X85165888Y-132466612D01*
X85192984Y-132507164D01*
X85202500Y-132555000D01*
X85202500Y-133629998D01*
X85921115Y-133629998D01*
X86003874Y-133621543D01*
X86143435Y-133575297D01*
X86267790Y-133498593D01*
X86371093Y-133395290D01*
X86447799Y-133270929D01*
X86494044Y-133131369D01*
X86502500Y-133048601D01*
X86502500Y-132330000D01*
X85427501Y-132330000D01*
X85379666Y-132320485D01*
X85339113Y-132293388D01*
X85312016Y-132252835D01*
X85302501Y-132205000D01*
X85312016Y-132157165D01*
X85312017Y-132157163D01*
X85332324Y-132108136D01*
X85352500Y-132006708D01*
X85352500Y-131903291D01*
X85332324Y-131801863D01*
X85312017Y-131752837D01*
X85302501Y-131705001D01*
X85312016Y-131657166D01*
X85339112Y-131616612D01*
X85379664Y-131589516D01*
X85427500Y-131580000D01*
X86502499Y-131580000D01*
X86502498Y-130861383D01*
X86494043Y-130778624D01*
X86447797Y-130639063D01*
X86371093Y-130514708D01*
X86267790Y-130411405D01*
X86143429Y-130334699D01*
X86003869Y-130288454D01*
X85921114Y-130280000D01*
X85202500Y-130280000D01*
X85202500Y-131354998D01*
X85192985Y-131402833D01*
X85165888Y-131443386D01*
X85125335Y-131470483D01*
X85077500Y-131479998D01*
X85029665Y-131470483D01*
X84980636Y-131450175D01*
X84879209Y-131430000D01*
X84775791Y-131430000D01*
X84674363Y-131450175D01*
X84625335Y-131470483D01*
X84577499Y-131479998D01*
X84529664Y-131470483D01*
X84489111Y-131443386D01*
X84462015Y-131402833D01*
X84452500Y-131354998D01*
X84452500Y-130280000D01*
X83733882Y-130280000D01*
X83651124Y-130288455D01*
X83511563Y-130334701D01*
X83387208Y-130411405D01*
X83283905Y-130514708D01*
X83207199Y-130639069D01*
X83160954Y-130778629D01*
X83152500Y-130861385D01*
X83152500Y-131580000D01*
X79375500Y-131580000D01*
X79375500Y-126552614D01*
X93167712Y-126552614D01*
X93238952Y-126588913D01*
X93414854Y-126646068D01*
X93597521Y-126675000D01*
X93782479Y-126675000D01*
X93965144Y-126646068D01*
X94141046Y-126588913D01*
X94212285Y-126552614D01*
X93753318Y-126093647D01*
X100134500Y-126093647D01*
X100142962Y-126176476D01*
X100189245Y-126316147D01*
X100266008Y-126440600D01*
X100369399Y-126543991D01*
X100493852Y-126620754D01*
X100633525Y-126667037D01*
X100716361Y-126675499D01*
X101903638Y-126675499D01*
X101986475Y-126667037D01*
X102126147Y-126620754D01*
X102250600Y-126543991D01*
X102353991Y-126440600D01*
X102430754Y-126316147D01*
X102477037Y-126176474D01*
X102485499Y-126093638D01*
X102485499Y-124906361D01*
X102477037Y-124823524D01*
X102430754Y-124683852D01*
X102353991Y-124559399D01*
X102250600Y-124456008D01*
X102126147Y-124379245D01*
X101986472Y-124332961D01*
X101903640Y-124324500D01*
X100716351Y-124324500D01*
X100633522Y-124332962D01*
X100493851Y-124379245D01*
X100369396Y-124456010D01*
X100266009Y-124559397D01*
X100189245Y-124683852D01*
X100142961Y-124823526D01*
X100134500Y-124906353D01*
X100134500Y-126093647D01*
X93753318Y-126093647D01*
X93690000Y-126030329D01*
X93167712Y-126552614D01*
X79375500Y-126552614D01*
X79375500Y-125592480D01*
X92515000Y-125592480D01*
X92543930Y-125775144D01*
X92601086Y-125951049D01*
X92637384Y-126022285D01*
X93159670Y-125499999D01*
X93405761Y-125499999D01*
X93409848Y-125520548D01*
X93410741Y-125520309D01*
X93433741Y-125606147D01*
X93469945Y-125668855D01*
X93521144Y-125720054D01*
X93583852Y-125756258D01*
X93669691Y-125779259D01*
X93669451Y-125780151D01*
X93690000Y-125784238D01*
X93710548Y-125780151D01*
X93710309Y-125779259D01*
X93796147Y-125756258D01*
X93858855Y-125720054D01*
X93910054Y-125668855D01*
X93946258Y-125606147D01*
X93969259Y-125520309D01*
X93970151Y-125520548D01*
X93974239Y-125499999D01*
X94220327Y-125499999D01*
X94742614Y-126022285D01*
X94778913Y-125951046D01*
X94836068Y-125775144D01*
X94865000Y-125592478D01*
X94865000Y-125407520D01*
X94836068Y-125224854D01*
X94778912Y-125048949D01*
X94742614Y-124977711D01*
X94220327Y-125499999D01*
X93974239Y-125499999D01*
X93970151Y-125479451D01*
X93969259Y-125479691D01*
X93946258Y-125393852D01*
X93910054Y-125331144D01*
X93858855Y-125279945D01*
X93796147Y-125243741D01*
X93710309Y-125220741D01*
X93710548Y-125219848D01*
X93690000Y-125215761D01*
X93669451Y-125219848D01*
X93669691Y-125220741D01*
X93583852Y-125243741D01*
X93521144Y-125279945D01*
X93469945Y-125331144D01*
X93433741Y-125393852D01*
X93410741Y-125479691D01*
X93409848Y-125479451D01*
X93405761Y-125499999D01*
X93159670Y-125499999D01*
X92637383Y-124977713D01*
X92601085Y-125048952D01*
X92543930Y-125224854D01*
X92515000Y-125407518D01*
X92515000Y-125592480D01*
X79375500Y-125592480D01*
X79375500Y-124447384D01*
X93167713Y-124447384D01*
X93689999Y-124969669D01*
X94212284Y-124447383D01*
X94141046Y-124411085D01*
X93965144Y-124353930D01*
X93782480Y-124325000D01*
X93597520Y-124325000D01*
X93414854Y-124353930D01*
X93238952Y-124411085D01*
X93167713Y-124447384D01*
X79375500Y-124447384D01*
X79375500Y-123028303D01*
X79380564Y-122993085D01*
X79400249Y-122926046D01*
X79422855Y-122882830D01*
X79438327Y-122866795D01*
X79491131Y-122821040D01*
X79533514Y-122796906D01*
X79555199Y-122791781D01*
X79624357Y-122781837D01*
X79673059Y-122784448D01*
X79694074Y-122791861D01*
X79757630Y-122820886D01*
X79797190Y-122849413D01*
X79800589Y-122853216D01*
X79824378Y-122880955D01*
X79835332Y-122895825D01*
X79896211Y-122992713D01*
X80076575Y-123218882D01*
X80281117Y-123423424D01*
X80507286Y-123603788D01*
X80752214Y-123757687D01*
X81012849Y-123883202D01*
X81285883Y-123978741D01*
X81567922Y-124043114D01*
X81855361Y-124075499D01*
X82144641Y-124075499D01*
X82432091Y-124043112D01*
X82714115Y-123978741D01*
X82987150Y-123883202D01*
X83247785Y-123757687D01*
X83492713Y-123603788D01*
X83718882Y-123423424D01*
X83923424Y-123218882D01*
X84103788Y-122992713D01*
X84257687Y-122747785D01*
X84383202Y-122487150D01*
X84478741Y-122214115D01*
X84543112Y-121932091D01*
X84575500Y-121644638D01*
X84575500Y-121355361D01*
X84543112Y-121067908D01*
X84478741Y-120785884D01*
X84383202Y-120512849D01*
X84257687Y-120252214D01*
X84103788Y-120007286D01*
X83923424Y-119781117D01*
X83718882Y-119576575D01*
X83492713Y-119396211D01*
X83395828Y-119335334D01*
X83368703Y-119312310D01*
X83322412Y-119259975D01*
X83297846Y-119217841D01*
X83292501Y-119196209D01*
X83281853Y-119127156D01*
X83283967Y-119078429D01*
X83291165Y-119057342D01*
X83319540Y-118993493D01*
X83347662Y-118953644D01*
X83365119Y-118939795D01*
X83423509Y-118901423D01*
X83468710Y-118883104D01*
X83473739Y-118882250D01*
X83509885Y-118876865D01*
X83528304Y-118875500D01*
X127471696Y-118875500D01*
X127506914Y-118880564D01*
G37*
%TD.AperFunction*%
%TD*%
M02*
