%TF.GenerationSoftware,KiCad,Pcbnew,7.0.11+dfsg-1build4*%
%TF.CreationDate,2026-10-03T06:07:15+00:00*%
%TF.ProjectId,t,742e6b69-6361-4645-9f70-636258585858,rev?*%
%TF.SameCoordinates,Original*%
%TF.FileFunction,Copper,L1,Top*%
%TF.FilePolarity,Positive*%
%FSLAX46Y46*%
G04 Gerber Fmt 4.6, Leading zero omitted, Abs format (unit mm)*
G04 Created by KiCad (PCBNEW 7.0.11+dfsg-1build4) date 2026-10-03 06:07:15*
%MOMM*%
%LPD*%
G01*
G04 APERTURE LIST*
G04 Aperture macros list*
%AMRoundRect*
0 Rectangle with rounded corners*
0 $1 Rounding radius*
0 $2 $3 $4 $5 $6 $7 $8 $9 X,Y pos of 4 corners*
0 Add a 4 corners polygon primitive as box body*
4,1,4,$2,$3,$4,$5,$6,$7,$8,$9,$2,$3,0*
0 Add four circle primitives for the rounded corners*
1,1,$1+$1,$2,$3*
1,1,$1+$1,$4,$5*
1,1,$1+$1,$6,$7*
1,1,$1+$1,$8,$9*
0 Add four rect primitives between the rounded corners*
20,1,$1+$1,$2,$3,$4,$5,0*
20,1,$1+$1,$4,$5,$6,$7,0*
20,1,$1+$1,$6,$7,$8,$9,0*
20,1,$1+$1,$8,$9,$2,$3,0*%
G04 Aperture macros list end*
%TA.AperFunction,ComponentPad*%
%ADD10R,1.700000X1.700000*%
%TD*%
%TA.AperFunction,ComponentPad*%
%ADD11O,1.700000X1.700000*%
%TD*%
%TA.AperFunction,SMDPad,CuDef*%
%ADD12R,0.400000X0.480000*%
%TD*%
%TA.AperFunction,SMDPad,CuDef*%
%ADD13RoundRect,0.100000X0.130000X0.100000X-0.130000X0.100000X-0.130000X-0.100000X0.130000X-0.100000X0*%
%TD*%
%TA.AperFunction,SMDPad,CuDef*%
%ADD14RoundRect,0.100000X0.100000X-0.130000X0.100000X0.130000X-0.100000X0.130000X-0.100000X-0.130000X0*%
%TD*%
%TA.AperFunction,SMDPad,CuDef*%
%ADD15RoundRect,0.062500X-0.337500X-0.062500X0.337500X-0.062500X0.337500X0.062500X-0.337500X0.062500X0*%
%TD*%
%TA.AperFunction,SMDPad,CuDef*%
%ADD16RoundRect,0.062500X-0.062500X-0.337500X0.062500X-0.337500X0.062500X0.337500X-0.062500X0.337500X0*%
%TD*%
%TA.AperFunction,HeatsinkPad*%
%ADD17R,3.350000X3.350000*%
%TD*%
%TA.AperFunction,SMDPad,CuDef*%
%ADD18RoundRect,0.100000X-0.130000X-0.100000X0.130000X-0.100000X0.130000X0.100000X-0.130000X0.100000X0*%
%TD*%
%TA.AperFunction,SMDPad,CuDef*%
%ADD19R,1.450000X0.600000*%
%TD*%
%TA.AperFunction,SMDPad,CuDef*%
%ADD20R,1.450000X0.300000*%
%TD*%
%TA.AperFunction,ComponentPad*%
%ADD21O,2.100000X1.000000*%
%TD*%
%TA.AperFunction,ComponentPad*%
%ADD22O,1.600000X1.000000*%
%TD*%
%TA.AperFunction,SMDPad,CuDef*%
%ADD23RoundRect,0.100000X-0.100000X0.130000X-0.100000X-0.130000X0.100000X-0.130000X0.100000X0.130000X0*%
%TD*%
%TA.AperFunction,ViaPad*%
%ADD24C,0.600000*%
%TD*%
%TA.AperFunction,Conductor*%
%ADD25C,0.200000*%
%TD*%
%TA.AperFunction,Conductor*%
%ADD26C,0.300000*%
%TD*%
G04 APERTURE END LIST*
D10*
%TO.P,J2,1,Pin_1*%
%TO.N,GND*%
X163625000Y-131925000D03*
D11*
%TO.P,J2,2,Pin_2*%
%TO.N,/VBUS*%
X163625000Y-134465000D03*
%TO.P,J2,3,Pin_3*%
%TO.N,/RX*%
X163625000Y-137005000D03*
%TO.P,J2,4,Pin_4*%
%TO.N,/TX*%
X163625000Y-139545000D03*
%TO.P,J2,5,Pin_5*%
%TO.N,/RST*%
X163625000Y-142085000D03*
%TD*%
D12*
%TO.P,D5,1*%
%TO.N,/VBUS*%
X145000000Y-138680000D03*
%TO.P,D5,2*%
%TO.N,GND*%
X145000000Y-140000000D03*
%TD*%
D13*
%TO.P,R6,1*%
%TO.N,/VBUS*%
X157820000Y-135000000D03*
%TO.P,R6,2*%
%TO.N,Net-(D1-A)*%
X157180000Y-135000000D03*
%TD*%
D12*
%TO.P,D4,1*%
%TO.N,/D-*%
X148500000Y-138680000D03*
%TO.P,D4,2*%
%TO.N,GND*%
X148500000Y-140000000D03*
%TD*%
D14*
%TO.P,R1,1*%
%TO.N,Net-(J1-CC1)*%
X144500000Y-134820000D03*
%TO.P,R1,2*%
%TO.N,GND*%
X144500000Y-134180000D03*
%TD*%
D15*
%TO.P,U1,1,~{DCD}*%
%TO.N,unconnected-(U1-~{DCD}-Pad1)*%
X150550000Y-135050000D03*
%TO.P,U1,2,~{RI}/CLK*%
%TO.N,unconnected-(U1-~{RI}{slash}CLK-Pad2)*%
X150550000Y-135550000D03*
%TO.P,U1,3,GND*%
%TO.N,GND*%
X150550000Y-136050000D03*
%TO.P,U1,4,D+*%
%TO.N,/D+*%
X150550000Y-136550000D03*
%TO.P,U1,5,D-*%
%TO.N,/D-*%
X150550000Y-137050000D03*
%TO.P,U1,6,VDD*%
%TO.N,Net-(U1-VDD)*%
X150550000Y-137550000D03*
%TO.P,U1,7,VREGIN*%
%TO.N,/VBUS*%
X150550000Y-138050000D03*
D16*
%TO.P,U1,8,VBUS*%
X151500000Y-139000000D03*
%TO.P,U1,9,~{RST}*%
%TO.N,Net-(U1-~{RST})*%
X152000000Y-139000000D03*
%TO.P,U1,10,NC*%
%TO.N,unconnected-(U1-NC-Pad10)*%
X152500000Y-139000000D03*
%TO.P,U1,11,~{SUSPEND}*%
%TO.N,unconnected-(U1-~{SUSPEND}-Pad11)*%
X153000000Y-139000000D03*
%TO.P,U1,12,SUSPEND*%
%TO.N,unconnected-(U1-SUSPEND-Pad12)*%
X153500000Y-139000000D03*
%TO.P,U1,13,CHREN*%
%TO.N,unconnected-(U1-CHREN-Pad13)*%
X154000000Y-139000000D03*
%TO.P,U1,14,CHR1*%
%TO.N,unconnected-(U1-CHR1-Pad14)*%
X154500000Y-139000000D03*
D15*
%TO.P,U1,15,CHR0*%
%TO.N,unconnected-(U1-CHR0-Pad15)*%
X155450000Y-138050000D03*
%TO.P,U1,16,~{WAKEUP}/GPIO.3*%
%TO.N,unconnected-(U1-~{WAKEUP}{slash}GPIO.3-Pad16)*%
X155450000Y-137550000D03*
%TO.P,U1,17,RS485/GPIO.2*%
%TO.N,unconnected-(U1-RS485{slash}GPIO.2-Pad17)*%
X155450000Y-137050000D03*
%TO.P,U1,18,~{RXT}/GPIO.1*%
%TO.N,unconnected-(U1-~{RXT}{slash}GPIO.1-Pad18)*%
X155450000Y-136550000D03*
%TO.P,U1,19,~{TXT}/GPIO.0*%
%TO.N,unconnected-(U1-~{TXT}{slash}GPIO.0-Pad19)*%
X155450000Y-136050000D03*
%TO.P,U1,20,GPIO.6*%
%TO.N,unconnected-(U1-GPIO.6-Pad20)*%
X155450000Y-135550000D03*
%TO.P,U1,21,GPIO.5*%
%TO.N,unconnected-(U1-GPIO.5-Pad21)*%
X155450000Y-135050000D03*
D16*
%TO.P,U1,22,GPIO.4*%
%TO.N,unconnected-(U1-GPIO.4-Pad22)*%
X154500000Y-134100000D03*
%TO.P,U1,23,~{CTS}*%
%TO.N,unconnected-(U1-~{CTS}-Pad23)*%
X154000000Y-134100000D03*
%TO.P,U1,24,~{RTS}*%
%TO.N,unconnected-(U1-~{RTS}-Pad24)*%
X153500000Y-134100000D03*
%TO.P,U1,25,RXD*%
%TO.N,Net-(D2-K)*%
X153000000Y-134100000D03*
%TO.P,U1,26,TXD*%
%TO.N,Net-(D1-K)*%
X152500000Y-134100000D03*
%TO.P,U1,27,~{DSR}*%
%TO.N,unconnected-(U1-~{DSR}-Pad27)*%
X152000000Y-134100000D03*
%TO.P,U1,28,~{DTR}*%
%TO.N,Net-(U1-~{DTR})*%
X151500000Y-134100000D03*
D17*
%TO.P,U1,29,GND*%
%TO.N,GND*%
X153000000Y-136550000D03*
%TD*%
D18*
%TO.P,D1,1,K*%
%TO.N,Net-(D1-K)*%
X157335000Y-132500000D03*
%TO.P,D1,2,A*%
%TO.N,Net-(D1-A)*%
X157975000Y-132500000D03*
%TD*%
%TO.P,R3,1*%
%TO.N,/VBUS*%
X150680000Y-140500000D03*
%TO.P,R3,2*%
%TO.N,Net-(U1-~{RST})*%
X151320000Y-140500000D03*
%TD*%
D19*
%TO.P,J1,A1,GND*%
%TO.N,GND*%
X142045000Y-133750000D03*
%TO.P,J1,A4,VBUS*%
%TO.N,/VBUS*%
X142045000Y-134550000D03*
D20*
%TO.P,J1,A5,CC1*%
%TO.N,Net-(J1-CC1)*%
X142045000Y-135750000D03*
%TO.P,J1,A6,D+*%
%TO.N,/D+*%
X142045000Y-136750000D03*
%TO.P,J1,A7,D-*%
%TO.N,/D-*%
X142045000Y-137250000D03*
%TO.P,J1,A8,SBU1*%
%TO.N,unconnected-(J1-SBU1-PadA8)*%
X142045000Y-138250000D03*
D19*
%TO.P,J1,A9,VBUS*%
%TO.N,/VBUS*%
X142045000Y-139450000D03*
%TO.P,J1,A12,GND*%
%TO.N,GND*%
X142045000Y-140250000D03*
%TO.P,J1,B1,GND*%
X142045000Y-140250000D03*
%TO.P,J1,B4,VBUS*%
%TO.N,/VBUS*%
X142045000Y-139450000D03*
D20*
%TO.P,J1,B5,CC2*%
%TO.N,Net-(J1-CC2)*%
X142045000Y-138750000D03*
%TO.P,J1,B6,D+*%
%TO.N,/D+*%
X142045000Y-137750000D03*
%TO.P,J1,B7,D-*%
%TO.N,/D-*%
X142045000Y-136250000D03*
%TO.P,J1,B8,SBU2*%
%TO.N,unconnected-(J1-SBU2-PadB8)*%
X142045000Y-135250000D03*
D19*
%TO.P,J1,B9,VBUS*%
%TO.N,/VBUS*%
X142045000Y-134550000D03*
%TO.P,J1,B12,GND*%
%TO.N,GND*%
X142045000Y-133750000D03*
D21*
%TO.P,J1,S1,SHIELD*%
X141130000Y-132680000D03*
D22*
X136950000Y-132680000D03*
D21*
X141130000Y-141320000D03*
D22*
X136950000Y-141320000D03*
%TD*%
D23*
%TO.P,C1,1*%
%TO.N,GND*%
X146500000Y-136180000D03*
%TO.P,C1,2*%
%TO.N,Net-(U1-VDD)*%
X146500000Y-136820000D03*
%TD*%
D13*
%TO.P,R7,1*%
%TO.N,/VBUS*%
X157820000Y-138000000D03*
%TO.P,R7,2*%
%TO.N,Net-(D2-A)*%
X157180000Y-138000000D03*
%TD*%
D18*
%TO.P,D2,1,K*%
%TO.N,Net-(D2-K)*%
X157180000Y-136000000D03*
%TO.P,D2,2,A*%
%TO.N,Net-(D2-A)*%
X157820000Y-136000000D03*
%TD*%
D14*
%TO.P,C4,1*%
%TO.N,/VBUS*%
X147500000Y-134820000D03*
%TO.P,C4,2*%
%TO.N,GND*%
X147500000Y-134180000D03*
%TD*%
D13*
%TO.P,R4,1*%
%TO.N,/TX*%
X157820000Y-140000000D03*
%TO.P,R4,2*%
%TO.N,Net-(D1-K)*%
X157180000Y-140000000D03*
%TD*%
D14*
%TO.P,R2,1*%
%TO.N,Net-(J1-CC2)*%
X146000000Y-134820000D03*
%TO.P,R2,2*%
%TO.N,GND*%
X146000000Y-134180000D03*
%TD*%
%TO.P,C3,1*%
%TO.N,/VBUS*%
X149000000Y-134820000D03*
%TO.P,C3,2*%
%TO.N,GND*%
X149000000Y-134180000D03*
%TD*%
D12*
%TO.P,D3,1*%
%TO.N,GND*%
X147000000Y-140000000D03*
%TO.P,D3,2*%
%TO.N,/D+*%
X147000000Y-138680000D03*
%TD*%
D23*
%TO.P,C2,1*%
%TO.N,/RST*%
X151500000Y-131835000D03*
%TO.P,C2,2*%
%TO.N,Net-(U1-~{DTR})*%
X151500000Y-132475000D03*
%TD*%
D13*
%TO.P,R5,1*%
%TO.N,/RX*%
X157820000Y-142000000D03*
%TO.P,R5,2*%
%TO.N,Net-(D2-K)*%
X157180000Y-142000000D03*
%TD*%
D24*
%TO.N,GND*%
X151750000Y-137750000D03*
X153000000Y-135250000D03*
X153000000Y-137000000D03*
X152250000Y-136500000D03*
X153500000Y-136750000D03*
X152500000Y-135750000D03*
X152250000Y-135250000D03*
X154250000Y-137250000D03*
X146750000Y-134250000D03*
X152750000Y-136000000D03*
X153250000Y-136250000D03*
X152500000Y-137000000D03*
X154250000Y-136000000D03*
X154250000Y-135250000D03*
X153750000Y-136000000D03*
X153250000Y-135750000D03*
X153000000Y-136500000D03*
X152500000Y-137500000D03*
X152000000Y-137250000D03*
X153000000Y-137750000D03*
X153500000Y-137500000D03*
X151750000Y-135250000D03*
X146000000Y-140000000D03*
X154250000Y-137750000D03*
X153750000Y-137000000D03*
X151750000Y-136750000D03*
X153750000Y-136500000D03*
X153750000Y-135250000D03*
X152000000Y-136000000D03*
%TO.N,/VBUS*%
X150750000Y-139750000D03*
X149000000Y-135750000D03*
X139500000Y-136750000D03*
%TO.N,/RST*%
X155250000Y-131750000D03*
%TO.N,/D-*%
X148500000Y-137750000D03*
X144750000Y-136250000D03*
%TO.N,/D+*%
X147000000Y-137750000D03*
X143750000Y-137250000D03*
%TO.N,Net-(U1-VDD)*%
X149500000Y-141000000D03*
X147750000Y-136250000D03*
%TO.N,Net-(D2-K)*%
X156500000Y-135500000D03*
X155750000Y-142750000D03*
%TO.N,Net-(D1-K)*%
X158750000Y-141250000D03*
X156750000Y-132500000D03*
%TO.N,Net-(J1-CC2)*%
X145000000Y-137500000D03*
%TD*%
D25*
%TO.N,GND*%
X136950000Y-132680000D02*
X141130000Y-132680000D01*
X150550000Y-136050000D02*
X150135614Y-136050000D01*
D26*
X157000000Y-130500000D02*
X149750000Y-130500000D01*
D25*
X144750000Y-140250000D02*
X145000000Y-140000000D01*
X149199999Y-134180000D02*
X149000000Y-134180000D01*
X146000000Y-134180000D02*
X144500000Y-134180000D01*
X136950000Y-141320000D02*
X141130000Y-141320000D01*
X142045000Y-133750000D02*
X142045000Y-133595000D01*
D26*
X149000000Y-131250000D02*
X149000000Y-134180000D01*
D25*
X142045000Y-133595000D02*
X141130000Y-132680000D01*
X145000000Y-140000000D02*
X146000000Y-140000000D01*
D26*
X149750000Y-130500000D02*
X149000000Y-131250000D01*
D25*
X142045000Y-133750000D02*
X144070000Y-133750000D01*
X147500000Y-134180000D02*
X146820000Y-134180000D01*
X146820000Y-134180000D02*
X146750000Y-134250000D01*
X149000000Y-134180000D02*
X147500000Y-134180000D01*
X146500000Y-135750000D02*
X146750000Y-135500000D01*
X146750000Y-135500000D02*
X146750000Y-134250000D01*
X141130000Y-141165000D02*
X142045000Y-140250000D01*
X141130000Y-141320000D02*
X141130000Y-141165000D01*
X142045000Y-140250000D02*
X144750000Y-140250000D01*
D26*
X158250000Y-130750000D02*
X157250000Y-130750000D01*
D25*
X149750000Y-134730001D02*
X149199999Y-134180000D01*
X149750000Y-135664386D02*
X149750000Y-134730001D01*
X148500000Y-140000000D02*
X147000000Y-140000000D01*
X144070000Y-133750000D02*
X144500000Y-134180000D01*
X150135614Y-136050000D02*
X149750000Y-135664386D01*
X146500000Y-136180000D02*
X146500000Y-135750000D01*
X150550000Y-136050000D02*
X151050000Y-136050000D01*
X146000000Y-140000000D02*
X147000000Y-140000000D01*
X151050000Y-136050000D02*
X151750000Y-136750000D01*
X146750000Y-134250000D02*
X146680000Y-134180000D01*
D26*
X157250000Y-130750000D02*
X157000000Y-130500000D01*
X159425000Y-131925000D02*
X158250000Y-130750000D01*
X163625000Y-131925000D02*
X159425000Y-131925000D01*
D25*
X146680000Y-134180000D02*
X146000000Y-134180000D01*
D26*
%TO.N,/VBUS*%
X139500000Y-136750000D02*
X139500000Y-138250000D01*
D25*
X151500000Y-139000000D02*
X150750000Y-139750000D01*
X150750000Y-139750000D02*
X150680000Y-139820000D01*
D26*
X141185305Y-134550000D02*
X140735305Y-135000000D01*
X163625000Y-134465000D02*
X158355000Y-134465000D01*
D25*
X155500000Y-139750000D02*
X155500000Y-140500000D01*
X158250000Y-135000000D02*
X157820000Y-135000000D01*
X150680000Y-140699999D02*
X150680000Y-140500000D01*
D26*
X140220000Y-138500000D02*
X140970000Y-139250000D01*
D25*
X157500000Y-138750000D02*
X156500000Y-138750000D01*
D26*
X139500000Y-135500000D02*
X139500000Y-136750000D01*
X142045000Y-134550000D02*
X141185305Y-134550000D01*
D25*
X158500000Y-138000000D02*
X159000000Y-137500000D01*
X156500000Y-138750000D02*
X155500000Y-139750000D01*
X157820000Y-138000000D02*
X157820000Y-138430000D01*
D26*
X140735305Y-135000000D02*
X140000000Y-135000000D01*
X143970000Y-138680000D02*
X145000000Y-138680000D01*
D25*
X149000000Y-134820000D02*
X147500000Y-134820000D01*
X150680000Y-139820000D02*
X150680000Y-140500000D01*
D26*
X158355000Y-134465000D02*
X157820000Y-135000000D01*
D25*
X151230001Y-141250000D02*
X150680000Y-140699999D01*
D26*
X142045000Y-139450000D02*
X143200000Y-139450000D01*
D25*
X154750000Y-141250000D02*
X151230001Y-141250000D01*
D26*
X143200000Y-139450000D02*
X143970000Y-138680000D01*
X141845000Y-139250000D02*
X142045000Y-139450000D01*
D25*
X157820000Y-138000000D02*
X158500000Y-138000000D01*
X155500000Y-140500000D02*
X154750000Y-141250000D01*
X157820000Y-138430000D02*
X157500000Y-138750000D01*
D26*
X139500000Y-138250000D02*
X139750000Y-138500000D01*
D25*
X159000000Y-137500000D02*
X159000000Y-135750000D01*
X159000000Y-135750000D02*
X158250000Y-135000000D01*
D26*
X139750000Y-138500000D02*
X140220000Y-138500000D01*
X140970000Y-139250000D02*
X141845000Y-139250000D01*
D25*
X149000000Y-134820000D02*
X149000000Y-135750000D01*
D26*
X140000000Y-135000000D02*
X139500000Y-135500000D01*
D25*
%TO.N,/RX*%
X156250000Y-139750000D02*
X156250000Y-140750000D01*
X163625000Y-137005000D02*
X161745000Y-137005000D01*
X160750000Y-139000000D02*
X160500000Y-139250000D01*
X157820000Y-141570000D02*
X157820000Y-142000000D01*
X156750000Y-139250000D02*
X156250000Y-139750000D01*
X160500000Y-139250000D02*
X156750000Y-139250000D01*
X156750000Y-141250000D02*
X157500000Y-141250000D01*
X161745000Y-137005000D02*
X160750000Y-138000000D01*
X160750000Y-138000000D02*
X160750000Y-139000000D01*
X156250000Y-140750000D02*
X156750000Y-141250000D01*
X157500000Y-141250000D02*
X157820000Y-141570000D01*
%TO.N,/TX*%
X163170000Y-140000000D02*
X163625000Y-139545000D01*
X157820000Y-140000000D02*
X163170000Y-140000000D01*
%TO.N,/RST*%
X155165000Y-131835000D02*
X155250000Y-131750000D01*
X151500000Y-131835000D02*
X155165000Y-131835000D01*
%TO.N,Net-(D1-A)*%
X157975000Y-133475000D02*
X157975000Y-132500000D01*
X157180000Y-134320000D02*
X158000000Y-133500000D01*
X158000000Y-133500000D02*
X157975000Y-133475000D01*
X157180000Y-135000000D02*
X157180000Y-134320000D01*
%TO.N,/D-*%
X148950000Y-137050000D02*
X148500000Y-137500000D01*
X140250000Y-137000000D02*
X140250000Y-136500000D01*
X144750000Y-136250000D02*
X142045000Y-136250000D01*
X140500000Y-137250000D02*
X140250000Y-137000000D01*
X148500000Y-137500000D02*
X148500000Y-137750000D01*
X142045000Y-136250000D02*
X140500000Y-136250000D01*
X140500000Y-136250000D02*
X140250000Y-136500000D01*
X148500000Y-137750000D02*
X148500000Y-138680000D01*
X142045000Y-137250000D02*
X140500000Y-137250000D01*
X150550000Y-137050000D02*
X148950000Y-137050000D01*
%TO.N,Net-(J1-CC1)*%
X142045000Y-135750000D02*
X143570000Y-135750000D01*
X143570000Y-135750000D02*
X144500000Y-134820000D01*
%TO.N,/D+*%
X148700000Y-136550000D02*
X147750000Y-137500000D01*
X143750000Y-137250000D02*
X143750000Y-137500000D01*
X143250000Y-136750000D02*
X143750000Y-137250000D01*
X147250000Y-137500000D02*
X147000000Y-137750000D01*
X142045000Y-136750000D02*
X143250000Y-136750000D01*
X147000000Y-137750000D02*
X147000000Y-138680000D01*
X147750000Y-137500000D02*
X147250000Y-137500000D01*
X143500000Y-137750000D02*
X142045000Y-137750000D01*
X150550000Y-136550000D02*
X148700000Y-136550000D01*
X143750000Y-137500000D02*
X143500000Y-137750000D01*
%TO.N,Net-(U1-VDD)*%
X150550000Y-137550000D02*
X150135614Y-137550000D01*
X149500000Y-138185614D02*
X149500000Y-141000000D01*
X147180000Y-136820000D02*
X147750000Y-136250000D01*
X146500000Y-136820000D02*
X147180000Y-136820000D01*
X150135614Y-137550000D02*
X149500000Y-138185614D01*
%TO.N,Net-(U1-~{RST})*%
X152000000Y-139820000D02*
X152000000Y-139000000D01*
X151320000Y-140500000D02*
X152000000Y-139820000D01*
%TO.N,Net-(D2-K)*%
X156500000Y-133250000D02*
X156250000Y-133000000D01*
X157000000Y-136000000D02*
X156500000Y-135500000D01*
X156500000Y-135500000D02*
X156500000Y-133250000D01*
X157180000Y-136000000D02*
X157000000Y-136000000D01*
X157180000Y-142000000D02*
X156500000Y-142000000D01*
X153500000Y-133000000D02*
X153000000Y-133500000D01*
X153000000Y-133500000D02*
X153000000Y-134100000D01*
X156500000Y-142000000D02*
X155750000Y-142750000D01*
X156250000Y-133000000D02*
X153500000Y-133000000D01*
%TO.N,Net-(D1-K)*%
X157180000Y-140530000D02*
X157500000Y-140850000D01*
X157500000Y-140850000D02*
X158350000Y-140850000D01*
X157180000Y-140000000D02*
X157180000Y-140530000D01*
X153250000Y-132500000D02*
X156750000Y-132500000D01*
X152500000Y-134100000D02*
X152500000Y-133250000D01*
X158350000Y-140850000D02*
X158750000Y-141250000D01*
X156750000Y-132500000D02*
X157335000Y-132500000D01*
X152500000Y-133250000D02*
X153250000Y-132500000D01*
%TO.N,Net-(U1-~{DTR})*%
X151500000Y-134100000D02*
X151500000Y-132475000D01*
%TO.N,Net-(J1-CC2)*%
X146000000Y-135250000D02*
X145750000Y-135500000D01*
X143250000Y-138750000D02*
X144250000Y-137750000D01*
X144250000Y-137750000D02*
X144500000Y-137500000D01*
X145750000Y-135500000D02*
X145750000Y-136750000D01*
X144500000Y-137500000D02*
X145000000Y-137500000D01*
X145750000Y-136750000D02*
X145000000Y-137500000D01*
X146000000Y-134820000D02*
X146000000Y-135250000D01*
X142045000Y-138750000D02*
X143250000Y-138750000D01*
%TO.N,Net-(D2-A)*%
X157180000Y-138000000D02*
X157180000Y-137570000D01*
X157180000Y-137570000D02*
X157820000Y-136930000D01*
X157820000Y-136930000D02*
X157820000Y-136000000D01*
%TD*%
%TA.AperFunction,Conductor*%
%TO.N,GND*%
G36*
X164000049Y-129875697D02*
G01*
X164013933Y-129876477D01*
X164020917Y-129877066D01*
X164111261Y-129887245D01*
X164125079Y-129889593D01*
X164152144Y-129895770D01*
X164165615Y-129899650D01*
X164244824Y-129927366D01*
X164257777Y-129932732D01*
X164282790Y-129944778D01*
X164295056Y-129951557D01*
X164366109Y-129996202D01*
X164377546Y-130004317D01*
X164399253Y-130021629D01*
X164409701Y-130030967D01*
X164469032Y-130090298D01*
X164478372Y-130100748D01*
X164495685Y-130122457D01*
X164503798Y-130133891D01*
X164548441Y-130204940D01*
X164555221Y-130217209D01*
X164567269Y-130242227D01*
X164572634Y-130255178D01*
X164600348Y-130334382D01*
X164604228Y-130347852D01*
X164610406Y-130374921D01*
X164612754Y-130388738D01*
X164616628Y-130423118D01*
X164615540Y-130458680D01*
X164603486Y-130527502D01*
X164585861Y-130572979D01*
X164572281Y-130590646D01*
X164524932Y-130642026D01*
X164485518Y-130670754D01*
X164466389Y-130677778D01*
X164402572Y-130695461D01*
X164369194Y-130700000D01*
X164000000Y-130700000D01*
X164000000Y-131491988D01*
X163990485Y-131539823D01*
X163963388Y-131580376D01*
X163922835Y-131607473D01*
X163875000Y-131616988D01*
X163827165Y-131607473D01*
X163812500Y-131600241D01*
X163769746Y-131575557D01*
X163674367Y-131550000D01*
X163575633Y-131550000D01*
X163480253Y-131575557D01*
X163437500Y-131600241D01*
X163391316Y-131615919D01*
X163342648Y-131612729D01*
X163298905Y-131591157D01*
X163266747Y-131554488D01*
X163251069Y-131508304D01*
X163250000Y-131491988D01*
X163250000Y-130700000D01*
X162733855Y-130700000D01*
X162696596Y-130704007D01*
X162593429Y-130742486D01*
X162507105Y-130807110D01*
X162442483Y-130893433D01*
X162404006Y-130996597D01*
X162400000Y-131033860D01*
X162400000Y-131550000D01*
X163191988Y-131550000D01*
X163239823Y-131559515D01*
X163280376Y-131586612D01*
X163307473Y-131627165D01*
X163316988Y-131675000D01*
X163307473Y-131722835D01*
X163300241Y-131737500D01*
X163275557Y-131780253D01*
X163250000Y-131875632D01*
X163250000Y-131974367D01*
X163275557Y-132069746D01*
X163300241Y-132112500D01*
X163315919Y-132158684D01*
X163312729Y-132207352D01*
X163291157Y-132251095D01*
X163254488Y-132283253D01*
X163208304Y-132298931D01*
X163191988Y-132300000D01*
X162400000Y-132300000D01*
X162400000Y-132816143D01*
X162404007Y-132853402D01*
X162442486Y-132956569D01*
X162507110Y-133042893D01*
X162593433Y-133107515D01*
X162708152Y-133150302D01*
X162739380Y-133167353D01*
X162795313Y-133209224D01*
X162827905Y-133245508D01*
X162837521Y-133265607D01*
X162861939Y-133331071D01*
X162869741Y-133379216D01*
X162866965Y-133401325D01*
X162852114Y-133469598D01*
X162832648Y-133514318D01*
X162830038Y-133517938D01*
X162808887Y-133546193D01*
X162797207Y-133559672D01*
X162682627Y-133674251D01*
X162571249Y-133833319D01*
X162546901Y-133859264D01*
X162492324Y-133902889D01*
X162449018Y-133925323D01*
X162438421Y-133927894D01*
X162391423Y-133937146D01*
X162367279Y-133939500D01*
X158699013Y-133939500D01*
X158663795Y-133934436D01*
X158596756Y-133914751D01*
X158553540Y-133892145D01*
X158537505Y-133876673D01*
X158491750Y-133823869D01*
X158467616Y-133781486D01*
X158462491Y-133759801D01*
X158452547Y-133690643D01*
X158453824Y-133647737D01*
X158456787Y-133633291D01*
X158458497Y-133626054D01*
X158475500Y-133562598D01*
X158475500Y-133437398D01*
X158458984Y-133375758D01*
X158455794Y-133359723D01*
X158451569Y-133327631D01*
X158450500Y-133311315D01*
X158450500Y-133015354D01*
X158455564Y-132980136D01*
X158475249Y-132913097D01*
X158492919Y-132876435D01*
X158498847Y-132868001D01*
X158501945Y-132863784D01*
X158520349Y-132839799D01*
X158568260Y-132724132D01*
X158580499Y-132631165D01*
X158580499Y-132368830D01*
X158568260Y-132275867D01*
X158520348Y-132160197D01*
X158444131Y-132060868D01*
X158344803Y-131984652D01*
X158229128Y-131936738D01*
X158136166Y-131924500D01*
X157813829Y-131924500D01*
X157704548Y-131938886D01*
X157704428Y-131937976D01*
X157702087Y-131938284D01*
X157702207Y-131939195D01*
X157696495Y-131939947D01*
X157691812Y-131939640D01*
X157687083Y-131940264D01*
X157685891Y-131940264D01*
X157685891Y-131939251D01*
X157680080Y-131938871D01*
X157680080Y-131940264D01*
X157629919Y-131940264D01*
X157629919Y-131938872D01*
X157624211Y-131939247D01*
X157624212Y-131940264D01*
X157623022Y-131940265D01*
X157618257Y-131939639D01*
X157613526Y-131939950D01*
X157613486Y-131939945D01*
X157607773Y-131939192D01*
X157607893Y-131938277D01*
X157605570Y-131937972D01*
X157605450Y-131938887D01*
X157496167Y-131924500D01*
X157175495Y-131924500D01*
X157140892Y-131919615D01*
X157074924Y-131900611D01*
X157048497Y-131888788D01*
X156901256Y-131837266D01*
X156749996Y-131820225D01*
X156598734Y-131837268D01*
X156455054Y-131887544D01*
X156310875Y-131978139D01*
X156278363Y-131992588D01*
X156211126Y-132011588D01*
X156162505Y-132015440D01*
X156140695Y-132010870D01*
X156073860Y-131990502D01*
X156030876Y-131967455D01*
X156015000Y-131951821D01*
X155969786Y-131898553D01*
X155946085Y-131855926D01*
X155941545Y-131836709D01*
X155932187Y-131776009D01*
X155934289Y-131775684D01*
X155934081Y-131774640D01*
X155932025Y-131774958D01*
X155931640Y-131772461D01*
X155931466Y-131763978D01*
X155931351Y-131763992D01*
X155912730Y-131598734D01*
X155862455Y-131455056D01*
X155781468Y-131326166D01*
X155673832Y-131218530D01*
X155544948Y-131137546D01*
X155401255Y-131087266D01*
X155249996Y-131070225D01*
X155098734Y-131087268D01*
X154955054Y-131137544D01*
X154826169Y-131218529D01*
X154758130Y-131286569D01*
X154729647Y-131307891D01*
X154668324Y-131341376D01*
X154621781Y-131355950D01*
X154595423Y-131358784D01*
X154582060Y-131359500D01*
X152015354Y-131359500D01*
X151980136Y-131354436D01*
X151913097Y-131334751D01*
X151876427Y-131317075D01*
X151867993Y-131311146D01*
X151863787Y-131308056D01*
X151839797Y-131289648D01*
X151724130Y-131241738D01*
X151631166Y-131229500D01*
X151368832Y-131229500D01*
X151275866Y-131241739D01*
X151160198Y-131289650D01*
X151060868Y-131365868D01*
X150984650Y-131465198D01*
X150936738Y-131580868D01*
X150924500Y-131673832D01*
X150924500Y-131996168D01*
X150938886Y-132105448D01*
X150937978Y-132105567D01*
X150938286Y-132107905D01*
X150939194Y-132107786D01*
X150939947Y-132113506D01*
X150939640Y-132118184D01*
X150940263Y-132122912D01*
X150940263Y-132124101D01*
X150939252Y-132124101D01*
X150938871Y-132129915D01*
X150940263Y-132129915D01*
X150940265Y-132180076D01*
X150938871Y-132180076D01*
X150939245Y-132185779D01*
X150940265Y-132185779D01*
X150940266Y-132186974D01*
X150939637Y-132191756D01*
X150939948Y-132196495D01*
X150939945Y-132196518D01*
X150939193Y-132202222D01*
X150938277Y-132202101D01*
X150937971Y-132204428D01*
X150938887Y-132204549D01*
X150924500Y-132313832D01*
X150924500Y-132636169D01*
X150936736Y-132729125D01*
X150990946Y-132860002D01*
X150990438Y-132860212D01*
X150994072Y-132870916D01*
X150994371Y-132870801D01*
X151015657Y-132925851D01*
X151023960Y-132965719D01*
X151024391Y-132976044D01*
X151024500Y-132981257D01*
X151024500Y-133565492D01*
X151022098Y-133589877D01*
X151012660Y-133637327D01*
X151011845Y-133640010D01*
X150999500Y-133733798D01*
X150999500Y-134300500D01*
X150994436Y-134335718D01*
X150974751Y-134402757D01*
X150952145Y-134445973D01*
X150936673Y-134462008D01*
X150883869Y-134507763D01*
X150841486Y-134531897D01*
X150828583Y-134535437D01*
X150777072Y-134546643D01*
X150750500Y-134549500D01*
X150183792Y-134549500D01*
X150098158Y-134560773D01*
X149991606Y-134604910D01*
X149966467Y-134624200D01*
X149935444Y-134641621D01*
X149870275Y-134666814D01*
X149822226Y-134675188D01*
X149800085Y-134672673D01*
X149731640Y-134658633D01*
X149686692Y-134639700D01*
X149669426Y-134625615D01*
X149619437Y-134576800D01*
X149591861Y-134536572D01*
X149584950Y-134515387D01*
X149576722Y-134479616D01*
X149534720Y-134457645D01*
X149528525Y-134452309D01*
X149497188Y-134423481D01*
X149482647Y-134407582D01*
X149439128Y-134350866D01*
X149374848Y-134301543D01*
X149349990Y-134276086D01*
X149308790Y-134219660D01*
X149288266Y-134175416D01*
X149284964Y-134153381D01*
X149281947Y-134102747D01*
X149277645Y-134110973D01*
X149262173Y-134127008D01*
X149209369Y-134172763D01*
X149166986Y-134196897D01*
X149154083Y-134200437D01*
X149102572Y-134211643D01*
X149076000Y-134214500D01*
X148924000Y-134214500D01*
X148888782Y-134209436D01*
X148821743Y-134189751D01*
X148778527Y-134167145D01*
X148762492Y-134151673D01*
X148716737Y-134098869D01*
X148692603Y-134056486D01*
X148689063Y-134043583D01*
X148677857Y-133992072D01*
X148675000Y-133965500D01*
X148675000Y-133629060D01*
X149325000Y-133629060D01*
X149325000Y-133964422D01*
X149330812Y-133954073D01*
X149362532Y-133917024D01*
X149381206Y-133904865D01*
X149442923Y-133872113D01*
X149488894Y-133858168D01*
X149513808Y-133855639D01*
X149526432Y-133855000D01*
X149533365Y-133855000D01*
X149514912Y-133810452D01*
X149438774Y-133711227D01*
X149339544Y-133635084D01*
X149325000Y-133629060D01*
X148675000Y-133629060D01*
X148660454Y-133635084D01*
X148561224Y-133711227D01*
X148485089Y-133810448D01*
X148480047Y-133822622D01*
X148461891Y-133853222D01*
X148418050Y-133907625D01*
X148380626Y-133938901D01*
X148360195Y-133947794D01*
X148293900Y-133969859D01*
X148245507Y-133975938D01*
X148223512Y-133972373D01*
X148155813Y-133955094D01*
X148111816Y-133934045D01*
X148095238Y-133919153D01*
X148047628Y-133868015D01*
X148025413Y-133834769D01*
X148021736Y-133826718D01*
X148019955Y-133822625D01*
X148014912Y-133810452D01*
X147938774Y-133711227D01*
X147839544Y-133635084D01*
X147825000Y-133629060D01*
X147825000Y-133965500D01*
X147819936Y-134000718D01*
X147800251Y-134067757D01*
X147777645Y-134110973D01*
X147762173Y-134127008D01*
X147709369Y-134172763D01*
X147666986Y-134196897D01*
X147654083Y-134200437D01*
X147602572Y-134211643D01*
X147576000Y-134214500D01*
X147424000Y-134214500D01*
X147388782Y-134209436D01*
X147321743Y-134189751D01*
X147278527Y-134167145D01*
X147262492Y-134151673D01*
X147216737Y-134098869D01*
X147192603Y-134056486D01*
X147189063Y-134043583D01*
X147177857Y-133992072D01*
X147175000Y-133965500D01*
X147175000Y-133629060D01*
X147160454Y-133635084D01*
X147061224Y-133711227D01*
X146985089Y-133810448D01*
X146980047Y-133822622D01*
X146961891Y-133853222D01*
X146918050Y-133907625D01*
X146880626Y-133938901D01*
X146860195Y-133947794D01*
X146793900Y-133969859D01*
X146745507Y-133975938D01*
X146723512Y-133972373D01*
X146655813Y-133955094D01*
X146611816Y-133934045D01*
X146595238Y-133919153D01*
X146547628Y-133868015D01*
X146525413Y-133834769D01*
X146521736Y-133826718D01*
X146519955Y-133822625D01*
X146514912Y-133810452D01*
X146438774Y-133711227D01*
X146339544Y-133635084D01*
X146325000Y-133629060D01*
X146325000Y-133965500D01*
X146319936Y-134000718D01*
X146300251Y-134067757D01*
X146277645Y-134110973D01*
X146262173Y-134127008D01*
X146209369Y-134172763D01*
X146166986Y-134196897D01*
X146154083Y-134200437D01*
X146102572Y-134211643D01*
X146076000Y-134214500D01*
X145924000Y-134214500D01*
X145888782Y-134209436D01*
X145821743Y-134189751D01*
X145778527Y-134167145D01*
X145762492Y-134151673D01*
X145716737Y-134098869D01*
X145692603Y-134056486D01*
X145689063Y-134043583D01*
X145677857Y-133992072D01*
X145675000Y-133965500D01*
X145675000Y-133629060D01*
X145660454Y-133635084D01*
X145561224Y-133711227D01*
X145485089Y-133810448D01*
X145480047Y-133822622D01*
X145461891Y-133853222D01*
X145418050Y-133907625D01*
X145380626Y-133938901D01*
X145360195Y-133947794D01*
X145293900Y-133969859D01*
X145245507Y-133975938D01*
X145223512Y-133972373D01*
X145155813Y-133955094D01*
X145111816Y-133934045D01*
X145095238Y-133919153D01*
X145047628Y-133868015D01*
X145025413Y-133834769D01*
X145021736Y-133826718D01*
X145019955Y-133822625D01*
X145014912Y-133810452D01*
X144938774Y-133711227D01*
X144839544Y-133635084D01*
X144825000Y-133629060D01*
X144825000Y-133965500D01*
X144819936Y-134000718D01*
X144800251Y-134067757D01*
X144777645Y-134110973D01*
X144762173Y-134127008D01*
X144709369Y-134172763D01*
X144666986Y-134196897D01*
X144654083Y-134200437D01*
X144602572Y-134211643D01*
X144576000Y-134214500D01*
X144424000Y-134214500D01*
X144388782Y-134209436D01*
X144321743Y-134189751D01*
X144278527Y-134167145D01*
X144262492Y-134151673D01*
X144219830Y-134102438D01*
X144220034Y-134103857D01*
X144217423Y-134152559D01*
X144210010Y-134173574D01*
X144180985Y-134237130D01*
X144152999Y-134276183D01*
X144134776Y-134293352D01*
X144125154Y-134301541D01*
X144060870Y-134350868D01*
X144017353Y-134407582D01*
X143991896Y-134432440D01*
X143939633Y-134470600D01*
X143939357Y-134474815D01*
X143940525Y-134474815D01*
X143940526Y-134525116D01*
X143938875Y-134525116D01*
X143939118Y-134528848D01*
X143940526Y-134528848D01*
X143940527Y-134531049D01*
X143939679Y-134537485D01*
X143939943Y-134541531D01*
X143939452Y-134545253D01*
X143938671Y-134545149D01*
X143938105Y-134549447D01*
X143938887Y-134549550D01*
X143925797Y-134648977D01*
X143916179Y-134683232D01*
X143887912Y-134747128D01*
X143865585Y-134781195D01*
X143858594Y-134788793D01*
X143854996Y-134792543D01*
X143570568Y-135076971D01*
X143542086Y-135098293D01*
X143480763Y-135131778D01*
X143434219Y-135146352D01*
X143411940Y-135146750D01*
X143342248Y-135141766D01*
X143295214Y-135128863D01*
X143276254Y-135117151D01*
X143220321Y-135075279D01*
X143187729Y-135038994D01*
X143178113Y-135018895D01*
X143153696Y-134953431D01*
X143145895Y-134914210D01*
X143145579Y-134905364D01*
X143145499Y-134900902D01*
X143145499Y-134208827D01*
X143141783Y-134174258D01*
X143141067Y-134160893D01*
X143141068Y-134134388D01*
X143141784Y-134121031D01*
X143145000Y-134091116D01*
X143145000Y-134088289D01*
X143124651Y-134077645D01*
X143117910Y-134071804D01*
X143085684Y-134041802D01*
X143070792Y-134025223D01*
X143038248Y-133981750D01*
X142951807Y-133917041D01*
X142848510Y-133878513D01*
X142811167Y-133874500D01*
X141278820Y-133874500D01*
X141241488Y-133878513D01*
X141219627Y-133886668D01*
X141184859Y-133894232D01*
X141115167Y-133899216D01*
X141066774Y-133893137D01*
X141046342Y-133884243D01*
X140992789Y-133855000D01*
X143966634Y-133855000D01*
X143973568Y-133855000D01*
X144008786Y-133860064D01*
X144075825Y-133879749D01*
X144119041Y-133902355D01*
X144135076Y-133917827D01*
X144175000Y-133963901D01*
X144175000Y-133629060D01*
X144160454Y-133635084D01*
X144061226Y-133711226D01*
X143985084Y-133810454D01*
X143966634Y-133855000D01*
X140992789Y-133855000D01*
X140985021Y-133850758D01*
X140956541Y-133829437D01*
X140927173Y-133800069D01*
X140905851Y-133771587D01*
X140872366Y-133710264D01*
X140857792Y-133663720D01*
X140857394Y-133641441D01*
X140862378Y-133571749D01*
X140875281Y-133524715D01*
X140886993Y-133505755D01*
X140928865Y-133449822D01*
X140965150Y-133417230D01*
X140985249Y-133407614D01*
X141050713Y-133383197D01*
X141089934Y-133375396D01*
X141098780Y-133375080D01*
X141103242Y-133375000D01*
X141670000Y-133375000D01*
X141670000Y-133055000D01*
X142420000Y-133055000D01*
X142420000Y-133375000D01*
X143141358Y-133375000D01*
X143140991Y-133371596D01*
X143102512Y-133268429D01*
X143037888Y-133182105D01*
X142951565Y-133117483D01*
X142848401Y-133079006D01*
X142811139Y-133075000D01*
X142724924Y-133075000D01*
X142689706Y-133069936D01*
X142638840Y-133055000D01*
X142420000Y-133055000D01*
X141670000Y-133055000D01*
X141670000Y-132959769D01*
X141679515Y-132911934D01*
X141706612Y-132871381D01*
X141734232Y-132852925D01*
X141733296Y-132851303D01*
X141787454Y-132820034D01*
X141820034Y-132787454D01*
X141843073Y-132747549D01*
X141855000Y-132703039D01*
X141855000Y-132656960D01*
X141843073Y-132612450D01*
X141820034Y-132572545D01*
X141787455Y-132539966D01*
X141784489Y-132538254D01*
X141747820Y-132506096D01*
X141726248Y-132462354D01*
X141723057Y-132413686D01*
X141738734Y-132367501D01*
X141770892Y-132330832D01*
X141814634Y-132309260D01*
X141846988Y-132305000D01*
X142471762Y-132305000D01*
X142455410Y-132265523D01*
X142359655Y-132122217D01*
X142237778Y-132000341D01*
X142094463Y-131904582D01*
X141935217Y-131838622D01*
X141766185Y-131805000D01*
X141505000Y-131805000D01*
X141505000Y-132380000D01*
X141495485Y-132427835D01*
X141468388Y-132468388D01*
X141427835Y-132495485D01*
X141380000Y-132505000D01*
X140880000Y-132505000D01*
X140832165Y-132495485D01*
X140791612Y-132468388D01*
X140764515Y-132427835D01*
X140755000Y-132380000D01*
X140755000Y-131805000D01*
X140493815Y-131805000D01*
X140324769Y-131838625D01*
X140165523Y-131904588D01*
X140022217Y-132000343D01*
X139900341Y-132122220D01*
X139804579Y-132265539D01*
X139788235Y-132305000D01*
X140413012Y-132305000D01*
X140460847Y-132314515D01*
X140501400Y-132341612D01*
X140528497Y-132382165D01*
X140538012Y-132430000D01*
X140528497Y-132477835D01*
X140501400Y-132518388D01*
X140475511Y-132538254D01*
X140472544Y-132539966D01*
X140439965Y-132572545D01*
X140416926Y-132612450D01*
X140405000Y-132656960D01*
X140405000Y-132703039D01*
X140416926Y-132747549D01*
X140439965Y-132787454D01*
X140472544Y-132820033D01*
X140475511Y-132821746D01*
X140512180Y-132853904D01*
X140533752Y-132897646D01*
X140536943Y-132946314D01*
X140521266Y-132992499D01*
X140489108Y-133029168D01*
X140445366Y-133050740D01*
X140413012Y-133055000D01*
X139788237Y-133055000D01*
X139804588Y-133094475D01*
X139900343Y-133237781D01*
X140022221Y-133359658D01*
X140180834Y-133465641D01*
X140197519Y-133482326D01*
X140198015Y-133481821D01*
X140242010Y-133525027D01*
X140269472Y-133565333D01*
X140276322Y-133586534D01*
X140291792Y-133654669D01*
X140293105Y-133703424D01*
X140287405Y-133724966D01*
X140263582Y-133790649D01*
X140247960Y-133817475D01*
X140247271Y-133818866D01*
X140247738Y-133819136D01*
X140180200Y-133936112D01*
X140149500Y-134050690D01*
X140149500Y-134175580D01*
X140152369Y-134199580D01*
X140150707Y-134269428D01*
X140140056Y-134317024D01*
X140129261Y-134336517D01*
X140090099Y-134394380D01*
X140055408Y-134428662D01*
X140040193Y-134437237D01*
X139985436Y-134463235D01*
X139956211Y-134472914D01*
X139846713Y-134494695D01*
X139751087Y-134534304D01*
X139665006Y-134591821D01*
X139091818Y-135165009D01*
X139034308Y-135251081D01*
X138994693Y-135346721D01*
X138974500Y-135448239D01*
X138974500Y-136244931D01*
X138969615Y-136279535D01*
X138950609Y-136345507D01*
X138936335Y-136377407D01*
X138887542Y-136455059D01*
X138837266Y-136598742D01*
X138820225Y-136750002D01*
X138837268Y-136901264D01*
X138887543Y-137044942D01*
X138936333Y-137122589D01*
X138950607Y-137154489D01*
X138969614Y-137220462D01*
X138974500Y-137255067D01*
X138974499Y-138301757D01*
X138994694Y-138403281D01*
X139034309Y-138498918D01*
X139091821Y-138584992D01*
X139415007Y-138908178D01*
X139501082Y-138965691D01*
X139596721Y-139005305D01*
X139698243Y-139025500D01*
X139899192Y-139025500D01*
X139934410Y-139030564D01*
X140001449Y-139050249D01*
X140044661Y-139072852D01*
X140065298Y-139089481D01*
X140075256Y-139098425D01*
X140238795Y-139261963D01*
X140260117Y-139290446D01*
X140293601Y-139351768D01*
X140308175Y-139398313D01*
X140308573Y-139420591D01*
X140303589Y-139490282D01*
X140290685Y-139537317D01*
X140284065Y-139548943D01*
X140255567Y-139593289D01*
X140239861Y-139612777D01*
X140180200Y-139716112D01*
X140149500Y-139830690D01*
X140149500Y-139949308D01*
X140180201Y-140063889D01*
X140247740Y-140180867D01*
X140247262Y-140181142D01*
X140265041Y-140217191D01*
X140277011Y-140239112D01*
X140291586Y-140285656D01*
X140291984Y-140307937D01*
X140287000Y-140377629D01*
X140274097Y-140424663D01*
X140262385Y-140443623D01*
X140220513Y-140499556D01*
X140187564Y-140530097D01*
X140180196Y-140534786D01*
X140022219Y-140640341D01*
X139900341Y-140762220D01*
X139804579Y-140905539D01*
X139788235Y-140945000D01*
X140413012Y-140945000D01*
X140460847Y-140954515D01*
X140501400Y-140981612D01*
X140528497Y-141022165D01*
X140538012Y-141070000D01*
X140528497Y-141117835D01*
X140501400Y-141158388D01*
X140475511Y-141178254D01*
X140472544Y-141179966D01*
X140439965Y-141212545D01*
X140416926Y-141252450D01*
X140405000Y-141296960D01*
X140405000Y-141343039D01*
X140416926Y-141387549D01*
X140439965Y-141427454D01*
X140472544Y-141460033D01*
X140475511Y-141461746D01*
X140512180Y-141493904D01*
X140533752Y-141537646D01*
X140536943Y-141586314D01*
X140521266Y-141632499D01*
X140489108Y-141669168D01*
X140445366Y-141690740D01*
X140413012Y-141695000D01*
X139788237Y-141695000D01*
X139804588Y-141734475D01*
X139900343Y-141877781D01*
X140022220Y-141999657D01*
X140165535Y-142095416D01*
X140324781Y-142161376D01*
X140493818Y-142195000D01*
X140755000Y-142195000D01*
X140755000Y-141620000D01*
X140764515Y-141572165D01*
X140791612Y-141531612D01*
X140832165Y-141504515D01*
X140880000Y-141495000D01*
X141380000Y-141495000D01*
X141427835Y-141504515D01*
X141468388Y-141531612D01*
X141495485Y-141572165D01*
X141505000Y-141620000D01*
X141505000Y-142194999D01*
X141766183Y-142194999D01*
X141935229Y-142161373D01*
X142094475Y-142095410D01*
X142237781Y-141999655D01*
X142359657Y-141877778D01*
X142455419Y-141734459D01*
X142471764Y-141695000D01*
X141846988Y-141695000D01*
X141799153Y-141685485D01*
X141758600Y-141658388D01*
X141731503Y-141617835D01*
X141721988Y-141570000D01*
X141731503Y-141522165D01*
X141758600Y-141481612D01*
X141784489Y-141461746D01*
X141787455Y-141460033D01*
X141820034Y-141427454D01*
X141843073Y-141387549D01*
X141855000Y-141343039D01*
X141855000Y-141296960D01*
X141843073Y-141252450D01*
X141820034Y-141212545D01*
X141787455Y-141179966D01*
X141784489Y-141178254D01*
X141747820Y-141146096D01*
X141726248Y-141102354D01*
X141723057Y-141053686D01*
X141738734Y-141007501D01*
X141770892Y-140970832D01*
X141814634Y-140949260D01*
X141846988Y-140945000D01*
X142634554Y-140945000D01*
X142661339Y-140933624D01*
X142667376Y-140932521D01*
X142705482Y-140926521D01*
X142724923Y-140925000D01*
X142811142Y-140924999D01*
X142848402Y-140920991D01*
X142951569Y-140882512D01*
X143037893Y-140817888D01*
X143102515Y-140731565D01*
X143140992Y-140628401D01*
X143141358Y-140625000D01*
X141103242Y-140625000D01*
X141068024Y-140619936D01*
X141000985Y-140600251D01*
X140957769Y-140577645D01*
X140941734Y-140562173D01*
X140895979Y-140509369D01*
X140871845Y-140466986D01*
X140866720Y-140445301D01*
X140856776Y-140376143D01*
X140859387Y-140327441D01*
X140860248Y-140325000D01*
X144431468Y-140325000D01*
X144467486Y-140421569D01*
X144532110Y-140507893D01*
X144618433Y-140572515D01*
X144675000Y-140593612D01*
X144675000Y-140325000D01*
X145325000Y-140325000D01*
X145325000Y-140593611D01*
X145381569Y-140572512D01*
X145467893Y-140507888D01*
X145532515Y-140421565D01*
X145568531Y-140325000D01*
X146431468Y-140325000D01*
X146467486Y-140421569D01*
X146532110Y-140507893D01*
X146618433Y-140572515D01*
X146675000Y-140593612D01*
X146675000Y-140325000D01*
X146431468Y-140325000D01*
X145568531Y-140325000D01*
X145325000Y-140325000D01*
X144675000Y-140325000D01*
X144431468Y-140325000D01*
X140860248Y-140325000D01*
X140866800Y-140306426D01*
X140895825Y-140242870D01*
X140918033Y-140209629D01*
X140924049Y-140203166D01*
X140927157Y-140199946D01*
X140956542Y-140170561D01*
X140985023Y-140149239D01*
X141046342Y-140115756D01*
X141092887Y-140101182D01*
X141115165Y-140100784D01*
X141184858Y-140105768D01*
X141219623Y-140113330D01*
X141241489Y-140121485D01*
X141278829Y-140125499D01*
X142811172Y-140125499D01*
X142848512Y-140121485D01*
X142951809Y-140082957D01*
X143029010Y-140025166D01*
X143060237Y-140008114D01*
X143125702Y-139983697D01*
X143164923Y-139975896D01*
X143173769Y-139975580D01*
X143178231Y-139975500D01*
X143251759Y-139975500D01*
X143353280Y-139955305D01*
X143448918Y-139915690D01*
X143534988Y-139858181D01*
X144046394Y-139346775D01*
X144074877Y-139325453D01*
X144136198Y-139291970D01*
X144182742Y-139277396D01*
X144205020Y-139276998D01*
X144274711Y-139281982D01*
X144321746Y-139294886D01*
X144340703Y-139306596D01*
X144396637Y-139348467D01*
X144429229Y-139384750D01*
X144438847Y-139404852D01*
X144463264Y-139470317D01*
X144471065Y-139518462D01*
X144469873Y-139531789D01*
X144462371Y-139583967D01*
X144455763Y-139609859D01*
X144431468Y-139675000D01*
X145568531Y-139675000D01*
X145532513Y-139578432D01*
X145466043Y-139489640D01*
X145448992Y-139458414D01*
X145424574Y-139392950D01*
X145416772Y-139344805D01*
X145419548Y-139322696D01*
X145434399Y-139254423D01*
X145451382Y-139213419D01*
X145460944Y-139198538D01*
X145466038Y-139191200D01*
X145532958Y-139101807D01*
X145571485Y-138998511D01*
X145575499Y-138961170D01*
X145575499Y-138398827D01*
X145571485Y-138361489D01*
X145532956Y-138258190D01*
X145518477Y-138238848D01*
X145501427Y-138207622D01*
X145477010Y-138142160D01*
X145469208Y-138094016D01*
X145471984Y-138071907D01*
X145486835Y-138003634D01*
X145506301Y-137958914D01*
X145508911Y-137955294D01*
X145525623Y-137932969D01*
X145525694Y-137933022D01*
X145527670Y-137929877D01*
X145527690Y-137929840D01*
X145527710Y-137929814D01*
X145612455Y-137794943D01*
X145662730Y-137651265D01*
X145670947Y-137578335D01*
X145679921Y-137543906D01*
X145706986Y-137479495D01*
X145729445Y-137444153D01*
X145737909Y-137434778D01*
X145742302Y-137430155D01*
X145806004Y-137366453D01*
X145834487Y-137345131D01*
X145895808Y-137311648D01*
X145942352Y-137297074D01*
X145964630Y-137296676D01*
X146034322Y-137301660D01*
X146081356Y-137314563D01*
X146085965Y-137316992D01*
X146118118Y-137334799D01*
X146133654Y-137344981D01*
X146160194Y-137365346D01*
X146181370Y-137374118D01*
X146211968Y-137392273D01*
X146266371Y-137436114D01*
X146297647Y-137473538D01*
X146306540Y-137493969D01*
X146328605Y-137560263D01*
X146334910Y-137604520D01*
X146334209Y-137622829D01*
X146333515Y-137632041D01*
X146320225Y-137750000D01*
X146337270Y-137901272D01*
X146387541Y-138044938D01*
X146421871Y-138099574D01*
X146436319Y-138132086D01*
X146455319Y-138199323D01*
X146459171Y-138247944D01*
X146457929Y-138256138D01*
X146450117Y-138298204D01*
X146444338Y-138319061D01*
X146428514Y-138361487D01*
X146424500Y-138398835D01*
X146424500Y-138961178D01*
X146428513Y-138998512D01*
X146467042Y-139101810D01*
X146533956Y-139191194D01*
X146551007Y-139222420D01*
X146575425Y-139287884D01*
X146583227Y-139336029D01*
X146580451Y-139358138D01*
X146565600Y-139426411D01*
X146548613Y-139467422D01*
X146539047Y-139482307D01*
X146533957Y-139489637D01*
X146467483Y-139578434D01*
X146431468Y-139675000D01*
X147076000Y-139675000D01*
X147111218Y-139680064D01*
X147178257Y-139699749D01*
X147221473Y-139722355D01*
X147237508Y-139737827D01*
X147283263Y-139790631D01*
X147307397Y-139833014D01*
X147310937Y-139845917D01*
X147322143Y-139897428D01*
X147325000Y-139924000D01*
X147325000Y-140593611D01*
X147381569Y-140572512D01*
X147467892Y-140507889D01*
X147548602Y-140400078D01*
X147566306Y-140384175D01*
X147602181Y-140348300D01*
X147642733Y-140321203D01*
X147663997Y-140314544D01*
X147732270Y-140299691D01*
X147781035Y-140298820D01*
X147802523Y-140304714D01*
X147867988Y-140329129D01*
X147909483Y-140354760D01*
X147918777Y-140364391D01*
X147943728Y-140393186D01*
X147951398Y-140400078D01*
X148032110Y-140507893D01*
X148118433Y-140572515D01*
X148175000Y-140593612D01*
X148175000Y-139924000D01*
X148180064Y-139888782D01*
X148199749Y-139821743D01*
X148222355Y-139778527D01*
X148237827Y-139762492D01*
X148290631Y-139716737D01*
X148333014Y-139692603D01*
X148345917Y-139689063D01*
X148397428Y-139677857D01*
X148424000Y-139675000D01*
X148576000Y-139675000D01*
X148611218Y-139680064D01*
X148678257Y-139699749D01*
X148721473Y-139722355D01*
X148737508Y-139737827D01*
X148783263Y-139790631D01*
X148807397Y-139833014D01*
X148810937Y-139845917D01*
X148822143Y-139897428D01*
X148825000Y-139924000D01*
X148825000Y-140729154D01*
X148836870Y-140767063D01*
X148837423Y-140774052D01*
X148839477Y-140814293D01*
X148838854Y-140834660D01*
X148820225Y-141000002D01*
X148837268Y-141151264D01*
X148887544Y-141294944D01*
X148968530Y-141423832D01*
X149076166Y-141531468D01*
X149205053Y-141612453D01*
X149348742Y-141662732D01*
X149500003Y-141679774D01*
X149651265Y-141662730D01*
X149794943Y-141612455D01*
X149923833Y-141531468D01*
X150031468Y-141423833D01*
X150119949Y-141283018D01*
X150120389Y-141283294D01*
X150125006Y-141274411D01*
X150125912Y-141273148D01*
X150127351Y-141274180D01*
X150129213Y-141271707D01*
X150127715Y-141270633D01*
X150165713Y-141217647D01*
X150201323Y-141184319D01*
X150221220Y-141174294D01*
X150286171Y-141148541D01*
X150334146Y-141139754D01*
X150356308Y-141142078D01*
X150424871Y-141155529D01*
X150469980Y-141174075D01*
X150474689Y-141177362D01*
X150505184Y-141199707D01*
X150519690Y-141212148D01*
X150938035Y-141630494D01*
X151046462Y-141693095D01*
X151167404Y-141725501D01*
X154812599Y-141725501D01*
X154933538Y-141693094D01*
X155041962Y-141630495D01*
X155573929Y-141098528D01*
X155602412Y-141077206D01*
X155663735Y-141043721D01*
X155710279Y-141029147D01*
X155732558Y-141028749D01*
X155802250Y-141033733D01*
X155849284Y-141046636D01*
X155860915Y-141053259D01*
X155905262Y-141081760D01*
X155926068Y-141098528D01*
X156151471Y-141323931D01*
X156172793Y-141352413D01*
X156206278Y-141413736D01*
X156220852Y-141460280D01*
X156221250Y-141482559D01*
X156216266Y-141552251D01*
X156203363Y-141599285D01*
X156196740Y-141610916D01*
X156168239Y-141655263D01*
X156151471Y-141676069D01*
X155819853Y-142007686D01*
X155791371Y-142029008D01*
X155730048Y-142062493D01*
X155690451Y-142076122D01*
X155677977Y-142078176D01*
X155671663Y-142079051D01*
X155598742Y-142087266D01*
X155455053Y-142137545D01*
X155326166Y-142218530D01*
X155218530Y-142326166D01*
X155137546Y-142455050D01*
X155087266Y-142598743D01*
X155070225Y-142750002D01*
X155087268Y-142901264D01*
X155137544Y-143044944D01*
X155218530Y-143173832D01*
X155326166Y-143281468D01*
X155455053Y-143362453D01*
X155598742Y-143412732D01*
X155750003Y-143429774D01*
X155901265Y-143412730D01*
X156044943Y-143362455D01*
X156173833Y-143281468D01*
X156281468Y-143173833D01*
X156362455Y-143044943D01*
X156412730Y-142901265D01*
X156420947Y-142828335D01*
X156429921Y-142793906D01*
X156456986Y-142729495D01*
X156479445Y-142694153D01*
X156487909Y-142684778D01*
X156492302Y-142680155D01*
X156584303Y-142588154D01*
X156612786Y-142566832D01*
X156674107Y-142533349D01*
X156720651Y-142518775D01*
X156742929Y-142518377D01*
X156812621Y-142523361D01*
X156849489Y-142531730D01*
X156853607Y-142533351D01*
X156855657Y-142534179D01*
X156925867Y-142563260D01*
X157018834Y-142575499D01*
X157341168Y-142575499D01*
X157450447Y-142561113D01*
X157450565Y-142562015D01*
X157452912Y-142561705D01*
X157452794Y-142560804D01*
X157458530Y-142560050D01*
X157463144Y-142560353D01*
X157467795Y-142559739D01*
X157468980Y-142559738D01*
X157468980Y-142560737D01*
X157474918Y-142561127D01*
X157474918Y-142559738D01*
X157525078Y-142559737D01*
X157525078Y-142561120D01*
X157530907Y-142560740D01*
X157530907Y-142559737D01*
X157532091Y-142559737D01*
X157536806Y-142560357D01*
X157541496Y-142560052D01*
X157547223Y-142560806D01*
X157547103Y-142561711D01*
X157549434Y-142562017D01*
X157549554Y-142561113D01*
X157658834Y-142575499D01*
X157981168Y-142575499D01*
X158074132Y-142563260D01*
X158189802Y-142515348D01*
X158289131Y-142439131D01*
X158365348Y-142339802D01*
X158413260Y-142224132D01*
X158424470Y-142138985D01*
X158434087Y-142104730D01*
X158462353Y-142040835D01*
X158490407Y-142000938D01*
X158507841Y-141987059D01*
X158566166Y-141948588D01*
X158611336Y-141930193D01*
X158623428Y-141928470D01*
X158673659Y-141923803D01*
X158699217Y-141924053D01*
X158750001Y-141929774D01*
X158901265Y-141912730D01*
X159044943Y-141862455D01*
X159173833Y-141781468D01*
X159281468Y-141673833D01*
X159362453Y-141544946D01*
X159412732Y-141401257D01*
X159429774Y-141249996D01*
X159412730Y-141098734D01*
X159362455Y-140955055D01*
X159300828Y-140856978D01*
X159286379Y-140824466D01*
X159267378Y-140757229D01*
X159263526Y-140708609D01*
X159268096Y-140686798D01*
X159288463Y-140619963D01*
X159311509Y-140576979D01*
X159327143Y-140561103D01*
X159380411Y-140515888D01*
X159423038Y-140492187D01*
X159435355Y-140488909D01*
X159485714Y-140478223D01*
X159511661Y-140475500D01*
X162738787Y-140475500D01*
X162774005Y-140480564D01*
X162841044Y-140500249D01*
X162875468Y-140516382D01*
X162879552Y-140519122D01*
X162881607Y-140520531D01*
X163010855Y-140611031D01*
X163036799Y-140635378D01*
X163080424Y-140689955D01*
X163102858Y-140733261D01*
X163107119Y-140755132D01*
X163114313Y-140824630D01*
X163109773Y-140873190D01*
X163101532Y-140893896D01*
X163070009Y-140956251D01*
X163040311Y-140994324D01*
X163021015Y-141011044D01*
X163010855Y-141018969D01*
X162834250Y-141142627D01*
X162682627Y-141294250D01*
X162559632Y-141469907D01*
X162469003Y-141664261D01*
X162413506Y-141871385D01*
X162394818Y-142084999D01*
X162413508Y-142298621D01*
X162469008Y-142505751D01*
X162559631Y-142700092D01*
X162682627Y-142875747D01*
X162834252Y-143027372D01*
X163009906Y-143150366D01*
X163204260Y-143240994D01*
X163411383Y-143296492D01*
X163625000Y-143315181D01*
X163838616Y-143296492D01*
X164045751Y-143240991D01*
X164250003Y-143145747D01*
X164250257Y-143146292D01*
X164252510Y-143145528D01*
X164264397Y-143139519D01*
X164265185Y-143139253D01*
X164265783Y-143141024D01*
X164268447Y-143140120D01*
X164267851Y-143138353D01*
X164330638Y-143117179D01*
X164379006Y-143110909D01*
X164401014Y-143114386D01*
X164468781Y-143131396D01*
X164512861Y-143152271D01*
X164529495Y-143167094D01*
X164577309Y-143218041D01*
X164603107Y-143259432D01*
X164607756Y-143274595D01*
X164621093Y-143330540D01*
X164624500Y-143359527D01*
X164624500Y-143493038D01*
X164624303Y-143500049D01*
X164623523Y-143513934D01*
X164622934Y-143520920D01*
X164612754Y-143611261D01*
X164610406Y-143625078D01*
X164604228Y-143652147D01*
X164600348Y-143665617D01*
X164572634Y-143744821D01*
X164567269Y-143757772D01*
X164555221Y-143782790D01*
X164548441Y-143795059D01*
X164503798Y-143866108D01*
X164495685Y-143877542D01*
X164478372Y-143899251D01*
X164469032Y-143909701D01*
X164409701Y-143969032D01*
X164399251Y-143978372D01*
X164377542Y-143995685D01*
X164366108Y-144003798D01*
X164295059Y-144048441D01*
X164282790Y-144055221D01*
X164257772Y-144067269D01*
X164244821Y-144072634D01*
X164165617Y-144100348D01*
X164152147Y-144104228D01*
X164125078Y-144110406D01*
X164111261Y-144112754D01*
X164020918Y-144122934D01*
X164013933Y-144123523D01*
X164000050Y-144124303D01*
X163993038Y-144124500D01*
X135006962Y-144124500D01*
X134999951Y-144124303D01*
X134986067Y-144123523D01*
X134979081Y-144122934D01*
X134888738Y-144112754D01*
X134874921Y-144110406D01*
X134847852Y-144104228D01*
X134834382Y-144100348D01*
X134755178Y-144072634D01*
X134742227Y-144067269D01*
X134717209Y-144055221D01*
X134704940Y-144048441D01*
X134633891Y-144003798D01*
X134622457Y-143995685D01*
X134600748Y-143978372D01*
X134590298Y-143969032D01*
X134530967Y-143909701D01*
X134521627Y-143899251D01*
X134504314Y-143877542D01*
X134496201Y-143866108D01*
X134451558Y-143795059D01*
X134444778Y-143782790D01*
X134432730Y-143757772D01*
X134427365Y-143744821D01*
X134399651Y-143665617D01*
X134395770Y-143652146D01*
X134389592Y-143625076D01*
X134387245Y-143611259D01*
X134377066Y-143520918D01*
X134376477Y-143513933D01*
X134375697Y-143500049D01*
X134375500Y-143493038D01*
X134375500Y-141695000D01*
X135858237Y-141695000D01*
X135874588Y-141734475D01*
X135970343Y-141877781D01*
X136092220Y-141999657D01*
X136235535Y-142095416D01*
X136394781Y-142161376D01*
X136563818Y-142195000D01*
X136575000Y-142195000D01*
X136575000Y-141653000D01*
X137325000Y-141653000D01*
X137325000Y-142194999D01*
X137336183Y-142194999D01*
X137505229Y-142161373D01*
X137664475Y-142095410D01*
X137807781Y-141999655D01*
X137929657Y-141877778D01*
X138025419Y-141734459D01*
X138041764Y-141695000D01*
X137416988Y-141695000D01*
X137369153Y-141685485D01*
X137328600Y-141658388D01*
X137325000Y-141653000D01*
X136575000Y-141653000D01*
X136575000Y-141651046D01*
X136559108Y-141669168D01*
X136515366Y-141690740D01*
X136483012Y-141695000D01*
X135858237Y-141695000D01*
X134375500Y-141695000D01*
X134375500Y-141343039D01*
X136475000Y-141343039D01*
X136486926Y-141387549D01*
X136509965Y-141427454D01*
X136542544Y-141460033D01*
X136545511Y-141461746D01*
X136582180Y-141493904D01*
X136603752Y-141537646D01*
X136604094Y-141542863D01*
X136611612Y-141531612D01*
X136652165Y-141504515D01*
X136700000Y-141495000D01*
X137200000Y-141495000D01*
X137247835Y-141504515D01*
X137288388Y-141531612D01*
X137297046Y-141544569D01*
X137301503Y-141522165D01*
X137328600Y-141481612D01*
X137354489Y-141461746D01*
X137357455Y-141460033D01*
X137390034Y-141427454D01*
X137413073Y-141387549D01*
X137425000Y-141343039D01*
X137425000Y-141296960D01*
X137413073Y-141252450D01*
X137390034Y-141212545D01*
X137357455Y-141179966D01*
X137354489Y-141178254D01*
X137317820Y-141146096D01*
X137296248Y-141102354D01*
X137295905Y-141097136D01*
X137288388Y-141108388D01*
X137247835Y-141135485D01*
X137200000Y-141145000D01*
X136700000Y-141145000D01*
X136652165Y-141135485D01*
X136611612Y-141108388D01*
X136602953Y-141095430D01*
X136598497Y-141117835D01*
X136571400Y-141158388D01*
X136545511Y-141178254D01*
X136542544Y-141179966D01*
X136509965Y-141212545D01*
X136486926Y-141252450D01*
X136475000Y-141296960D01*
X136475000Y-141343039D01*
X134375500Y-141343039D01*
X134375500Y-140945000D01*
X135858235Y-140945000D01*
X136483012Y-140945000D01*
X136530847Y-140954515D01*
X136571400Y-140981612D01*
X136575000Y-140986999D01*
X136575000Y-140445000D01*
X137325000Y-140445000D01*
X137325000Y-140988953D01*
X137340892Y-140970832D01*
X137384634Y-140949260D01*
X137416988Y-140945000D01*
X138041762Y-140945000D01*
X138025410Y-140905523D01*
X137929655Y-140762217D01*
X137807778Y-140640341D01*
X137664463Y-140544582D01*
X137505217Y-140478622D01*
X137336185Y-140445000D01*
X137325000Y-140445000D01*
X136575000Y-140445000D01*
X136563815Y-140445000D01*
X136394769Y-140478625D01*
X136235523Y-140544588D01*
X136092217Y-140640343D01*
X135970341Y-140762220D01*
X135874579Y-140905539D01*
X135858235Y-140945000D01*
X134375500Y-140945000D01*
X134375500Y-133055000D01*
X135858237Y-133055000D01*
X135874588Y-133094475D01*
X135970343Y-133237781D01*
X136092220Y-133359657D01*
X136235535Y-133455416D01*
X136394781Y-133521376D01*
X136563818Y-133555000D01*
X136575000Y-133555000D01*
X136575000Y-133013000D01*
X137325000Y-133013000D01*
X137325000Y-133554999D01*
X137336183Y-133554999D01*
X137505229Y-133521373D01*
X137664475Y-133455410D01*
X137807781Y-133359655D01*
X137929657Y-133237778D01*
X138025419Y-133094459D01*
X138041764Y-133055000D01*
X137416988Y-133055000D01*
X137369153Y-133045485D01*
X137328600Y-133018388D01*
X137325000Y-133013000D01*
X136575000Y-133013000D01*
X136575000Y-133011046D01*
X136559108Y-133029168D01*
X136515366Y-133050740D01*
X136483012Y-133055000D01*
X135858237Y-133055000D01*
X134375500Y-133055000D01*
X134375500Y-132703039D01*
X136475000Y-132703039D01*
X136486926Y-132747549D01*
X136509965Y-132787454D01*
X136542544Y-132820033D01*
X136545511Y-132821746D01*
X136582180Y-132853904D01*
X136603752Y-132897646D01*
X136604094Y-132902863D01*
X136611612Y-132891612D01*
X136652165Y-132864515D01*
X136700000Y-132855000D01*
X137200000Y-132855000D01*
X137247835Y-132864515D01*
X137288388Y-132891612D01*
X137297046Y-132904569D01*
X137301503Y-132882165D01*
X137328600Y-132841612D01*
X137354489Y-132821746D01*
X137357455Y-132820033D01*
X137390034Y-132787454D01*
X137413073Y-132747549D01*
X137425000Y-132703039D01*
X137425000Y-132656960D01*
X137413073Y-132612450D01*
X137390034Y-132572545D01*
X137357455Y-132539966D01*
X137354489Y-132538254D01*
X137317820Y-132506096D01*
X137296248Y-132462354D01*
X137295905Y-132457136D01*
X137288388Y-132468388D01*
X137247835Y-132495485D01*
X137200000Y-132505000D01*
X136700000Y-132505000D01*
X136652165Y-132495485D01*
X136611612Y-132468388D01*
X136602953Y-132455430D01*
X136598497Y-132477835D01*
X136571400Y-132518388D01*
X136545511Y-132538254D01*
X136542544Y-132539966D01*
X136509965Y-132572545D01*
X136486926Y-132612450D01*
X136475000Y-132656960D01*
X136475000Y-132703039D01*
X134375500Y-132703039D01*
X134375500Y-132305000D01*
X135858235Y-132305000D01*
X136483012Y-132305000D01*
X136530847Y-132314515D01*
X136571400Y-132341612D01*
X136575000Y-132346999D01*
X136575000Y-131805000D01*
X137325000Y-131805000D01*
X137325000Y-132348953D01*
X137340892Y-132330832D01*
X137384634Y-132309260D01*
X137416988Y-132305000D01*
X138041762Y-132305000D01*
X138025410Y-132265523D01*
X137929655Y-132122217D01*
X137807778Y-132000341D01*
X137664463Y-131904582D01*
X137505217Y-131838622D01*
X137336185Y-131805000D01*
X137325000Y-131805000D01*
X136575000Y-131805000D01*
X136563815Y-131805000D01*
X136394769Y-131838625D01*
X136235523Y-131904588D01*
X136092217Y-132000343D01*
X135970341Y-132122220D01*
X135874579Y-132265539D01*
X135858235Y-132305000D01*
X134375500Y-132305000D01*
X134375500Y-130506961D01*
X134375697Y-130499950D01*
X134376477Y-130486066D01*
X134377066Y-130479082D01*
X134387245Y-130388736D01*
X134389593Y-130374918D01*
X134395769Y-130347857D01*
X134399650Y-130334385D01*
X134427368Y-130255171D01*
X134432733Y-130242218D01*
X134444776Y-130217212D01*
X134451555Y-130204947D01*
X134496205Y-130133886D01*
X134504318Y-130122451D01*
X134521623Y-130100752D01*
X134530963Y-130090302D01*
X134590302Y-130030963D01*
X134600752Y-130021623D01*
X134622451Y-130004318D01*
X134633886Y-129996205D01*
X134704947Y-129951555D01*
X134717212Y-129944776D01*
X134742218Y-129932733D01*
X134755171Y-129927368D01*
X134834385Y-129899650D01*
X134847859Y-129895768D01*
X134874922Y-129889592D01*
X134888738Y-129887245D01*
X134979084Y-129877066D01*
X134986067Y-129876477D01*
X134999950Y-129875697D01*
X135006962Y-129875500D01*
X163993038Y-129875500D01*
X164000049Y-129875697D01*
G37*
%TD.AperFunction*%
%TA.AperFunction,Conductor*%
G36*
X154307053Y-134861429D02*
G01*
X154307139Y-134861455D01*
X154311225Y-134862654D01*
X154408792Y-134875499D01*
X154425493Y-134875499D01*
X154460711Y-134880561D01*
X154527749Y-134900243D01*
X154570967Y-134922849D01*
X154587002Y-134938320D01*
X154632759Y-134991123D01*
X154656895Y-135033505D01*
X154660436Y-135046410D01*
X154671643Y-135097921D01*
X154674500Y-135124495D01*
X154674500Y-135141208D01*
X154687920Y-135243154D01*
X154687375Y-135243225D01*
X154689782Y-135279913D01*
X154692871Y-135308768D01*
X154688530Y-135357246D01*
X154687328Y-135361342D01*
X154674500Y-135458792D01*
X154674500Y-135641209D01*
X154687920Y-135743154D01*
X154687375Y-135743225D01*
X154689782Y-135779913D01*
X154692871Y-135808768D01*
X154688530Y-135857246D01*
X154687328Y-135861342D01*
X154674500Y-135958792D01*
X154674500Y-136141209D01*
X154687920Y-136243154D01*
X154687375Y-136243225D01*
X154689782Y-136279913D01*
X154692871Y-136308768D01*
X154688530Y-136357246D01*
X154687328Y-136361342D01*
X154674500Y-136458792D01*
X154674500Y-136641209D01*
X154687920Y-136743154D01*
X154687375Y-136743225D01*
X154689782Y-136779913D01*
X154692871Y-136808768D01*
X154688530Y-136857246D01*
X154687328Y-136861342D01*
X154674500Y-136958792D01*
X154674500Y-137141209D01*
X154687920Y-137243154D01*
X154687375Y-137243225D01*
X154689782Y-137279913D01*
X154692871Y-137308768D01*
X154688530Y-137357246D01*
X154687328Y-137361342D01*
X154674500Y-137458792D01*
X154674500Y-137641209D01*
X154687920Y-137743154D01*
X154687375Y-137743225D01*
X154689782Y-137779913D01*
X154692871Y-137808768D01*
X154688530Y-137857246D01*
X154687328Y-137861342D01*
X154674500Y-137958798D01*
X154674500Y-137975500D01*
X154669436Y-138010718D01*
X154649751Y-138077757D01*
X154627145Y-138120973D01*
X154611673Y-138137008D01*
X154558869Y-138182763D01*
X154516486Y-138206897D01*
X154503585Y-138210437D01*
X154452078Y-138221643D01*
X154425504Y-138224500D01*
X154408790Y-138224500D01*
X154306845Y-138237920D01*
X154306773Y-138237374D01*
X154269972Y-138239789D01*
X154241085Y-138242865D01*
X154192612Y-138238496D01*
X154188626Y-138237324D01*
X154185205Y-138236874D01*
X154185089Y-138236867D01*
X154185028Y-138236851D01*
X154091206Y-138224500D01*
X153908789Y-138224500D01*
X153806845Y-138237920D01*
X153806773Y-138237374D01*
X153769972Y-138239789D01*
X153741085Y-138242865D01*
X153692612Y-138238496D01*
X153688626Y-138237324D01*
X153685205Y-138236874D01*
X153685089Y-138236867D01*
X153685028Y-138236851D01*
X153591206Y-138224500D01*
X153408789Y-138224500D01*
X153306845Y-138237920D01*
X153306773Y-138237374D01*
X153269972Y-138239789D01*
X153241085Y-138242865D01*
X153192612Y-138238496D01*
X153188626Y-138237324D01*
X153185205Y-138236874D01*
X153185089Y-138236867D01*
X153185028Y-138236851D01*
X153091206Y-138224500D01*
X152908789Y-138224500D01*
X152806845Y-138237920D01*
X152806773Y-138237374D01*
X152769972Y-138239789D01*
X152741085Y-138242865D01*
X152692612Y-138238496D01*
X152688626Y-138237324D01*
X152685205Y-138236874D01*
X152685089Y-138236867D01*
X152685028Y-138236851D01*
X152591206Y-138224500D01*
X152408789Y-138224500D01*
X152306845Y-138237920D01*
X152306773Y-138237374D01*
X152269972Y-138239789D01*
X152241085Y-138242865D01*
X152192612Y-138238496D01*
X152188626Y-138237324D01*
X152185205Y-138236874D01*
X152185089Y-138236867D01*
X152185028Y-138236851D01*
X152091206Y-138224500D01*
X151908789Y-138224500D01*
X151806845Y-138237920D01*
X151806773Y-138237374D01*
X151769972Y-138239789D01*
X151741085Y-138242865D01*
X151692612Y-138238496D01*
X151688625Y-138237324D01*
X151685206Y-138236874D01*
X151685089Y-138236867D01*
X151685028Y-138236851D01*
X151591201Y-138224500D01*
X151574499Y-138224500D01*
X151539281Y-138219436D01*
X151472242Y-138199751D01*
X151429026Y-138177145D01*
X151412991Y-138161673D01*
X151367236Y-138108869D01*
X151343102Y-138066486D01*
X151339562Y-138053583D01*
X151328356Y-138002072D01*
X151325499Y-137975500D01*
X151325499Y-137958791D01*
X151312077Y-137856840D01*
X151312622Y-137856768D01*
X151310237Y-137820346D01*
X151307118Y-137791529D01*
X151311429Y-137742947D01*
X151311454Y-137742864D01*
X151312655Y-137738773D01*
X151313120Y-137735236D01*
X151313129Y-137735106D01*
X151313146Y-137735038D01*
X151325499Y-137641205D01*
X151325499Y-137458795D01*
X151312077Y-137356840D01*
X151312622Y-137356768D01*
X151310237Y-137320346D01*
X151307118Y-137291529D01*
X151311429Y-137242947D01*
X151311454Y-137242864D01*
X151312655Y-137238773D01*
X151313120Y-137235236D01*
X151313129Y-137235106D01*
X151313146Y-137235038D01*
X151325499Y-137141205D01*
X151325499Y-136958795D01*
X151312077Y-136856840D01*
X151312622Y-136856768D01*
X151310237Y-136820346D01*
X151307118Y-136791529D01*
X151311429Y-136742947D01*
X151311454Y-136742864D01*
X151312655Y-136738773D01*
X151313120Y-136735236D01*
X151313129Y-136735106D01*
X151313146Y-136735038D01*
X151325499Y-136641205D01*
X151325499Y-136458789D01*
X151312080Y-136356850D01*
X151312624Y-136356778D01*
X151310537Y-136324955D01*
X151306850Y-136290796D01*
X151308591Y-136271245D01*
X151273033Y-136252645D01*
X151266827Y-136247299D01*
X151235475Y-136218450D01*
X151220930Y-136202541D01*
X151220163Y-136201541D01*
X151202748Y-136170516D01*
X151177567Y-136105342D01*
X151169203Y-136057292D01*
X151171721Y-136035152D01*
X151185773Y-135966710D01*
X151203064Y-135924267D01*
X151214193Y-135906951D01*
X151220163Y-135898459D01*
X151220930Y-135897459D01*
X151246380Y-135872598D01*
X151302799Y-135831383D01*
X151310238Y-135827929D01*
X151309642Y-135818819D01*
X151306778Y-135794513D01*
X151310629Y-135745893D01*
X151310814Y-135745247D01*
X151312633Y-135738938D01*
X151325499Y-135641205D01*
X151325499Y-135458795D01*
X151312077Y-135356840D01*
X151312622Y-135356768D01*
X151310237Y-135320346D01*
X151307118Y-135291529D01*
X151311429Y-135242947D01*
X151311454Y-135242864D01*
X151312655Y-135238773D01*
X151313120Y-135235236D01*
X151313129Y-135235106D01*
X151313146Y-135235038D01*
X151325500Y-135141204D01*
X151325500Y-135124499D01*
X151330564Y-135089281D01*
X151350249Y-135022242D01*
X151372855Y-134979026D01*
X151388327Y-134962991D01*
X151441131Y-134917236D01*
X151483514Y-134893102D01*
X151496417Y-134889562D01*
X151547928Y-134878356D01*
X151574500Y-134875499D01*
X151591206Y-134875499D01*
X151693159Y-134862076D01*
X151693230Y-134862620D01*
X151729597Y-134860243D01*
X151758472Y-134857118D01*
X151807053Y-134861429D01*
X151807139Y-134861455D01*
X151811225Y-134862654D01*
X151908794Y-134875499D01*
X152091204Y-134875499D01*
X152193159Y-134862076D01*
X152193230Y-134862620D01*
X152229597Y-134860243D01*
X152258472Y-134857118D01*
X152307053Y-134861429D01*
X152307139Y-134861455D01*
X152311225Y-134862654D01*
X152408794Y-134875499D01*
X152591204Y-134875499D01*
X152693159Y-134862076D01*
X152693230Y-134862620D01*
X152729597Y-134860243D01*
X152758472Y-134857118D01*
X152807053Y-134861429D01*
X152807139Y-134861455D01*
X152811225Y-134862654D01*
X152908794Y-134875499D01*
X153091204Y-134875499D01*
X153193159Y-134862076D01*
X153193230Y-134862620D01*
X153229597Y-134860243D01*
X153258472Y-134857118D01*
X153307053Y-134861429D01*
X153307139Y-134861455D01*
X153311225Y-134862654D01*
X153408794Y-134875499D01*
X153591204Y-134875499D01*
X153693159Y-134862076D01*
X153693230Y-134862620D01*
X153729597Y-134860243D01*
X153758472Y-134857118D01*
X153807053Y-134861429D01*
X153807139Y-134861455D01*
X153811225Y-134862654D01*
X153908794Y-134875499D01*
X154091204Y-134875499D01*
X154193159Y-134862076D01*
X154193230Y-134862620D01*
X154229597Y-134860243D01*
X154258472Y-134857118D01*
X154307053Y-134861429D01*
G37*
%TD.AperFunction*%
%TD*%
M02*
