%TF.GenerationSoftware,KiCad,Pcbnew,7.0.11+dfsg-1build4*%
%TF.CreationDate,2026-10-03T06:07:15+00:00*%
%TF.ProjectId,t,742e6b69-6361-4645-9f70-636258585858,rev?*%
%TF.SameCoordinates,Original*%
%TF.FileFunction,Copper,L2,Bot*%
%TF.FilePolarity,Positive*%
%FSLAX46Y46*%
G04 Gerber Fmt 4.6, Leading zero omitted, Abs format (unit mm)*
G04 Created by KiCad (PCBNEW 7.0.11+dfsg-1build4) date 2026-10-03 06:07:15*
%MOMM*%
%LPD*%
G01*
G04 APERTURE LIST*
%TA.AperFunction,ComponentPad*%
%ADD10R,1.700000X1.700000*%
%TD*%
%TA.AperFunction,ComponentPad*%
%ADD11O,1.700000X1.700000*%
%TD*%
%TA.AperFunction,ComponentPad*%
%ADD12O,2.100000X1.000000*%
%TD*%
%TA.AperFunction,ComponentPad*%
%ADD13O,1.600000X1.000000*%
%TD*%
%TA.AperFunction,ViaPad*%
%ADD14C,0.600000*%
%TD*%
%TA.AperFunction,Conductor*%
%ADD15C,0.200000*%
%TD*%
%TA.AperFunction,Conductor*%
%ADD16C,0.300000*%
%TD*%
G04 APERTURE END LIST*
D10*
%TO.P,J2,1,Pin_1*%
%TO.N,GND*%
X163625000Y-131925000D03*
D11*
%TO.P,J2,2,Pin_2*%
%TO.N,/VBUS*%
X163625000Y-134465000D03*
%TO.P,J2,3,Pin_3*%
%TO.N,/RX*%
X163625000Y-137005000D03*
%TO.P,J2,4,Pin_4*%
%TO.N,/TX*%
X163625000Y-139545000D03*
%TO.P,J2,5,Pin_5*%
%TO.N,/RST*%
X163625000Y-142085000D03*
%TD*%
D12*
%TO.P,J1,S1,SHIELD*%
%TO.N,GND*%
X141130000Y-132680000D03*
D13*
X136950000Y-132680000D03*
D12*
X141130000Y-141320000D03*
D13*
X136950000Y-141320000D03*
%TD*%
D14*
%TO.N,GND*%
X151750000Y-137750000D03*
X153000000Y-135250000D03*
X153000000Y-137000000D03*
X152250000Y-136500000D03*
X153500000Y-136750000D03*
X152500000Y-135750000D03*
X152250000Y-135250000D03*
X154250000Y-137250000D03*
X146750000Y-134250000D03*
X152750000Y-136000000D03*
X153250000Y-136250000D03*
X152500000Y-137000000D03*
X154250000Y-136000000D03*
X154250000Y-135250000D03*
X153750000Y-136000000D03*
X153250000Y-135750000D03*
X153000000Y-136500000D03*
X152500000Y-137500000D03*
X152000000Y-137250000D03*
X153000000Y-137750000D03*
X153500000Y-137500000D03*
X151750000Y-135250000D03*
X146000000Y-140000000D03*
X154250000Y-137750000D03*
X153750000Y-137000000D03*
X151750000Y-136750000D03*
X153750000Y-136500000D03*
X153750000Y-135250000D03*
X152000000Y-136000000D03*
%TO.N,/VBUS*%
X150750000Y-139750000D03*
X149000000Y-135750000D03*
X139500000Y-136750000D03*
%TO.N,/RST*%
X155250000Y-131750000D03*
%TO.N,/D-*%
X148500000Y-137750000D03*
X144750000Y-136250000D03*
%TO.N,/D+*%
X147000000Y-137750000D03*
X143750000Y-137250000D03*
%TO.N,Net-(U1-VDD)*%
X149500000Y-141000000D03*
X147750000Y-136250000D03*
%TO.N,Net-(D2-K)*%
X156500000Y-135500000D03*
X155750000Y-142750000D03*
%TO.N,Net-(D1-K)*%
X158750000Y-141250000D03*
X156750000Y-132500000D03*
%TO.N,Net-(J1-CC2)*%
X145000000Y-137500000D03*
%TD*%
D15*
%TO.N,GND*%
X143250000Y-134250000D02*
X146750000Y-134250000D01*
X142750000Y-138750000D02*
X142750000Y-134750000D01*
X144000000Y-140000000D02*
X142750000Y-138750000D01*
X146000000Y-140000000D02*
X144000000Y-140000000D01*
X142750000Y-134750000D02*
X143250000Y-134250000D01*
D16*
%TO.N,/VBUS*%
X140000000Y-131000000D02*
X148000000Y-131000000D01*
X148000000Y-131000000D02*
X149000000Y-132000000D01*
X139500000Y-136750000D02*
X139000000Y-136250000D01*
X149000000Y-132000000D02*
X149000000Y-135750000D01*
X139000000Y-136250000D02*
X139000000Y-132000000D01*
X139000000Y-132000000D02*
X140000000Y-131000000D01*
D15*
X150750000Y-137500000D02*
X149000000Y-135750000D01*
X150750000Y-139750000D02*
X150750000Y-137500000D01*
%TO.N,/RST*%
X162085000Y-142085000D02*
X161500000Y-141500000D01*
X160500000Y-131750000D02*
X155250000Y-131750000D01*
X163625000Y-142085000D02*
X162085000Y-142085000D01*
X161500000Y-132750000D02*
X160500000Y-131750000D01*
X161500000Y-141500000D02*
X161500000Y-132750000D01*
%TO.N,/D-*%
X145500000Y-137000000D02*
X144750000Y-136250000D01*
X148500000Y-137750000D02*
X147750000Y-137000000D01*
X147750000Y-137000000D02*
X145500000Y-137000000D01*
%TO.N,/D+*%
X146250000Y-138500000D02*
X147000000Y-137750000D01*
X144500000Y-138500000D02*
X146250000Y-138500000D01*
X143750000Y-137750000D02*
X144500000Y-138500000D01*
X143750000Y-137250000D02*
X143750000Y-137750000D01*
%TO.N,Net-(U1-VDD)*%
X149500000Y-137750000D02*
X148000000Y-136250000D01*
X148000000Y-136250000D02*
X147750000Y-136250000D01*
X149500000Y-141000000D02*
X149500000Y-137750000D01*
%TO.N,Net-(D2-K)*%
X155750000Y-142750000D02*
X155750000Y-139750000D01*
X156750000Y-138750000D02*
X156750000Y-135750000D01*
X156750000Y-135750000D02*
X156500000Y-135500000D01*
X155750000Y-139750000D02*
X156750000Y-138750000D01*
%TO.N,Net-(D1-K)*%
X158000000Y-132500000D02*
X156750000Y-132500000D01*
X158750000Y-133250000D02*
X158000000Y-132500000D01*
X158750000Y-141250000D02*
X158750000Y-133250000D01*
%TD*%
%TA.AperFunction,Conductor*%
%TO.N,GND*%
G36*
X164000049Y-129875697D02*
G01*
X164013933Y-129876477D01*
X164020917Y-129877066D01*
X164111261Y-129887245D01*
X164125079Y-129889593D01*
X164152144Y-129895770D01*
X164165615Y-129899650D01*
X164244824Y-129927366D01*
X164257777Y-129932732D01*
X164282790Y-129944778D01*
X164295056Y-129951557D01*
X164366109Y-129996202D01*
X164377546Y-130004317D01*
X164399253Y-130021629D01*
X164409701Y-130030967D01*
X164469032Y-130090298D01*
X164478372Y-130100748D01*
X164495685Y-130122457D01*
X164503798Y-130133891D01*
X164548441Y-130204940D01*
X164555221Y-130217209D01*
X164567269Y-130242227D01*
X164572634Y-130255178D01*
X164600348Y-130334382D01*
X164604228Y-130347852D01*
X164610406Y-130374921D01*
X164612754Y-130388738D01*
X164616628Y-130423118D01*
X164615540Y-130458680D01*
X164603486Y-130527502D01*
X164585861Y-130572979D01*
X164572281Y-130590646D01*
X164524932Y-130642026D01*
X164485518Y-130670754D01*
X164466389Y-130677778D01*
X164402572Y-130695461D01*
X164369194Y-130700000D01*
X164000000Y-130700000D01*
X164000000Y-131491988D01*
X163990485Y-131539823D01*
X163963388Y-131580376D01*
X163922835Y-131607473D01*
X163875000Y-131616988D01*
X163827165Y-131607473D01*
X163812500Y-131600241D01*
X163769746Y-131575557D01*
X163674367Y-131550000D01*
X163575633Y-131550000D01*
X163480253Y-131575557D01*
X163437500Y-131600241D01*
X163391316Y-131615919D01*
X163342648Y-131612729D01*
X163298905Y-131591157D01*
X163266747Y-131554488D01*
X163251069Y-131508304D01*
X163250000Y-131491988D01*
X163250000Y-130700000D01*
X162733855Y-130700000D01*
X162696596Y-130704007D01*
X162593429Y-130742486D01*
X162507105Y-130807110D01*
X162442483Y-130893433D01*
X162404006Y-130996597D01*
X162400000Y-131033860D01*
X162400000Y-131550000D01*
X163191988Y-131550000D01*
X163239823Y-131559515D01*
X163280376Y-131586612D01*
X163307473Y-131627165D01*
X163316988Y-131675000D01*
X163307473Y-131722835D01*
X163300241Y-131737500D01*
X163275557Y-131780253D01*
X163250000Y-131875632D01*
X163250000Y-131974367D01*
X163275557Y-132069746D01*
X163300241Y-132112500D01*
X163315919Y-132158684D01*
X163312729Y-132207352D01*
X163291157Y-132251095D01*
X163254488Y-132283253D01*
X163208304Y-132298931D01*
X163191988Y-132300000D01*
X162400000Y-132300000D01*
X162400000Y-132428565D01*
X162394936Y-132463783D01*
X162375251Y-132530822D01*
X162352645Y-132574038D01*
X162337173Y-132590073D01*
X162284369Y-132635828D01*
X162241986Y-132659962D01*
X162220301Y-132665087D01*
X162151143Y-132675031D01*
X162102441Y-132672420D01*
X162081426Y-132665007D01*
X162017870Y-132635982D01*
X161978310Y-132607455D01*
X161973405Y-132601862D01*
X161947221Y-132570148D01*
X161935360Y-132553065D01*
X161880491Y-132458031D01*
X160791958Y-131369500D01*
X160683542Y-131306906D01*
X160562598Y-131274499D01*
X155832412Y-131274500D01*
X155797194Y-131269436D01*
X155730155Y-131249751D01*
X155692522Y-131231391D01*
X155682246Y-131224021D01*
X155680656Y-131222818D01*
X155544948Y-131137546D01*
X155401255Y-131087266D01*
X155249996Y-131070225D01*
X155098734Y-131087268D01*
X154955054Y-131137544D01*
X154826166Y-131218530D01*
X154718530Y-131326166D01*
X154637546Y-131455050D01*
X154587266Y-131598743D01*
X154570225Y-131749999D01*
X154587268Y-131901264D01*
X154637544Y-132044944D01*
X154718530Y-132173832D01*
X154826166Y-132281468D01*
X154955053Y-132362453D01*
X155098742Y-132412732D01*
X155250003Y-132429774D01*
X155401265Y-132412730D01*
X155544943Y-132362455D01*
X155689123Y-132271861D01*
X155721634Y-132257412D01*
X155788871Y-132238411D01*
X155837491Y-132234559D01*
X155859302Y-132239129D01*
X155926137Y-132259496D01*
X155969121Y-132282542D01*
X155984997Y-132298176D01*
X156030212Y-132351444D01*
X156053913Y-132394071D01*
X156058453Y-132413282D01*
X156067815Y-132473984D01*
X156065709Y-132474308D01*
X156065914Y-132475335D01*
X156067975Y-132475018D01*
X156068361Y-132477521D01*
X156068534Y-132486020D01*
X156068649Y-132486008D01*
X156087268Y-132651264D01*
X156137544Y-132794944D01*
X156218530Y-132923832D01*
X156326166Y-133031468D01*
X156455053Y-133112453D01*
X156598742Y-133162732D01*
X156750003Y-133179774D01*
X156901265Y-133162730D01*
X157044943Y-133112455D01*
X157185758Y-133023976D01*
X157186128Y-133024565D01*
X157191309Y-133021525D01*
X157190842Y-133020780D01*
X157191725Y-133020226D01*
X157196857Y-133018270D01*
X157207813Y-133011843D01*
X157209991Y-133010953D01*
X157210809Y-133012955D01*
X157211834Y-133012565D01*
X157211007Y-133010538D01*
X157272535Y-132985418D01*
X157313407Y-132976308D01*
X157326036Y-132975663D01*
X157332412Y-132975500D01*
X157699903Y-132975500D01*
X157735121Y-132980564D01*
X157802160Y-133000249D01*
X157845375Y-133022854D01*
X157866017Y-133039488D01*
X157875972Y-133048431D01*
X158201569Y-133374028D01*
X158222891Y-133402510D01*
X158256376Y-133463833D01*
X158270950Y-133510376D01*
X158273784Y-133536734D01*
X158274500Y-133550097D01*
X158274500Y-140667587D01*
X158269436Y-140702805D01*
X158249751Y-140769844D01*
X158231395Y-140807472D01*
X158224030Y-140817742D01*
X158222817Y-140819344D01*
X158137546Y-140955050D01*
X158087266Y-141098743D01*
X158070225Y-141250002D01*
X158087268Y-141401264D01*
X158137544Y-141544944D01*
X158218530Y-141673832D01*
X158326166Y-141781468D01*
X158455053Y-141862453D01*
X158598742Y-141912732D01*
X158750003Y-141929774D01*
X158901265Y-141912730D01*
X159044943Y-141862455D01*
X159173833Y-141781468D01*
X159281468Y-141673833D01*
X159362455Y-141544943D01*
X159412730Y-141401265D01*
X159429774Y-141249996D01*
X159412730Y-141098734D01*
X159362455Y-140955056D01*
X159273973Y-140814238D01*
X159274561Y-140813867D01*
X159271533Y-140808704D01*
X159270789Y-140809172D01*
X159270241Y-140808299D01*
X159268283Y-140803164D01*
X159261834Y-140792169D01*
X159260943Y-140789988D01*
X159262948Y-140789168D01*
X159262563Y-140788158D01*
X159260535Y-140788987D01*
X159235415Y-140727451D01*
X159226306Y-140686578D01*
X159225662Y-140673956D01*
X159225500Y-140667587D01*
X159225500Y-133187400D01*
X159193094Y-133066461D01*
X159130494Y-132958034D01*
X158823028Y-132650569D01*
X158801706Y-132622087D01*
X158768221Y-132560764D01*
X158753647Y-132514220D01*
X158753249Y-132491941D01*
X158758233Y-132422249D01*
X158771136Y-132375215D01*
X158782848Y-132356255D01*
X158824720Y-132300322D01*
X158861005Y-132267730D01*
X158881104Y-132258114D01*
X158946568Y-132233697D01*
X158985789Y-132225896D01*
X158994635Y-132225580D01*
X158999097Y-132225500D01*
X160199903Y-132225500D01*
X160235121Y-132230564D01*
X160302160Y-132250249D01*
X160345375Y-132272854D01*
X160366017Y-132289488D01*
X160375972Y-132298431D01*
X160951569Y-132874028D01*
X160972891Y-132902510D01*
X161006376Y-132963833D01*
X161020950Y-133010376D01*
X161023784Y-133036734D01*
X161024500Y-133050097D01*
X161024498Y-141562595D01*
X161056905Y-141683538D01*
X161119504Y-141791964D01*
X161793034Y-142465494D01*
X161901461Y-142528095D01*
X162022402Y-142560500D01*
X162335909Y-142560500D01*
X162371127Y-142565564D01*
X162438166Y-142585249D01*
X162481382Y-142607855D01*
X162497091Y-142622953D01*
X162542435Y-142674865D01*
X162553130Y-142691292D01*
X162553359Y-142691133D01*
X162682627Y-142875747D01*
X162834252Y-143027372D01*
X163009906Y-143150366D01*
X163204260Y-143240994D01*
X163411383Y-143296492D01*
X163625000Y-143315181D01*
X163838616Y-143296492D01*
X164045751Y-143240991D01*
X164250003Y-143145747D01*
X164250257Y-143146292D01*
X164252510Y-143145528D01*
X164264397Y-143139519D01*
X164265185Y-143139253D01*
X164265783Y-143141024D01*
X164268447Y-143140120D01*
X164267851Y-143138353D01*
X164330638Y-143117179D01*
X164379006Y-143110909D01*
X164401014Y-143114386D01*
X164468781Y-143131396D01*
X164512861Y-143152271D01*
X164529495Y-143167094D01*
X164577309Y-143218041D01*
X164603107Y-143259432D01*
X164607756Y-143274595D01*
X164621093Y-143330540D01*
X164624500Y-143359527D01*
X164624500Y-143493038D01*
X164624303Y-143500049D01*
X164623523Y-143513934D01*
X164622934Y-143520920D01*
X164612754Y-143611261D01*
X164610406Y-143625078D01*
X164604228Y-143652147D01*
X164600348Y-143665617D01*
X164572634Y-143744821D01*
X164567269Y-143757772D01*
X164555221Y-143782790D01*
X164548441Y-143795059D01*
X164503798Y-143866108D01*
X164495685Y-143877542D01*
X164478372Y-143899251D01*
X164469032Y-143909701D01*
X164409701Y-143969032D01*
X164399251Y-143978372D01*
X164377542Y-143995685D01*
X164366108Y-144003798D01*
X164295059Y-144048441D01*
X164282790Y-144055221D01*
X164257772Y-144067269D01*
X164244821Y-144072634D01*
X164165617Y-144100348D01*
X164152147Y-144104228D01*
X164125078Y-144110406D01*
X164111261Y-144112754D01*
X164020918Y-144122934D01*
X164013933Y-144123523D01*
X164000050Y-144124303D01*
X163993038Y-144124500D01*
X135006962Y-144124500D01*
X134999951Y-144124303D01*
X134986067Y-144123523D01*
X134979081Y-144122934D01*
X134888738Y-144112754D01*
X134874921Y-144110406D01*
X134847852Y-144104228D01*
X134834382Y-144100348D01*
X134755178Y-144072634D01*
X134742227Y-144067269D01*
X134717209Y-144055221D01*
X134704940Y-144048441D01*
X134633891Y-144003798D01*
X134622457Y-143995685D01*
X134600748Y-143978372D01*
X134590298Y-143969032D01*
X134530967Y-143909701D01*
X134521627Y-143899251D01*
X134504314Y-143877542D01*
X134496201Y-143866108D01*
X134451558Y-143795059D01*
X134444778Y-143782790D01*
X134432730Y-143757772D01*
X134427365Y-143744821D01*
X134399651Y-143665617D01*
X134395770Y-143652146D01*
X134389592Y-143625076D01*
X134387245Y-143611259D01*
X134377066Y-143520918D01*
X134376477Y-143513933D01*
X134375697Y-143500049D01*
X134375500Y-143493038D01*
X134375500Y-142749996D01*
X155070225Y-142749996D01*
X155087268Y-142901264D01*
X155137544Y-143044944D01*
X155218530Y-143173832D01*
X155326166Y-143281468D01*
X155455053Y-143362453D01*
X155598742Y-143412732D01*
X155750003Y-143429774D01*
X155901265Y-143412730D01*
X156044943Y-143362455D01*
X156173833Y-143281468D01*
X156281468Y-143173833D01*
X156362453Y-143044946D01*
X156412732Y-142901257D01*
X156429774Y-142749996D01*
X156412730Y-142598734D01*
X156362454Y-142455054D01*
X156273973Y-142314238D01*
X156274561Y-142313867D01*
X156271533Y-142308704D01*
X156270789Y-142309172D01*
X156270241Y-142308299D01*
X156268283Y-142303164D01*
X156261834Y-142292169D01*
X156260943Y-142289988D01*
X156262948Y-142289168D01*
X156262563Y-142288158D01*
X156260535Y-142288987D01*
X156235415Y-142227451D01*
X156226306Y-142186578D01*
X156225662Y-142173956D01*
X156225500Y-142167587D01*
X156225500Y-140050097D01*
X156230564Y-140014879D01*
X156250249Y-139947840D01*
X156272854Y-139904625D01*
X156289488Y-139883983D01*
X156298431Y-139874028D01*
X157130494Y-139041965D01*
X157193094Y-138933537D01*
X157225500Y-138812598D01*
X157225500Y-135687399D01*
X157187856Y-135546910D01*
X157185775Y-135537789D01*
X157182332Y-135519586D01*
X157180940Y-135510350D01*
X157162730Y-135348734D01*
X157112455Y-135205056D01*
X157031468Y-135076166D01*
X156923832Y-134968530D01*
X156794948Y-134887546D01*
X156651255Y-134837266D01*
X156499996Y-134820225D01*
X156348734Y-134837268D01*
X156205054Y-134887544D01*
X156076166Y-134968530D01*
X155968530Y-135076166D01*
X155887546Y-135205050D01*
X155837266Y-135348743D01*
X155820225Y-135500002D01*
X155837268Y-135651264D01*
X155887544Y-135794944D01*
X155968530Y-135923832D01*
X156076167Y-136031469D01*
X156157974Y-136082871D01*
X156185099Y-136105894D01*
X156231391Y-136158228D01*
X156255957Y-136200362D01*
X156259769Y-136213853D01*
X156271506Y-136266513D01*
X156274500Y-136293706D01*
X156274500Y-138449902D01*
X156269436Y-138485120D01*
X156249751Y-138552159D01*
X156227146Y-138595374D01*
X156210512Y-138616016D01*
X156201569Y-138625971D01*
X155369504Y-139458035D01*
X155306904Y-139566461D01*
X155274499Y-139687402D01*
X155274500Y-142167587D01*
X155269436Y-142202805D01*
X155249751Y-142269844D01*
X155231395Y-142307472D01*
X155224030Y-142317742D01*
X155222817Y-142319344D01*
X155137546Y-142455050D01*
X155087266Y-142598743D01*
X155070225Y-142749996D01*
X134375500Y-142749996D01*
X134375500Y-141695000D01*
X135858237Y-141695000D01*
X135874588Y-141734475D01*
X135970343Y-141877781D01*
X136092220Y-141999657D01*
X136235535Y-142095416D01*
X136394781Y-142161376D01*
X136563818Y-142195000D01*
X136575000Y-142195000D01*
X136575000Y-141653000D01*
X137325000Y-141653000D01*
X137325000Y-142194999D01*
X137336183Y-142194999D01*
X137505229Y-142161373D01*
X137664475Y-142095410D01*
X137807781Y-141999655D01*
X137929657Y-141877778D01*
X138025419Y-141734459D01*
X138041764Y-141695000D01*
X137416988Y-141695000D01*
X137369153Y-141685485D01*
X137328600Y-141658388D01*
X137325000Y-141653000D01*
X136575000Y-141653000D01*
X136575000Y-141651046D01*
X136559108Y-141669168D01*
X136515366Y-141690740D01*
X136483012Y-141695000D01*
X135858237Y-141695000D01*
X134375500Y-141695000D01*
X134375500Y-141343039D01*
X136475000Y-141343039D01*
X136486926Y-141387549D01*
X136509965Y-141427454D01*
X136542544Y-141460033D01*
X136545511Y-141461746D01*
X136582180Y-141493904D01*
X136603752Y-141537646D01*
X136604094Y-141542863D01*
X136611612Y-141531612D01*
X136652165Y-141504515D01*
X136700000Y-141495000D01*
X137200000Y-141495000D01*
X137247835Y-141504515D01*
X137288388Y-141531612D01*
X137297046Y-141544569D01*
X137301503Y-141522165D01*
X137328600Y-141481612D01*
X137354489Y-141461746D01*
X137357455Y-141460033D01*
X137390034Y-141427454D01*
X137413073Y-141387549D01*
X137425000Y-141343039D01*
X137425000Y-141296960D01*
X137413073Y-141252450D01*
X137390034Y-141212545D01*
X137357455Y-141179966D01*
X137354489Y-141178254D01*
X137317820Y-141146096D01*
X137296248Y-141102354D01*
X137295905Y-141097136D01*
X137288388Y-141108388D01*
X137247835Y-141135485D01*
X137200000Y-141145000D01*
X136700000Y-141145000D01*
X136652165Y-141135485D01*
X136611612Y-141108388D01*
X136602953Y-141095430D01*
X136598497Y-141117835D01*
X136571400Y-141158388D01*
X136545511Y-141178254D01*
X136542544Y-141179966D01*
X136509965Y-141212545D01*
X136486926Y-141252450D01*
X136475000Y-141296960D01*
X136475000Y-141343039D01*
X134375500Y-141343039D01*
X134375500Y-140945000D01*
X135858235Y-140945000D01*
X136483012Y-140945000D01*
X136530847Y-140954515D01*
X136571400Y-140981612D01*
X136575000Y-140986999D01*
X136575000Y-140445000D01*
X137325000Y-140445000D01*
X137325000Y-140988953D01*
X137340892Y-140970832D01*
X137384634Y-140949260D01*
X137416988Y-140945000D01*
X138041762Y-140945000D01*
X139788235Y-140945000D01*
X140413012Y-140945000D01*
X140460847Y-140954515D01*
X140501400Y-140981612D01*
X140528497Y-141022165D01*
X140538012Y-141070000D01*
X140528497Y-141117835D01*
X140501400Y-141158388D01*
X140475511Y-141178254D01*
X140472544Y-141179966D01*
X140439965Y-141212545D01*
X140416926Y-141252450D01*
X140405000Y-141296960D01*
X140405000Y-141343039D01*
X140416926Y-141387549D01*
X140439965Y-141427454D01*
X140472544Y-141460033D01*
X140475511Y-141461746D01*
X140512180Y-141493904D01*
X140533752Y-141537646D01*
X140536943Y-141586314D01*
X140521266Y-141632499D01*
X140489108Y-141669168D01*
X140445366Y-141690740D01*
X140413012Y-141695000D01*
X139788237Y-141695000D01*
X139804588Y-141734475D01*
X139900343Y-141877781D01*
X140022220Y-141999657D01*
X140165535Y-142095416D01*
X140324781Y-142161376D01*
X140493818Y-142195000D01*
X140755000Y-142195000D01*
X140755000Y-141620000D01*
X140764515Y-141572165D01*
X140791612Y-141531612D01*
X140832165Y-141504515D01*
X140880000Y-141495000D01*
X141380000Y-141495000D01*
X141427835Y-141504515D01*
X141468388Y-141531612D01*
X141495485Y-141572165D01*
X141505000Y-141620000D01*
X141505000Y-142194999D01*
X141766183Y-142194999D01*
X141935229Y-142161373D01*
X142094475Y-142095410D01*
X142237781Y-141999655D01*
X142359657Y-141877778D01*
X142455419Y-141734459D01*
X142471764Y-141695000D01*
X141846988Y-141695000D01*
X141799153Y-141685485D01*
X141758600Y-141658388D01*
X141731503Y-141617835D01*
X141721988Y-141570000D01*
X141731503Y-141522165D01*
X141758600Y-141481612D01*
X141784489Y-141461746D01*
X141787455Y-141460033D01*
X141820034Y-141427454D01*
X141843073Y-141387549D01*
X141855000Y-141343039D01*
X141855000Y-141296960D01*
X141843073Y-141252450D01*
X141820034Y-141212545D01*
X141787455Y-141179966D01*
X141784489Y-141178254D01*
X141747820Y-141146096D01*
X141726248Y-141102354D01*
X141723057Y-141053686D01*
X141738734Y-141007501D01*
X141770892Y-140970832D01*
X141814634Y-140949260D01*
X141846988Y-140945000D01*
X142471762Y-140945000D01*
X142455410Y-140905523D01*
X142359655Y-140762217D01*
X142237778Y-140640341D01*
X142094463Y-140544582D01*
X141935217Y-140478622D01*
X141766185Y-140445000D01*
X141231045Y-140445000D01*
X141195827Y-140439936D01*
X141128788Y-140420251D01*
X141085572Y-140397645D01*
X141069537Y-140382173D01*
X141023782Y-140329369D01*
X140999648Y-140286986D01*
X140994523Y-140265301D01*
X140984579Y-140196143D01*
X140987190Y-140147441D01*
X140990182Y-140137469D01*
X141005533Y-140093116D01*
X141015403Y-140071503D01*
X141019798Y-140063888D01*
X141050500Y-139949308D01*
X141050500Y-139830691D01*
X141019799Y-139716112D01*
X140960489Y-139613385D01*
X140876615Y-139529511D01*
X140773886Y-139470200D01*
X140659309Y-139439500D01*
X140540691Y-139439500D01*
X140426112Y-139470200D01*
X140323384Y-139529511D01*
X140239510Y-139613386D01*
X140180200Y-139716112D01*
X140149500Y-139830690D01*
X140149500Y-139949309D01*
X140180201Y-140063889D01*
X140247740Y-140180867D01*
X140247262Y-140181142D01*
X140265041Y-140217191D01*
X140277011Y-140239112D01*
X140291586Y-140285656D01*
X140291984Y-140307937D01*
X140287000Y-140377629D01*
X140274097Y-140424663D01*
X140262385Y-140443623D01*
X140220513Y-140499556D01*
X140187564Y-140530097D01*
X140180196Y-140534786D01*
X140022219Y-140640341D01*
X139900341Y-140762220D01*
X139804579Y-140905539D01*
X139788235Y-140945000D01*
X138041762Y-140945000D01*
X138025410Y-140905523D01*
X137929655Y-140762217D01*
X137807778Y-140640341D01*
X137664463Y-140544582D01*
X137505217Y-140478622D01*
X137336185Y-140445000D01*
X137325000Y-140445000D01*
X136575000Y-140445000D01*
X136563815Y-140445000D01*
X136394769Y-140478625D01*
X136235523Y-140544588D01*
X136092217Y-140640343D01*
X135970341Y-140762220D01*
X135874579Y-140905539D01*
X135858235Y-140945000D01*
X134375500Y-140945000D01*
X134375500Y-133055000D01*
X135858237Y-133055000D01*
X135874588Y-133094475D01*
X135970343Y-133237781D01*
X136092220Y-133359657D01*
X136235535Y-133455416D01*
X136394781Y-133521376D01*
X136563818Y-133555000D01*
X136575000Y-133555000D01*
X136575000Y-133011046D01*
X136559108Y-133029168D01*
X136515366Y-133050740D01*
X136483012Y-133055000D01*
X135858237Y-133055000D01*
X134375500Y-133055000D01*
X134375500Y-132703039D01*
X136475000Y-132703039D01*
X136486926Y-132747549D01*
X136509965Y-132787454D01*
X136542544Y-132820033D01*
X136545511Y-132821746D01*
X136582180Y-132853904D01*
X136603752Y-132897646D01*
X136604094Y-132902863D01*
X136611612Y-132891612D01*
X136652165Y-132864515D01*
X136700000Y-132855000D01*
X137200000Y-132855000D01*
X137247835Y-132864515D01*
X137288388Y-132891612D01*
X137315485Y-132932165D01*
X137325000Y-132980000D01*
X137325000Y-133554999D01*
X137336183Y-133554999D01*
X137505229Y-133521373D01*
X137664475Y-133455410D01*
X137807781Y-133359655D01*
X137929658Y-133237777D01*
X138018465Y-133104871D01*
X138042240Y-133078403D01*
X138095852Y-133033598D01*
X138138658Y-133010224D01*
X138160433Y-133005487D01*
X138229758Y-132996780D01*
X138278406Y-133000260D01*
X138299282Y-133008046D01*
X138362310Y-133038200D01*
X138401355Y-133067428D01*
X138414709Y-133085268D01*
X138451428Y-133144711D01*
X138468473Y-133190408D01*
X138468964Y-133193720D01*
X138473382Y-133226526D01*
X138474500Y-133243209D01*
X138474500Y-136301757D01*
X138494696Y-136403286D01*
X138534306Y-136498914D01*
X138591820Y-136584990D01*
X138766665Y-136759834D01*
X138787987Y-136788317D01*
X138821472Y-136849640D01*
X138835101Y-136889234D01*
X138836915Y-136900253D01*
X138887545Y-137044945D01*
X138968530Y-137173832D01*
X139076166Y-137281468D01*
X139205053Y-137362453D01*
X139348742Y-137412732D01*
X139500003Y-137429774D01*
X139651265Y-137412730D01*
X139794943Y-137362455D01*
X139923833Y-137281468D01*
X140031468Y-137173833D01*
X140112455Y-137044943D01*
X140162730Y-136901265D01*
X140179774Y-136749996D01*
X140162730Y-136598734D01*
X140112455Y-136455056D01*
X140031468Y-136326166D01*
X139923832Y-136218530D01*
X139794947Y-136137546D01*
X139692261Y-136101615D01*
X139660692Y-136085204D01*
X139603916Y-136044482D01*
X139570590Y-136008870D01*
X139560565Y-135988969D01*
X139534818Y-135924016D01*
X139526154Y-135883688D01*
X139525632Y-135872321D01*
X139525500Y-135866587D01*
X139525500Y-133464077D01*
X139530564Y-133428859D01*
X139550249Y-133361820D01*
X139572855Y-133318604D01*
X139588327Y-133302569D01*
X139641131Y-133256814D01*
X139683514Y-133232680D01*
X139705199Y-133227555D01*
X139774357Y-133217611D01*
X139823059Y-133220222D01*
X139844074Y-133227635D01*
X139907630Y-133256660D01*
X139940886Y-133278883D01*
X139947364Y-133284915D01*
X139950569Y-133288007D01*
X140022221Y-133359658D01*
X140180834Y-133465641D01*
X140197519Y-133482326D01*
X140198015Y-133481821D01*
X140242010Y-133525027D01*
X140269472Y-133565333D01*
X140276322Y-133586534D01*
X140291792Y-133654669D01*
X140293105Y-133703424D01*
X140287405Y-133724966D01*
X140263582Y-133790649D01*
X140247960Y-133817475D01*
X140247271Y-133818866D01*
X140247738Y-133819136D01*
X140180200Y-133936112D01*
X140149500Y-134050690D01*
X140149500Y-134169308D01*
X140180200Y-134283887D01*
X140239511Y-134386615D01*
X140323385Y-134470489D01*
X140426111Y-134529798D01*
X140540693Y-134560500D01*
X140659309Y-134560500D01*
X140773887Y-134529799D01*
X140876614Y-134470489D01*
X140960489Y-134386614D01*
X141019799Y-134283887D01*
X141050500Y-134169308D01*
X141050500Y-134050692D01*
X141019796Y-133936105D01*
X141015404Y-133928498D01*
X141002182Y-133895471D01*
X140985709Y-133827570D01*
X140983678Y-133778839D01*
X140989061Y-133757214D01*
X141011914Y-133691188D01*
X141036551Y-133649096D01*
X141052767Y-133633817D01*
X141107688Y-133590626D01*
X141151171Y-133568535D01*
X141161303Y-133566141D01*
X141207389Y-133557259D01*
X141231045Y-133555000D01*
X141766183Y-133554999D01*
X141935229Y-133521373D01*
X142094475Y-133455410D01*
X142237781Y-133359655D01*
X142359657Y-133237778D01*
X142455419Y-133094459D01*
X142471764Y-133055000D01*
X141846988Y-133055000D01*
X141799153Y-133045485D01*
X141758600Y-133018388D01*
X141731503Y-132977835D01*
X141721988Y-132930000D01*
X141731503Y-132882165D01*
X141758600Y-132841612D01*
X141784489Y-132821746D01*
X141787455Y-132820033D01*
X141820034Y-132787454D01*
X141843073Y-132747549D01*
X141855000Y-132703039D01*
X141855000Y-132656960D01*
X141843073Y-132612450D01*
X141820034Y-132572545D01*
X141787455Y-132539966D01*
X141784489Y-132538254D01*
X141747820Y-132506096D01*
X141726248Y-132462354D01*
X141723057Y-132413686D01*
X141738734Y-132367501D01*
X141770892Y-132330832D01*
X141814634Y-132309260D01*
X141846988Y-132305000D01*
X142471762Y-132305000D01*
X142455410Y-132265523D01*
X142359655Y-132122217D01*
X142237778Y-132000341D01*
X142209634Y-131981536D01*
X142183165Y-131957760D01*
X142138360Y-131904148D01*
X142114986Y-131861342D01*
X142110249Y-131839567D01*
X142101542Y-131770242D01*
X142105022Y-131721594D01*
X142112809Y-131700718D01*
X142142963Y-131637691D01*
X142172191Y-131598646D01*
X142190029Y-131585292D01*
X142249472Y-131548572D01*
X142295169Y-131531528D01*
X142298482Y-131531036D01*
X142331288Y-131526618D01*
X142347971Y-131525500D01*
X147679192Y-131525500D01*
X147714410Y-131530564D01*
X147781449Y-131550249D01*
X147824664Y-131572854D01*
X147845306Y-131589488D01*
X147855261Y-131598431D01*
X148401569Y-132144739D01*
X148422891Y-132173221D01*
X148456376Y-132234544D01*
X148470950Y-132281087D01*
X148473784Y-132307445D01*
X148474500Y-132320808D01*
X148474500Y-135244931D01*
X148469615Y-135279535D01*
X148450609Y-135345507D01*
X148436335Y-135377407D01*
X148387541Y-135455062D01*
X148375521Y-135489415D01*
X148359111Y-135520982D01*
X148318390Y-135577758D01*
X148282779Y-135611084D01*
X148262877Y-135621110D01*
X148197924Y-135646857D01*
X148149949Y-135655638D01*
X148136601Y-135654718D01*
X148084280Y-135648282D01*
X148058257Y-135642203D01*
X147901256Y-135587266D01*
X147749996Y-135570225D01*
X147598734Y-135587268D01*
X147455054Y-135637544D01*
X147326166Y-135718530D01*
X147218530Y-135826166D01*
X147137546Y-135955050D01*
X147087266Y-136098743D01*
X147069756Y-136254166D01*
X147068870Y-136283177D01*
X147056817Y-136351999D01*
X147039193Y-136397476D01*
X147025612Y-136415144D01*
X146978264Y-136466524D01*
X146938851Y-136495253D01*
X146919722Y-136502277D01*
X146855903Y-136519961D01*
X146822524Y-136524500D01*
X145800097Y-136524500D01*
X145764879Y-136519436D01*
X145697840Y-136499751D01*
X145654625Y-136477146D01*
X145633983Y-136460512D01*
X145624028Y-136451569D01*
X145492312Y-136319853D01*
X145470990Y-136291371D01*
X145437505Y-136230048D01*
X145423877Y-136190461D01*
X145421825Y-136178005D01*
X145420949Y-136171680D01*
X145412730Y-136098734D01*
X145362455Y-135955056D01*
X145281468Y-135826166D01*
X145173832Y-135718530D01*
X145044948Y-135637546D01*
X144901255Y-135587266D01*
X144749996Y-135570225D01*
X144598734Y-135587268D01*
X144455054Y-135637544D01*
X144326166Y-135718530D01*
X144218530Y-135826166D01*
X144137546Y-135955050D01*
X144087266Y-136098743D01*
X144070225Y-136250003D01*
X144075928Y-136300616D01*
X144074839Y-136336178D01*
X144062784Y-136405000D01*
X144045159Y-136450476D01*
X144031579Y-136468143D01*
X143984230Y-136519522D01*
X143944816Y-136548250D01*
X143923840Y-136555770D01*
X143856229Y-136573394D01*
X143815776Y-136577117D01*
X143805688Y-136576395D01*
X143800618Y-136575928D01*
X143749998Y-136570225D01*
X143598734Y-136587268D01*
X143455054Y-136637544D01*
X143326166Y-136718530D01*
X143218530Y-136826166D01*
X143137546Y-136955050D01*
X143087266Y-137098743D01*
X143070225Y-137250002D01*
X143087268Y-137401264D01*
X143137544Y-137544944D01*
X143226022Y-137685755D01*
X143225430Y-137686126D01*
X143228436Y-137691251D01*
X143229183Y-137690783D01*
X143229742Y-137691673D01*
X143231709Y-137696831D01*
X143238164Y-137707834D01*
X143239053Y-137710011D01*
X143237050Y-137710828D01*
X143237431Y-137711828D01*
X143239457Y-137711001D01*
X143264578Y-137772522D01*
X143269983Y-137796769D01*
X143270239Y-137796701D01*
X143306905Y-137933538D01*
X143369506Y-138041966D01*
X144208034Y-138880494D01*
X144316461Y-138943094D01*
X144437400Y-138975500D01*
X146312598Y-138975500D01*
X146433538Y-138943094D01*
X146541962Y-138880496D01*
X146930146Y-138492310D01*
X146958630Y-138470988D01*
X147019951Y-138437505D01*
X147059536Y-138423878D01*
X147071991Y-138421826D01*
X147078317Y-138420949D01*
X147151265Y-138412730D01*
X147294943Y-138362455D01*
X147423833Y-138281468D01*
X147531464Y-138173837D01*
X147539164Y-138161583D01*
X147562191Y-138134454D01*
X147614523Y-138088166D01*
X147656657Y-138063601D01*
X147678286Y-138058257D01*
X147747340Y-138047607D01*
X147796067Y-138049719D01*
X147817157Y-138056918D01*
X147881006Y-138085293D01*
X147920855Y-138113415D01*
X147924711Y-138117664D01*
X147949459Y-138146225D01*
X147960829Y-138161576D01*
X147968530Y-138173832D01*
X148076166Y-138281468D01*
X148205053Y-138362453D01*
X148348742Y-138412732D01*
X148500003Y-138429774D01*
X148651261Y-138412731D01*
X148693258Y-138398035D01*
X148728172Y-138391183D01*
X148797949Y-138387621D01*
X148846208Y-138394684D01*
X148866452Y-138403992D01*
X148927080Y-138438720D01*
X148963859Y-138470753D01*
X148975858Y-138489529D01*
X149008086Y-138551522D01*
X149021591Y-138597083D01*
X149023913Y-138620966D01*
X149024500Y-138633062D01*
X149024500Y-140417587D01*
X149019436Y-140452805D01*
X148999751Y-140519844D01*
X148981395Y-140557472D01*
X148974030Y-140567742D01*
X148972817Y-140569344D01*
X148887546Y-140705050D01*
X148837266Y-140848743D01*
X148820225Y-141000002D01*
X148837268Y-141151264D01*
X148887544Y-141294944D01*
X148968530Y-141423832D01*
X149076166Y-141531468D01*
X149205053Y-141612453D01*
X149348742Y-141662732D01*
X149500003Y-141679774D01*
X149651265Y-141662730D01*
X149794943Y-141612455D01*
X149923833Y-141531468D01*
X150031468Y-141423833D01*
X150112455Y-141294943D01*
X150162730Y-141151265D01*
X150179774Y-140999996D01*
X150162730Y-140848734D01*
X150111154Y-140701338D01*
X150099207Y-140674455D01*
X150080206Y-140607218D01*
X150076354Y-140558598D01*
X150080924Y-140536787D01*
X150101291Y-140469952D01*
X150124337Y-140426968D01*
X150139972Y-140411091D01*
X150193240Y-140365877D01*
X150235867Y-140342176D01*
X150257601Y-140337274D01*
X150326857Y-140328035D01*
X150375531Y-140331141D01*
X150387070Y-140334819D01*
X150434146Y-140352378D01*
X150453275Y-140361831D01*
X150598742Y-140412732D01*
X150750003Y-140429774D01*
X150901265Y-140412730D01*
X151044943Y-140362455D01*
X151173833Y-140281468D01*
X151281468Y-140173833D01*
X151362453Y-140044946D01*
X151412732Y-139901257D01*
X151429774Y-139749996D01*
X151412730Y-139598734D01*
X151362455Y-139455056D01*
X151273973Y-139314238D01*
X151274561Y-139313867D01*
X151271533Y-139308704D01*
X151270789Y-139309172D01*
X151270241Y-139308299D01*
X151268283Y-139303164D01*
X151261834Y-139292169D01*
X151260943Y-139289988D01*
X151262948Y-139289168D01*
X151262563Y-139288158D01*
X151260535Y-139288987D01*
X151235415Y-139227451D01*
X151226306Y-139186578D01*
X151225662Y-139173956D01*
X151225500Y-139167587D01*
X151225500Y-137437401D01*
X151193094Y-137316462D01*
X151130492Y-137208032D01*
X149742311Y-135819852D01*
X149720989Y-135791370D01*
X149687505Y-135730048D01*
X149673877Y-135690461D01*
X149671825Y-135678005D01*
X149670949Y-135671680D01*
X149662730Y-135598734D01*
X149612455Y-135455057D01*
X149563665Y-135377406D01*
X149549391Y-135345507D01*
X149530385Y-135279535D01*
X149525500Y-135244931D01*
X149525500Y-131948239D01*
X149505304Y-131846717D01*
X149465692Y-131751084D01*
X149408176Y-131665005D01*
X148334985Y-130591816D01*
X148248916Y-130534308D01*
X148153276Y-130494693D01*
X148051759Y-130474500D01*
X139948241Y-130474500D01*
X139846711Y-130494696D01*
X139751088Y-130534304D01*
X139665007Y-130591820D01*
X138591818Y-131665011D01*
X138534306Y-131751085D01*
X138494693Y-131846721D01*
X138474500Y-131948239D01*
X138474500Y-132116790D01*
X138469436Y-132152008D01*
X138449751Y-132219047D01*
X138427145Y-132262263D01*
X138411673Y-132278298D01*
X138358869Y-132324053D01*
X138316486Y-132348187D01*
X138294801Y-132353312D01*
X138225643Y-132363256D01*
X138176941Y-132360645D01*
X138155926Y-132353232D01*
X138092370Y-132324207D01*
X138052810Y-132295680D01*
X138050562Y-132293200D01*
X138028663Y-132268378D01*
X138018465Y-132255128D01*
X137929655Y-132122217D01*
X137807778Y-132000341D01*
X137664463Y-131904582D01*
X137505217Y-131838622D01*
X137336185Y-131805000D01*
X137325000Y-131805000D01*
X137325000Y-132380000D01*
X137315485Y-132427835D01*
X137288388Y-132468388D01*
X137247835Y-132495485D01*
X137200000Y-132505000D01*
X136700000Y-132505000D01*
X136652165Y-132495485D01*
X136611612Y-132468388D01*
X136602953Y-132455430D01*
X136598497Y-132477835D01*
X136571400Y-132518388D01*
X136545511Y-132538254D01*
X136542544Y-132539966D01*
X136509965Y-132572545D01*
X136486926Y-132612450D01*
X136475000Y-132656960D01*
X136475000Y-132703039D01*
X134375500Y-132703039D01*
X134375500Y-132305000D01*
X135858235Y-132305000D01*
X136483012Y-132305000D01*
X136530847Y-132314515D01*
X136571400Y-132341612D01*
X136575000Y-132346999D01*
X136575000Y-131805000D01*
X136563815Y-131805000D01*
X136394769Y-131838625D01*
X136235523Y-131904588D01*
X136092217Y-132000343D01*
X135970341Y-132122220D01*
X135874579Y-132265539D01*
X135858235Y-132305000D01*
X134375500Y-132305000D01*
X134375500Y-130506961D01*
X134375697Y-130499950D01*
X134376477Y-130486066D01*
X134377066Y-130479082D01*
X134387245Y-130388736D01*
X134389593Y-130374918D01*
X134395769Y-130347857D01*
X134399650Y-130334385D01*
X134427368Y-130255171D01*
X134432733Y-130242218D01*
X134444776Y-130217212D01*
X134451555Y-130204947D01*
X134496205Y-130133886D01*
X134504318Y-130122451D01*
X134521623Y-130100752D01*
X134530963Y-130090302D01*
X134590302Y-130030963D01*
X134600752Y-130021623D01*
X134622451Y-130004318D01*
X134633886Y-129996205D01*
X134704947Y-129951555D01*
X134717212Y-129944776D01*
X134742218Y-129932733D01*
X134755171Y-129927368D01*
X134834385Y-129899650D01*
X134847859Y-129895768D01*
X134874922Y-129889592D01*
X134888738Y-129887245D01*
X134979084Y-129877066D01*
X134986067Y-129876477D01*
X134999950Y-129875697D01*
X135006962Y-129875500D01*
X163993038Y-129875500D01*
X164000049Y-129875697D01*
G37*
%TD.AperFunction*%
%TD*%
M02*
