%TF.GenerationSoftware,KiCad,Pcbnew,7.0.11+dfsg-1build4*%
%TF.CreationDate,2026-10-03T06:07:15+00:00*%
%TF.ProjectId,t,742e6b69-6361-4645-9f70-636258585858,rev?*%
%TF.SameCoordinates,Original*%
%TF.FileFunction,Paste,Top*%
%TF.FilePolarity,Positive*%
%FSLAX46Y46*%
G04 Gerber Fmt 4.6, Leading zero omitted, Abs format (unit mm)*
G04 Created by KiCad (PCBNEW 7.0.11+dfsg-1build4) date 2026-10-03 06:07:15*
%MOMM*%
%LPD*%
G01*
G04 APERTURE LIST*
G04 Aperture macros list*
%AMRoundRect*
0 Rectangle with rounded corners*
0 $1 Rounding radius*
0 $2 $3 $4 $5 $6 $7 $8 $9 X,Y pos of 4 corners*
0 Add a 4 corners polygon primitive as box body*
4,1,4,$2,$3,$4,$5,$6,$7,$8,$9,$2,$3,0*
0 Add four circle primitives for the rounded corners*
1,1,$1+$1,$2,$3*
1,1,$1+$1,$4,$5*
1,1,$1+$1,$6,$7*
1,1,$1+$1,$8,$9*
0 Add four rect primitives between the rounded corners*
20,1,$1+$1,$2,$3,$4,$5,0*
20,1,$1+$1,$4,$5,$6,$7,0*
20,1,$1+$1,$6,$7,$8,$9,0*
20,1,$1+$1,$8,$9,$2,$3,0*%
G04 Aperture macros list end*
%ADD10R,0.400000X0.480000*%
%ADD11RoundRect,0.079500X0.079500X0.100500X-0.079500X0.100500X-0.079500X-0.100500X0.079500X-0.100500X0*%
%ADD12RoundRect,0.079500X0.100500X-0.079500X0.100500X0.079500X-0.100500X0.079500X-0.100500X-0.079500X0*%
%ADD13RoundRect,0.225000X-0.225000X-0.225000X0.225000X-0.225000X0.225000X0.225000X-0.225000X0.225000X0*%
%ADD14RoundRect,0.062500X-0.337500X-0.062500X0.337500X-0.062500X0.337500X0.062500X-0.337500X0.062500X0*%
%ADD15RoundRect,0.062500X-0.062500X-0.337500X0.062500X-0.337500X0.062500X0.337500X-0.062500X0.337500X0*%
%ADD16RoundRect,0.079500X-0.079500X-0.100500X0.079500X-0.100500X0.079500X0.100500X-0.079500X0.100500X0*%
%ADD17R,1.450000X0.600000*%
%ADD18R,1.450000X0.300000*%
%ADD19RoundRect,0.079500X-0.100500X0.079500X-0.100500X-0.079500X0.100500X-0.079500X0.100500X0.079500X0*%
G04 APERTURE END LIST*
D10*
%TO.C,D5*%
X145000000Y-138680000D03*
X145000000Y-140000000D03*
%TD*%
D11*
%TO.C,R6*%
X157845000Y-135000000D03*
X157155000Y-135000000D03*
%TD*%
D10*
%TO.C,D4*%
X148500000Y-138680000D03*
X148500000Y-140000000D03*
%TD*%
D12*
%TO.C,R1*%
X144500000Y-134845000D03*
X144500000Y-134155000D03*
%TD*%
D13*
%TO.C,U1*%
X151880000Y-135430000D03*
X151880000Y-136550000D03*
X151880000Y-137670000D03*
X153000000Y-135430000D03*
X153000000Y-136550000D03*
X153000000Y-137670000D03*
X154120000Y-135430000D03*
X154120000Y-136550000D03*
X154120000Y-137670000D03*
D14*
X150550000Y-135050000D03*
X150550000Y-135550000D03*
X150550000Y-136050000D03*
X150550000Y-136550000D03*
X150550000Y-137050000D03*
X150550000Y-137550000D03*
X150550000Y-138050000D03*
D15*
X151500000Y-139000000D03*
X152000000Y-139000000D03*
X152500000Y-139000000D03*
X153000000Y-139000000D03*
X153500000Y-139000000D03*
X154000000Y-139000000D03*
X154500000Y-139000000D03*
D14*
X155450000Y-138050000D03*
X155450000Y-137550000D03*
X155450000Y-137050000D03*
X155450000Y-136550000D03*
X155450000Y-136050000D03*
X155450000Y-135550000D03*
X155450000Y-135050000D03*
D15*
X154500000Y-134100000D03*
X154000000Y-134100000D03*
X153500000Y-134100000D03*
X153000000Y-134100000D03*
X152500000Y-134100000D03*
X152000000Y-134100000D03*
X151500000Y-134100000D03*
%TD*%
D16*
%TO.C,D1*%
X157310000Y-132500000D03*
X158000000Y-132500000D03*
%TD*%
%TO.C,R3*%
X150655000Y-140500000D03*
X151345000Y-140500000D03*
%TD*%
D17*
%TO.C,J1*%
X142045000Y-133750000D03*
X142045000Y-134550000D03*
D18*
X142045000Y-135750000D03*
X142045000Y-136750000D03*
X142045000Y-137250000D03*
X142045000Y-138250000D03*
D17*
X142045000Y-139450000D03*
X142045000Y-140250000D03*
X142045000Y-140250000D03*
X142045000Y-139450000D03*
D18*
X142045000Y-138750000D03*
X142045000Y-137750000D03*
X142045000Y-136250000D03*
X142045000Y-135250000D03*
D17*
X142045000Y-134550000D03*
X142045000Y-133750000D03*
%TD*%
D19*
%TO.C,C1*%
X146500000Y-136155000D03*
X146500000Y-136845000D03*
%TD*%
D11*
%TO.C,R7*%
X157845000Y-138000000D03*
X157155000Y-138000000D03*
%TD*%
D16*
%TO.C,D2*%
X157155000Y-136000000D03*
X157845000Y-136000000D03*
%TD*%
D12*
%TO.C,C4*%
X147500000Y-134845000D03*
X147500000Y-134155000D03*
%TD*%
D11*
%TO.C,R4*%
X157845000Y-140000000D03*
X157155000Y-140000000D03*
%TD*%
D12*
%TO.C,R2*%
X146000000Y-134845000D03*
X146000000Y-134155000D03*
%TD*%
%TO.C,C3*%
X149000000Y-134845000D03*
X149000000Y-134155000D03*
%TD*%
D10*
%TO.C,D3*%
X147000000Y-140000000D03*
X147000000Y-138680000D03*
%TD*%
D19*
%TO.C,C2*%
X151500000Y-131810000D03*
X151500000Y-132500000D03*
%TD*%
D11*
%TO.C,R5*%
X157845000Y-142000000D03*
X157155000Y-142000000D03*
%TD*%
M02*
