%TF.GenerationSoftware,KiCad,Pcbnew,10.0.6*%
%TF.CreationDate,2026-10-03T22:06:36+05:30*%
%TF.ProjectId,DAB_3k3W,4441425f-336b-4335-972e-6b696361645f,3.0*%
%TF.SameCoordinates,Original*%
%TF.FileFunction,Soldermask,Top*%
%TF.FilePolarity,Negative*%
%FSLAX46Y46*%
G04 Gerber Fmt 4.6, Leading zero omitted, Abs format (unit mm)*
G04 Created by KiCad (PCBNEW 10.0.6) date 2026-10-03 22:06:36*
%MOMM*%
%LPD*%
G01*
G04 APERTURE LIST*
G04 Aperture macros list*
%AMRoundRect*
0 Rectangle with rounded corners*
0 $1 Rounding radius*
0 $2 $3 $4 $5 $6 $7 $8 $9 X,Y pos of 4 corners*
0 Add a 4 corners polygon primitive as box body*
4,1,4,$2,$3,$4,$5,$6,$7,$8,$9,$2,$3,0*
0 Add four circle primitives for the rounded corners*
1,1,$1+$1,$2,$3*
1,1,$1+$1,$4,$5*
1,1,$1+$1,$6,$7*
1,1,$1+$1,$8,$9*
0 Add four rect primitives between the rounded corners*
20,1,$1+$1,$2,$3,$4,$5,0*
20,1,$1+$1,$4,$5,$6,$7,0*
20,1,$1+$1,$6,$7,$8,$9,0*
20,1,$1+$1,$8,$9,$2,$3,0*%
%AMFreePoly0*
4,1,9,3.862500,-0.866500,0.737500,-0.866500,0.737500,-0.450000,-0.737500,-0.450000,-0.737500,0.450000,0.737500,0.450000,0.737500,0.866500,3.862500,0.866500,3.862500,-0.866500,3.862500,-0.866500,$1*%
G04 Aperture macros list end*
%ADD10C,2.400000*%
%ADD11O,1.700000X1.700000*%
%ADD12O,1.600000X1.700000*%
%ADD13R,1.700000X1.700000*%
%ADD14RoundRect,0.125000X-0.125000X0.125000X-0.125000X-0.125000X0.125000X-0.125000X0.125000X0.125000X0*%
%ADD15RoundRect,0.250000X-0.450000X0.262500X-0.450000X-0.262500X0.450000X-0.262500X0.450000X0.262500X0*%
%ADD16RoundRect,0.250000X-0.475000X0.250000X-0.475000X-0.250000X0.475000X-0.250000X0.475000X0.250000X0*%
%ADD17RoundRect,0.250000X0.325000X0.650000X-0.325000X0.650000X-0.325000X-0.650000X0.325000X-0.650000X0*%
%ADD18RoundRect,0.250000X0.475000X-0.250000X0.475000X0.250000X-0.475000X0.250000X-0.475000X-0.250000X0*%
%ADD19RoundRect,0.250000X1.000000X0.650000X-1.000000X0.650000X-1.000000X-0.650000X1.000000X-0.650000X0*%
%ADD20RoundRect,0.250000X0.450000X-0.262500X0.450000X0.262500X-0.450000X0.262500X-0.450000X-0.262500X0*%
%ADD21RoundRect,0.250000X-0.625000X0.312500X-0.625000X-0.312500X0.625000X-0.312500X0.625000X0.312500X0*%
%ADD22RoundRect,0.150000X-0.150000X0.875000X-0.150000X-0.875000X0.150000X-0.875000X0.150000X0.875000X0*%
%ADD23RoundRect,0.237500X-0.712500X-1.012500X0.712500X-1.012500X0.712500X1.012500X-0.712500X1.012500X0*%
%ADD24O,1.900000X2.500000*%
%ADD25O,1.600000X1.400000*%
%ADD26R,2.600000X2.600000*%
%ADD27C,2.600000*%
%ADD28C,3.200000*%
%ADD29R,4.000000X4.000000*%
%ADD30C,4.000000*%
%ADD31RoundRect,0.250000X-0.250000X-0.475000X0.250000X-0.475000X0.250000X0.475000X-0.250000X0.475000X0*%
%ADD32RoundRect,0.225000X-0.425000X-0.225000X0.425000X-0.225000X0.425000X0.225000X-0.425000X0.225000X0*%
%ADD33FreePoly0,0.000000*%
%ADD34R,1.905000X4.500000*%
%ADD35O,1.905000X4.500000*%
%ADD36O,2.400000X2.400000*%
%ADD37O,1.700000X1.600000*%
%ADD38RoundRect,0.250000X-0.262500X-0.450000X0.262500X-0.450000X0.262500X0.450000X-0.262500X0.450000X0*%
%ADD39C,8.600000*%
%ADD40RoundRect,0.250000X0.250000X0.475000X-0.250000X0.475000X-0.250000X-0.475000X0.250000X-0.475000X0*%
%ADD41RoundRect,0.237500X-1.012500X0.712500X-1.012500X-0.712500X1.012500X-0.712500X1.012500X0.712500X0*%
%ADD42O,2.500000X1.900000*%
%ADD43O,1.400000X1.600000*%
%ADD44RoundRect,0.150000X-0.750000X-0.150000X0.750000X-0.150000X0.750000X0.150000X-0.750000X0.150000X0*%
%ADD45R,3.200000X3.200000*%
%ADD46RoundRect,0.250000X-0.325000X-0.650000X0.325000X-0.650000X0.325000X0.650000X-0.325000X0.650000X0*%
%ADD47RoundRect,0.150000X-0.512500X-0.150000X0.512500X-0.150000X0.512500X0.150000X-0.512500X0.150000X0*%
%ADD48RoundRect,0.150000X0.750000X0.150000X-0.750000X0.150000X-0.750000X-0.150000X0.750000X-0.150000X0*%
G04 APERTURE END LIST*
D10*
%TO.C,C4*%
X80970000Y-146000000D03*
X58470000Y-146000000D03*
%TD*%
D11*
%TO.C,PS2*%
X141970000Y-127890000D03*
D12*
X141970000Y-125350000D03*
D11*
X141970000Y-122810000D03*
X141970000Y-115190000D03*
D13*
X141970000Y-112650000D03*
%TD*%
%TO.C,PS5*%
X155470000Y-112650000D03*
D11*
X155470000Y-115190000D03*
X155470000Y-122810000D03*
D12*
X155470000Y-125350000D03*
D11*
X155470000Y-127890000D03*
%TD*%
D14*
%TO.C,D7*%
X219270000Y-130900000D03*
X219270000Y-133100000D03*
%TD*%
D15*
%TO.C,R20*%
X83470000Y-134687500D03*
X83470000Y-136512500D03*
%TD*%
D16*
%TO.C,C19*%
X118570000Y-131650000D03*
X118570000Y-133550000D03*
%TD*%
D17*
%TO.C,C31*%
X163645000Y-127400000D03*
X160695000Y-127400000D03*
%TD*%
%TO.C,C33*%
X219145000Y-127400000D03*
X216195000Y-127400000D03*
%TD*%
D18*
%TO.C,C37*%
X57470000Y-108450000D03*
X57470000Y-106550000D03*
%TD*%
D19*
%TO.C,D10*%
X163970000Y-36000000D03*
X159970000Y-36000000D03*
%TD*%
D13*
%TO.C,PS6*%
X179470000Y-112650000D03*
D11*
X179470000Y-115190000D03*
X179470000Y-122810000D03*
D12*
X179470000Y-125350000D03*
D11*
X179470000Y-127890000D03*
%TD*%
D20*
%TO.C,R26*%
X69070000Y-107912500D03*
X69070000Y-106087500D03*
%TD*%
D21*
%TO.C,R35*%
X74470000Y-75037500D03*
X74470000Y-77962500D03*
%TD*%
D18*
%TO.C,C52*%
X77470000Y-78950000D03*
X77470000Y-77050000D03*
%TD*%
%TO.C,C16*%
X175870000Y-133550000D03*
X175870000Y-131650000D03*
%TD*%
D17*
%TO.C,C34*%
X226745000Y-127400000D03*
X223795000Y-127400000D03*
%TD*%
D15*
%TO.C,R16*%
X236470000Y-134687500D03*
X236470000Y-136512500D03*
%TD*%
D22*
%TO.C,U3*%
X170415000Y-114350000D03*
X169145000Y-114350000D03*
X167875000Y-114350000D03*
X166605000Y-114350000D03*
X165335000Y-114350000D03*
X164065000Y-114350000D03*
X162795000Y-114350000D03*
X161525000Y-114350000D03*
X161525000Y-123650000D03*
X162795000Y-123650000D03*
X164065000Y-123650000D03*
X165335000Y-123650000D03*
X166605000Y-123650000D03*
X167875000Y-123650000D03*
X169145000Y-123650000D03*
X170415000Y-123650000D03*
%TD*%
D18*
%TO.C,C13*%
X63570000Y-133550000D03*
X63570000Y-131650000D03*
%TD*%
D23*
%TO.C,CS1*%
X212970000Y-23000000D03*
D24*
X215510000Y-23000000D03*
X218050000Y-23000000D03*
X218050000Y-35700000D03*
X215510000Y-35700000D03*
X212970000Y-35700000D03*
D25*
X205350000Y-32207500D03*
X205350000Y-30302500D03*
X205350000Y-28397500D03*
X205350000Y-26492500D03*
%TD*%
D14*
%TO.C,D6*%
X180970000Y-130900000D03*
X180970000Y-133100000D03*
%TD*%
D21*
%TO.C,R37*%
X216970000Y-65037500D03*
X216970000Y-67962500D03*
%TD*%
D13*
%TO.C,PS4*%
X84470000Y-112650000D03*
D11*
X84470000Y-115190000D03*
X84470000Y-122810000D03*
D12*
X84470000Y-125350000D03*
D11*
X84470000Y-127890000D03*
%TD*%
D26*
%TO.C,J10*%
X157970000Y-25000000D03*
D27*
X163050000Y-25000000D03*
%TD*%
D28*
%TO.C,H4*%
X251970000Y-161000000D03*
%TD*%
D15*
%TO.C,R6*%
X178470000Y-131087500D03*
X178470000Y-132912500D03*
%TD*%
D21*
%TO.C,R32*%
X74470000Y-60037500D03*
X74470000Y-62962500D03*
%TD*%
D18*
%TO.C,C59*%
X214470000Y-84950000D03*
X214470000Y-83050000D03*
%TD*%
D17*
%TO.C,C29*%
X68645000Y-127400000D03*
X65695000Y-127400000D03*
%TD*%
D28*
%TO.C,H3*%
X39970000Y-161000000D03*
%TD*%
D16*
%TO.C,C22*%
X78370000Y-131650000D03*
X78370000Y-133550000D03*
%TD*%
D28*
%TO.C,H5*%
X100970000Y-160500000D03*
%TD*%
D14*
%TO.C,D1*%
X126270000Y-130900000D03*
X126270000Y-133100000D03*
%TD*%
D29*
%TO.C,C1*%
X48970000Y-66500000D03*
D30*
X58970000Y-66500000D03*
%TD*%
D18*
%TO.C,C36*%
X138970000Y-108450000D03*
X138970000Y-106550000D03*
%TD*%
D17*
%TO.C,C27*%
X126144999Y-127400000D03*
X123194999Y-127400000D03*
%TD*%
D28*
%TO.C,H6*%
X195270000Y-160500000D03*
%TD*%
D21*
%TO.C,R31*%
X74470000Y-55037500D03*
X74470000Y-57962500D03*
%TD*%
D31*
%TO.C,C49*%
X161220000Y-110000000D03*
X163120000Y-110000000D03*
%TD*%
D15*
%TO.C,R23*%
X216870000Y-134687500D03*
X216870000Y-136512500D03*
%TD*%
D28*
%TO.C,H1*%
X39970000Y-19000000D03*
%TD*%
D17*
%TO.C,C30*%
X76245000Y-127400000D03*
X73295000Y-127400000D03*
%TD*%
D15*
%TO.C,R17*%
X123870000Y-134687500D03*
X123870000Y-136512500D03*
%TD*%
%TO.C,R19*%
X66370000Y-134687500D03*
X66370000Y-136512500D03*
%TD*%
D32*
%TO.C,U7*%
X67520000Y-85000000D03*
D33*
X67607500Y-86500000D03*
D32*
X67520000Y-88000000D03*
%TD*%
D34*
%TO.C,Q3*%
X58870000Y-156000000D03*
D35*
X63950000Y-156000000D03*
X66490000Y-156000000D03*
X69030000Y-156000000D03*
%TD*%
D10*
%TO.C,R47*%
X211970000Y-55000000D03*
D36*
X237370000Y-55000000D03*
%TD*%
D13*
%TO.C,PS10*%
X191470000Y-76000000D03*
D11*
X194010000Y-76000000D03*
X201630000Y-76000000D03*
D37*
X204170000Y-76000000D03*
D11*
X206710000Y-76000000D03*
%TD*%
D15*
%TO.C,R8*%
X233970000Y-131087500D03*
X233970000Y-132912500D03*
%TD*%
D21*
%TO.C,R38*%
X216970000Y-70037500D03*
X216970000Y-72962500D03*
%TD*%
D15*
%TO.C,R3*%
X66370000Y-131087500D03*
X66370000Y-132912500D03*
%TD*%
D18*
%TO.C,C12*%
X138370000Y-133550000D03*
X138370000Y-131650000D03*
%TD*%
D20*
%TO.C,R27*%
X164070000Y-107912500D03*
X164070000Y-106087500D03*
%TD*%
D38*
%TO.C,R42*%
X198057500Y-28500000D03*
X199882500Y-28500000D03*
%TD*%
D21*
%TO.C,R41*%
X216970000Y-85037500D03*
X216970000Y-87962500D03*
%TD*%
D39*
%TO.C,J3*%
X248970000Y-45000000D03*
%TD*%
D38*
%TO.C,R45*%
X101057500Y-99500000D03*
X102882500Y-99500000D03*
%TD*%
D18*
%TO.C,C18*%
X231370000Y-133550000D03*
X231370000Y-131650000D03*
%TD*%
D40*
%TO.C,C44*%
X73020000Y-110000000D03*
X71120000Y-110000000D03*
%TD*%
D39*
%TO.C,J7*%
X189170000Y-143000000D03*
%TD*%
D15*
%TO.C,R10*%
X143470000Y-134687500D03*
X143470000Y-136512500D03*
%TD*%
D22*
%TO.C,U2*%
X75415000Y-114350000D03*
X74145000Y-114350000D03*
X72875000Y-114350000D03*
X71605000Y-114350000D03*
X70335000Y-114350000D03*
X69065000Y-114350000D03*
X67795000Y-114350000D03*
X66525000Y-114350000D03*
X66525000Y-123650000D03*
X67795000Y-123650000D03*
X69065000Y-123650000D03*
X70335000Y-123650000D03*
X71605000Y-123650000D03*
X72875000Y-123650000D03*
X74145000Y-123650000D03*
X75415000Y-123650000D03*
%TD*%
D18*
%TO.C,C60*%
X213470000Y-89950000D03*
X213470000Y-88050000D03*
%TD*%
D34*
%TO.C,Q6*%
X170870000Y-156000000D03*
D35*
X175950000Y-156000000D03*
X178490000Y-156000000D03*
X181030000Y-156000000D03*
%TD*%
D18*
%TO.C,C56*%
X94970000Y-82950000D03*
X94970000Y-81050000D03*
%TD*%
D14*
%TO.C,D3*%
X68770000Y-130900000D03*
X68770000Y-133100000D03*
%TD*%
D18*
%TO.C,C61*%
X197470000Y-60950000D03*
X197470000Y-59050000D03*
%TD*%
D19*
%TO.C,D9*%
X151970000Y-36000000D03*
X147970000Y-36000000D03*
%TD*%
D17*
%TO.C,C32*%
X171245000Y-127400000D03*
X168295000Y-127400000D03*
%TD*%
D18*
%TO.C,C38*%
X81470000Y-108450000D03*
X81470000Y-106550000D03*
%TD*%
D31*
%TO.C,C47*%
X123719999Y-110000000D03*
X125619999Y-110000000D03*
%TD*%
D14*
%TO.C,D2*%
X143470000Y-130900000D03*
X143470000Y-133100000D03*
%TD*%
D13*
%TO.C,J9*%
X135970000Y-22000000D03*
D11*
X138510000Y-22000000D03*
X135970000Y-24540000D03*
X138510000Y-24540000D03*
X135970000Y-27080000D03*
X138510000Y-27080000D03*
X135970000Y-29620000D03*
X138510000Y-29620000D03*
X135970000Y-32160000D03*
X138510000Y-32160000D03*
X135970000Y-34700000D03*
X138510000Y-34700000D03*
X135970000Y-37240000D03*
X138510000Y-37240000D03*
X135970000Y-39780000D03*
X138510000Y-39780000D03*
X135970000Y-42320000D03*
X138510000Y-42320000D03*
X135970000Y-44860000D03*
X138510000Y-44860000D03*
%TD*%
D10*
%TO.C,C5*%
X153470000Y-146000000D03*
X175970000Y-146000000D03*
%TD*%
D39*
%TO.C,J6*%
X94470000Y-148000000D03*
%TD*%
D18*
%TO.C,C69*%
X150470000Y-46950000D03*
X150470000Y-45050000D03*
%TD*%
D34*
%TO.C,Q7*%
X209370000Y-156000000D03*
D35*
X214450000Y-156000000D03*
X216990000Y-156000000D03*
X219530000Y-156000000D03*
%TD*%
D20*
%TO.C,R25*%
X126570000Y-107912500D03*
X126570000Y-106087500D03*
%TD*%
D15*
%TO.C,R7*%
X216870000Y-131087500D03*
X216870000Y-132912500D03*
%TD*%
D39*
%TO.C,J4*%
X248970000Y-59000000D03*
%TD*%
D41*
%TO.C,CS2*%
X107670000Y-119000000D03*
D42*
X107670000Y-121540000D03*
X107670000Y-124080000D03*
X94970000Y-124080000D03*
X94970000Y-121540000D03*
X94970000Y-119000000D03*
D43*
X98462500Y-111380000D03*
X100367500Y-111380000D03*
X102272500Y-111380000D03*
X104177500Y-111380000D03*
%TD*%
D18*
%TO.C,C14*%
X80870000Y-133550000D03*
X80870000Y-131650000D03*
%TD*%
D10*
%TO.C,C6*%
X208970000Y-146000000D03*
X231470000Y-146000000D03*
%TD*%
D44*
%TO.C,U5*%
X77645000Y-83095000D03*
X77645000Y-84365000D03*
X77645000Y-85635000D03*
X77645000Y-86905000D03*
X88295000Y-86905000D03*
X88295000Y-85635000D03*
X88295000Y-84365000D03*
X88295000Y-83095000D03*
%TD*%
D15*
%TO.C,R18*%
X140970000Y-134687500D03*
X140970000Y-136512500D03*
%TD*%
%TO.C,R5*%
X161370000Y-131087500D03*
X161370000Y-132912500D03*
%TD*%
D31*
%TO.C,C68*%
X169020000Y-40000000D03*
X170920000Y-40000000D03*
%TD*%
%TO.C,C50*%
X216720000Y-110000000D03*
X218620000Y-110000000D03*
%TD*%
D39*
%TO.C,J1*%
X42970000Y-30000000D03*
%TD*%
D38*
%TO.C,R43*%
X198057500Y-32000000D03*
X199882500Y-32000000D03*
%TD*%
D14*
%TO.C,D5*%
X163770000Y-130900000D03*
X163770000Y-133100000D03*
%TD*%
D45*
%TO.C,F2*%
X233430000Y-45400000D03*
D28*
X238510000Y-45400000D03*
X233430000Y-20000000D03*
X238510000Y-20000000D03*
%TD*%
D18*
%TO.C,C17*%
X214070000Y-133550000D03*
X214070000Y-131650000D03*
%TD*%
D34*
%TO.C,Q2*%
X133370000Y-156000000D03*
D35*
X138450000Y-156000000D03*
X140990000Y-156000000D03*
X143530000Y-156000000D03*
%TD*%
D16*
%TO.C,C21*%
X61069999Y-131650000D03*
X61069999Y-133550000D03*
%TD*%
D18*
%TO.C,C65*%
X194470000Y-36950000D03*
X194470000Y-35050000D03*
%TD*%
%TO.C,C35*%
X114970000Y-108450000D03*
X114970000Y-106550000D03*
%TD*%
D38*
%TO.C,R44*%
X101057500Y-103000000D03*
X102882500Y-103000000D03*
%TD*%
D13*
%TO.C,PS1*%
X117970000Y-112650000D03*
D11*
X117970000Y-115190000D03*
X117970000Y-122810000D03*
D12*
X117970000Y-125350000D03*
D11*
X117970000Y-127890000D03*
%TD*%
D13*
%TO.C,PS7*%
X210970000Y-112650000D03*
D11*
X210970000Y-115190000D03*
X210970000Y-122810000D03*
D12*
X210970000Y-125350000D03*
D11*
X210970000Y-127890000D03*
%TD*%
D15*
%TO.C,R24*%
X233970000Y-134687500D03*
X233970000Y-136512500D03*
%TD*%
D21*
%TO.C,R34*%
X74470000Y-70037500D03*
X74470000Y-72962500D03*
%TD*%
D39*
%TO.C,J2*%
X42970000Y-44000000D03*
%TD*%
D18*
%TO.C,C53*%
X73970000Y-87450000D03*
X73970000Y-85550000D03*
%TD*%
D31*
%TO.C,C51*%
X72020000Y-90000000D03*
X73920000Y-90000000D03*
%TD*%
D40*
%TO.C,C46*%
X223520000Y-110000000D03*
X221620000Y-110000000D03*
%TD*%
D46*
%TO.C,C67*%
X168495000Y-36000000D03*
X171445000Y-36000000D03*
%TD*%
D18*
%TO.C,C58*%
X211970000Y-84950000D03*
X211970000Y-83050000D03*
%TD*%
%TO.C,C62*%
X194970000Y-60950000D03*
X194970000Y-59050000D03*
%TD*%
D15*
%TO.C,R14*%
X180970000Y-134687500D03*
X180970000Y-136512500D03*
%TD*%
D22*
%TO.C,U1*%
X132915000Y-114350000D03*
X131645000Y-114350000D03*
X130375000Y-114350000D03*
X129105000Y-114350000D03*
X127835000Y-114350000D03*
X126565000Y-114350000D03*
X125295000Y-114350000D03*
X124025000Y-114350000D03*
X124025000Y-123650000D03*
X125295000Y-123650000D03*
X126565000Y-123650000D03*
X127835000Y-123650000D03*
X129105000Y-123650000D03*
X130375000Y-123650000D03*
X131645000Y-123650000D03*
X132915000Y-123650000D03*
%TD*%
D16*
%TO.C,C23*%
X156070000Y-131650000D03*
X156070000Y-133550000D03*
%TD*%
%TO.C,C25*%
X211570000Y-131650000D03*
X211570000Y-133550000D03*
%TD*%
D15*
%TO.C,R11*%
X68770000Y-134687500D03*
X68770000Y-136512500D03*
%TD*%
D18*
%TO.C,C41*%
X207970000Y-108450000D03*
X207970000Y-106550000D03*
%TD*%
D40*
%TO.C,C43*%
X130520000Y-110000000D03*
X128620000Y-110000000D03*
%TD*%
D15*
%TO.C,R15*%
X219270000Y-134687500D03*
X219270000Y-136512500D03*
%TD*%
D18*
%TO.C,C54*%
X70970000Y-82450000D03*
X70970000Y-80550000D03*
%TD*%
D10*
%TO.C,R46*%
X66970000Y-21000000D03*
D36*
X66970000Y-46400000D03*
%TD*%
D20*
%TO.C,R28*%
X219570000Y-107912500D03*
X219570000Y-106087500D03*
%TD*%
D34*
%TO.C,Q5*%
X153870000Y-156000000D03*
D35*
X158950000Y-156000000D03*
X161490000Y-156000000D03*
X164030000Y-156000000D03*
%TD*%
D47*
%TO.C,U9*%
X154832500Y-45050000D03*
X154832500Y-46000000D03*
X154832500Y-46950000D03*
X157107500Y-46950000D03*
X157107500Y-45050000D03*
%TD*%
D18*
%TO.C,C66*%
X107470000Y-100450000D03*
X107470000Y-98550000D03*
%TD*%
%TO.C,C55*%
X92470000Y-82950000D03*
X92470000Y-81050000D03*
%TD*%
D14*
%TO.C,D8*%
X236470000Y-130900000D03*
X236470000Y-133100000D03*
%TD*%
D15*
%TO.C,R13*%
X163770000Y-134687500D03*
X163770000Y-136512500D03*
%TD*%
%TO.C,R9*%
X126270000Y-134687500D03*
X126270000Y-136512500D03*
%TD*%
D18*
%TO.C,C39*%
X152470000Y-108450000D03*
X152470000Y-106550000D03*
%TD*%
D17*
%TO.C,C28*%
X133745000Y-127400000D03*
X130795000Y-127400000D03*
%TD*%
D39*
%TO.C,J8*%
X200870000Y-143000000D03*
%TD*%
D48*
%TO.C,U6*%
X211295000Y-65905000D03*
X211295000Y-64635000D03*
X211295000Y-63365000D03*
X211295000Y-62095000D03*
X200645000Y-62095000D03*
X200645000Y-63365000D03*
X200645000Y-64635000D03*
X200645000Y-65905000D03*
%TD*%
D34*
%TO.C,Q1*%
X116370000Y-156000000D03*
D35*
X121450000Y-156000000D03*
X123990000Y-156000000D03*
X126530000Y-156000000D03*
%TD*%
D14*
%TO.C,D4*%
X85970000Y-130900000D03*
X85970000Y-133100000D03*
%TD*%
D21*
%TO.C,R30*%
X74470000Y-50037500D03*
X74470000Y-52962500D03*
%TD*%
D32*
%TO.C,U8*%
X210020000Y-76500000D03*
D33*
X210107500Y-78000000D03*
D32*
X210020000Y-79500000D03*
%TD*%
D15*
%TO.C,R12*%
X85970000Y-134687500D03*
X85970000Y-136512500D03*
%TD*%
D21*
%TO.C,R33*%
X74470000Y-65037500D03*
X74470000Y-67962500D03*
%TD*%
D18*
%TO.C,C70*%
X161470000Y-46950000D03*
X161470000Y-45050000D03*
%TD*%
D15*
%TO.C,R1*%
X123870000Y-131087500D03*
X123870000Y-132912500D03*
%TD*%
D16*
%TO.C,C24*%
X173370000Y-131650000D03*
X173370000Y-133550000D03*
%TD*%
D18*
%TO.C,C57*%
X209470000Y-86950000D03*
X209470000Y-85050000D03*
%TD*%
D13*
%TO.C,PS3*%
X60470000Y-112650000D03*
D11*
X60470000Y-115190000D03*
X60470000Y-122810000D03*
D12*
X60470000Y-125350000D03*
D11*
X60470000Y-127890000D03*
%TD*%
D28*
%TO.C,H2*%
X251970000Y-19000000D03*
%TD*%
D21*
%TO.C,R40*%
X216970000Y-80037500D03*
X216970000Y-82962500D03*
%TD*%
%TO.C,R39*%
X216970000Y-75037500D03*
X216970000Y-77962500D03*
%TD*%
D31*
%TO.C,C48*%
X66220000Y-110000000D03*
X68120000Y-110000000D03*
%TD*%
D40*
%TO.C,C45*%
X168020000Y-110000000D03*
X166120000Y-110000000D03*
%TD*%
D15*
%TO.C,R21*%
X161370000Y-134687500D03*
X161370000Y-136512500D03*
%TD*%
D18*
%TO.C,C42*%
X231970000Y-108450000D03*
X231970000Y-106550000D03*
%TD*%
%TO.C,C11*%
X121070000Y-133550000D03*
X121070000Y-131650000D03*
%TD*%
%TO.C,C40*%
X176470000Y-108450000D03*
X176470000Y-106550000D03*
%TD*%
D16*
%TO.C,C26*%
X228870000Y-131650000D03*
X228870000Y-133550000D03*
%TD*%
D13*
%TO.C,PS9*%
X57970000Y-100500000D03*
D11*
X57970000Y-97960000D03*
X57970000Y-90340000D03*
D12*
X57970000Y-87800000D03*
D11*
X57970000Y-85260000D03*
%TD*%
D22*
%TO.C,U4*%
X225915000Y-114350000D03*
X224645000Y-114350000D03*
X223375000Y-114350000D03*
X222105000Y-114350000D03*
X220835000Y-114350000D03*
X219565000Y-114350000D03*
X218295000Y-114350000D03*
X217025000Y-114350000D03*
X217025000Y-123650000D03*
X218295000Y-123650000D03*
X219565000Y-123650000D03*
X220835000Y-123650000D03*
X222105000Y-123650000D03*
X223375000Y-123650000D03*
X224645000Y-123650000D03*
X225915000Y-123650000D03*
%TD*%
D34*
%TO.C,Q4*%
X75870000Y-156000000D03*
D35*
X80950000Y-156000000D03*
X83490000Y-156000000D03*
X86030000Y-156000000D03*
%TD*%
D16*
%TO.C,C20*%
X135870000Y-131650000D03*
X135870000Y-133550000D03*
%TD*%
D15*
%TO.C,R4*%
X83470000Y-131087500D03*
X83470000Y-132912500D03*
%TD*%
D18*
%TO.C,C64*%
X95970000Y-103950000D03*
X95970000Y-102050000D03*
%TD*%
D39*
%TO.C,J5*%
X100470000Y-137000000D03*
%TD*%
D15*
%TO.C,R2*%
X140970000Y-131087500D03*
X140970000Y-132912500D03*
%TD*%
D18*
%TO.C,C15*%
X158570000Y-133550000D03*
X158570000Y-131650000D03*
%TD*%
D21*
%TO.C,R36*%
X216970000Y-60037500D03*
X216970000Y-62962500D03*
%TD*%
D29*
%TO.C,C2*%
X228970000Y-77000000D03*
D30*
X238970000Y-77000000D03*
%TD*%
D18*
%TO.C,C63*%
X194470000Y-24950000D03*
X194470000Y-23050000D03*
%TD*%
D10*
%TO.C,C3*%
X115970000Y-146000000D03*
X138470000Y-146000000D03*
%TD*%
D34*
%TO.C,Q8*%
X226370000Y-156000000D03*
D35*
X231450000Y-156000000D03*
X233990000Y-156000000D03*
X236530000Y-156000000D03*
%TD*%
D20*
%TO.C,R29*%
X130970000Y-46912500D03*
X130970000Y-45087500D03*
%TD*%
D15*
%TO.C,R22*%
X178470000Y-134687500D03*
X178470000Y-136512500D03*
%TD*%
D45*
%TO.C,F1*%
X57510000Y-21000000D03*
D28*
X52430000Y-21000000D03*
X57510000Y-46400000D03*
X52430000Y-46400000D03*
%TD*%
D13*
%TO.C,PS8*%
X234970000Y-112650000D03*
D11*
X234970000Y-115190000D03*
X234970000Y-122810000D03*
D12*
X234970000Y-125350000D03*
D11*
X234970000Y-127890000D03*
%TD*%
M02*
