%TF.GenerationSoftware,KiCad,Pcbnew,10.0.6*%
%TF.CreationDate,2026-10-03T22:06:36+05:30*%
%TF.ProjectId,DAB_3k3W,4441425f-336b-4335-972e-6b696361645f,3.0*%
%TF.SameCoordinates,Original*%
%TF.FileFunction,Profile,NP*%
%FSLAX46Y46*%
G04 Gerber Fmt 4.6, Leading zero omitted, Abs format (unit mm)*
G04 Created by KiCad (PCBNEW 10.0.6) date 2026-10-03 22:06:36*
%MOMM*%
%LPD*%
G01*
G04 APERTURE LIST*
%TA.AperFunction,Profile*%
%ADD10C,0.100000*%
%TD*%
G04 APERTURE END LIST*
D10*
X35970000Y-18000000D02*
G75*
G02*
X38970000Y-15000000I3000000J0D01*
G01*
X35970000Y-162000000D02*
X35970000Y-18000000D01*
X38970000Y-15000000D02*
X252970000Y-15000000D01*
X38970000Y-165000000D02*
G75*
G02*
X35970000Y-162000000I0J3000000D01*
G01*
X54970000Y-118000000D02*
X85470000Y-118000000D01*
X54970000Y-120000000D02*
G75*
G02*
X54970000Y-118000000I0J1000000D01*
G01*
X56570000Y-92150000D02*
X63970000Y-92150000D01*
X56570000Y-94150000D02*
G75*
G02*
X56570000Y-92150000I0J1000000D01*
G01*
X63970000Y-92150000D02*
G75*
G02*
X63970000Y-94150000I0J-1000000D01*
G01*
X63970000Y-94150000D02*
X56570000Y-94150000D01*
X81970000Y-82500000D02*
X81970000Y-87500000D01*
X81970000Y-87500000D02*
G75*
G02*
X83970000Y-87500000I1000000J0D01*
G01*
X83970000Y-82500000D02*
G75*
G02*
X81970000Y-82500000I-1000000J0D01*
G01*
X83970000Y-87500000D02*
X83970000Y-82500000D01*
X85470000Y-118000000D02*
G75*
G02*
X85470000Y-120000000I0J-1000000D01*
G01*
X85470000Y-120000000D02*
X54970000Y-120000000D01*
X97470000Y-114000000D02*
X107970000Y-114000000D01*
X97470000Y-116000000D02*
G75*
G02*
X97470000Y-114000000I0J1000000D01*
G01*
X107970000Y-114000000D02*
G75*
G02*
X107970000Y-116000000I0J-1000000D01*
G01*
X107970000Y-116000000D02*
X97470000Y-116000000D01*
X112470000Y-118000000D02*
X142970000Y-118000000D01*
X112470000Y-120000000D02*
G75*
G02*
X112470000Y-118000000I0J1000000D01*
G01*
X142970000Y-118000000D02*
G75*
G02*
X142970000Y-120000000I0J-1000000D01*
G01*
X142970000Y-120000000D02*
X112470000Y-120000000D01*
X149970000Y-118000000D02*
X180470000Y-118000000D01*
X149970000Y-120000000D02*
G75*
G02*
X149970000Y-118000000I0J1000000D01*
G01*
X180470000Y-118000000D02*
G75*
G02*
X180470000Y-120000000I0J-1000000D01*
G01*
X180470000Y-120000000D02*
X149970000Y-120000000D01*
X196820000Y-74600000D02*
X196820000Y-82400000D01*
X196820000Y-82400000D02*
G75*
G02*
X198820000Y-82400000I1000000J0D01*
G01*
X198820000Y-74600000D02*
G75*
G02*
X196820000Y-74600000I-1000000J0D01*
G01*
X198820000Y-82400000D02*
X198820000Y-74600000D01*
X204970000Y-61500000D02*
X204970000Y-66500000D01*
X204970000Y-66500000D02*
G75*
G02*
X206970000Y-66500000I1000000J0D01*
G01*
X205470000Y-118000000D02*
X235970000Y-118000000D01*
X205470000Y-120000000D02*
G75*
G02*
X205470000Y-118000000I0J1000000D01*
G01*
X206970000Y-61500000D02*
G75*
G02*
X204970000Y-61500000I-1000000J0D01*
G01*
X206970000Y-66500000D02*
X206970000Y-61500000D01*
X207970000Y-22000000D02*
X207970000Y-36500000D01*
X207970000Y-36500000D02*
G75*
G02*
X209970000Y-36500000I1000000J0D01*
G01*
X209970000Y-22000000D02*
G75*
G02*
X207970000Y-22000000I-1000000J0D01*
G01*
X209970000Y-36500000D02*
X209970000Y-22000000D01*
X235970000Y-118000000D02*
G75*
G02*
X235970000Y-120000000I0J-1000000D01*
G01*
X235970000Y-120000000D02*
X205470000Y-120000000D01*
X252970000Y-15000000D02*
G75*
G02*
X255970000Y-18000000I0J-3000000D01*
G01*
X252970000Y-165000000D02*
X38970000Y-165000000D01*
X255970000Y-18000000D02*
X255970000Y-162000000D01*
X255970000Y-162000000D02*
G75*
G02*
X252970000Y-165000000I-3000000J0D01*
G01*
M02*
