%TF.GenerationSoftware,KiCad,Pcbnew,10.0.6*%
%TF.CreationDate,2026-10-03T22:06:36+05:30*%
%TF.ProjectId,DAB_3k3W,4441425f-336b-4335-972e-6b696361645f,3.0*%
%TF.SameCoordinates,Original*%
%TF.FileFunction,Soldermask,Bot*%
%TF.FilePolarity,Negative*%
%FSLAX46Y46*%
G04 Gerber Fmt 4.6, Leading zero omitted, Abs format (unit mm)*
G04 Created by KiCad (PCBNEW 10.0.6) date 2026-10-03 22:06:36*
%MOMM*%
%LPD*%
G01*
G04 APERTURE LIST*
G04 Aperture macros list*
%AMRoundRect*
0 Rectangle with rounded corners*
0 $1 Rounding radius*
0 $2 $3 $4 $5 $6 $7 $8 $9 X,Y pos of 4 corners*
0 Add a 4 corners polygon primitive as box body*
4,1,4,$2,$3,$4,$5,$6,$7,$8,$9,$2,$3,0*
0 Add four circle primitives for the rounded corners*
1,1,$1+$1,$2,$3*
1,1,$1+$1,$4,$5*
1,1,$1+$1,$6,$7*
1,1,$1+$1,$8,$9*
0 Add four rect primitives between the rounded corners*
20,1,$1+$1,$2,$3,$4,$5,0*
20,1,$1+$1,$4,$5,$6,$7,0*
20,1,$1+$1,$6,$7,$8,$9,0*
20,1,$1+$1,$8,$9,$2,$3,0*%
G04 Aperture macros list end*
%ADD10RoundRect,0.249999X-0.450001X-1.450001X0.450001X-1.450001X0.450001X1.450001X-0.450001X1.450001X0*%
%ADD11C,2.400000*%
%ADD12O,1.700000X1.700000*%
%ADD13O,1.600000X1.700000*%
%ADD14R,1.700000X1.700000*%
%ADD15RoundRect,0.237500X-0.712500X-1.012500X0.712500X-1.012500X0.712500X1.012500X-0.712500X1.012500X0*%
%ADD16O,1.900000X2.500000*%
%ADD17O,1.600000X1.400000*%
%ADD18R,2.600000X2.600000*%
%ADD19C,2.600000*%
%ADD20C,3.200000*%
%ADD21R,4.000000X4.000000*%
%ADD22C,4.000000*%
%ADD23R,1.905000X4.500000*%
%ADD24O,1.905000X4.500000*%
%ADD25O,2.400000X2.400000*%
%ADD26O,1.700000X1.600000*%
%ADD27C,8.600000*%
%ADD28RoundRect,0.237500X-1.012500X0.712500X-1.012500X-0.712500X1.012500X-0.712500X1.012500X0.712500X0*%
%ADD29O,2.500000X1.900000*%
%ADD30O,1.400000X1.600000*%
%ADD31R,3.200000X3.200000*%
G04 APERTURE END LIST*
D10*
%TO.C,C8*%
X77550000Y-147000000D03*
X73450000Y-147000000D03*
%TD*%
D11*
%TO.C,C4*%
X80970000Y-146000000D03*
X58470000Y-146000000D03*
%TD*%
D10*
%TO.C,C10*%
X228050000Y-147000000D03*
X223950000Y-147000000D03*
%TD*%
D12*
%TO.C,PS2*%
X141970000Y-127890000D03*
D13*
X141970000Y-125350000D03*
D12*
X141970000Y-122810000D03*
X141970000Y-115190000D03*
D14*
X141970000Y-112650000D03*
%TD*%
%TO.C,PS5*%
X155470000Y-112650000D03*
D12*
X155470000Y-115190000D03*
X155470000Y-122810000D03*
D13*
X155470000Y-125350000D03*
D12*
X155470000Y-127890000D03*
%TD*%
D14*
%TO.C,PS6*%
X179470000Y-112650000D03*
D12*
X179470000Y-115190000D03*
X179470000Y-122810000D03*
D13*
X179470000Y-125350000D03*
D12*
X179470000Y-127890000D03*
%TD*%
D15*
%TO.C,CS1*%
X212970000Y-23000000D03*
D16*
X215510000Y-23000000D03*
X218050000Y-23000000D03*
X218050000Y-35700000D03*
X215510000Y-35700000D03*
X212970000Y-35700000D03*
D17*
X205350000Y-32207500D03*
X205350000Y-30302500D03*
X205350000Y-28397500D03*
X205350000Y-26492500D03*
%TD*%
D14*
%TO.C,PS4*%
X84470000Y-112650000D03*
D12*
X84470000Y-115190000D03*
X84470000Y-122810000D03*
D13*
X84470000Y-125350000D03*
D12*
X84470000Y-127890000D03*
%TD*%
D18*
%TO.C,J10*%
X157970000Y-25000000D03*
D19*
X163050000Y-25000000D03*
%TD*%
D20*
%TO.C,H4*%
X251970000Y-161000000D03*
%TD*%
%TO.C,H3*%
X39970000Y-161000000D03*
%TD*%
%TO.C,H5*%
X100970000Y-160500000D03*
%TD*%
D21*
%TO.C,C1*%
X48970000Y-66500000D03*
D22*
X58970000Y-66500000D03*
%TD*%
D20*
%TO.C,H6*%
X195270000Y-160500000D03*
%TD*%
%TO.C,H1*%
X39970000Y-19000000D03*
%TD*%
D23*
%TO.C,Q3*%
X58870000Y-156000000D03*
D24*
X63950000Y-156000000D03*
X66490000Y-156000000D03*
X69030000Y-156000000D03*
%TD*%
D11*
%TO.C,R47*%
X211970000Y-55000000D03*
D25*
X237370000Y-55000000D03*
%TD*%
D14*
%TO.C,PS10*%
X191470000Y-76000000D03*
D12*
X194010000Y-76000000D03*
X201630000Y-76000000D03*
D26*
X204170000Y-76000000D03*
D12*
X206710000Y-76000000D03*
%TD*%
D27*
%TO.C,J3*%
X248970000Y-45000000D03*
%TD*%
%TO.C,J7*%
X189170000Y-143000000D03*
%TD*%
D23*
%TO.C,Q6*%
X170870000Y-156000000D03*
D24*
X175950000Y-156000000D03*
X178490000Y-156000000D03*
X181030000Y-156000000D03*
%TD*%
D14*
%TO.C,J9*%
X135970000Y-22000000D03*
D12*
X138510000Y-22000000D03*
X135970000Y-24540000D03*
X138510000Y-24540000D03*
X135970000Y-27080000D03*
X138510000Y-27080000D03*
X135970000Y-29620000D03*
X138510000Y-29620000D03*
X135970000Y-32160000D03*
X138510000Y-32160000D03*
X135970000Y-34700000D03*
X138510000Y-34700000D03*
X135970000Y-37240000D03*
X138510000Y-37240000D03*
X135970000Y-39780000D03*
X138510000Y-39780000D03*
X135970000Y-42320000D03*
X138510000Y-42320000D03*
X135970000Y-44860000D03*
X138510000Y-44860000D03*
%TD*%
D11*
%TO.C,C5*%
X153470000Y-146000000D03*
X175970000Y-146000000D03*
%TD*%
D27*
%TO.C,J6*%
X94470000Y-148000000D03*
%TD*%
D23*
%TO.C,Q7*%
X209370000Y-156000000D03*
D24*
X214450000Y-156000000D03*
X216990000Y-156000000D03*
X219530000Y-156000000D03*
%TD*%
D27*
%TO.C,J4*%
X248970000Y-59000000D03*
%TD*%
D28*
%TO.C,CS2*%
X107670000Y-119000000D03*
D29*
X107670000Y-121540000D03*
X107670000Y-124080000D03*
X94970000Y-124080000D03*
X94970000Y-121540000D03*
X94970000Y-119000000D03*
D30*
X98462500Y-111380000D03*
X100367500Y-111380000D03*
X102272500Y-111380000D03*
X104177500Y-111380000D03*
%TD*%
D11*
%TO.C,C6*%
X208970000Y-146000000D03*
X231470000Y-146000000D03*
%TD*%
D27*
%TO.C,J1*%
X42970000Y-30000000D03*
%TD*%
D31*
%TO.C,F2*%
X233430000Y-45400000D03*
D20*
X238510000Y-45400000D03*
X233430000Y-20000000D03*
X238510000Y-20000000D03*
%TD*%
D23*
%TO.C,Q2*%
X133370000Y-156000000D03*
D24*
X138450000Y-156000000D03*
X140990000Y-156000000D03*
X143530000Y-156000000D03*
%TD*%
D14*
%TO.C,PS1*%
X117970000Y-112650000D03*
D12*
X117970000Y-115190000D03*
X117970000Y-122810000D03*
D13*
X117970000Y-125350000D03*
D12*
X117970000Y-127890000D03*
%TD*%
D14*
%TO.C,PS7*%
X210970000Y-112650000D03*
D12*
X210970000Y-115190000D03*
X210970000Y-122810000D03*
D13*
X210970000Y-125350000D03*
D12*
X210970000Y-127890000D03*
%TD*%
D27*
%TO.C,J2*%
X42970000Y-44000000D03*
%TD*%
D11*
%TO.C,R46*%
X66970000Y-21000000D03*
D25*
X66970000Y-46400000D03*
%TD*%
D23*
%TO.C,Q5*%
X153870000Y-156000000D03*
D24*
X158950000Y-156000000D03*
X161490000Y-156000000D03*
X164030000Y-156000000D03*
%TD*%
D27*
%TO.C,J8*%
X200870000Y-143000000D03*
%TD*%
D23*
%TO.C,Q1*%
X116370000Y-156000000D03*
D24*
X121450000Y-156000000D03*
X123990000Y-156000000D03*
X126530000Y-156000000D03*
%TD*%
D14*
%TO.C,PS3*%
X60470000Y-112650000D03*
D12*
X60470000Y-115190000D03*
X60470000Y-122810000D03*
D13*
X60470000Y-125350000D03*
D12*
X60470000Y-127890000D03*
%TD*%
D20*
%TO.C,H2*%
X251970000Y-19000000D03*
%TD*%
D14*
%TO.C,PS9*%
X57970000Y-100500000D03*
D12*
X57970000Y-97960000D03*
X57970000Y-90340000D03*
D13*
X57970000Y-87800000D03*
D12*
X57970000Y-85260000D03*
%TD*%
D23*
%TO.C,Q4*%
X75870000Y-156000000D03*
D24*
X80950000Y-156000000D03*
X83490000Y-156000000D03*
X86030000Y-156000000D03*
%TD*%
D27*
%TO.C,J5*%
X100470000Y-137000000D03*
%TD*%
D21*
%TO.C,C2*%
X228970000Y-77000000D03*
D22*
X238970000Y-77000000D03*
%TD*%
D11*
%TO.C,C3*%
X115970000Y-146000000D03*
X138470000Y-146000000D03*
%TD*%
D23*
%TO.C,Q8*%
X226370000Y-156000000D03*
D24*
X231450000Y-156000000D03*
X233990000Y-156000000D03*
X236530000Y-156000000D03*
%TD*%
D31*
%TO.C,F1*%
X57510000Y-21000000D03*
D20*
X52430000Y-21000000D03*
X57510000Y-46400000D03*
X52430000Y-46400000D03*
%TD*%
D14*
%TO.C,PS8*%
X234970000Y-112650000D03*
D12*
X234970000Y-115190000D03*
X234970000Y-122810000D03*
D13*
X234970000Y-125350000D03*
D12*
X234970000Y-127890000D03*
%TD*%
D10*
%TO.C,C7*%
X130950000Y-147000000D03*
X135050000Y-147000000D03*
%TD*%
%TO.C,C9*%
X168450000Y-147000000D03*
X172550000Y-147000000D03*
%TD*%
M02*
