M48
; DRILL file {KiCad 7.0.11+dfsg-1build4} date Sat Oct  3 06:15:35 2026
; FORMAT={-:-/ absolute / metric / decimal}
; #@! TF.CreationDate,2026-10-03T06:15:35+00:00
; #@! TF.GenerationSoftware,Kicad,Pcbnew,7.0.11+dfsg-1build4
; #@! TF.FileFunction,Plated,1,2,PTH
FMAT,2
METRIC
; #@! TA.AperFunction,Plated,PTH,ViaDrill
T1C0.600
; #@! TA.AperFunction,Plated,PTH,ComponentDrill
T2C0.800
; #@! TA.AperFunction,Plated,PTH,ComponentDrill
T3C1.000
%
G90
G05
T1
X131.5Y-108.0
X135.5Y-101.5
X136.5Y-90.5
X136.5Y-91.5
X136.5Y-92.5
X136.5Y-93.5
X136.5Y-94.5
X136.5Y-95.5
X136.5Y-96.5
X136.5Y-97.5
X136.5Y-98.5
X137.0Y-108.5
X137.5Y-90.5
X137.5Y-91.5
X137.5Y-92.5
X137.5Y-93.5
X137.5Y-94.5
X137.5Y-95.5
X137.5Y-96.5
X137.5Y-97.5
X137.5Y-98.5
X138.5Y-90.5
X138.5Y-91.5
X138.5Y-92.5
X138.5Y-93.5
X138.5Y-94.5
X138.5Y-95.5
X138.5Y-96.5
X138.5Y-97.5
X138.5Y-98.5
X139.5Y-90.5
X139.5Y-91.5
X139.5Y-92.5
X139.5Y-93.5
X139.5Y-94.5
X139.5Y-95.5
X139.5Y-96.5
X139.5Y-97.5
X139.5Y-98.5
X140.5Y-90.5
X140.5Y-91.5
X140.5Y-92.5
X140.5Y-93.5
X140.5Y-94.5
X140.5Y-95.5
X140.5Y-96.5
X140.5Y-97.5
X140.5Y-98.5
X141.5Y-90.5
X141.5Y-91.5
X141.5Y-92.5
X141.5Y-93.5
X141.5Y-94.5
X141.5Y-94.5
X141.5Y-95.5
X141.5Y-96.5
X141.5Y-97.5
X141.5Y-98.5
X142.5Y-90.5
X142.5Y-91.5
X142.5Y-92.5
X142.5Y-93.5
X142.5Y-94.5
X142.5Y-95.5
X142.5Y-96.5
X142.5Y-97.5
X142.5Y-98.5
X143.5Y-90.5
X143.5Y-91.5
X143.5Y-92.5
X143.5Y-93.5
X143.5Y-94.5
X143.5Y-95.5
X143.5Y-96.5
X143.5Y-97.5
X143.5Y-98.5
X144.5Y-90.5
X144.5Y-91.5
X144.5Y-92.5
X144.5Y-93.5
X144.5Y-94.5
X144.5Y-95.5
X144.5Y-96.5
X144.5Y-97.5
X144.5Y-98.5
X145.0Y-108.5
X145.5Y-90.5
X145.5Y-91.5
X145.5Y-92.5
X145.5Y-93.5
X145.5Y-94.5
X145.5Y-95.5
X145.5Y-96.5
X145.5Y-97.5
X145.5Y-98.5
X146.5Y-90.5
X146.5Y-91.5
X146.5Y-92.5
X146.5Y-93.5
X146.5Y-94.5
X146.5Y-95.5
X146.5Y-96.5
X146.5Y-97.5
X146.5Y-98.5
X147.5Y-100.5
T2
X130.5Y-96.5
X133.0Y-96.5
X153.96Y-106.5
X156.5Y-106.5
X159.04Y-106.5
X164.75Y-99.5
X167.25Y-99.5
T3
X127.0Y-91.0
X127.0Y-108.0
X169.0Y-91.0
X169.0Y-108.0
M30
