%TF.GenerationSoftware,KiCad,Pcbnew,7.0.11+dfsg-1build4*%
%TF.CreationDate,2026-10-03T06:15:35+00:00*%
%TF.ProjectId,t,742e6b69-6361-4645-9f70-636258585858,rev?*%
%TF.SameCoordinates,Original*%
%TF.FileFunction,Legend,Top*%
%TF.FilePolarity,Positive*%
%FSLAX46Y46*%
G04 Gerber Fmt 4.6, Leading zero omitted, Abs format (unit mm)*
G04 Created by KiCad (PCBNEW 7.0.11+dfsg-1build4) date 2026-10-03 06:15:35*
%MOMM*%
%LPD*%
G01*
G04 APERTURE LIST*
%ADD10C,0.200000*%
%ADD11C,0.150000*%
%ADD12C,0.120000*%
%ADD13C,0.127000*%
G04 APERTURE END LIST*
D10*
X169367219Y-96439850D02*
X169367219Y-96249374D01*
X169367219Y-96249374D02*
X169414838Y-96154136D01*
X169414838Y-96154136D02*
X169510076Y-96058898D01*
X169510076Y-96058898D02*
X169700552Y-96011279D01*
X169700552Y-96011279D02*
X170033885Y-96011279D01*
X170033885Y-96011279D02*
X170224361Y-96058898D01*
X170224361Y-96058898D02*
X170319600Y-96154136D01*
X170319600Y-96154136D02*
X170367219Y-96249374D01*
X170367219Y-96249374D02*
X170367219Y-96439850D01*
X170367219Y-96439850D02*
X170319600Y-96535088D01*
X170319600Y-96535088D02*
X170224361Y-96630326D01*
X170224361Y-96630326D02*
X170033885Y-96677945D01*
X170033885Y-96677945D02*
X169700552Y-96677945D01*
X169700552Y-96677945D02*
X169510076Y-96630326D01*
X169510076Y-96630326D02*
X169414838Y-96535088D01*
X169414838Y-96535088D02*
X169367219Y-96439850D01*
X169367219Y-95582707D02*
X170176742Y-95582707D01*
X170176742Y-95582707D02*
X170271980Y-95535088D01*
X170271980Y-95535088D02*
X170319600Y-95487469D01*
X170319600Y-95487469D02*
X170367219Y-95392231D01*
X170367219Y-95392231D02*
X170367219Y-95201755D01*
X170367219Y-95201755D02*
X170319600Y-95106517D01*
X170319600Y-95106517D02*
X170271980Y-95058898D01*
X170271980Y-95058898D02*
X170176742Y-95011279D01*
X170176742Y-95011279D02*
X169367219Y-95011279D01*
X169367219Y-94677945D02*
X169367219Y-94106517D01*
X170367219Y-94392231D02*
X169367219Y-94392231D01*
X169986266Y-93773183D02*
X169986266Y-93011279D01*
X170367219Y-93392231D02*
X169605314Y-93392231D01*
X169367219Y-105439850D02*
X169367219Y-105249374D01*
X169367219Y-105249374D02*
X169414838Y-105154136D01*
X169414838Y-105154136D02*
X169510076Y-105058898D01*
X169510076Y-105058898D02*
X169700552Y-105011279D01*
X169700552Y-105011279D02*
X170033885Y-105011279D01*
X170033885Y-105011279D02*
X170224361Y-105058898D01*
X170224361Y-105058898D02*
X170319600Y-105154136D01*
X170319600Y-105154136D02*
X170367219Y-105249374D01*
X170367219Y-105249374D02*
X170367219Y-105439850D01*
X170367219Y-105439850D02*
X170319600Y-105535088D01*
X170319600Y-105535088D02*
X170224361Y-105630326D01*
X170224361Y-105630326D02*
X170033885Y-105677945D01*
X170033885Y-105677945D02*
X169700552Y-105677945D01*
X169700552Y-105677945D02*
X169510076Y-105630326D01*
X169510076Y-105630326D02*
X169414838Y-105535088D01*
X169414838Y-105535088D02*
X169367219Y-105439850D01*
X169367219Y-104582707D02*
X170176742Y-104582707D01*
X170176742Y-104582707D02*
X170271980Y-104535088D01*
X170271980Y-104535088D02*
X170319600Y-104487469D01*
X170319600Y-104487469D02*
X170367219Y-104392231D01*
X170367219Y-104392231D02*
X170367219Y-104201755D01*
X170367219Y-104201755D02*
X170319600Y-104106517D01*
X170319600Y-104106517D02*
X170271980Y-104058898D01*
X170271980Y-104058898D02*
X170176742Y-104011279D01*
X170176742Y-104011279D02*
X169367219Y-104011279D01*
X169367219Y-103677945D02*
X169367219Y-103106517D01*
X170367219Y-103392231D02*
X169367219Y-103392231D01*
X169986266Y-102773183D02*
X169986266Y-102011279D01*
X126132780Y-93369673D02*
X127132780Y-93369673D01*
X126132780Y-93845863D02*
X127132780Y-93845863D01*
X127132780Y-93845863D02*
X126132780Y-94417291D01*
X126132780Y-94417291D02*
X127132780Y-94417291D01*
X126513733Y-94893482D02*
X126513733Y-95655387D01*
X126132780Y-95274434D02*
X126894685Y-95274434D01*
X126132780Y-103869673D02*
X127132780Y-103869673D01*
X126132780Y-104345863D02*
X127132780Y-104345863D01*
X127132780Y-104345863D02*
X126132780Y-104917291D01*
X126132780Y-104917291D02*
X127132780Y-104917291D01*
X126513733Y-105393482D02*
X126513733Y-106155387D01*
D11*
X162833333Y-90954819D02*
X162357143Y-90954819D01*
X162357143Y-90954819D02*
X162357143Y-89954819D01*
X163690476Y-90954819D02*
X163119048Y-90954819D01*
X163404762Y-90954819D02*
X163404762Y-89954819D01*
X163404762Y-89954819D02*
X163309524Y-90097676D01*
X163309524Y-90097676D02*
X163214286Y-90192914D01*
X163214286Y-90192914D02*
X163119048Y-90240533D01*
X133333333Y-92359580D02*
X133285714Y-92407200D01*
X133285714Y-92407200D02*
X133142857Y-92454819D01*
X133142857Y-92454819D02*
X133047619Y-92454819D01*
X133047619Y-92454819D02*
X132904762Y-92407200D01*
X132904762Y-92407200D02*
X132809524Y-92311961D01*
X132809524Y-92311961D02*
X132761905Y-92216723D01*
X132761905Y-92216723D02*
X132714286Y-92026247D01*
X132714286Y-92026247D02*
X132714286Y-91883390D01*
X132714286Y-91883390D02*
X132761905Y-91692914D01*
X132761905Y-91692914D02*
X132809524Y-91597676D01*
X132809524Y-91597676D02*
X132904762Y-91502438D01*
X132904762Y-91502438D02*
X133047619Y-91454819D01*
X133047619Y-91454819D02*
X133142857Y-91454819D01*
X133142857Y-91454819D02*
X133285714Y-91502438D01*
X133285714Y-91502438D02*
X133333333Y-91550057D01*
X134285714Y-92454819D02*
X133714286Y-92454819D01*
X134000000Y-92454819D02*
X134000000Y-91454819D01*
X134000000Y-91454819D02*
X133904762Y-91597676D01*
X133904762Y-91597676D02*
X133809524Y-91692914D01*
X133809524Y-91692914D02*
X133714286Y-91740533D01*
X134283333Y-101859580D02*
X134235714Y-101907200D01*
X134235714Y-101907200D02*
X134092857Y-101954819D01*
X134092857Y-101954819D02*
X133997619Y-101954819D01*
X133997619Y-101954819D02*
X133854762Y-101907200D01*
X133854762Y-101907200D02*
X133759524Y-101811961D01*
X133759524Y-101811961D02*
X133711905Y-101716723D01*
X133711905Y-101716723D02*
X133664286Y-101526247D01*
X133664286Y-101526247D02*
X133664286Y-101383390D01*
X133664286Y-101383390D02*
X133711905Y-101192914D01*
X133711905Y-101192914D02*
X133759524Y-101097676D01*
X133759524Y-101097676D02*
X133854762Y-101002438D01*
X133854762Y-101002438D02*
X133997619Y-100954819D01*
X133997619Y-100954819D02*
X134092857Y-100954819D01*
X134092857Y-100954819D02*
X134235714Y-101002438D01*
X134235714Y-101002438D02*
X134283333Y-101050057D01*
X134664286Y-101050057D02*
X134711905Y-101002438D01*
X134711905Y-101002438D02*
X134807143Y-100954819D01*
X134807143Y-100954819D02*
X135045238Y-100954819D01*
X135045238Y-100954819D02*
X135140476Y-101002438D01*
X135140476Y-101002438D02*
X135188095Y-101050057D01*
X135188095Y-101050057D02*
X135235714Y-101145295D01*
X135235714Y-101145295D02*
X135235714Y-101240533D01*
X135235714Y-101240533D02*
X135188095Y-101383390D01*
X135188095Y-101383390D02*
X134616667Y-101954819D01*
X134616667Y-101954819D02*
X135235714Y-101954819D01*
X148333333Y-108774819D02*
X148000000Y-108298628D01*
X147761905Y-108774819D02*
X147761905Y-107774819D01*
X147761905Y-107774819D02*
X148142857Y-107774819D01*
X148142857Y-107774819D02*
X148238095Y-107822438D01*
X148238095Y-107822438D02*
X148285714Y-107870057D01*
X148285714Y-107870057D02*
X148333333Y-107965295D01*
X148333333Y-107965295D02*
X148333333Y-108108152D01*
X148333333Y-108108152D02*
X148285714Y-108203390D01*
X148285714Y-108203390D02*
X148238095Y-108251009D01*
X148238095Y-108251009D02*
X148142857Y-108298628D01*
X148142857Y-108298628D02*
X147761905Y-108298628D01*
X149285714Y-108774819D02*
X148714286Y-108774819D01*
X149000000Y-108774819D02*
X149000000Y-107774819D01*
X149000000Y-107774819D02*
X148904762Y-107917676D01*
X148904762Y-107917676D02*
X148809524Y-108012914D01*
X148809524Y-108012914D02*
X148714286Y-108060533D01*
X165833333Y-104359580D02*
X165785714Y-104407200D01*
X165785714Y-104407200D02*
X165642857Y-104454819D01*
X165642857Y-104454819D02*
X165547619Y-104454819D01*
X165547619Y-104454819D02*
X165404762Y-104407200D01*
X165404762Y-104407200D02*
X165309524Y-104311961D01*
X165309524Y-104311961D02*
X165261905Y-104216723D01*
X165261905Y-104216723D02*
X165214286Y-104026247D01*
X165214286Y-104026247D02*
X165214286Y-103883390D01*
X165214286Y-103883390D02*
X165261905Y-103692914D01*
X165261905Y-103692914D02*
X165309524Y-103597676D01*
X165309524Y-103597676D02*
X165404762Y-103502438D01*
X165404762Y-103502438D02*
X165547619Y-103454819D01*
X165547619Y-103454819D02*
X165642857Y-103454819D01*
X165642857Y-103454819D02*
X165785714Y-103502438D01*
X165785714Y-103502438D02*
X165833333Y-103550057D01*
X166690476Y-103788152D02*
X166690476Y-104454819D01*
X166452381Y-103407200D02*
X166214286Y-104121485D01*
X166214286Y-104121485D02*
X166833333Y-104121485D01*
X164333333Y-93179580D02*
X164285714Y-93227200D01*
X164285714Y-93227200D02*
X164142857Y-93274819D01*
X164142857Y-93274819D02*
X164047619Y-93274819D01*
X164047619Y-93274819D02*
X163904762Y-93227200D01*
X163904762Y-93227200D02*
X163809524Y-93131961D01*
X163809524Y-93131961D02*
X163761905Y-93036723D01*
X163761905Y-93036723D02*
X163714286Y-92846247D01*
X163714286Y-92846247D02*
X163714286Y-92703390D01*
X163714286Y-92703390D02*
X163761905Y-92512914D01*
X163761905Y-92512914D02*
X163809524Y-92417676D01*
X163809524Y-92417676D02*
X163904762Y-92322438D01*
X163904762Y-92322438D02*
X164047619Y-92274819D01*
X164047619Y-92274819D02*
X164142857Y-92274819D01*
X164142857Y-92274819D02*
X164285714Y-92322438D01*
X164285714Y-92322438D02*
X164333333Y-92370057D01*
X164666667Y-92274819D02*
X165285714Y-92274819D01*
X165285714Y-92274819D02*
X164952381Y-92655771D01*
X164952381Y-92655771D02*
X165095238Y-92655771D01*
X165095238Y-92655771D02*
X165190476Y-92703390D01*
X165190476Y-92703390D02*
X165238095Y-92751009D01*
X165238095Y-92751009D02*
X165285714Y-92846247D01*
X165285714Y-92846247D02*
X165285714Y-93084342D01*
X165285714Y-93084342D02*
X165238095Y-93179580D01*
X165238095Y-93179580D02*
X165190476Y-93227200D01*
X165190476Y-93227200D02*
X165095238Y-93274819D01*
X165095238Y-93274819D02*
X164809524Y-93274819D01*
X164809524Y-93274819D02*
X164714286Y-93227200D01*
X164714286Y-93227200D02*
X164666667Y-93179580D01*
X146454819Y-104809523D02*
X147454819Y-104476190D01*
X147454819Y-104476190D02*
X146454819Y-104142857D01*
X147454819Y-103238095D02*
X146978628Y-103571428D01*
X147454819Y-103809523D02*
X146454819Y-103809523D01*
X146454819Y-103809523D02*
X146454819Y-103428571D01*
X146454819Y-103428571D02*
X146502438Y-103333333D01*
X146502438Y-103333333D02*
X146550057Y-103285714D01*
X146550057Y-103285714D02*
X146645295Y-103238095D01*
X146645295Y-103238095D02*
X146788152Y-103238095D01*
X146788152Y-103238095D02*
X146883390Y-103285714D01*
X146883390Y-103285714D02*
X146931009Y-103333333D01*
X146931009Y-103333333D02*
X146978628Y-103428571D01*
X146978628Y-103428571D02*
X146978628Y-103809523D01*
X147454819Y-102285714D02*
X147454819Y-102857142D01*
X147454819Y-102571428D02*
X146454819Y-102571428D01*
X146454819Y-102571428D02*
X146597676Y-102666666D01*
X146597676Y-102666666D02*
X146692914Y-102761904D01*
X146692914Y-102761904D02*
X146740533Y-102857142D01*
X132261905Y-107954819D02*
X132261905Y-106954819D01*
X132261905Y-106954819D02*
X132500000Y-106954819D01*
X132500000Y-106954819D02*
X132642857Y-107002438D01*
X132642857Y-107002438D02*
X132738095Y-107097676D01*
X132738095Y-107097676D02*
X132785714Y-107192914D01*
X132785714Y-107192914D02*
X132833333Y-107383390D01*
X132833333Y-107383390D02*
X132833333Y-107526247D01*
X132833333Y-107526247D02*
X132785714Y-107716723D01*
X132785714Y-107716723D02*
X132738095Y-107811961D01*
X132738095Y-107811961D02*
X132642857Y-107907200D01*
X132642857Y-107907200D02*
X132500000Y-107954819D01*
X132500000Y-107954819D02*
X132261905Y-107954819D01*
X133785714Y-107954819D02*
X133214286Y-107954819D01*
X133500000Y-107954819D02*
X133500000Y-106954819D01*
X133500000Y-106954819D02*
X133404762Y-107097676D01*
X133404762Y-107097676D02*
X133309524Y-107192914D01*
X133309524Y-107192914D02*
X133214286Y-107240533D01*
X162904761Y-106954819D02*
X162571428Y-106478628D01*
X162333333Y-106954819D02*
X162333333Y-105954819D01*
X162333333Y-105954819D02*
X162714285Y-105954819D01*
X162714285Y-105954819D02*
X162809523Y-106002438D01*
X162809523Y-106002438D02*
X162857142Y-106050057D01*
X162857142Y-106050057D02*
X162904761Y-106145295D01*
X162904761Y-106145295D02*
X162904761Y-106288152D01*
X162904761Y-106288152D02*
X162857142Y-106383390D01*
X162857142Y-106383390D02*
X162809523Y-106431009D01*
X162809523Y-106431009D02*
X162714285Y-106478628D01*
X162714285Y-106478628D02*
X162333333Y-106478628D01*
X163190476Y-105954819D02*
X163523809Y-106954819D01*
X163523809Y-106954819D02*
X163857142Y-105954819D01*
X164714285Y-106954819D02*
X164142857Y-106954819D01*
X164428571Y-106954819D02*
X164428571Y-105954819D01*
X164428571Y-105954819D02*
X164333333Y-106097676D01*
X164333333Y-106097676D02*
X164238095Y-106192914D01*
X164238095Y-106192914D02*
X164142857Y-106240533D01*
D12*
%TO.C,L1*%
X148700000Y-90200000D02*
X161300000Y-90200000D01*
X148700000Y-93200000D02*
X148700000Y-90200000D01*
X148700000Y-102800000D02*
X148700000Y-99800000D01*
X161300000Y-90200000D02*
X161300000Y-93200000D01*
X161300000Y-99800000D02*
X161300000Y-102800000D01*
X161300000Y-102800000D02*
X148700000Y-102800000D01*
%TO.C,J2*%
X125670000Y-106670000D02*
X127000000Y-106670000D01*
X125670000Y-108000000D02*
X125670000Y-106670000D01*
X125670000Y-109270000D02*
X125670000Y-109330000D01*
X125670000Y-109270000D02*
X128330000Y-109270000D01*
X125670000Y-109330000D02*
X128330000Y-109330000D01*
X128330000Y-109270000D02*
X128330000Y-109330000D01*
%TO.C,C1*%
X135020000Y-96500000D02*
G75*
G03*
X128480000Y-96500000I-3270000J0D01*
G01*
X128480000Y-96500000D02*
G75*
G03*
X135020000Y-96500000I3270000J0D01*
G01*
%TO.C,C2*%
X131761252Y-100765000D02*
X131238748Y-100765000D01*
X131761252Y-102235000D02*
X131238748Y-102235000D01*
%TO.C,R1*%
X149227064Y-105590000D02*
X147772936Y-105590000D01*
X149227064Y-107410000D02*
X147772936Y-107410000D01*
%TO.C,J3*%
X167670000Y-106730000D02*
X167670000Y-106670000D01*
X170330000Y-106670000D02*
X167670000Y-106670000D01*
X170330000Y-106730000D02*
X167670000Y-106730000D01*
X170330000Y-106730000D02*
X170330000Y-106670000D01*
X170330000Y-108000000D02*
X170330000Y-109330000D01*
X170330000Y-109330000D02*
X169000000Y-109330000D01*
%TO.C,C4*%
X169270000Y-99500000D02*
G75*
G03*
X162730000Y-99500000I-3270000J0D01*
G01*
X162730000Y-99500000D02*
G75*
G03*
X169270000Y-99500000I3270000J0D01*
G01*
%TO.C,C3*%
X164238748Y-93765000D02*
X164761252Y-93765000D01*
X164238748Y-95235000D02*
X164761252Y-95235000D01*
%TO.C,J1*%
X125670000Y-89670000D02*
X127000000Y-89670000D01*
X125670000Y-91000000D02*
X125670000Y-89670000D01*
X125670000Y-92270000D02*
X125670000Y-92330000D01*
X125670000Y-92270000D02*
X128330000Y-92270000D01*
X125670000Y-92330000D02*
X128330000Y-92330000D01*
X128330000Y-92270000D02*
X128330000Y-92330000D01*
%TO.C,J4*%
X167670000Y-89670000D02*
X167670000Y-92330000D01*
X167730000Y-89670000D02*
X167670000Y-89670000D01*
X167730000Y-89670000D02*
X167730000Y-92330000D01*
X167730000Y-92330000D02*
X167670000Y-92330000D01*
X169000000Y-89670000D02*
X170330000Y-89670000D01*
X170330000Y-89670000D02*
X170330000Y-91000000D01*
D13*
%TO.C,VR1*%
X136320000Y-89950000D02*
X146680000Y-89950000D01*
X136320000Y-99100000D02*
X136320000Y-100705000D01*
X136320000Y-100705000D02*
X146680000Y-100705000D01*
X146680000Y-99100000D02*
X146680000Y-100705000D01*
D10*
X138100000Y-106300000D02*
G75*
G03*
X137900000Y-106300000I-100000J0D01*
G01*
X137900000Y-106300000D02*
G75*
G03*
X138100000Y-106300000I100000J0D01*
G01*
D12*
%TO.C,D1*%
X136010000Y-103350000D02*
X130500000Y-103350000D01*
X136010000Y-106650000D02*
X130500000Y-106650000D01*
X136010000Y-106650000D02*
X136010000Y-103350000D01*
%TO.C,RV1*%
X151615000Y-103970000D02*
X151615000Y-109040000D01*
X151615000Y-103970000D02*
X161385000Y-103970000D01*
X151615000Y-109040000D02*
X161385000Y-109040000D01*
X161385000Y-103970000D02*
X161385000Y-109040000D01*
%TD*%
M02*
