%TF.GenerationSoftware,KiCad,Pcbnew,7.0.11+dfsg-1build4*%
%TF.CreationDate,2026-10-03T06:15:35+00:00*%
%TF.ProjectId,t,742e6b69-6361-4645-9f70-636258585858,rev?*%
%TF.SameCoordinates,Original*%
%TF.FileFunction,Copper,L1,Top*%
%TF.FilePolarity,Positive*%
%FSLAX46Y46*%
G04 Gerber Fmt 4.6, Leading zero omitted, Abs format (unit mm)*
G04 Created by KiCad (PCBNEW 7.0.11+dfsg-1build4) date 2026-10-03 06:15:35*
%MOMM*%
%LPD*%
G01*
G04 APERTURE LIST*
G04 Aperture macros list*
%AMRoundRect*
0 Rectangle with rounded corners*
0 $1 Rounding radius*
0 $2 $3 $4 $5 $6 $7 $8 $9 X,Y pos of 4 corners*
0 Add a 4 corners polygon primitive as box body*
4,1,4,$2,$3,$4,$5,$6,$7,$8,$9,$2,$3,0*
0 Add four circle primitives for the rounded corners*
1,1,$1+$1,$2,$3*
1,1,$1+$1,$4,$5*
1,1,$1+$1,$6,$7*
1,1,$1+$1,$8,$9*
0 Add four rect primitives between the rounded corners*
20,1,$1+$1,$2,$3,$4,$5,0*
20,1,$1+$1,$4,$5,$6,$7,0*
20,1,$1+$1,$6,$7,$8,$9,0*
20,1,$1+$1,$8,$9,$2,$3,0*%
G04 Aperture macros list end*
%TA.AperFunction,SMDPad,CuDef*%
%ADD10R,2.900000X5.400000*%
%TD*%
%TA.AperFunction,ComponentPad*%
%ADD11R,1.700000X1.700000*%
%TD*%
%TA.AperFunction,ComponentPad*%
%ADD12C,1.600000*%
%TD*%
%TA.AperFunction,SMDPad,CuDef*%
%ADD13RoundRect,0.250000X0.250000X0.475000X-0.250000X0.475000X-0.250000X-0.475000X0.250000X-0.475000X0*%
%TD*%
%TA.AperFunction,SMDPad,CuDef*%
%ADD14RoundRect,0.250000X0.312500X0.625000X-0.312500X0.625000X-0.312500X-0.625000X0.312500X-0.625000X0*%
%TD*%
%TA.AperFunction,SMDPad,CuDef*%
%ADD15RoundRect,0.250000X-0.250000X-0.475000X0.250000X-0.475000X0.250000X0.475000X-0.250000X0.475000X0*%
%TD*%
%TA.AperFunction,SMDPad,CuDef*%
%ADD16R,1.050000X3.210000*%
%TD*%
%TA.AperFunction,SMDPad,CuDef*%
%ADD17R,10.530000X8.460000*%
%TD*%
%TA.AperFunction,SMDPad,CuDef*%
%ADD18RoundRect,0.250000X1.000000X0.650000X-1.000000X0.650000X-1.000000X-0.650000X1.000000X-0.650000X0*%
%TD*%
%TA.AperFunction,ComponentPad*%
%ADD19C,1.440000*%
%TD*%
%TA.AperFunction,ViaPad*%
%ADD20C,0.900000*%
%TD*%
%TA.AperFunction,Conductor*%
%ADD21C,1.000000*%
%TD*%
G04 APERTURE END LIST*
D10*
%TO.P,L1,1,1*%
%TO.N,Net-(J1-Pin_1)*%
X150050000Y-96500000D03*
%TO.P,L1,2,2*%
%TO.N,Net-(D1-A)*%
X159950000Y-96500000D03*
%TD*%
D11*
%TO.P,J2,1,Pin_1*%
%TO.N,GND*%
X127000000Y-108000000D03*
%TD*%
D12*
%TO.P,C1,1*%
%TO.N,Net-(J1-Pin_1)*%
X133000000Y-96500000D03*
%TO.P,C1,2*%
%TO.N,GND*%
X130500000Y-96500000D03*
%TD*%
D13*
%TO.P,C2,1*%
%TO.N,Net-(J1-Pin_1)*%
X132450000Y-101500000D03*
%TO.P,C2,2*%
%TO.N,GND*%
X130550000Y-101500000D03*
%TD*%
D14*
%TO.P,R1,1*%
%TO.N,Net-(VR1-FB)*%
X149962500Y-106500000D03*
%TO.P,R1,2*%
%TO.N,GND*%
X147037500Y-106500000D03*
%TD*%
D11*
%TO.P,J3,1,Pin_1*%
%TO.N,GND*%
X169000000Y-108000000D03*
%TD*%
D12*
%TO.P,C4,1*%
%TO.N,Net-(D1-K)*%
X164750000Y-99500000D03*
%TO.P,C4,2*%
%TO.N,GND*%
X167250000Y-99500000D03*
%TD*%
D15*
%TO.P,C3,1*%
%TO.N,Net-(D1-K)*%
X163550000Y-94500000D03*
%TO.P,C3,2*%
%TO.N,GND*%
X165450000Y-94500000D03*
%TD*%
D11*
%TO.P,J1,1,Pin_1*%
%TO.N,Net-(J1-Pin_1)*%
X127000000Y-91000000D03*
%TD*%
%TO.P,J4,1,Pin_1*%
%TO.N,Net-(D1-K)*%
X169000000Y-91000000D03*
%TD*%
D16*
%TO.P,VR1,1,GND*%
%TO.N,GND*%
X138100000Y-104130000D03*
%TO.P,VR1,2,EN*%
%TO.N,unconnected-(VR1-EN-Pad2)*%
X139800000Y-104130000D03*
%TO.P,VR1,3,SW*%
%TO.N,Net-(D1-A)*%
X141500000Y-104130000D03*
%TO.P,VR1,4,VIN*%
%TO.N,Net-(J1-Pin_1)*%
X143200000Y-104130000D03*
%TO.P,VR1,5,FB*%
%TO.N,Net-(VR1-FB)*%
X144900000Y-104130000D03*
D17*
%TO.P,VR1,6,SW*%
%TO.N,Net-(D1-A)*%
X141500000Y-94500000D03*
%TD*%
D18*
%TO.P,D1,1,K*%
%TO.N,Net-(D1-K)*%
X134500000Y-105000000D03*
%TO.P,D1,2,A*%
%TO.N,Net-(D1-A)*%
X130500000Y-105000000D03*
%TD*%
D19*
%TO.P,RV1,1,1*%
%TO.N,Net-(VR1-FB)*%
X159040000Y-106500000D03*
%TO.P,RV1,2,2*%
%TO.N,Net-(D1-K)*%
X156500000Y-106500000D03*
%TO.P,RV1,3,3*%
X153960000Y-106500000D03*
%TD*%
D20*
%TO.N,Net-(J1-Pin_1)*%
X147500000Y-100500000D03*
X135500000Y-101500000D03*
%TO.N,Net-(D1-A)*%
X145500000Y-92500000D03*
X145500000Y-91500000D03*
X141500000Y-92500000D03*
X145500000Y-94500000D03*
X140500000Y-95500000D03*
X144500000Y-92500000D03*
X136500000Y-98500000D03*
X146500000Y-91500000D03*
X143500000Y-93500000D03*
X137500000Y-95500000D03*
X141500000Y-97500000D03*
X146500000Y-96500000D03*
X145500000Y-98500000D03*
X142500000Y-95500000D03*
X141500000Y-93500000D03*
X144500000Y-93500000D03*
X143500000Y-92500000D03*
X136500000Y-91500000D03*
X139500000Y-92500000D03*
X145500000Y-95500000D03*
X145500000Y-90500000D03*
X140500000Y-91500000D03*
X140500000Y-93500000D03*
X143500000Y-98500000D03*
X145500000Y-97500000D03*
X137500000Y-92500000D03*
X141500000Y-95500000D03*
X141500000Y-96500000D03*
X142500000Y-98500000D03*
X142500000Y-93500000D03*
X139500000Y-91500000D03*
X137500000Y-90500000D03*
X137500000Y-97500000D03*
X146500000Y-90500000D03*
X146500000Y-98500000D03*
X144500000Y-95500000D03*
X142500000Y-92500000D03*
X142500000Y-90500000D03*
X143500000Y-90500000D03*
X140500000Y-97500000D03*
X139500000Y-98500000D03*
X138500000Y-93500000D03*
X138500000Y-95500000D03*
X140500000Y-98500000D03*
X143500000Y-91500000D03*
X143500000Y-94500000D03*
X137500000Y-93500000D03*
X137500000Y-91500000D03*
X145500000Y-96500000D03*
X142500000Y-94500000D03*
X136500000Y-95500000D03*
X138500000Y-98500000D03*
X138500000Y-90500000D03*
X146500000Y-92500000D03*
X138500000Y-97500000D03*
X141500000Y-98500000D03*
X136500000Y-94500000D03*
X140500000Y-90500000D03*
X138500000Y-94500000D03*
X144500000Y-96500000D03*
X140500000Y-96500000D03*
X142500000Y-97500000D03*
X143500000Y-95500000D03*
X139500000Y-90500000D03*
X138500000Y-96500000D03*
X138500000Y-92500000D03*
X141500000Y-94500000D03*
X131500000Y-108000000D03*
X146500000Y-93500000D03*
X141500000Y-94500000D03*
X138500000Y-91500000D03*
X142500000Y-91500000D03*
X136500000Y-97500000D03*
X139500000Y-93500000D03*
X136500000Y-92500000D03*
X144500000Y-91500000D03*
X144500000Y-98500000D03*
X139500000Y-94500000D03*
X140500000Y-92500000D03*
X140500000Y-94500000D03*
X136500000Y-90500000D03*
X139500000Y-95500000D03*
X146500000Y-94500000D03*
X143500000Y-96500000D03*
X136500000Y-96500000D03*
X142500000Y-96500000D03*
X136500000Y-93500000D03*
X141500000Y-91500000D03*
X141500000Y-90500000D03*
X143500000Y-97500000D03*
X146500000Y-97500000D03*
X144500000Y-90500000D03*
X137500000Y-96500000D03*
X137500000Y-98500000D03*
X144500000Y-94500000D03*
X139500000Y-97500000D03*
X146500000Y-95500000D03*
X145500000Y-93500000D03*
X144500000Y-97500000D03*
X139500000Y-96500000D03*
X137500000Y-94500000D03*
%TO.N,GND*%
X145000000Y-108500000D03*
%TO.N,Net-(D1-K)*%
X137000000Y-108500000D03*
%TD*%
D21*
%TO.N,Net-(J1-Pin_1)*%
X127000000Y-91000000D02*
X132000000Y-91000000D01*
X132450000Y-97050000D02*
X133000000Y-96500000D01*
X132450000Y-101500000D02*
X132450000Y-97050000D01*
X143200000Y-104130000D02*
X143200000Y-101525000D01*
X132000000Y-91000000D02*
X133000000Y-92000000D01*
X133000000Y-92000000D02*
X133000000Y-96500000D01*
X132450000Y-101500000D02*
X135500000Y-101500000D01*
X146500000Y-100500000D02*
X147500000Y-100500000D01*
X149500000Y-100500000D02*
X150050000Y-99950000D01*
X147500000Y-100500000D02*
X149500000Y-100500000D01*
X150050000Y-99950000D02*
X150050000Y-96500000D01*
X144225000Y-100500000D02*
X146500000Y-100500000D01*
X143200000Y-101525000D02*
X144225000Y-100500000D01*
%TO.N,Net-(D1-A)*%
X141500000Y-104130000D02*
X141500000Y-94500000D01*
X130500000Y-105000000D02*
X130500000Y-107000000D01*
X157000000Y-91500000D02*
X146500000Y-91500000D01*
X159950000Y-96500000D02*
X159950000Y-94450000D01*
X159950000Y-94450000D02*
X157000000Y-91500000D01*
X130500000Y-107000000D02*
X131500000Y-108000000D01*
%TO.N,GND*%
X140000000Y-108500000D02*
X145000000Y-108500000D01*
X138100000Y-104130000D02*
X138100000Y-106600000D01*
X145037500Y-108500000D02*
X147037500Y-106500000D01*
X145000000Y-108500000D02*
X145037500Y-108500000D01*
X138100000Y-106600000D02*
X140000000Y-108500000D01*
%TO.N,Net-(VR1-FB)*%
X149962500Y-106500000D02*
X149962500Y-104462500D01*
X148500000Y-104000000D02*
X148370000Y-104130000D01*
X149500000Y-104000000D02*
X148500000Y-104000000D01*
X149962500Y-104462500D02*
X149500000Y-104000000D01*
X159040000Y-106500000D02*
X159040000Y-105040000D01*
X159040000Y-105040000D02*
X158000000Y-104000000D01*
X148370000Y-104130000D02*
X144900000Y-104130000D01*
X158000000Y-104000000D02*
X149500000Y-104000000D01*
%TO.N,Net-(D1-K)*%
X134500000Y-107500000D02*
X134500000Y-105000000D01*
X137000000Y-108500000D02*
X135500000Y-108500000D01*
X153960000Y-106500000D02*
X156500000Y-106500000D01*
X157000000Y-108500000D02*
X163000000Y-108500000D01*
X163500000Y-93000000D02*
X163550000Y-93050000D01*
X164750000Y-106750000D02*
X164750000Y-99500000D01*
X163550000Y-98300000D02*
X164750000Y-99500000D01*
X165500000Y-91000000D02*
X163500000Y-93000000D01*
X169000000Y-91000000D02*
X165500000Y-91000000D01*
X135500000Y-108500000D02*
X134500000Y-107500000D01*
X163000000Y-108500000D02*
X164750000Y-106750000D01*
X163550000Y-94500000D02*
X163550000Y-98300000D01*
X163550000Y-93050000D02*
X163550000Y-94500000D01*
X156500000Y-106500000D02*
X156500000Y-108000000D01*
X156500000Y-108000000D02*
X157000000Y-108500000D01*
%TD*%
%TA.AperFunction,Conductor*%
%TO.N,GND*%
G36*
X135526276Y-89880564D02*
G01*
X135593315Y-89900249D01*
X135636531Y-89922855D01*
X135652566Y-89938327D01*
X135698321Y-89991131D01*
X135722455Y-90033514D01*
X135727580Y-90055199D01*
X135737524Y-90124357D01*
X135735819Y-90169266D01*
X135731741Y-90187615D01*
X135729335Y-90196783D01*
X135686443Y-90338173D01*
X135670505Y-90499999D01*
X135686444Y-90661830D01*
X135733646Y-90817433D01*
X135768491Y-90882624D01*
X135780627Y-90916070D01*
X135794868Y-90984473D01*
X135795303Y-91033244D01*
X135792429Y-91045167D01*
X135778188Y-91093668D01*
X135768492Y-91117376D01*
X135733644Y-91182572D01*
X135686443Y-91338171D01*
X135670505Y-91499999D01*
X135686444Y-91661830D01*
X135733646Y-91817433D01*
X135768491Y-91882624D01*
X135780627Y-91916070D01*
X135794868Y-91984473D01*
X135795303Y-92033244D01*
X135792429Y-92045167D01*
X135778188Y-92093668D01*
X135768492Y-92117376D01*
X135733644Y-92182572D01*
X135686443Y-92338171D01*
X135670505Y-92499999D01*
X135686444Y-92661830D01*
X135733646Y-92817433D01*
X135768491Y-92882624D01*
X135780627Y-92916070D01*
X135794868Y-92984473D01*
X135795303Y-93033244D01*
X135792429Y-93045167D01*
X135778188Y-93093668D01*
X135768492Y-93117376D01*
X135733644Y-93182572D01*
X135686443Y-93338171D01*
X135670505Y-93499999D01*
X135686444Y-93661830D01*
X135733646Y-93817433D01*
X135768491Y-93882624D01*
X135780627Y-93916070D01*
X135794868Y-93984473D01*
X135795303Y-94033244D01*
X135792429Y-94045167D01*
X135778188Y-94093668D01*
X135768492Y-94117376D01*
X135733644Y-94182572D01*
X135686443Y-94338171D01*
X135670505Y-94499999D01*
X135686444Y-94661830D01*
X135733646Y-94817433D01*
X135768491Y-94882624D01*
X135780627Y-94916070D01*
X135794868Y-94984473D01*
X135795303Y-95033244D01*
X135792429Y-95045167D01*
X135778188Y-95093668D01*
X135768492Y-95117376D01*
X135733644Y-95182572D01*
X135686443Y-95338171D01*
X135670505Y-95499999D01*
X135686444Y-95661830D01*
X135733646Y-95817433D01*
X135768491Y-95882624D01*
X135780627Y-95916070D01*
X135794868Y-95984473D01*
X135795303Y-96033244D01*
X135792429Y-96045167D01*
X135778188Y-96093668D01*
X135768492Y-96117376D01*
X135733644Y-96182572D01*
X135686443Y-96338171D01*
X135670505Y-96499999D01*
X135686444Y-96661830D01*
X135733646Y-96817433D01*
X135768491Y-96882624D01*
X135780627Y-96916070D01*
X135794868Y-96984473D01*
X135795303Y-97033244D01*
X135792429Y-97045167D01*
X135778188Y-97093668D01*
X135768492Y-97117376D01*
X135733644Y-97182572D01*
X135686443Y-97338171D01*
X135670505Y-97499999D01*
X135686444Y-97661830D01*
X135733646Y-97817433D01*
X135768491Y-97882624D01*
X135780627Y-97916070D01*
X135794868Y-97984473D01*
X135795303Y-98033244D01*
X135792429Y-98045167D01*
X135778188Y-98093668D01*
X135768492Y-98117376D01*
X135733644Y-98182572D01*
X135686443Y-98338171D01*
X135670505Y-98499999D01*
X135686444Y-98661830D01*
X135733647Y-98817435D01*
X135810300Y-98960843D01*
X135913457Y-99086541D01*
X136039158Y-99189700D01*
X136182565Y-99266352D01*
X136338170Y-99313555D01*
X136499999Y-99329494D01*
X136661828Y-99313555D01*
X136817431Y-99266353D01*
X136882624Y-99231507D01*
X136916070Y-99219371D01*
X136984469Y-99205130D01*
X137033239Y-99204695D01*
X137045163Y-99207569D01*
X137093663Y-99221809D01*
X137117372Y-99231506D01*
X137182565Y-99266352D01*
X137338170Y-99313555D01*
X137499999Y-99329494D01*
X137661828Y-99313555D01*
X137817431Y-99266353D01*
X137882624Y-99231507D01*
X137916070Y-99219371D01*
X137984469Y-99205130D01*
X138033239Y-99204695D01*
X138045163Y-99207569D01*
X138093663Y-99221809D01*
X138117372Y-99231506D01*
X138182565Y-99266352D01*
X138338170Y-99313555D01*
X138499999Y-99329494D01*
X138661828Y-99313555D01*
X138817431Y-99266353D01*
X138882624Y-99231507D01*
X138916070Y-99219371D01*
X138984469Y-99205130D01*
X139033239Y-99204695D01*
X139045163Y-99207569D01*
X139093663Y-99221809D01*
X139117372Y-99231506D01*
X139182565Y-99266352D01*
X139338170Y-99313555D01*
X139499999Y-99329494D01*
X139661828Y-99313555D01*
X139817431Y-99266353D01*
X139882624Y-99231507D01*
X139916070Y-99219371D01*
X139984469Y-99205130D01*
X140033239Y-99204695D01*
X140045163Y-99207569D01*
X140093663Y-99221809D01*
X140117372Y-99231506D01*
X140182565Y-99266352D01*
X140338171Y-99313555D01*
X140399905Y-99319635D01*
X140434456Y-99328126D01*
X140499242Y-99354286D01*
X140540036Y-99381019D01*
X140554476Y-99397987D01*
X140594836Y-99455021D01*
X140614701Y-99499565D01*
X140616100Y-99506682D01*
X140622800Y-99546891D01*
X140624500Y-99567436D01*
X140624500Y-101900500D01*
X140619436Y-101935718D01*
X140599751Y-102002757D01*
X140577145Y-102045973D01*
X140561673Y-102062008D01*
X140508869Y-102107763D01*
X140466486Y-102131897D01*
X140453583Y-102135437D01*
X140402072Y-102146643D01*
X140375500Y-102149500D01*
X139233820Y-102149500D01*
X139196488Y-102153513D01*
X139086618Y-102194493D01*
X139067568Y-102204896D01*
X139002103Y-102229310D01*
X138953958Y-102237109D01*
X138931851Y-102234332D01*
X138863578Y-102219478D01*
X138822568Y-102202489D01*
X138807692Y-102192928D01*
X138807617Y-102192875D01*
X138703401Y-102154006D01*
X138666139Y-102150000D01*
X138475000Y-102150000D01*
X138475000Y-106109999D01*
X138666146Y-106109999D01*
X138703397Y-106105993D01*
X138813834Y-106064801D01*
X138831580Y-106055112D01*
X138897044Y-106030692D01*
X138945188Y-106022888D01*
X138967298Y-106025665D01*
X139035571Y-106040514D01*
X139076587Y-106057503D01*
X139091476Y-106067072D01*
X139092244Y-106067605D01*
X139196486Y-106106485D01*
X139233829Y-106110499D01*
X140366172Y-106110499D01*
X140403512Y-106106485D01*
X140513866Y-106065325D01*
X140532001Y-106055421D01*
X140597463Y-106031003D01*
X140645607Y-106023201D01*
X140667715Y-106025977D01*
X140735988Y-106040826D01*
X140777002Y-106057813D01*
X140791884Y-106067377D01*
X140792173Y-106067577D01*
X140896488Y-106106485D01*
X140933829Y-106110499D01*
X142066172Y-106110499D01*
X142103512Y-106106485D01*
X142213866Y-106065325D01*
X142232001Y-106055421D01*
X142297463Y-106031003D01*
X142345607Y-106023201D01*
X142367715Y-106025977D01*
X142435988Y-106040826D01*
X142477002Y-106057813D01*
X142491884Y-106067377D01*
X142492173Y-106067577D01*
X142596488Y-106106485D01*
X142633829Y-106110499D01*
X143766172Y-106110499D01*
X143803512Y-106106485D01*
X143913866Y-106065325D01*
X143932001Y-106055421D01*
X143997463Y-106031003D01*
X144045607Y-106023201D01*
X144067715Y-106025977D01*
X144135988Y-106040826D01*
X144177002Y-106057813D01*
X144191884Y-106067377D01*
X144192173Y-106067577D01*
X144296488Y-106106485D01*
X144333829Y-106110499D01*
X145466172Y-106110499D01*
X145503512Y-106106485D01*
X145606807Y-106067958D01*
X145701780Y-105996861D01*
X145733007Y-105979809D01*
X145798468Y-105955393D01*
X145846613Y-105947592D01*
X145868721Y-105950368D01*
X145936994Y-105965219D01*
X145981714Y-105984685D01*
X145998812Y-105998974D01*
X146048218Y-106048379D01*
X146075315Y-106088931D01*
X146080948Y-106105853D01*
X146085835Y-106125000D01*
X147974999Y-106125000D01*
X147974998Y-105831383D01*
X147966543Y-105748624D01*
X147920297Y-105609063D01*
X147843593Y-105484708D01*
X147789454Y-105430569D01*
X147768132Y-105402087D01*
X147734647Y-105340764D01*
X147720073Y-105294220D01*
X147719675Y-105271941D01*
X147724659Y-105202249D01*
X147737562Y-105155215D01*
X147749274Y-105136255D01*
X147791146Y-105080322D01*
X147827431Y-105047730D01*
X147847530Y-105038114D01*
X147912994Y-105013697D01*
X147952215Y-105005896D01*
X147961061Y-105005580D01*
X147965523Y-105005500D01*
X148456231Y-105005500D01*
X148625372Y-104971855D01*
X148742713Y-104923250D01*
X148777192Y-104914451D01*
X148846662Y-104906985D01*
X148895240Y-104911334D01*
X148915973Y-104919492D01*
X148978452Y-104950768D01*
X149016968Y-104980689D01*
X149030001Y-104998763D01*
X149065652Y-105058852D01*
X149081877Y-105104847D01*
X149082175Y-105107058D01*
X149086026Y-105137722D01*
X149087000Y-105153298D01*
X149087000Y-105545270D01*
X149085404Y-105565184D01*
X149079110Y-105604187D01*
X149074362Y-105623590D01*
X149032961Y-105748531D01*
X149024500Y-105831355D01*
X149024500Y-107168647D01*
X149032962Y-107251475D01*
X149079245Y-107391147D01*
X149156008Y-107515600D01*
X149259399Y-107618991D01*
X149383852Y-107695754D01*
X149523525Y-107742037D01*
X149606361Y-107750499D01*
X150318649Y-107750498D01*
X150401475Y-107742037D01*
X150541147Y-107695754D01*
X150665600Y-107618991D01*
X150768991Y-107515600D01*
X150845754Y-107391147D01*
X150892037Y-107251474D01*
X150900499Y-107168638D01*
X150900499Y-105831361D01*
X150892037Y-105748523D01*
X150850639Y-105623591D01*
X150845890Y-105604186D01*
X150839596Y-105565182D01*
X150838000Y-105545269D01*
X150838000Y-105124500D01*
X150843064Y-105089282D01*
X150862749Y-105022243D01*
X150885355Y-104979027D01*
X150900827Y-104962992D01*
X150953631Y-104917237D01*
X150996014Y-104893103D01*
X151008917Y-104889563D01*
X151060428Y-104878357D01*
X151087000Y-104875500D01*
X157534218Y-104875500D01*
X157569436Y-104880564D01*
X157636475Y-104900249D01*
X157679690Y-104922854D01*
X157700332Y-104939488D01*
X157710287Y-104948431D01*
X158091569Y-105329713D01*
X158112891Y-105358195D01*
X158146376Y-105419518D01*
X158160950Y-105466061D01*
X158163784Y-105492419D01*
X158164500Y-105505782D01*
X158164500Y-105761888D01*
X158159436Y-105797106D01*
X158139751Y-105864145D01*
X158123621Y-105898563D01*
X158120882Y-105902646D01*
X158119470Y-105904707D01*
X158087644Y-105950159D01*
X158002012Y-106133796D01*
X158001461Y-106133539D01*
X157991321Y-106150256D01*
X157991482Y-106150354D01*
X157960139Y-106201772D01*
X157927117Y-106237664D01*
X157908020Y-106249148D01*
X157845172Y-106279675D01*
X157797987Y-106292016D01*
X157775712Y-106291352D01*
X157706337Y-106283054D01*
X157659971Y-106267925D01*
X157641593Y-106255326D01*
X157587717Y-106210839D01*
X157556890Y-106173044D01*
X157553604Y-106166381D01*
X157540466Y-106137614D01*
X157540880Y-106137424D01*
X157538523Y-106133548D01*
X157537988Y-106133798D01*
X157535720Y-106128935D01*
X157535699Y-106128900D01*
X157535681Y-106128850D01*
X157452354Y-105950158D01*
X157342404Y-105793131D01*
X157206867Y-105657594D01*
X157049842Y-105547645D01*
X156876104Y-105466630D01*
X156690951Y-105417020D01*
X156499998Y-105400315D01*
X156309038Y-105417022D01*
X156123882Y-105466634D01*
X155950160Y-105547643D01*
X155904710Y-105579469D01*
X155872956Y-105595521D01*
X155806750Y-105617848D01*
X155769297Y-105624377D01*
X155764380Y-105624475D01*
X155761889Y-105624500D01*
X154698111Y-105624500D01*
X154662893Y-105619436D01*
X154595854Y-105599751D01*
X154561430Y-105583618D01*
X154557346Y-105580878D01*
X154555292Y-105579470D01*
X154509837Y-105547642D01*
X154336109Y-105466632D01*
X154150951Y-105417020D01*
X153959998Y-105400315D01*
X153769040Y-105417022D01*
X153583883Y-105466635D01*
X153410157Y-105547645D01*
X153253130Y-105657595D01*
X153117595Y-105793130D01*
X153007645Y-105950157D01*
X152926630Y-106123894D01*
X152877020Y-106309047D01*
X152860315Y-106500000D01*
X152877022Y-106690960D01*
X152926635Y-106876118D01*
X153007642Y-107049837D01*
X153117595Y-107206868D01*
X153253131Y-107342404D01*
X153410161Y-107452356D01*
X153583881Y-107533364D01*
X153769044Y-107582978D01*
X153960001Y-107599684D01*
X154150955Y-107582978D01*
X154336115Y-107533365D01*
X154509842Y-107452354D01*
X154555290Y-107420531D01*
X154587045Y-107404477D01*
X154653251Y-107382151D01*
X154690703Y-107375623D01*
X154695620Y-107375525D01*
X154698111Y-107375500D01*
X155375500Y-107375500D01*
X155410718Y-107380564D01*
X155477757Y-107400249D01*
X155520973Y-107422855D01*
X155537008Y-107438327D01*
X155582763Y-107491131D01*
X155606897Y-107533514D01*
X155610437Y-107546417D01*
X155621643Y-107597928D01*
X155624500Y-107624500D01*
X155624499Y-108086230D01*
X155658146Y-108255376D01*
X155724145Y-108414711D01*
X155819955Y-108558100D01*
X155961287Y-108699430D01*
X155982609Y-108727913D01*
X156016094Y-108789236D01*
X156030668Y-108835780D01*
X156031066Y-108858059D01*
X156026082Y-108927751D01*
X156013179Y-108974785D01*
X156001467Y-108993745D01*
X155959595Y-109049678D01*
X155923310Y-109082270D01*
X155903211Y-109091886D01*
X155837747Y-109116303D01*
X155798526Y-109124104D01*
X155789680Y-109124420D01*
X155785218Y-109124500D01*
X138061613Y-109124500D01*
X138026395Y-109119436D01*
X137959356Y-109099751D01*
X137916140Y-109077145D01*
X137900105Y-109061673D01*
X137854350Y-109008869D01*
X137830216Y-108966486D01*
X137825091Y-108944801D01*
X137815147Y-108875643D01*
X137817758Y-108826941D01*
X137818329Y-108824784D01*
X137826505Y-108794980D01*
X137831566Y-108780214D01*
X137841854Y-108755374D01*
X137875500Y-108586231D01*
X137875500Y-108413767D01*
X137841855Y-108244628D01*
X137775853Y-108085287D01*
X137680043Y-107941898D01*
X137558097Y-107819953D01*
X137414695Y-107724136D01*
X137255370Y-107658143D01*
X137086231Y-107624500D01*
X135965783Y-107624500D01*
X135930565Y-107619436D01*
X135863526Y-107599751D01*
X135820311Y-107577146D01*
X135799669Y-107560512D01*
X135789714Y-107551569D01*
X135448431Y-107210286D01*
X135427109Y-107181804D01*
X135393624Y-107120481D01*
X135379050Y-107073938D01*
X135376216Y-107047580D01*
X135375500Y-107034217D01*
X135375500Y-106875000D01*
X146100001Y-106875000D01*
X146100001Y-107168615D01*
X146108455Y-107251374D01*
X146154701Y-107390935D01*
X146231405Y-107515290D01*
X146334708Y-107618593D01*
X146459069Y-107695299D01*
X146598629Y-107741544D01*
X146662500Y-107748069D01*
X146662500Y-106875000D01*
X147412500Y-106875000D01*
X147412500Y-107748068D01*
X147476374Y-107741543D01*
X147615935Y-107695297D01*
X147740290Y-107618593D01*
X147843593Y-107515290D01*
X147920299Y-107390929D01*
X147966544Y-107251369D01*
X147975000Y-107168601D01*
X147975000Y-106875000D01*
X147412500Y-106875000D01*
X146662500Y-106875000D01*
X146100001Y-106875000D01*
X135375500Y-106875000D01*
X135375500Y-106517534D01*
X135380564Y-106482316D01*
X135400249Y-106415277D01*
X135422855Y-106372061D01*
X135438327Y-106356026D01*
X135491131Y-106310271D01*
X135533514Y-106286137D01*
X135540236Y-106284107D01*
X135579144Y-106273543D01*
X135599197Y-106269823D01*
X135626475Y-106267037D01*
X135766147Y-106220754D01*
X135890600Y-106143991D01*
X135993991Y-106040600D01*
X136070754Y-105916147D01*
X136117037Y-105776474D01*
X136117684Y-105770143D01*
X136117684Y-105770139D01*
X136125499Y-105693636D01*
X136125499Y-104505000D01*
X137200000Y-104505000D01*
X137200000Y-105776143D01*
X137204007Y-105813402D01*
X137242486Y-105916569D01*
X137307110Y-106002893D01*
X137393433Y-106067515D01*
X137496597Y-106105992D01*
X137533874Y-106110000D01*
X137725000Y-106110000D01*
X137725000Y-104505000D01*
X137200000Y-104505000D01*
X136125499Y-104505000D01*
X136125499Y-104306361D01*
X136117037Y-104223524D01*
X136070754Y-104083852D01*
X135993991Y-103959399D01*
X135890600Y-103856008D01*
X135766147Y-103779245D01*
X135692981Y-103755000D01*
X137200000Y-103755000D01*
X137725000Y-103755000D01*
X137725000Y-102150000D01*
X137533855Y-102150000D01*
X137496596Y-102154007D01*
X137393429Y-102192486D01*
X137307105Y-102257110D01*
X137242483Y-102343433D01*
X137204006Y-102446597D01*
X137200000Y-102483860D01*
X137200000Y-103755000D01*
X135692981Y-103755000D01*
X135626472Y-103732961D01*
X135543640Y-103724500D01*
X133456351Y-103724500D01*
X133373522Y-103732962D01*
X133233851Y-103779245D01*
X133109396Y-103856010D01*
X133006009Y-103959397D01*
X132929245Y-104083852D01*
X132882961Y-104223526D01*
X132874500Y-104306353D01*
X132874500Y-105693647D01*
X132882962Y-105776476D01*
X132929246Y-105916147D01*
X133006009Y-106040601D01*
X133109399Y-106143991D01*
X133233852Y-106220754D01*
X133373524Y-106267037D01*
X133400806Y-106269824D01*
X133435328Y-106278441D01*
X133500018Y-106304837D01*
X133540713Y-106331719D01*
X133555091Y-106348739D01*
X133595243Y-106405919D01*
X133614946Y-106450535D01*
X133616282Y-106457430D01*
X133622837Y-106497211D01*
X133624500Y-106517534D01*
X133624499Y-107586230D01*
X133658146Y-107755376D01*
X133724145Y-107914711D01*
X133819955Y-108058100D01*
X134461286Y-108699431D01*
X134482608Y-108727913D01*
X134516093Y-108789236D01*
X134530667Y-108835780D01*
X134531065Y-108858059D01*
X134526081Y-108927751D01*
X134513178Y-108974785D01*
X134501466Y-108993745D01*
X134459594Y-109049678D01*
X134423309Y-109082270D01*
X134403210Y-109091886D01*
X134337746Y-109116303D01*
X134298525Y-109124104D01*
X134289679Y-109124420D01*
X134285217Y-109124500D01*
X132213393Y-109124500D01*
X132178175Y-109119436D01*
X132111136Y-109099751D01*
X132067920Y-109077145D01*
X132051885Y-109061673D01*
X132006130Y-109008869D01*
X131981996Y-108966486D01*
X131976871Y-108944801D01*
X131966927Y-108875643D01*
X131969538Y-108826941D01*
X131976951Y-108805926D01*
X132005976Y-108742370D01*
X132032484Y-108704732D01*
X132047532Y-108690082D01*
X132052561Y-108685584D01*
X132180044Y-108558101D01*
X132275857Y-108414706D01*
X132341856Y-108255372D01*
X132375500Y-108086230D01*
X132375500Y-107913765D01*
X132341856Y-107744629D01*
X132275855Y-107585291D01*
X132180039Y-107441893D01*
X131448431Y-106710285D01*
X131427109Y-106681803D01*
X131393624Y-106620480D01*
X131379050Y-106573937D01*
X131376216Y-106547579D01*
X131375500Y-106534216D01*
X131375500Y-106517534D01*
X131380564Y-106482316D01*
X131400249Y-106415277D01*
X131422855Y-106372061D01*
X131438327Y-106356026D01*
X131491131Y-106310271D01*
X131533514Y-106286137D01*
X131540236Y-106284107D01*
X131579144Y-106273543D01*
X131599197Y-106269823D01*
X131626475Y-106267037D01*
X131766147Y-106220754D01*
X131890600Y-106143991D01*
X131993991Y-106040600D01*
X132070754Y-105916147D01*
X132117037Y-105776474D01*
X132125499Y-105693638D01*
X132125499Y-104306361D01*
X132117037Y-104223524D01*
X132070754Y-104083852D01*
X131993991Y-103959399D01*
X131890600Y-103856008D01*
X131766147Y-103779245D01*
X131626472Y-103732961D01*
X131543640Y-103724500D01*
X129456351Y-103724500D01*
X129373522Y-103732962D01*
X129233851Y-103779245D01*
X129109396Y-103856010D01*
X129006009Y-103959397D01*
X128929245Y-104083852D01*
X128882961Y-104223526D01*
X128874500Y-104306353D01*
X128874500Y-105693647D01*
X128882962Y-105776476D01*
X128929246Y-105916147D01*
X129006009Y-106040601D01*
X129109399Y-106143991D01*
X129233852Y-106220754D01*
X129373524Y-106267037D01*
X129400806Y-106269824D01*
X129435328Y-106278441D01*
X129500018Y-106304837D01*
X129540713Y-106331719D01*
X129555091Y-106348739D01*
X129595243Y-106405919D01*
X129614946Y-106450535D01*
X129616282Y-106457430D01*
X129622837Y-106497212D01*
X129624500Y-106517535D01*
X129624500Y-107086232D01*
X129658144Y-107255374D01*
X129724145Y-107414711D01*
X129819955Y-107558100D01*
X130950604Y-108688750D01*
X130950190Y-108689163D01*
X130954228Y-108693579D01*
X130954831Y-108692977D01*
X130954914Y-108693060D01*
X130958064Y-108697775D01*
X130968590Y-108709286D01*
X130969760Y-108711004D01*
X130967797Y-108712340D01*
X130967856Y-108712430D01*
X130969820Y-108711093D01*
X131007917Y-108767023D01*
X131026983Y-108811914D01*
X131029562Y-108834046D01*
X131031433Y-108903891D01*
X131023202Y-108951964D01*
X131013405Y-108971980D01*
X130977217Y-109031748D01*
X130944302Y-109067739D01*
X130925242Y-109079279D01*
X130862486Y-109109995D01*
X130818117Y-109122273D01*
X130797191Y-109124051D01*
X130786608Y-109124500D01*
X128474000Y-109124500D01*
X128438782Y-109119436D01*
X128371743Y-109099751D01*
X128328527Y-109077145D01*
X128312492Y-109061673D01*
X128266737Y-109008869D01*
X128242603Y-108966486D01*
X128239063Y-108953583D01*
X128227857Y-108902072D01*
X128225000Y-108875500D01*
X128225000Y-108375000D01*
X127433012Y-108375000D01*
X127385177Y-108365485D01*
X127344624Y-108338388D01*
X127317527Y-108297835D01*
X127308012Y-108250000D01*
X127317527Y-108202165D01*
X127324759Y-108187500D01*
X127349442Y-108144746D01*
X127375000Y-108049367D01*
X127375000Y-107950632D01*
X127349442Y-107855253D01*
X127324759Y-107812500D01*
X127309081Y-107766316D01*
X127312271Y-107717648D01*
X127333843Y-107673905D01*
X127370512Y-107641747D01*
X127416696Y-107626069D01*
X127433012Y-107625000D01*
X128225000Y-107625000D01*
X128224999Y-107108855D01*
X128220991Y-107071596D01*
X128182512Y-106968429D01*
X128117888Y-106882105D01*
X128031565Y-106817483D01*
X127928401Y-106779006D01*
X127891139Y-106775000D01*
X127375000Y-106775000D01*
X127375000Y-107566988D01*
X127365485Y-107614823D01*
X127338388Y-107655376D01*
X127297835Y-107682473D01*
X127250000Y-107691988D01*
X127202165Y-107682473D01*
X127187500Y-107675241D01*
X127144746Y-107650557D01*
X127049367Y-107625000D01*
X126950633Y-107625000D01*
X126855253Y-107650557D01*
X126812500Y-107675241D01*
X126766316Y-107690919D01*
X126717648Y-107687729D01*
X126673905Y-107666157D01*
X126641747Y-107629488D01*
X126626069Y-107583304D01*
X126625000Y-107566988D01*
X126625000Y-106775000D01*
X126124500Y-106775000D01*
X126089282Y-106769936D01*
X126022243Y-106750251D01*
X125979027Y-106727645D01*
X125962992Y-106712173D01*
X125917237Y-106659369D01*
X125893103Y-106616986D01*
X125889563Y-106604083D01*
X125878357Y-106552572D01*
X125875500Y-106526000D01*
X125875500Y-101875000D01*
X129675001Y-101875000D01*
X129675001Y-102018615D01*
X129683455Y-102101374D01*
X129729701Y-102240935D01*
X129806405Y-102365290D01*
X129909708Y-102468593D01*
X130034069Y-102545299D01*
X130173629Y-102591544D01*
X130175000Y-102591684D01*
X130175000Y-101875000D01*
X129675001Y-101875000D01*
X125875500Y-101875000D01*
X125875500Y-101125000D01*
X129675000Y-101125000D01*
X130175000Y-101125000D01*
X130174999Y-100408315D01*
X130173624Y-100408455D01*
X130034063Y-100454701D01*
X129909708Y-100531405D01*
X129806405Y-100634708D01*
X129729699Y-100759069D01*
X129683454Y-100898629D01*
X129675000Y-100981385D01*
X129675000Y-101125000D01*
X125875500Y-101125000D01*
X125875500Y-96500000D01*
X129320511Y-96500000D01*
X129338430Y-96704816D01*
X129391646Y-96903420D01*
X129447173Y-97022496D01*
X129969670Y-96499999D01*
X129447174Y-95977503D01*
X129391640Y-96096598D01*
X129338428Y-96295191D01*
X129320511Y-96500000D01*
X125875500Y-96500000D01*
X125875500Y-95447174D01*
X129977503Y-95447174D01*
X130500000Y-95969671D01*
X131022495Y-95447174D01*
X130903400Y-95391640D01*
X130704807Y-95338428D01*
X130499998Y-95320511D01*
X130295182Y-95338430D01*
X130096588Y-95391644D01*
X129977503Y-95447174D01*
X125875500Y-95447174D01*
X125875500Y-92474499D01*
X125880564Y-92439281D01*
X125900249Y-92372242D01*
X125922855Y-92329026D01*
X125938327Y-92312991D01*
X125991131Y-92267236D01*
X126033514Y-92243102D01*
X126046415Y-92239562D01*
X126097921Y-92228356D01*
X126124495Y-92225499D01*
X127891173Y-92225499D01*
X127928512Y-92221485D01*
X128031809Y-92182957D01*
X128118249Y-92118249D01*
X128186585Y-92026963D01*
X128197892Y-92006256D01*
X128239761Y-91950325D01*
X128276045Y-91917733D01*
X128296144Y-91908116D01*
X128361608Y-91883698D01*
X128400832Y-91875896D01*
X128409680Y-91875580D01*
X128414141Y-91875500D01*
X131534218Y-91875500D01*
X131569436Y-91880564D01*
X131636475Y-91900249D01*
X131679690Y-91922854D01*
X131700332Y-91939488D01*
X131710287Y-91948431D01*
X132051569Y-92289713D01*
X132072891Y-92318195D01*
X132106376Y-92379518D01*
X132120950Y-92426061D01*
X132123784Y-92452419D01*
X132124500Y-92465782D01*
X132124500Y-95622410D01*
X132119436Y-95657628D01*
X132099751Y-95724667D01*
X132083621Y-95759085D01*
X132080882Y-95763168D01*
X132079470Y-95765228D01*
X131978097Y-95910004D01*
X131975393Y-95915805D01*
X131955917Y-95945587D01*
X131909742Y-95998025D01*
X131870988Y-96027638D01*
X131850188Y-96035631D01*
X131782994Y-96054780D01*
X131734382Y-96058739D01*
X131712562Y-96054218D01*
X131645682Y-96033999D01*
X131602647Y-96011048D01*
X131587385Y-95996203D01*
X131562659Y-95967667D01*
X130988388Y-96541940D01*
X130947836Y-96569037D01*
X130900000Y-96578552D01*
X130852165Y-96569037D01*
X130811612Y-96541940D01*
X130784515Y-96501388D01*
X130780151Y-96479451D01*
X130779259Y-96479691D01*
X130756258Y-96393852D01*
X130720054Y-96331144D01*
X130668855Y-96279945D01*
X130606147Y-96243741D01*
X130520309Y-96220741D01*
X130520548Y-96219848D01*
X130500000Y-96215761D01*
X130479451Y-96219848D01*
X130479691Y-96220741D01*
X130393852Y-96243741D01*
X130331144Y-96279945D01*
X130279945Y-96331144D01*
X130243741Y-96393852D01*
X130220741Y-96479691D01*
X130219848Y-96479451D01*
X130215761Y-96499999D01*
X130219848Y-96520548D01*
X130220741Y-96520309D01*
X130243741Y-96606147D01*
X130279945Y-96668855D01*
X130331144Y-96720054D01*
X130393852Y-96756258D01*
X130479691Y-96779259D01*
X130479451Y-96780151D01*
X130501388Y-96784515D01*
X130541941Y-96811612D01*
X130569038Y-96852165D01*
X130578553Y-96900000D01*
X130569038Y-96947835D01*
X130541941Y-96988388D01*
X129977502Y-97552824D01*
X130096598Y-97608358D01*
X130295191Y-97661570D01*
X130500001Y-97679488D01*
X130704816Y-97661568D01*
X130903410Y-97608354D01*
X131089748Y-97521463D01*
X131182678Y-97456393D01*
X131214430Y-97440342D01*
X131280636Y-97418014D01*
X131329004Y-97411743D01*
X131351014Y-97415220D01*
X131418781Y-97432230D01*
X131462861Y-97453105D01*
X131479496Y-97467929D01*
X131527309Y-97518876D01*
X131553106Y-97560268D01*
X131557754Y-97575427D01*
X131571092Y-97631372D01*
X131574500Y-97660361D01*
X131574500Y-100322246D01*
X131569436Y-100357464D01*
X131549751Y-100424503D01*
X131527145Y-100467719D01*
X131511673Y-100483754D01*
X131458869Y-100529509D01*
X131416486Y-100553643D01*
X131394801Y-100558768D01*
X131325643Y-100568712D01*
X131276941Y-100566101D01*
X131265257Y-100562502D01*
X131217807Y-100545303D01*
X131194782Y-100534175D01*
X131065932Y-100454700D01*
X130926369Y-100408454D01*
X130925000Y-100408315D01*
X130925000Y-102591683D01*
X130926374Y-102591543D01*
X131065935Y-102545297D01*
X131190290Y-102468593D01*
X131298782Y-102360101D01*
X131298798Y-102360082D01*
X131298824Y-102360059D01*
X131303930Y-102354954D01*
X131304114Y-102355138D01*
X131310533Y-102347446D01*
X131312337Y-102345822D01*
X131313737Y-102347377D01*
X131314805Y-102346468D01*
X131313380Y-102344884D01*
X131362514Y-102300687D01*
X131404442Y-102275770D01*
X131426028Y-102270245D01*
X131494991Y-102259020D01*
X131543734Y-102260726D01*
X131564880Y-102267748D01*
X131628963Y-102295588D01*
X131669046Y-102323375D01*
X131673623Y-102328377D01*
X131699710Y-102358482D01*
X131701977Y-102361569D01*
X131809399Y-102468991D01*
X131933852Y-102545754D01*
X132073525Y-102592037D01*
X132156361Y-102600499D01*
X132743649Y-102600498D01*
X132826475Y-102592037D01*
X132966147Y-102545754D01*
X133090600Y-102468991D01*
X133111161Y-102448431D01*
X133139643Y-102427109D01*
X133200966Y-102393624D01*
X133247509Y-102379050D01*
X133273867Y-102376216D01*
X133287230Y-102375500D01*
X135586230Y-102375500D01*
X135691511Y-102354557D01*
X135691514Y-102354557D01*
X135755373Y-102341855D01*
X135914703Y-102275858D01*
X136058101Y-102180043D01*
X136180043Y-102058101D01*
X136275858Y-101914703D01*
X136341854Y-101755374D01*
X136375500Y-101586229D01*
X136375500Y-101413767D01*
X136341855Y-101244628D01*
X136275853Y-101085287D01*
X136180043Y-100941898D01*
X136058097Y-100819953D01*
X135914695Y-100724136D01*
X135755370Y-100658143D01*
X135586231Y-100624500D01*
X133574500Y-100624500D01*
X133539282Y-100619436D01*
X133472243Y-100599751D01*
X133429027Y-100577145D01*
X133412992Y-100561673D01*
X133367237Y-100508869D01*
X133343103Y-100466486D01*
X133339563Y-100453583D01*
X133328357Y-100402072D01*
X133325500Y-100375500D01*
X133325500Y-97803867D01*
X133330564Y-97768649D01*
X133350249Y-97701610D01*
X133372855Y-97658394D01*
X133387952Y-97642686D01*
X133439862Y-97597343D01*
X133469268Y-97578196D01*
X133589997Y-97521899D01*
X133758485Y-97403924D01*
X133903924Y-97258485D01*
X134021901Y-97089994D01*
X134108828Y-96903581D01*
X134162064Y-96704900D01*
X134179990Y-96500000D01*
X134162064Y-96295099D01*
X134108828Y-96096418D01*
X134021902Y-95910006D01*
X133920529Y-95765228D01*
X133904478Y-95733476D01*
X133882151Y-95667270D01*
X133875621Y-95629792D01*
X133875524Y-95624876D01*
X133875500Y-95622410D01*
X133875500Y-91913765D01*
X133841856Y-91744629D01*
X133775855Y-91585291D01*
X133680039Y-91441893D01*
X132549393Y-90311248D01*
X132549806Y-90310834D01*
X132545768Y-90306418D01*
X132545166Y-90307021D01*
X132545086Y-90306941D01*
X132541938Y-90302230D01*
X132531417Y-90290726D01*
X132530246Y-90289007D01*
X132532209Y-90287669D01*
X132532141Y-90287568D01*
X132530178Y-90288906D01*
X132492081Y-90232974D01*
X132473016Y-90188082D01*
X132470437Y-90165949D01*
X132468568Y-90096105D01*
X132476800Y-90048032D01*
X132486596Y-90028019D01*
X132522784Y-89968251D01*
X132555699Y-89932260D01*
X132574761Y-89920719D01*
X132637518Y-89890004D01*
X132681884Y-89877727D01*
X132702808Y-89875949D01*
X132713392Y-89875500D01*
X135491058Y-89875500D01*
X135526276Y-89880564D01*
G37*
%TD.AperFunction*%
%TA.AperFunction,Conductor*%
G36*
X167621077Y-91880564D02*
G01*
X167688116Y-91900249D01*
X167731332Y-91922855D01*
X167747367Y-91938327D01*
X167793122Y-91991131D01*
X167814134Y-92025145D01*
X167816712Y-92031369D01*
X167881753Y-92118250D01*
X167968191Y-92182957D01*
X168071488Y-92221485D01*
X168108829Y-92225499D01*
X169875500Y-92225499D01*
X169910718Y-92230563D01*
X169977757Y-92250248D01*
X170020973Y-92272854D01*
X170037007Y-92288325D01*
X170082762Y-92341128D01*
X170106897Y-92383511D01*
X170110437Y-92396416D01*
X170121643Y-92447928D01*
X170124500Y-92474499D01*
X170124500Y-106526000D01*
X170119436Y-106561218D01*
X170099751Y-106628257D01*
X170077145Y-106671473D01*
X170061673Y-106687508D01*
X170008869Y-106733263D01*
X169966486Y-106757397D01*
X169953583Y-106760937D01*
X169902072Y-106772143D01*
X169875500Y-106775000D01*
X169375000Y-106775000D01*
X169375000Y-107566988D01*
X169365485Y-107614823D01*
X169338388Y-107655376D01*
X169297835Y-107682473D01*
X169250000Y-107691988D01*
X169202165Y-107682473D01*
X169187500Y-107675241D01*
X169144746Y-107650557D01*
X169049367Y-107625000D01*
X168950633Y-107625000D01*
X168855253Y-107650557D01*
X168812500Y-107675241D01*
X168766316Y-107690919D01*
X168717648Y-107687729D01*
X168673905Y-107666157D01*
X168641747Y-107629488D01*
X168626069Y-107583304D01*
X168625000Y-107566988D01*
X168625000Y-106775000D01*
X168108855Y-106775000D01*
X168071596Y-106779007D01*
X167968429Y-106817486D01*
X167882105Y-106882110D01*
X167817483Y-106968433D01*
X167779006Y-107071597D01*
X167775000Y-107108860D01*
X167775000Y-107625000D01*
X168566988Y-107625000D01*
X168614823Y-107634515D01*
X168655376Y-107661612D01*
X168682473Y-107702165D01*
X168691988Y-107750000D01*
X168682473Y-107797835D01*
X168675241Y-107812500D01*
X168650557Y-107855253D01*
X168625000Y-107950632D01*
X168625000Y-108049367D01*
X168650557Y-108144746D01*
X168675241Y-108187500D01*
X168690919Y-108233684D01*
X168687729Y-108282352D01*
X168666157Y-108326095D01*
X168629488Y-108358253D01*
X168583304Y-108373931D01*
X168566988Y-108375000D01*
X167775000Y-108375000D01*
X167775000Y-108875500D01*
X167769936Y-108910718D01*
X167750251Y-108977757D01*
X167727645Y-109020973D01*
X167712173Y-109037008D01*
X167659369Y-109082763D01*
X167616986Y-109106897D01*
X167604083Y-109110437D01*
X167552572Y-109121643D01*
X167526000Y-109124500D01*
X164214782Y-109124500D01*
X164179564Y-109119436D01*
X164112525Y-109099751D01*
X164069309Y-109077145D01*
X164053274Y-109061673D01*
X164007519Y-109008869D01*
X163983385Y-108966486D01*
X163978260Y-108944801D01*
X163968316Y-108875643D01*
X163970927Y-108826941D01*
X163978340Y-108805926D01*
X164007365Y-108742370D01*
X164029588Y-108709114D01*
X164035620Y-108702636D01*
X164038713Y-108699431D01*
X165430044Y-107308100D01*
X165525858Y-107164703D01*
X165591854Y-107005374D01*
X165625500Y-106836229D01*
X165625500Y-100552824D01*
X166727502Y-100552824D01*
X166846598Y-100608358D01*
X167045191Y-100661570D01*
X167250001Y-100679488D01*
X167454816Y-100661568D01*
X167653420Y-100608352D01*
X167772496Y-100552825D01*
X167249999Y-100030328D01*
X166727502Y-100552824D01*
X165625500Y-100552824D01*
X165625500Y-100377588D01*
X165630564Y-100342370D01*
X165650249Y-100275331D01*
X165666382Y-100240907D01*
X165669122Y-100236823D01*
X165670531Y-100234768D01*
X165771901Y-100089995D01*
X165774603Y-100084201D01*
X165794076Y-100054420D01*
X165840247Y-100001982D01*
X165879000Y-99972368D01*
X165899798Y-99964374D01*
X165966991Y-99945221D01*
X166015603Y-99941259D01*
X166037423Y-99945779D01*
X166104304Y-99965994D01*
X166147340Y-99988942D01*
X166162605Y-100003789D01*
X166187338Y-100032331D01*
X166719670Y-99499999D01*
X166719668Y-99499997D01*
X166965761Y-99499997D01*
X166969848Y-99520548D01*
X166970741Y-99520309D01*
X166993741Y-99606147D01*
X167029945Y-99668855D01*
X167081144Y-99720054D01*
X167143852Y-99756258D01*
X167229691Y-99779259D01*
X167229451Y-99780151D01*
X167250000Y-99784238D01*
X167270548Y-99780151D01*
X167270309Y-99779259D01*
X167356147Y-99756258D01*
X167418855Y-99720054D01*
X167470054Y-99668855D01*
X167506258Y-99606147D01*
X167529259Y-99520309D01*
X167530151Y-99520548D01*
X167534239Y-99499999D01*
X167780328Y-99499999D01*
X168302824Y-100022495D01*
X168358358Y-99903400D01*
X168411570Y-99704807D01*
X168429488Y-99499997D01*
X168411568Y-99295182D01*
X168358352Y-99096578D01*
X168302825Y-98977501D01*
X167780328Y-99499999D01*
X167534239Y-99499999D01*
X167530151Y-99479451D01*
X167529259Y-99479691D01*
X167506258Y-99393852D01*
X167470054Y-99331144D01*
X167418855Y-99279945D01*
X167356147Y-99243741D01*
X167270309Y-99220741D01*
X167270548Y-99219848D01*
X167250000Y-99215761D01*
X167229451Y-99219848D01*
X167229691Y-99220741D01*
X167143852Y-99243741D01*
X167081144Y-99279945D01*
X167029945Y-99331144D01*
X166993741Y-99393852D01*
X166970741Y-99479691D01*
X166969848Y-99479451D01*
X166965761Y-99499997D01*
X166719668Y-99499997D01*
X166187172Y-98967501D01*
X166160296Y-98998024D01*
X166121542Y-99027637D01*
X166100742Y-99035630D01*
X166033548Y-99054780D01*
X165984937Y-99058740D01*
X165963119Y-99054220D01*
X165896238Y-99034003D01*
X165853202Y-99011054D01*
X165837937Y-98996206D01*
X165793423Y-98944832D01*
X165774603Y-98915799D01*
X165771901Y-98910004D01*
X165653921Y-98741510D01*
X165508489Y-98596078D01*
X165339994Y-98478098D01*
X165273677Y-98447174D01*
X166727503Y-98447174D01*
X167250000Y-98969671D01*
X167772495Y-98447174D01*
X167653400Y-98391640D01*
X167454807Y-98338428D01*
X167249998Y-98320511D01*
X167045182Y-98338430D01*
X166846588Y-98391644D01*
X166727503Y-98447174D01*
X165273677Y-98447174D01*
X165153571Y-98391168D01*
X164954896Y-98337934D01*
X164904008Y-98333482D01*
X164869365Y-98325368D01*
X164804297Y-98299914D01*
X164767228Y-98277318D01*
X164755425Y-98266925D01*
X164749644Y-98261499D01*
X164498431Y-98010286D01*
X164477109Y-97981804D01*
X164443624Y-97920481D01*
X164429050Y-97873938D01*
X164426216Y-97847580D01*
X164425500Y-97834217D01*
X164425500Y-95677753D01*
X164430564Y-95642535D01*
X164450249Y-95575496D01*
X164472855Y-95532280D01*
X164488327Y-95516245D01*
X164541131Y-95470490D01*
X164583514Y-95446356D01*
X164605199Y-95441231D01*
X164674357Y-95431287D01*
X164723059Y-95433898D01*
X164734746Y-95437497D01*
X164782196Y-95454697D01*
X164805218Y-95465825D01*
X164934066Y-95545298D01*
X165073629Y-95591544D01*
X165075000Y-95591684D01*
X165075000Y-94875000D01*
X165825000Y-94875000D01*
X165825000Y-95591683D01*
X165826374Y-95591543D01*
X165965935Y-95545297D01*
X166090290Y-95468593D01*
X166193593Y-95365290D01*
X166270299Y-95240929D01*
X166316544Y-95101369D01*
X166325000Y-95018601D01*
X166325000Y-94875000D01*
X165825000Y-94875000D01*
X165075000Y-94875000D01*
X165075000Y-94250000D01*
X165074999Y-93408315D01*
X165825000Y-93408315D01*
X165825000Y-94125000D01*
X166324999Y-94125000D01*
X166324998Y-93981384D01*
X166316543Y-93898624D01*
X166270297Y-93759063D01*
X166193593Y-93634708D01*
X166090290Y-93531405D01*
X165965929Y-93454699D01*
X165826369Y-93408454D01*
X165825000Y-93408315D01*
X165074999Y-93408315D01*
X165073622Y-93408455D01*
X164958291Y-93446673D01*
X164923270Y-93452944D01*
X164853441Y-93455346D01*
X164805307Y-93447481D01*
X164785218Y-93437837D01*
X164725176Y-93402105D01*
X164688935Y-93369465D01*
X164677250Y-93350492D01*
X164646058Y-93287971D01*
X164633217Y-93240919D01*
X164633644Y-93218640D01*
X164641205Y-93149181D01*
X164655841Y-93102656D01*
X164661582Y-93093195D01*
X164688396Y-93053121D01*
X164703897Y-93034246D01*
X165789713Y-91948431D01*
X165818195Y-91927109D01*
X165879518Y-91893624D01*
X165926061Y-91879050D01*
X165952419Y-91876216D01*
X165965782Y-91875500D01*
X167585859Y-91875500D01*
X167621077Y-91880564D01*
G37*
%TD.AperFunction*%
%TD*%
M02*
