%TF.GenerationSoftware,KiCad,Pcbnew,7.0.11+dfsg-1build4*%
%TF.CreationDate,2026-10-03T06:15:35+00:00*%
%TF.ProjectId,t,742e6b69-6361-4645-9f70-636258585858,rev?*%
%TF.SameCoordinates,Original*%
%TF.FileFunction,Copper,L2,Bot*%
%TF.FilePolarity,Positive*%
%FSLAX46Y46*%
G04 Gerber Fmt 4.6, Leading zero omitted, Abs format (unit mm)*
G04 Created by KiCad (PCBNEW 7.0.11+dfsg-1build4) date 2026-10-03 06:15:35*
%MOMM*%
%LPD*%
G01*
G04 APERTURE LIST*
%TA.AperFunction,ComponentPad*%
%ADD10R,1.700000X1.700000*%
%TD*%
%TA.AperFunction,ComponentPad*%
%ADD11C,1.600000*%
%TD*%
%TA.AperFunction,ComponentPad*%
%ADD12C,1.440000*%
%TD*%
%TA.AperFunction,ViaPad*%
%ADD13C,0.900000*%
%TD*%
%TA.AperFunction,Conductor*%
%ADD14C,1.000000*%
%TD*%
G04 APERTURE END LIST*
D10*
%TO.P,J2,1,Pin_1*%
%TO.N,GND*%
X127000000Y-108000000D03*
%TD*%
D11*
%TO.P,C1,1*%
%TO.N,Net-(J1-Pin_1)*%
X133000000Y-96500000D03*
%TO.P,C1,2*%
%TO.N,GND*%
X130500000Y-96500000D03*
%TD*%
D10*
%TO.P,J3,1,Pin_1*%
%TO.N,GND*%
X169000000Y-108000000D03*
%TD*%
D11*
%TO.P,C4,1*%
%TO.N,Net-(D1-K)*%
X164750000Y-99500000D03*
%TO.P,C4,2*%
%TO.N,GND*%
X167250000Y-99500000D03*
%TD*%
D10*
%TO.P,J1,1,Pin_1*%
%TO.N,Net-(J1-Pin_1)*%
X127000000Y-91000000D03*
%TD*%
%TO.P,J4,1,Pin_1*%
%TO.N,Net-(D1-K)*%
X169000000Y-91000000D03*
%TD*%
D12*
%TO.P,RV1,1,1*%
%TO.N,Net-(VR1-FB)*%
X159040000Y-106500000D03*
%TO.P,RV1,2,2*%
%TO.N,Net-(D1-K)*%
X156500000Y-106500000D03*
%TO.P,RV1,3,3*%
X153960000Y-106500000D03*
%TD*%
D13*
%TO.N,Net-(J1-Pin_1)*%
X147500000Y-100500000D03*
X135500000Y-101500000D03*
%TO.N,Net-(D1-A)*%
X145500000Y-92500000D03*
X145500000Y-91500000D03*
X141500000Y-92500000D03*
X145500000Y-94500000D03*
X140500000Y-95500000D03*
X144500000Y-92500000D03*
X136500000Y-98500000D03*
X146500000Y-91500000D03*
X143500000Y-93500000D03*
X137500000Y-95500000D03*
X141500000Y-97500000D03*
X146500000Y-96500000D03*
X145500000Y-98500000D03*
X142500000Y-95500000D03*
X141500000Y-93500000D03*
X144500000Y-93500000D03*
X143500000Y-92500000D03*
X136500000Y-91500000D03*
X139500000Y-92500000D03*
X145500000Y-95500000D03*
X145500000Y-90500000D03*
X140500000Y-91500000D03*
X140500000Y-93500000D03*
X143500000Y-98500000D03*
X145500000Y-97500000D03*
X137500000Y-92500000D03*
X141500000Y-95500000D03*
X141500000Y-96500000D03*
X142500000Y-98500000D03*
X142500000Y-93500000D03*
X139500000Y-91500000D03*
X137500000Y-90500000D03*
X137500000Y-97500000D03*
X146500000Y-90500000D03*
X146500000Y-98500000D03*
X144500000Y-95500000D03*
X142500000Y-92500000D03*
X142500000Y-90500000D03*
X143500000Y-90500000D03*
X140500000Y-97500000D03*
X139500000Y-98500000D03*
X138500000Y-93500000D03*
X138500000Y-95500000D03*
X140500000Y-98500000D03*
X143500000Y-91500000D03*
X143500000Y-94500000D03*
X137500000Y-93500000D03*
X137500000Y-91500000D03*
X145500000Y-96500000D03*
X142500000Y-94500000D03*
X136500000Y-95500000D03*
X138500000Y-98500000D03*
X138500000Y-90500000D03*
X146500000Y-92500000D03*
X138500000Y-97500000D03*
X141500000Y-98500000D03*
X136500000Y-94500000D03*
X140500000Y-90500000D03*
X138500000Y-94500000D03*
X144500000Y-96500000D03*
X140500000Y-96500000D03*
X142500000Y-97500000D03*
X143500000Y-95500000D03*
X139500000Y-90500000D03*
X138500000Y-96500000D03*
X138500000Y-92500000D03*
X141500000Y-94500000D03*
X131500000Y-108000000D03*
X146500000Y-93500000D03*
X141500000Y-94500000D03*
X138500000Y-91500000D03*
X142500000Y-91500000D03*
X136500000Y-97500000D03*
X139500000Y-93500000D03*
X136500000Y-92500000D03*
X144500000Y-91500000D03*
X144500000Y-98500000D03*
X139500000Y-94500000D03*
X140500000Y-92500000D03*
X140500000Y-94500000D03*
X136500000Y-90500000D03*
X139500000Y-95500000D03*
X146500000Y-94500000D03*
X143500000Y-96500000D03*
X136500000Y-96500000D03*
X142500000Y-96500000D03*
X136500000Y-93500000D03*
X141500000Y-91500000D03*
X141500000Y-90500000D03*
X143500000Y-97500000D03*
X146500000Y-97500000D03*
X144500000Y-90500000D03*
X137500000Y-96500000D03*
X137500000Y-98500000D03*
X144500000Y-94500000D03*
X139500000Y-97500000D03*
X146500000Y-95500000D03*
X145500000Y-93500000D03*
X144500000Y-97500000D03*
X139500000Y-96500000D03*
X137500000Y-94500000D03*
%TO.N,GND*%
X145000000Y-108500000D03*
%TO.N,Net-(D1-K)*%
X137000000Y-108500000D03*
%TD*%
D14*
%TO.N,Net-(J1-Pin_1)*%
X146500000Y-101500000D02*
X147500000Y-100500000D01*
X135500000Y-101500000D02*
X146500000Y-101500000D01*
%TO.N,Net-(D1-A)*%
X136500000Y-98500000D02*
X132000000Y-98500000D01*
X132000000Y-98500000D02*
X130500000Y-100000000D01*
X130500000Y-100000000D02*
X130500000Y-107000000D01*
X130500000Y-107000000D02*
X131500000Y-108000000D01*
%TO.N,Net-(D1-K)*%
X137000000Y-108500000D02*
X139000000Y-106500000D01*
X139000000Y-106500000D02*
X153960000Y-106500000D01*
%TD*%
%TA.AperFunction,Conductor*%
%TO.N,GND*%
G36*
X135526276Y-89880564D02*
G01*
X135593315Y-89900249D01*
X135636531Y-89922855D01*
X135652566Y-89938327D01*
X135698321Y-89991131D01*
X135722455Y-90033514D01*
X135727580Y-90055199D01*
X135737524Y-90124357D01*
X135735819Y-90169266D01*
X135731741Y-90187615D01*
X135729335Y-90196783D01*
X135686443Y-90338173D01*
X135670505Y-90499999D01*
X135686444Y-90661830D01*
X135733646Y-90817433D01*
X135768491Y-90882624D01*
X135780627Y-90916070D01*
X135794868Y-90984473D01*
X135795303Y-91033244D01*
X135792429Y-91045167D01*
X135778188Y-91093668D01*
X135768492Y-91117376D01*
X135733644Y-91182572D01*
X135686443Y-91338171D01*
X135670505Y-91499999D01*
X135686444Y-91661830D01*
X135733646Y-91817433D01*
X135768491Y-91882624D01*
X135780627Y-91916070D01*
X135794868Y-91984473D01*
X135795303Y-92033244D01*
X135792429Y-92045167D01*
X135778188Y-92093668D01*
X135768492Y-92117376D01*
X135733644Y-92182572D01*
X135686443Y-92338171D01*
X135670505Y-92499999D01*
X135686444Y-92661830D01*
X135733646Y-92817433D01*
X135768491Y-92882624D01*
X135780627Y-92916070D01*
X135794868Y-92984473D01*
X135795303Y-93033244D01*
X135792429Y-93045167D01*
X135778188Y-93093668D01*
X135768492Y-93117376D01*
X135733644Y-93182572D01*
X135686443Y-93338171D01*
X135670505Y-93499999D01*
X135686444Y-93661830D01*
X135733646Y-93817433D01*
X135768491Y-93882624D01*
X135780627Y-93916070D01*
X135794868Y-93984473D01*
X135795303Y-94033244D01*
X135792429Y-94045167D01*
X135778188Y-94093668D01*
X135768492Y-94117376D01*
X135733644Y-94182572D01*
X135686443Y-94338171D01*
X135670505Y-94499999D01*
X135686444Y-94661830D01*
X135733646Y-94817433D01*
X135768491Y-94882624D01*
X135780627Y-94916070D01*
X135794868Y-94984473D01*
X135795303Y-95033244D01*
X135792429Y-95045167D01*
X135778188Y-95093668D01*
X135768492Y-95117376D01*
X135733644Y-95182572D01*
X135686443Y-95338171D01*
X135670505Y-95499999D01*
X135686444Y-95661830D01*
X135733646Y-95817433D01*
X135768491Y-95882624D01*
X135780627Y-95916070D01*
X135794868Y-95984473D01*
X135795303Y-96033244D01*
X135792429Y-96045167D01*
X135778188Y-96093668D01*
X135768492Y-96117376D01*
X135733644Y-96182572D01*
X135686443Y-96338171D01*
X135670505Y-96499999D01*
X135686444Y-96661830D01*
X135733646Y-96817433D01*
X135768491Y-96882624D01*
X135780627Y-96916070D01*
X135794868Y-96984473D01*
X135795303Y-97033244D01*
X135792429Y-97045167D01*
X135778188Y-97093668D01*
X135768492Y-97117376D01*
X135733644Y-97182572D01*
X135686443Y-97338170D01*
X135680364Y-97399905D01*
X135671873Y-97434457D01*
X135645712Y-97499244D01*
X135618978Y-97540037D01*
X135602009Y-97554478D01*
X135544975Y-97594837D01*
X135500431Y-97614701D01*
X135493317Y-97616100D01*
X135453109Y-97622800D01*
X135432563Y-97624500D01*
X134125963Y-97624500D01*
X134090745Y-97619436D01*
X134023706Y-97599751D01*
X133980490Y-97577145D01*
X133964455Y-97561673D01*
X133918700Y-97508869D01*
X133894566Y-97466486D01*
X133889441Y-97444801D01*
X133879497Y-97375643D01*
X133882108Y-97326941D01*
X133886996Y-97311856D01*
X133908159Y-97258380D01*
X133921993Y-97232681D01*
X134021902Y-97089993D01*
X134108828Y-96903581D01*
X134162064Y-96704900D01*
X134179990Y-96500000D01*
X134162064Y-96295099D01*
X134108828Y-96096418D01*
X134021901Y-95910005D01*
X133903921Y-95741510D01*
X133758489Y-95596078D01*
X133589994Y-95478098D01*
X133403570Y-95391167D01*
X133204896Y-95337934D01*
X132999998Y-95320009D01*
X132795093Y-95337936D01*
X132596416Y-95391171D01*
X132410001Y-95478099D01*
X132241513Y-95596074D01*
X132096078Y-95741509D01*
X131978095Y-95910009D01*
X131975393Y-95915805D01*
X131955917Y-95945587D01*
X131909742Y-95998025D01*
X131870988Y-96027638D01*
X131850188Y-96035631D01*
X131782994Y-96054780D01*
X131734382Y-96058739D01*
X131712562Y-96054218D01*
X131645682Y-96033999D01*
X131602647Y-96011048D01*
X131587385Y-95996203D01*
X131562659Y-95967667D01*
X131030328Y-96499999D01*
X131562827Y-97032498D01*
X131589692Y-97001985D01*
X131628444Y-96972370D01*
X131649244Y-96964376D01*
X131716437Y-96945222D01*
X131765048Y-96941259D01*
X131786866Y-96945778D01*
X131853747Y-96965991D01*
X131896785Y-96988938D01*
X131912051Y-97003786D01*
X131956571Y-97055162D01*
X131975392Y-97084193D01*
X131978095Y-97089990D01*
X132079866Y-97235336D01*
X132095917Y-97267087D01*
X132118245Y-97333294D01*
X132124515Y-97381662D01*
X132121037Y-97403674D01*
X132104025Y-97471441D01*
X132083149Y-97515520D01*
X132068326Y-97532155D01*
X132017378Y-97579967D01*
X131975985Y-97605763D01*
X131972606Y-97606983D01*
X131940855Y-97617937D01*
X131924475Y-97622370D01*
X131744625Y-97658144D01*
X131585288Y-97724145D01*
X131488000Y-97789151D01*
X131455891Y-97804510D01*
X131389211Y-97825380D01*
X131374996Y-97826906D01*
X131369382Y-97856352D01*
X131361274Y-97872793D01*
X131329704Y-97926484D01*
X131310339Y-97951514D01*
X129819954Y-99441899D01*
X129724139Y-99585298D01*
X129658144Y-99744629D01*
X129624499Y-99913769D01*
X129624499Y-107086230D01*
X129658146Y-107255376D01*
X129724145Y-107414711D01*
X129819955Y-107558100D01*
X130950604Y-108688750D01*
X130950190Y-108689163D01*
X130954228Y-108693579D01*
X130954831Y-108692977D01*
X130954914Y-108693060D01*
X130958064Y-108697775D01*
X130968590Y-108709286D01*
X130969760Y-108711004D01*
X130967797Y-108712340D01*
X130967856Y-108712430D01*
X130969820Y-108711093D01*
X131007917Y-108767023D01*
X131026983Y-108811914D01*
X131029562Y-108834046D01*
X131031433Y-108903891D01*
X131023202Y-108951964D01*
X131013405Y-108971980D01*
X130977217Y-109031748D01*
X130944302Y-109067739D01*
X130925242Y-109079279D01*
X130862486Y-109109995D01*
X130818117Y-109122273D01*
X130797191Y-109124051D01*
X130786608Y-109124500D01*
X128474000Y-109124500D01*
X128438782Y-109119436D01*
X128371743Y-109099751D01*
X128328527Y-109077145D01*
X128312492Y-109061673D01*
X128266737Y-109008869D01*
X128242603Y-108966486D01*
X128239063Y-108953583D01*
X128227857Y-108902072D01*
X128225000Y-108875500D01*
X128225000Y-108375000D01*
X127433012Y-108375000D01*
X127385177Y-108365485D01*
X127344624Y-108338388D01*
X127317527Y-108297835D01*
X127308012Y-108250000D01*
X127317527Y-108202165D01*
X127324759Y-108187500D01*
X127349442Y-108144746D01*
X127375000Y-108049367D01*
X127375000Y-107950632D01*
X127349442Y-107855253D01*
X127324759Y-107812500D01*
X127309081Y-107766316D01*
X127312271Y-107717648D01*
X127333843Y-107673905D01*
X127370512Y-107641747D01*
X127416696Y-107626069D01*
X127433012Y-107625000D01*
X128225000Y-107625000D01*
X128224999Y-107108855D01*
X128220991Y-107071596D01*
X128182512Y-106968429D01*
X128117888Y-106882105D01*
X128031565Y-106817483D01*
X127928401Y-106779006D01*
X127891139Y-106775000D01*
X127375000Y-106775000D01*
X127375000Y-107566988D01*
X127365485Y-107614823D01*
X127338388Y-107655376D01*
X127297835Y-107682473D01*
X127250000Y-107691988D01*
X127202165Y-107682473D01*
X127187500Y-107675241D01*
X127144746Y-107650557D01*
X127049367Y-107625000D01*
X126950633Y-107625000D01*
X126855253Y-107650557D01*
X126812500Y-107675241D01*
X126766316Y-107690919D01*
X126717648Y-107687729D01*
X126673905Y-107666157D01*
X126641747Y-107629488D01*
X126626069Y-107583304D01*
X126625000Y-107566988D01*
X126625000Y-106775000D01*
X126124500Y-106775000D01*
X126089282Y-106769936D01*
X126022243Y-106750251D01*
X125979027Y-106727645D01*
X125962992Y-106712173D01*
X125917237Y-106659369D01*
X125893103Y-106616986D01*
X125889563Y-106604083D01*
X125878357Y-106552572D01*
X125875500Y-106526000D01*
X125875500Y-97552824D01*
X129977502Y-97552824D01*
X130096598Y-97608358D01*
X130295191Y-97661570D01*
X130500001Y-97679488D01*
X130704816Y-97661568D01*
X130903415Y-97608353D01*
X131022496Y-97552825D01*
X130499999Y-97030328D01*
X129977502Y-97552824D01*
X125875500Y-97552824D01*
X125875500Y-96500000D01*
X129320511Y-96500000D01*
X129338430Y-96704816D01*
X129391646Y-96903420D01*
X129447173Y-97022496D01*
X129969670Y-96499999D01*
X130215761Y-96499999D01*
X130219848Y-96520548D01*
X130220741Y-96520309D01*
X130243741Y-96606147D01*
X130279945Y-96668855D01*
X130331144Y-96720054D01*
X130393852Y-96756258D01*
X130479691Y-96779259D01*
X130479451Y-96780151D01*
X130500000Y-96784238D01*
X130520548Y-96780151D01*
X130520309Y-96779259D01*
X130606147Y-96756258D01*
X130668855Y-96720054D01*
X130720054Y-96668855D01*
X130756258Y-96606147D01*
X130779259Y-96520309D01*
X130780151Y-96520548D01*
X130784239Y-96499999D01*
X130780151Y-96479451D01*
X130779259Y-96479691D01*
X130756258Y-96393852D01*
X130720054Y-96331144D01*
X130668855Y-96279945D01*
X130606147Y-96243741D01*
X130520309Y-96220741D01*
X130520548Y-96219848D01*
X130500000Y-96215761D01*
X130479451Y-96219848D01*
X130479691Y-96220741D01*
X130393852Y-96243741D01*
X130331144Y-96279945D01*
X130279945Y-96331144D01*
X130243741Y-96393852D01*
X130220741Y-96479691D01*
X130219848Y-96479451D01*
X130215761Y-96499999D01*
X129969670Y-96499999D01*
X129447174Y-95977503D01*
X129391640Y-96096598D01*
X129338428Y-96295191D01*
X129320511Y-96500000D01*
X125875500Y-96500000D01*
X125875500Y-95447174D01*
X129977503Y-95447174D01*
X130500000Y-95969671D01*
X131022495Y-95447174D01*
X130903400Y-95391640D01*
X130704807Y-95338428D01*
X130499998Y-95320511D01*
X130295182Y-95338430D01*
X130096588Y-95391644D01*
X129977503Y-95447174D01*
X125875500Y-95447174D01*
X125875500Y-92474499D01*
X125880564Y-92439281D01*
X125900249Y-92372242D01*
X125922855Y-92329026D01*
X125938327Y-92312991D01*
X125991131Y-92267236D01*
X126033514Y-92243102D01*
X126046415Y-92239562D01*
X126097921Y-92228356D01*
X126124495Y-92225499D01*
X127891173Y-92225499D01*
X127928512Y-92221485D01*
X128031809Y-92182957D01*
X128118249Y-92118249D01*
X128182957Y-92031809D01*
X128221485Y-91928511D01*
X128225499Y-91891170D01*
X128225499Y-90124499D01*
X128230563Y-90089281D01*
X128250248Y-90022243D01*
X128272855Y-89979026D01*
X128288325Y-89962993D01*
X128341128Y-89917238D01*
X128383511Y-89893103D01*
X128396416Y-89889563D01*
X128447928Y-89878357D01*
X128474499Y-89875500D01*
X135491058Y-89875500D01*
X135526276Y-89880564D01*
G37*
%TD.AperFunction*%
%TA.AperFunction,Conductor*%
G36*
X167560718Y-89880564D02*
G01*
X167627757Y-89900249D01*
X167670973Y-89922855D01*
X167687008Y-89938327D01*
X167732763Y-89991131D01*
X167756897Y-90033514D01*
X167760437Y-90046417D01*
X167771643Y-90097928D01*
X167774500Y-90124500D01*
X167774500Y-91891178D01*
X167778513Y-91928512D01*
X167817042Y-92031810D01*
X167881753Y-92118250D01*
X167968191Y-92182957D01*
X168071488Y-92221485D01*
X168108829Y-92225499D01*
X169875500Y-92225499D01*
X169910718Y-92230563D01*
X169977757Y-92250248D01*
X170020973Y-92272854D01*
X170037007Y-92288325D01*
X170082762Y-92341128D01*
X170106897Y-92383511D01*
X170110437Y-92396416D01*
X170121643Y-92447928D01*
X170124500Y-92474499D01*
X170124500Y-106526000D01*
X170119436Y-106561218D01*
X170099751Y-106628257D01*
X170077145Y-106671473D01*
X170061673Y-106687508D01*
X170008869Y-106733263D01*
X169966486Y-106757397D01*
X169953583Y-106760937D01*
X169902072Y-106772143D01*
X169875500Y-106775000D01*
X169375000Y-106775000D01*
X169375000Y-107566988D01*
X169365485Y-107614823D01*
X169338388Y-107655376D01*
X169297835Y-107682473D01*
X169250000Y-107691988D01*
X169202165Y-107682473D01*
X169187500Y-107675241D01*
X169144746Y-107650557D01*
X169049367Y-107625000D01*
X168950633Y-107625000D01*
X168855253Y-107650557D01*
X168812500Y-107675241D01*
X168766316Y-107690919D01*
X168717648Y-107687729D01*
X168673905Y-107666157D01*
X168641747Y-107629488D01*
X168626069Y-107583304D01*
X168625000Y-107566988D01*
X168625000Y-106775000D01*
X168108855Y-106775000D01*
X168071596Y-106779007D01*
X167968429Y-106817486D01*
X167882105Y-106882110D01*
X167817483Y-106968433D01*
X167779006Y-107071597D01*
X167775000Y-107108860D01*
X167775000Y-107625000D01*
X168566988Y-107625000D01*
X168614823Y-107634515D01*
X168655376Y-107661612D01*
X168682473Y-107702165D01*
X168691988Y-107750000D01*
X168682473Y-107797835D01*
X168675241Y-107812500D01*
X168650557Y-107855253D01*
X168625000Y-107950632D01*
X168625000Y-108049367D01*
X168650557Y-108144746D01*
X168675241Y-108187500D01*
X168690919Y-108233684D01*
X168687729Y-108282352D01*
X168666157Y-108326095D01*
X168629488Y-108358253D01*
X168583304Y-108373931D01*
X168566988Y-108375000D01*
X167775000Y-108375000D01*
X167775000Y-108875500D01*
X167769936Y-108910718D01*
X167750251Y-108977757D01*
X167727645Y-109020973D01*
X167712173Y-109037008D01*
X167659369Y-109082763D01*
X167616986Y-109106897D01*
X167604083Y-109110437D01*
X167552572Y-109121643D01*
X167526000Y-109124500D01*
X138214782Y-109124500D01*
X138179564Y-109119436D01*
X138112525Y-109099751D01*
X138069309Y-109077145D01*
X138053274Y-109061673D01*
X138007519Y-109008869D01*
X137983385Y-108966486D01*
X137978260Y-108944801D01*
X137968316Y-108875643D01*
X137970927Y-108826941D01*
X137978340Y-108805926D01*
X138007365Y-108742370D01*
X138029588Y-108709114D01*
X138035620Y-108702636D01*
X138038713Y-108699431D01*
X139289713Y-107448431D01*
X139318195Y-107427109D01*
X139379518Y-107393624D01*
X139426061Y-107379050D01*
X139452419Y-107376216D01*
X139465782Y-107375500D01*
X153221889Y-107375500D01*
X153257107Y-107380564D01*
X153324146Y-107400249D01*
X153358565Y-107416379D01*
X153362639Y-107419112D01*
X153364699Y-107420524D01*
X153410158Y-107452354D01*
X153583884Y-107533365D01*
X153769044Y-107582978D01*
X153960001Y-107599684D01*
X154150955Y-107582978D01*
X154336115Y-107533365D01*
X154509841Y-107452354D01*
X154666865Y-107342406D01*
X154802406Y-107206865D01*
X154912354Y-107049841D01*
X154995679Y-106871153D01*
X154995684Y-106871140D01*
X154995689Y-106871130D01*
X154997988Y-106866202D01*
X154998529Y-106866454D01*
X155008667Y-106849761D01*
X155008509Y-106849665D01*
X155039832Y-106798261D01*
X155072849Y-106762363D01*
X155091941Y-106750877D01*
X155154784Y-106720338D01*
X155201967Y-106707988D01*
X155224239Y-106708648D01*
X155293616Y-106716932D01*
X155339986Y-106732051D01*
X155358369Y-106744649D01*
X155412253Y-106789127D01*
X155443087Y-106826917D01*
X155446383Y-106833600D01*
X155459530Y-106862387D01*
X155459112Y-106862577D01*
X155461465Y-106866457D01*
X155462012Y-106866203D01*
X155547642Y-107049837D01*
X155657592Y-107206864D01*
X155793137Y-107342408D01*
X155950161Y-107452357D01*
X156123881Y-107533364D01*
X156309044Y-107582978D01*
X156500001Y-107599684D01*
X156690955Y-107582978D01*
X156876115Y-107533365D01*
X157049841Y-107452354D01*
X157206865Y-107342406D01*
X157342406Y-107206865D01*
X157452354Y-107049841D01*
X157535679Y-106871153D01*
X157535684Y-106871140D01*
X157535689Y-106871130D01*
X157537988Y-106866202D01*
X157538529Y-106866454D01*
X157548667Y-106849761D01*
X157548509Y-106849665D01*
X157579832Y-106798261D01*
X157612849Y-106762363D01*
X157631941Y-106750877D01*
X157694784Y-106720338D01*
X157741967Y-106707988D01*
X157764239Y-106708648D01*
X157833616Y-106716932D01*
X157879986Y-106732051D01*
X157898369Y-106744649D01*
X157952253Y-106789127D01*
X157983087Y-106826917D01*
X157986383Y-106833600D01*
X157999530Y-106862387D01*
X157999112Y-106862577D01*
X158001465Y-106866457D01*
X158002012Y-106866203D01*
X158087642Y-107049837D01*
X158197592Y-107206864D01*
X158333137Y-107342408D01*
X158490161Y-107452357D01*
X158663881Y-107533364D01*
X158849044Y-107582978D01*
X159040001Y-107599684D01*
X159230955Y-107582978D01*
X159416115Y-107533365D01*
X159589841Y-107452354D01*
X159746865Y-107342406D01*
X159882406Y-107206865D01*
X159992354Y-107049841D01*
X160073365Y-106876115D01*
X160122978Y-106690955D01*
X160139684Y-106500000D01*
X160122978Y-106309044D01*
X160073365Y-106123884D01*
X159992354Y-105950158D01*
X159882404Y-105793131D01*
X159746867Y-105657594D01*
X159589842Y-105547645D01*
X159416104Y-105466630D01*
X159230951Y-105417020D01*
X159039998Y-105400315D01*
X158849040Y-105417022D01*
X158663883Y-105466635D01*
X158490157Y-105547645D01*
X158333130Y-105657595D01*
X158197595Y-105793130D01*
X158087645Y-105950157D01*
X158002014Y-106133795D01*
X158001466Y-106133539D01*
X157991321Y-106150256D01*
X157991482Y-106150354D01*
X157960139Y-106201772D01*
X157927117Y-106237664D01*
X157908020Y-106249148D01*
X157845172Y-106279675D01*
X157797987Y-106292016D01*
X157775712Y-106291352D01*
X157706337Y-106283054D01*
X157659971Y-106267925D01*
X157641593Y-106255326D01*
X157587717Y-106210839D01*
X157556890Y-106173044D01*
X157553604Y-106166381D01*
X157540466Y-106137614D01*
X157540880Y-106137424D01*
X157538523Y-106133548D01*
X157537988Y-106133798D01*
X157535720Y-106128935D01*
X157535699Y-106128900D01*
X157535681Y-106128850D01*
X157452354Y-105950158D01*
X157342404Y-105793131D01*
X157206867Y-105657594D01*
X157049842Y-105547645D01*
X156876104Y-105466630D01*
X156690951Y-105417020D01*
X156499998Y-105400315D01*
X156309040Y-105417022D01*
X156123883Y-105466635D01*
X155950157Y-105547645D01*
X155793130Y-105657595D01*
X155657595Y-105793130D01*
X155547645Y-105950157D01*
X155462014Y-106133795D01*
X155461466Y-106133539D01*
X155451321Y-106150256D01*
X155451482Y-106150354D01*
X155420139Y-106201772D01*
X155387117Y-106237664D01*
X155368020Y-106249148D01*
X155305172Y-106279675D01*
X155257987Y-106292016D01*
X155235712Y-106291352D01*
X155166337Y-106283054D01*
X155119971Y-106267925D01*
X155101593Y-106255326D01*
X155047717Y-106210839D01*
X155016890Y-106173044D01*
X155013604Y-106166381D01*
X155000466Y-106137614D01*
X155000880Y-106137424D01*
X154998523Y-106133548D01*
X154997988Y-106133798D01*
X154995720Y-106128935D01*
X154995699Y-106128900D01*
X154995681Y-106128850D01*
X154912354Y-105950158D01*
X154802404Y-105793131D01*
X154666867Y-105657594D01*
X154509842Y-105547645D01*
X154336104Y-105466630D01*
X154150951Y-105417020D01*
X153959998Y-105400315D01*
X153769038Y-105417022D01*
X153583882Y-105466634D01*
X153410160Y-105547643D01*
X153364710Y-105579469D01*
X153332956Y-105595521D01*
X153266750Y-105617848D01*
X153229297Y-105624377D01*
X153224380Y-105624475D01*
X153221889Y-105624500D01*
X138913766Y-105624500D01*
X138744624Y-105658144D01*
X138585288Y-105724144D01*
X138441899Y-105819954D01*
X136319955Y-107941899D01*
X136224140Y-108085299D01*
X136158143Y-108244631D01*
X136124500Y-108413766D01*
X136124500Y-108586232D01*
X136158145Y-108755376D01*
X136168433Y-108780212D01*
X136177232Y-108814686D01*
X136184701Y-108884155D01*
X136180354Y-108932733D01*
X136172194Y-108953471D01*
X136140918Y-109015950D01*
X136110997Y-109054466D01*
X136092924Y-109067498D01*
X136032835Y-109103150D01*
X135986841Y-109119376D01*
X135984632Y-109119673D01*
X135953967Y-109123525D01*
X135938387Y-109124500D01*
X132213393Y-109124500D01*
X132178175Y-109119436D01*
X132111136Y-109099751D01*
X132067920Y-109077145D01*
X132051885Y-109061673D01*
X132006130Y-109008869D01*
X131981996Y-108966486D01*
X131976871Y-108944801D01*
X131966927Y-108875643D01*
X131969538Y-108826941D01*
X131976951Y-108805926D01*
X132005976Y-108742370D01*
X132032484Y-108704732D01*
X132047532Y-108690082D01*
X132052569Y-108685576D01*
X132180044Y-108558101D01*
X132275857Y-108414706D01*
X132341856Y-108255372D01*
X132375500Y-108086230D01*
X132375500Y-107913765D01*
X132341856Y-107744629D01*
X132275855Y-107585291D01*
X132180039Y-107441893D01*
X131448431Y-106710285D01*
X131427109Y-106681803D01*
X131393624Y-106620480D01*
X131379050Y-106573937D01*
X131376216Y-106547579D01*
X131375500Y-106534216D01*
X131375500Y-101586230D01*
X134624499Y-101586230D01*
X134658146Y-101755376D01*
X134724145Y-101914711D01*
X134819955Y-102058100D01*
X134941901Y-102180045D01*
X135085303Y-102275862D01*
X135244628Y-102341855D01*
X135413770Y-102375500D01*
X146586231Y-102375500D01*
X146755375Y-102341854D01*
X146914703Y-102275858D01*
X147058101Y-102180043D01*
X147198959Y-102039183D01*
X147198960Y-102039182D01*
X148180044Y-101058100D01*
X148275857Y-100914705D01*
X148341856Y-100755371D01*
X148375500Y-100586229D01*
X148375500Y-100413764D01*
X148341856Y-100244628D01*
X148275855Y-100085290D01*
X148180041Y-99941895D01*
X148058097Y-99819952D01*
X147914701Y-99724139D01*
X147755367Y-99658142D01*
X147586233Y-99624499D01*
X147413769Y-99624499D01*
X147244627Y-99658143D01*
X147085290Y-99724143D01*
X146941896Y-99819957D01*
X146210288Y-100551569D01*
X146181805Y-100572891D01*
X146120482Y-100606376D01*
X146073939Y-100620950D01*
X146047581Y-100623784D01*
X146034218Y-100624500D01*
X135413769Y-100624500D01*
X135244623Y-100658145D01*
X135085287Y-100724145D01*
X134941898Y-100819955D01*
X134819953Y-100941901D01*
X134724136Y-101085303D01*
X134658143Y-101244628D01*
X134624499Y-101413769D01*
X134624499Y-101586230D01*
X131375500Y-101586230D01*
X131375500Y-100465782D01*
X131380564Y-100430564D01*
X131400249Y-100363525D01*
X131422854Y-100320310D01*
X131439488Y-100299668D01*
X131448431Y-100289713D01*
X132238148Y-99499997D01*
X163570009Y-99499997D01*
X163587936Y-99704905D01*
X163641171Y-99903582D01*
X163728099Y-100089997D01*
X163846072Y-100258482D01*
X163991517Y-100403926D01*
X164160005Y-100521901D01*
X164346418Y-100608828D01*
X164545099Y-100662064D01*
X164750001Y-100679990D01*
X164954900Y-100662064D01*
X165153581Y-100608828D01*
X165273680Y-100552824D01*
X166727502Y-100552824D01*
X166846598Y-100608358D01*
X167045191Y-100661570D01*
X167250001Y-100679488D01*
X167454816Y-100661568D01*
X167653420Y-100608352D01*
X167772496Y-100552825D01*
X167249999Y-100030328D01*
X166727502Y-100552824D01*
X165273680Y-100552824D01*
X165339994Y-100521901D01*
X165508485Y-100403924D01*
X165653924Y-100258485D01*
X165771901Y-100089995D01*
X165774603Y-100084201D01*
X165794076Y-100054420D01*
X165840247Y-100001982D01*
X165879000Y-99972368D01*
X165899798Y-99964374D01*
X165966991Y-99945221D01*
X166015603Y-99941259D01*
X166037423Y-99945779D01*
X166104304Y-99965994D01*
X166147340Y-99988942D01*
X166162605Y-100003789D01*
X166187338Y-100032331D01*
X166719670Y-99499999D01*
X166719668Y-99499997D01*
X166965761Y-99499997D01*
X166969848Y-99520548D01*
X166970741Y-99520309D01*
X166993741Y-99606147D01*
X167029945Y-99668855D01*
X167081144Y-99720054D01*
X167143852Y-99756258D01*
X167229691Y-99779259D01*
X167229451Y-99780151D01*
X167250000Y-99784238D01*
X167270548Y-99780151D01*
X167270309Y-99779259D01*
X167356147Y-99756258D01*
X167418855Y-99720054D01*
X167470054Y-99668855D01*
X167506258Y-99606147D01*
X167529259Y-99520309D01*
X167530151Y-99520548D01*
X167534239Y-99499999D01*
X167780328Y-99499999D01*
X168302824Y-100022495D01*
X168358358Y-99903400D01*
X168411570Y-99704807D01*
X168429488Y-99499997D01*
X168411568Y-99295182D01*
X168358352Y-99096578D01*
X168302825Y-98977501D01*
X167780328Y-99499999D01*
X167534239Y-99499999D01*
X167534239Y-99499998D01*
X167530151Y-99479451D01*
X167529259Y-99479691D01*
X167506258Y-99393852D01*
X167470054Y-99331144D01*
X167418855Y-99279945D01*
X167356147Y-99243741D01*
X167270309Y-99220741D01*
X167270548Y-99219848D01*
X167250000Y-99215761D01*
X167229451Y-99219848D01*
X167229691Y-99220741D01*
X167143852Y-99243741D01*
X167081144Y-99279945D01*
X167029945Y-99331144D01*
X166993741Y-99393852D01*
X166970741Y-99479691D01*
X166969848Y-99479451D01*
X166965761Y-99499997D01*
X166719668Y-99499997D01*
X166187172Y-98967501D01*
X166160296Y-98998024D01*
X166121542Y-99027637D01*
X166100742Y-99035630D01*
X166033548Y-99054780D01*
X165984937Y-99058740D01*
X165963119Y-99054220D01*
X165896238Y-99034003D01*
X165853202Y-99011054D01*
X165837937Y-98996206D01*
X165793423Y-98944832D01*
X165774603Y-98915799D01*
X165771901Y-98910004D01*
X165653921Y-98741510D01*
X165508489Y-98596078D01*
X165339994Y-98478098D01*
X165273677Y-98447174D01*
X166727503Y-98447174D01*
X167250000Y-98969671D01*
X167772495Y-98447174D01*
X167653400Y-98391640D01*
X167454807Y-98338428D01*
X167249998Y-98320511D01*
X167045182Y-98338430D01*
X166846588Y-98391644D01*
X166727503Y-98447174D01*
X165273677Y-98447174D01*
X165153570Y-98391167D01*
X164954896Y-98337934D01*
X164749998Y-98320009D01*
X164545093Y-98337936D01*
X164346416Y-98391171D01*
X164160001Y-98478099D01*
X163991513Y-98596074D01*
X163846078Y-98741509D01*
X163728098Y-98910004D01*
X163641167Y-99096428D01*
X163587934Y-99295102D01*
X163570009Y-99499997D01*
X132238148Y-99499997D01*
X132289714Y-99448431D01*
X132318196Y-99427109D01*
X132379519Y-99393624D01*
X132426062Y-99379050D01*
X132452420Y-99376216D01*
X132465783Y-99375500D01*
X136586231Y-99375500D01*
X136755374Y-99341854D01*
X136914699Y-99275860D01*
X136917557Y-99273951D01*
X136949657Y-99258593D01*
X137016333Y-99237716D01*
X137064826Y-99232503D01*
X137082972Y-99235485D01*
X137143640Y-99250107D01*
X137173277Y-99261387D01*
X137182568Y-99266353D01*
X137338170Y-99313555D01*
X137499999Y-99329494D01*
X137661828Y-99313555D01*
X137817431Y-99266353D01*
X137882624Y-99231507D01*
X137916070Y-99219371D01*
X137984469Y-99205130D01*
X138033239Y-99204695D01*
X138045163Y-99207569D01*
X138093663Y-99221809D01*
X138117372Y-99231506D01*
X138182565Y-99266352D01*
X138338170Y-99313555D01*
X138499999Y-99329494D01*
X138661828Y-99313555D01*
X138817431Y-99266353D01*
X138882624Y-99231507D01*
X138916070Y-99219371D01*
X138984469Y-99205130D01*
X139033239Y-99204695D01*
X139045163Y-99207569D01*
X139093663Y-99221809D01*
X139117372Y-99231506D01*
X139182565Y-99266352D01*
X139338170Y-99313555D01*
X139499999Y-99329494D01*
X139661828Y-99313555D01*
X139817431Y-99266353D01*
X139882624Y-99231507D01*
X139916070Y-99219371D01*
X139984469Y-99205130D01*
X140033239Y-99204695D01*
X140045163Y-99207569D01*
X140093663Y-99221809D01*
X140117372Y-99231506D01*
X140182565Y-99266352D01*
X140338170Y-99313555D01*
X140499999Y-99329494D01*
X140661828Y-99313555D01*
X140817431Y-99266353D01*
X140882624Y-99231507D01*
X140916070Y-99219371D01*
X140984469Y-99205130D01*
X141033239Y-99204695D01*
X141045163Y-99207569D01*
X141093663Y-99221809D01*
X141117372Y-99231506D01*
X141182565Y-99266352D01*
X141338170Y-99313555D01*
X141499999Y-99329494D01*
X141661828Y-99313555D01*
X141817431Y-99266353D01*
X141882624Y-99231507D01*
X141916070Y-99219371D01*
X141984469Y-99205130D01*
X142033239Y-99204695D01*
X142045163Y-99207569D01*
X142093663Y-99221809D01*
X142117372Y-99231506D01*
X142182565Y-99266352D01*
X142338170Y-99313555D01*
X142499999Y-99329494D01*
X142661828Y-99313555D01*
X142817431Y-99266353D01*
X142882624Y-99231507D01*
X142916070Y-99219371D01*
X142984469Y-99205130D01*
X143033239Y-99204695D01*
X143045163Y-99207569D01*
X143093663Y-99221809D01*
X143117372Y-99231506D01*
X143182565Y-99266352D01*
X143338170Y-99313555D01*
X143499999Y-99329494D01*
X143661828Y-99313555D01*
X143817431Y-99266353D01*
X143882624Y-99231507D01*
X143916070Y-99219371D01*
X143984469Y-99205130D01*
X144033239Y-99204695D01*
X144045163Y-99207569D01*
X144093663Y-99221809D01*
X144117372Y-99231506D01*
X144182565Y-99266352D01*
X144338170Y-99313555D01*
X144499999Y-99329494D01*
X144661828Y-99313555D01*
X144817431Y-99266353D01*
X144882624Y-99231507D01*
X144916070Y-99219371D01*
X144984469Y-99205130D01*
X145033239Y-99204695D01*
X145045163Y-99207569D01*
X145093663Y-99221809D01*
X145117372Y-99231506D01*
X145182565Y-99266352D01*
X145338170Y-99313555D01*
X145499999Y-99329494D01*
X145661828Y-99313555D01*
X145817431Y-99266353D01*
X145882624Y-99231507D01*
X145916070Y-99219371D01*
X145984469Y-99205130D01*
X146033239Y-99204695D01*
X146045163Y-99207569D01*
X146093663Y-99221809D01*
X146117372Y-99231506D01*
X146182565Y-99266352D01*
X146338170Y-99313555D01*
X146499999Y-99329494D01*
X146661828Y-99313555D01*
X146817434Y-99266352D01*
X146960842Y-99189699D01*
X147086541Y-99086541D01*
X147189699Y-98960842D01*
X147266352Y-98817434D01*
X147313555Y-98661828D01*
X147329494Y-98500000D01*
X147313555Y-98338171D01*
X147266353Y-98182568D01*
X147231507Y-98117375D01*
X147219371Y-98083930D01*
X147205130Y-98015532D01*
X147204695Y-97966761D01*
X147207569Y-97954838D01*
X147221809Y-97906337D01*
X147231506Y-97882626D01*
X147266353Y-97817431D01*
X147313555Y-97661828D01*
X147329494Y-97500000D01*
X147313555Y-97338171D01*
X147266353Y-97182568D01*
X147231507Y-97117375D01*
X147219371Y-97083930D01*
X147205130Y-97015532D01*
X147204695Y-96966761D01*
X147207569Y-96954838D01*
X147221809Y-96906337D01*
X147231506Y-96882626D01*
X147266353Y-96817431D01*
X147313555Y-96661828D01*
X147329494Y-96500000D01*
X147313555Y-96338171D01*
X147266353Y-96182568D01*
X147231507Y-96117375D01*
X147219371Y-96083930D01*
X147205130Y-96015532D01*
X147204695Y-95966761D01*
X147207569Y-95954838D01*
X147221809Y-95906337D01*
X147231506Y-95882626D01*
X147266353Y-95817431D01*
X147313555Y-95661828D01*
X147329494Y-95500000D01*
X147313555Y-95338171D01*
X147266353Y-95182568D01*
X147231507Y-95117375D01*
X147219371Y-95083930D01*
X147205130Y-95015532D01*
X147204695Y-94966761D01*
X147207569Y-94954838D01*
X147221809Y-94906337D01*
X147231506Y-94882626D01*
X147266353Y-94817431D01*
X147313555Y-94661828D01*
X147329494Y-94500000D01*
X147313555Y-94338171D01*
X147266353Y-94182568D01*
X147231507Y-94117375D01*
X147219371Y-94083930D01*
X147205130Y-94015532D01*
X147204695Y-93966761D01*
X147207569Y-93954838D01*
X147221809Y-93906337D01*
X147231506Y-93882626D01*
X147266353Y-93817431D01*
X147313555Y-93661828D01*
X147329494Y-93500000D01*
X147313555Y-93338171D01*
X147266353Y-93182568D01*
X147231507Y-93117375D01*
X147219371Y-93083930D01*
X147205130Y-93015532D01*
X147204695Y-92966761D01*
X147207569Y-92954838D01*
X147221809Y-92906337D01*
X147231506Y-92882626D01*
X147266353Y-92817431D01*
X147313555Y-92661828D01*
X147329494Y-92500000D01*
X147313555Y-92338171D01*
X147266353Y-92182568D01*
X147231507Y-92117375D01*
X147219371Y-92083930D01*
X147205130Y-92015532D01*
X147204695Y-91966761D01*
X147207569Y-91954838D01*
X147221809Y-91906337D01*
X147231506Y-91882626D01*
X147266353Y-91817431D01*
X147313555Y-91661828D01*
X147329494Y-91500000D01*
X147313555Y-91338171D01*
X147266353Y-91182568D01*
X147231507Y-91117375D01*
X147219371Y-91083930D01*
X147205130Y-91015532D01*
X147204695Y-90966761D01*
X147207569Y-90954838D01*
X147221809Y-90906337D01*
X147231506Y-90882626D01*
X147266353Y-90817431D01*
X147313555Y-90661828D01*
X147329494Y-90500000D01*
X147313555Y-90338172D01*
X147270664Y-90196781D01*
X147265286Y-90161610D01*
X147264663Y-90091744D01*
X147273751Y-90043825D01*
X147283902Y-90023991D01*
X147321150Y-89964878D01*
X147354702Y-89929479D01*
X147373966Y-89918280D01*
X147437260Y-89888689D01*
X147480723Y-89877285D01*
X147499465Y-89875860D01*
X147508942Y-89875500D01*
X167525500Y-89875500D01*
X167560718Y-89880564D01*
G37*
%TD.AperFunction*%
%TD*%
M02*
