%TF.GenerationSoftware,KiCad,Pcbnew,7.0.11+dfsg-1build4*%
%TF.CreationDate,2026-10-03T06:15:35+00:00*%
%TF.ProjectId,t,742e6b69-6361-4645-9f70-636258585858,rev?*%
%TF.SameCoordinates,Original*%
%TF.FileFunction,Paste,Top*%
%TF.FilePolarity,Positive*%
%FSLAX46Y46*%
G04 Gerber Fmt 4.6, Leading zero omitted, Abs format (unit mm)*
G04 Created by KiCad (PCBNEW 7.0.11+dfsg-1build4) date 2026-10-03 06:15:35*
%MOMM*%
%LPD*%
G01*
G04 APERTURE LIST*
G04 Aperture macros list*
%AMRoundRect*
0 Rectangle with rounded corners*
0 $1 Rounding radius*
0 $2 $3 $4 $5 $6 $7 $8 $9 X,Y pos of 4 corners*
0 Add a 4 corners polygon primitive as box body*
4,1,4,$2,$3,$4,$5,$6,$7,$8,$9,$2,$3,0*
0 Add four circle primitives for the rounded corners*
1,1,$1+$1,$2,$3*
1,1,$1+$1,$4,$5*
1,1,$1+$1,$6,$7*
1,1,$1+$1,$8,$9*
0 Add four rect primitives between the rounded corners*
20,1,$1+$1,$2,$3,$4,$5,0*
20,1,$1+$1,$4,$5,$6,$7,0*
20,1,$1+$1,$6,$7,$8,$9,0*
20,1,$1+$1,$8,$9,$2,$3,0*%
G04 Aperture macros list end*
%ADD10C,0.010000*%
%ADD11R,2.900000X5.400000*%
%ADD12RoundRect,0.250000X0.250000X0.475000X-0.250000X0.475000X-0.250000X-0.475000X0.250000X-0.475000X0*%
%ADD13RoundRect,0.250000X0.312500X0.625000X-0.312500X0.625000X-0.312500X-0.625000X0.312500X-0.625000X0*%
%ADD14RoundRect,0.250000X-0.250000X-0.475000X0.250000X-0.475000X0.250000X0.475000X-0.250000X0.475000X0*%
%ADD15R,1.050000X3.210000*%
%ADD16RoundRect,0.250000X1.000000X0.650000X-1.000000X0.650000X-1.000000X-0.650000X1.000000X-0.650000X0*%
G04 APERTURE END LIST*
%TO.C,VR1*%
D10*
X137990000Y-91950000D02*
X136570000Y-91950000D01*
X136570000Y-90690000D01*
X137990000Y-90690000D01*
X137990000Y-91950000D01*
G36*
X137990000Y-91950000D02*
G01*
X136570000Y-91950000D01*
X136570000Y-90690000D01*
X137990000Y-90690000D01*
X137990000Y-91950000D01*
G37*
X137990000Y-94070000D02*
X136570000Y-94070000D01*
X136570000Y-92810000D01*
X137990000Y-92810000D01*
X137990000Y-94070000D01*
G36*
X137990000Y-94070000D02*
G01*
X136570000Y-94070000D01*
X136570000Y-92810000D01*
X137990000Y-92810000D01*
X137990000Y-94070000D01*
G37*
X137990000Y-96190000D02*
X136570000Y-96190000D01*
X136570000Y-94930000D01*
X137990000Y-94930000D01*
X137990000Y-96190000D01*
G36*
X137990000Y-96190000D02*
G01*
X136570000Y-96190000D01*
X136570000Y-94930000D01*
X137990000Y-94930000D01*
X137990000Y-96190000D01*
G37*
X137990000Y-98310000D02*
X136570000Y-98310000D01*
X136570000Y-97050000D01*
X137990000Y-97050000D01*
X137990000Y-98310000D01*
G36*
X137990000Y-98310000D02*
G01*
X136570000Y-98310000D01*
X136570000Y-97050000D01*
X137990000Y-97050000D01*
X137990000Y-98310000D01*
G37*
X140100000Y-91950000D02*
X138680000Y-91950000D01*
X138680000Y-90690000D01*
X140100000Y-90690000D01*
X140100000Y-91950000D01*
G36*
X140100000Y-91950000D02*
G01*
X138680000Y-91950000D01*
X138680000Y-90690000D01*
X140100000Y-90690000D01*
X140100000Y-91950000D01*
G37*
X140100000Y-94070000D02*
X138680000Y-94070000D01*
X138680000Y-92810000D01*
X140100000Y-92810000D01*
X140100000Y-94070000D01*
G36*
X140100000Y-94070000D02*
G01*
X138680000Y-94070000D01*
X138680000Y-92810000D01*
X140100000Y-92810000D01*
X140100000Y-94070000D01*
G37*
X140100000Y-96190000D02*
X138680000Y-96190000D01*
X138680000Y-94930000D01*
X140100000Y-94930000D01*
X140100000Y-96190000D01*
G36*
X140100000Y-96190000D02*
G01*
X138680000Y-96190000D01*
X138680000Y-94930000D01*
X140100000Y-94930000D01*
X140100000Y-96190000D01*
G37*
X140100000Y-98310000D02*
X138680000Y-98310000D01*
X138680000Y-97050000D01*
X140100000Y-97050000D01*
X140100000Y-98310000D01*
G36*
X140100000Y-98310000D02*
G01*
X138680000Y-98310000D01*
X138680000Y-97050000D01*
X140100000Y-97050000D01*
X140100000Y-98310000D01*
G37*
X142210000Y-91950000D02*
X140790000Y-91950000D01*
X140790000Y-90690000D01*
X142210000Y-90690000D01*
X142210000Y-91950000D01*
G36*
X142210000Y-91950000D02*
G01*
X140790000Y-91950000D01*
X140790000Y-90690000D01*
X142210000Y-90690000D01*
X142210000Y-91950000D01*
G37*
X142210000Y-94070000D02*
X140790000Y-94070000D01*
X140790000Y-92810000D01*
X142210000Y-92810000D01*
X142210000Y-94070000D01*
G36*
X142210000Y-94070000D02*
G01*
X140790000Y-94070000D01*
X140790000Y-92810000D01*
X142210000Y-92810000D01*
X142210000Y-94070000D01*
G37*
X142210000Y-96190000D02*
X140790000Y-96190000D01*
X140790000Y-94930000D01*
X142210000Y-94930000D01*
X142210000Y-96190000D01*
G36*
X142210000Y-96190000D02*
G01*
X140790000Y-96190000D01*
X140790000Y-94930000D01*
X142210000Y-94930000D01*
X142210000Y-96190000D01*
G37*
X142210000Y-98310000D02*
X140790000Y-98310000D01*
X140790000Y-97050000D01*
X142210000Y-97050000D01*
X142210000Y-98310000D01*
G36*
X142210000Y-98310000D02*
G01*
X140790000Y-98310000D01*
X140790000Y-97050000D01*
X142210000Y-97050000D01*
X142210000Y-98310000D01*
G37*
X144320000Y-91950000D02*
X142900000Y-91950000D01*
X142900000Y-90690000D01*
X144320000Y-90690000D01*
X144320000Y-91950000D01*
G36*
X144320000Y-91950000D02*
G01*
X142900000Y-91950000D01*
X142900000Y-90690000D01*
X144320000Y-90690000D01*
X144320000Y-91950000D01*
G37*
X144320000Y-94070000D02*
X142900000Y-94070000D01*
X142900000Y-92810000D01*
X144320000Y-92810000D01*
X144320000Y-94070000D01*
G36*
X144320000Y-94070000D02*
G01*
X142900000Y-94070000D01*
X142900000Y-92810000D01*
X144320000Y-92810000D01*
X144320000Y-94070000D01*
G37*
X144320000Y-96190000D02*
X142900000Y-96190000D01*
X142900000Y-94930000D01*
X144320000Y-94930000D01*
X144320000Y-96190000D01*
G36*
X144320000Y-96190000D02*
G01*
X142900000Y-96190000D01*
X142900000Y-94930000D01*
X144320000Y-94930000D01*
X144320000Y-96190000D01*
G37*
X144320000Y-98310000D02*
X142900000Y-98310000D01*
X142900000Y-97050000D01*
X144320000Y-97050000D01*
X144320000Y-98310000D01*
G36*
X144320000Y-98310000D02*
G01*
X142900000Y-98310000D01*
X142900000Y-97050000D01*
X144320000Y-97050000D01*
X144320000Y-98310000D01*
G37*
X146430000Y-91950000D02*
X145010000Y-91950000D01*
X145010000Y-90690000D01*
X146430000Y-90690000D01*
X146430000Y-91950000D01*
G36*
X146430000Y-91950000D02*
G01*
X145010000Y-91950000D01*
X145010000Y-90690000D01*
X146430000Y-90690000D01*
X146430000Y-91950000D01*
G37*
X146430000Y-94070000D02*
X145010000Y-94070000D01*
X145010000Y-92810000D01*
X146430000Y-92810000D01*
X146430000Y-94070000D01*
G36*
X146430000Y-94070000D02*
G01*
X145010000Y-94070000D01*
X145010000Y-92810000D01*
X146430000Y-92810000D01*
X146430000Y-94070000D01*
G37*
X146430000Y-96190000D02*
X145010000Y-96190000D01*
X145010000Y-94930000D01*
X146430000Y-94930000D01*
X146430000Y-96190000D01*
G36*
X146430000Y-96190000D02*
G01*
X145010000Y-96190000D01*
X145010000Y-94930000D01*
X146430000Y-94930000D01*
X146430000Y-96190000D01*
G37*
X146430000Y-98310000D02*
X145010000Y-98310000D01*
X145010000Y-97050000D01*
X146430000Y-97050000D01*
X146430000Y-98310000D01*
G36*
X146430000Y-98310000D02*
G01*
X145010000Y-98310000D01*
X145010000Y-97050000D01*
X146430000Y-97050000D01*
X146430000Y-98310000D01*
G37*
%TD*%
D11*
%TO.C,L1*%
X150050000Y-96500000D03*
X159950000Y-96500000D03*
%TD*%
D12*
%TO.C,C2*%
X132450000Y-101500000D03*
X130550000Y-101500000D03*
%TD*%
D13*
%TO.C,R1*%
X149962500Y-106500000D03*
X147037500Y-106500000D03*
%TD*%
D14*
%TO.C,C3*%
X163550000Y-94500000D03*
X165450000Y-94500000D03*
%TD*%
D15*
%TO.C,VR1*%
X138100000Y-104130000D03*
X139800000Y-104130000D03*
X141500000Y-104130000D03*
X143200000Y-104130000D03*
X144900000Y-104130000D03*
%TD*%
D16*
%TO.C,D1*%
X134500000Y-105000000D03*
X130500000Y-105000000D03*
%TD*%
M02*
