%TF.GenerationSoftware,KiCad,Pcbnew,7.0.11+dfsg-1build4*%
%TF.CreationDate,2026-10-03T05:49:40+00:00*%
%TF.ProjectId,t,742e6b69-6361-4645-9f70-636258585858,rev?*%
%TF.SameCoordinates,Original*%
%TF.FileFunction,Copper,L2,Bot*%
%TF.FilePolarity,Positive*%
%FSLAX46Y46*%
G04 Gerber Fmt 4.6, Leading zero omitted, Abs format (unit mm)*
G04 Created by KiCad (PCBNEW 7.0.11+dfsg-1build4) date 2026-10-03 05:49:40*
%MOMM*%
%LPD*%
G01*
G04 APERTURE LIST*
%TA.AperFunction,ComponentPad*%
%ADD10C,1.400000*%
%TD*%
%TA.AperFunction,ComponentPad*%
%ADD11O,1.400000X1.400000*%
%TD*%
%TA.AperFunction,ComponentPad*%
%ADD12R,1.600000X1.600000*%
%TD*%
%TA.AperFunction,ComponentPad*%
%ADD13O,1.600000X1.600000*%
%TD*%
%TA.AperFunction,ComponentPad*%
%ADD14R,1.700000X1.700000*%
%TD*%
%TA.AperFunction,ComponentPad*%
%ADD15O,1.700000X1.700000*%
%TD*%
%TA.AperFunction,ComponentPad*%
%ADD16C,1.600000*%
%TD*%
%TA.AperFunction,ComponentPad*%
%ADD17R,3.000000X3.000000*%
%TD*%
%TA.AperFunction,ComponentPad*%
%ADD18C,3.000000*%
%TD*%
%TA.AperFunction,ComponentPad*%
%ADD19R,1.800000X1.800000*%
%TD*%
%TA.AperFunction,ComponentPad*%
%ADD20C,1.800000*%
%TD*%
%TA.AperFunction,Conductor*%
%ADD21C,0.500000*%
%TD*%
G04 APERTURE END LIST*
D10*
%TO.P,R1,1*%
%TO.N,Net-(D1-A)*%
X103940000Y-108250000D03*
D11*
%TO.P,R1,2*%
%TO.N,Net-(D1-K)*%
X111560000Y-108250000D03*
%TD*%
D12*
%TO.P,U1,1,GND*%
%TO.N,GND*%
X102450000Y-96450000D03*
D13*
%TO.P,U1,2,TR*%
%TO.N,Net-(D1-K)*%
X102450000Y-98990000D03*
%TO.P,U1,3,Q*%
%TO.N,/SIG*%
X102450000Y-101530000D03*
%TO.P,U1,4,R*%
%TO.N,/VCC*%
X102450000Y-104070000D03*
%TO.P,U1,5,CV*%
%TO.N,unconnected-(U1-CV-Pad5)*%
X110070000Y-104070000D03*
%TO.P,U1,6,THR*%
%TO.N,Net-(D1-K)*%
X110070000Y-101530000D03*
%TO.P,U1,7,DIS*%
%TO.N,Net-(D1-A)*%
X110070000Y-98990000D03*
%TO.P,U1,8,VCC*%
%TO.N,/VCC*%
X110070000Y-96450000D03*
%TD*%
D10*
%TO.P,R2,1*%
%TO.N,Net-(R2-Pad1)*%
X112440000Y-96000000D03*
D11*
%TO.P,R2,2*%
%TO.N,/VCC*%
X120060000Y-96000000D03*
%TD*%
D10*
%TO.P,R3,1*%
%TO.N,/VCC*%
X98250000Y-84940000D03*
D11*
%TO.P,R3,2*%
%TO.N,Net-(D2-A)*%
X98250000Y-92560000D03*
%TD*%
D14*
%TO.P,J2,1,Pin_1*%
%TO.N,GND*%
X122250000Y-99210000D03*
D15*
%TO.P,J2,2,Pin_2*%
%TO.N,/VCC*%
X122250000Y-101750000D03*
%TO.P,J2,3,Pin_3*%
%TO.N,/SIG*%
X122250000Y-104290000D03*
%TD*%
D16*
%TO.P,C1,1*%
%TO.N,Net-(D1-K)*%
X115750000Y-105250000D03*
%TO.P,C1,2*%
%TO.N,GND*%
X115750000Y-100250000D03*
%TD*%
D14*
%TO.P,J1,1,Pin_1*%
%TO.N,/VCC*%
X94250000Y-91790000D03*
D15*
%TO.P,J1,2,Pin_2*%
%TO.N,GND*%
X94250000Y-89250000D03*
%TD*%
D17*
%TO.P,RV1,1,1*%
%TO.N,Net-(R2-Pad1)*%
X115000000Y-86500000D03*
D18*
%TO.P,RV1,2,2*%
%TO.N,Net-(D1-A)*%
X110000000Y-86500000D03*
%TO.P,RV1,3,3*%
X105000000Y-86500000D03*
%TD*%
D19*
%TO.P,D2,1,K*%
%TO.N,GND*%
X95500000Y-101000000D03*
D20*
%TO.P,D2,2,A*%
%TO.N,Net-(D2-A)*%
X95500000Y-98460000D03*
%TD*%
D12*
%TO.P,D1,1,K*%
%TO.N,Net-(D1-K)*%
X99500000Y-100440000D03*
D13*
%TO.P,D1,2,A*%
%TO.N,Net-(D1-A)*%
X99500000Y-108060000D03*
%TD*%
D21*
%TO.N,Net-(D1-K)*%
X112750000Y-104500000D02*
X115000000Y-106750000D01*
X100950000Y-98990000D02*
X99500000Y-100440000D01*
X115500000Y-106750000D02*
X114000000Y-108250000D01*
X112030000Y-101530000D02*
X112750000Y-102250000D01*
X115750000Y-106500000D02*
X115500000Y-106750000D01*
X115000000Y-106750000D02*
X115500000Y-106750000D01*
X110070000Y-101530000D02*
X112030000Y-101530000D01*
X112750000Y-102250000D02*
X112750000Y-104500000D01*
X114000000Y-108250000D02*
X111560000Y-108250000D01*
X115750000Y-105250000D02*
X115750000Y-106500000D01*
X102450000Y-98990000D02*
X100950000Y-98990000D01*
%TO.N,Net-(D1-A)*%
X116500000Y-83500000D02*
X113000000Y-83500000D01*
X99690000Y-108250000D02*
X99500000Y-108060000D01*
X107000000Y-100000000D02*
X107000000Y-104000000D01*
X110070000Y-98990000D02*
X114010000Y-98990000D01*
X108010000Y-98990000D02*
X107000000Y-100000000D01*
X113000000Y-83500000D02*
X110000000Y-86500000D01*
X118000000Y-85000000D02*
X116500000Y-83500000D01*
X105000000Y-86500000D02*
X110000000Y-86500000D01*
X114010000Y-98990000D02*
X118000000Y-95000000D01*
X110070000Y-98990000D02*
X108010000Y-98990000D01*
X103940000Y-107060000D02*
X103940000Y-108250000D01*
X107000000Y-104000000D02*
X103940000Y-107060000D01*
X103940000Y-108250000D02*
X99690000Y-108250000D01*
X118000000Y-95000000D02*
X118000000Y-85000000D01*
%TO.N,Net-(D2-A)*%
X98250000Y-92560000D02*
X98250000Y-95710000D01*
X98250000Y-95710000D02*
X95500000Y-98460000D01*
%TO.N,/VCC*%
X105750000Y-102750000D02*
X105750000Y-96900000D01*
X98250000Y-89750000D02*
X99500000Y-91000000D01*
X102500000Y-92750000D02*
X102500000Y-92250000D01*
X98250000Y-84940000D02*
X98250000Y-89750000D01*
X102450000Y-104070000D02*
X104430000Y-104070000D01*
X101250000Y-91000000D02*
X99500000Y-91000000D01*
X120750000Y-101750000D02*
X120000000Y-101000000D01*
X106200000Y-96450000D02*
X102500000Y-92750000D01*
X104430000Y-104070000D02*
X105750000Y-102750000D01*
X102500000Y-92250000D02*
X101250000Y-91000000D01*
X105750000Y-96900000D02*
X106200000Y-96450000D01*
X95040000Y-91000000D02*
X94250000Y-91790000D01*
X99500000Y-91000000D02*
X95040000Y-91000000D01*
X110070000Y-96450000D02*
X106200000Y-96450000D01*
X122250000Y-101750000D02*
X120750000Y-101750000D01*
X120060000Y-100940000D02*
X120060000Y-96000000D01*
X120000000Y-101000000D02*
X120060000Y-100940000D01*
%TO.N,Net-(R2-Pad1)*%
X115000000Y-86500000D02*
X115000000Y-93440000D01*
X115000000Y-93440000D02*
X112440000Y-96000000D01*
%TD*%
%TA.AperFunction,Conductor*%
%TO.N,GND*%
G36*
X97146938Y-91630564D02*
G01*
X97213977Y-91650249D01*
X97257193Y-91672855D01*
X97273228Y-91688327D01*
X97318983Y-91741131D01*
X97343117Y-91783514D01*
X97348242Y-91805199D01*
X97358186Y-91874357D01*
X97355575Y-91923059D01*
X97353786Y-91929374D01*
X97342048Y-91966999D01*
X97334615Y-91985489D01*
X97242827Y-92169822D01*
X97188282Y-92361528D01*
X97169892Y-92559999D01*
X97188283Y-92758469D01*
X97242833Y-92950189D01*
X97331675Y-93128606D01*
X97451789Y-93287662D01*
X97543251Y-93371040D01*
X97565866Y-93398508D01*
X97602146Y-93458218D01*
X97618853Y-93504039D01*
X97619261Y-93506895D01*
X97623442Y-93538821D01*
X97624500Y-93555052D01*
X97624500Y-95347769D01*
X97619436Y-95382987D01*
X97599751Y-95450026D01*
X97577146Y-95493241D01*
X97560512Y-95513883D01*
X97551569Y-95523838D01*
X95940750Y-97134656D01*
X95912268Y-97155978D01*
X95850945Y-97189463D01*
X95804401Y-97204037D01*
X95794093Y-97204716D01*
X95747326Y-97205859D01*
X95723698Y-97204191D01*
X95605693Y-97184500D01*
X95394307Y-97184500D01*
X95185807Y-97219291D01*
X94985879Y-97287927D01*
X94799966Y-97388539D01*
X94633168Y-97518365D01*
X94489995Y-97673893D01*
X94374387Y-97850845D01*
X94289473Y-98044428D01*
X94237581Y-98249345D01*
X94220128Y-98460004D01*
X94237583Y-98670662D01*
X94289473Y-98875571D01*
X94374387Y-99069153D01*
X94489997Y-99246108D01*
X94578133Y-99341850D01*
X94598259Y-99371189D01*
X94629181Y-99433843D01*
X94641819Y-99480949D01*
X94641295Y-99503228D01*
X94633434Y-99572654D01*
X94618598Y-99619115D01*
X94606115Y-99637571D01*
X94561968Y-99691727D01*
X94524368Y-99722791D01*
X94522707Y-99723670D01*
X94495897Y-99737598D01*
X94481955Y-99743793D01*
X94418428Y-99767487D01*
X94332105Y-99832110D01*
X94267483Y-99918433D01*
X94229006Y-100021597D01*
X94225000Y-100058860D01*
X94225000Y-100625000D01*
X95124722Y-100625000D01*
X95172557Y-100634515D01*
X95213110Y-100661612D01*
X95240207Y-100702165D01*
X95249722Y-100750000D01*
X95240207Y-100797835D01*
X95232975Y-100812500D01*
X95197149Y-100874552D01*
X95175000Y-100957214D01*
X95175000Y-101042785D01*
X95197149Y-101125447D01*
X95232975Y-101187500D01*
X95248653Y-101233685D01*
X95247533Y-101250767D01*
X95250000Y-101250277D01*
X95297835Y-101259792D01*
X95312501Y-101267024D01*
X95374554Y-101302851D01*
X95457214Y-101325000D01*
X95542786Y-101325000D01*
X95625445Y-101302851D01*
X95687499Y-101267024D01*
X95733683Y-101251347D01*
X95750768Y-101252466D01*
X95750278Y-101250000D01*
X95759793Y-101202165D01*
X95767025Y-101187500D01*
X95802850Y-101125447D01*
X95825000Y-101042785D01*
X95825000Y-100957214D01*
X95802850Y-100874552D01*
X95767025Y-100812500D01*
X95751347Y-100766315D01*
X95754537Y-100717647D01*
X95776109Y-100673905D01*
X95812778Y-100641747D01*
X95858963Y-100626069D01*
X95875278Y-100625000D01*
X96775000Y-100625000D01*
X96774999Y-100058855D01*
X96770991Y-100021596D01*
X96732512Y-99918429D01*
X96667888Y-99832105D01*
X96581564Y-99767483D01*
X96518047Y-99743793D01*
X96486820Y-99726742D01*
X96430886Y-99684871D01*
X96398294Y-99648588D01*
X96388676Y-99628486D01*
X96364259Y-99563021D01*
X96356458Y-99514876D01*
X96359235Y-99492767D01*
X96374087Y-99424494D01*
X96393553Y-99379775D01*
X96394633Y-99378243D01*
X96412229Y-99353694D01*
X96421861Y-99341855D01*
X96509999Y-99246111D01*
X96625611Y-99069154D01*
X96710525Y-98875570D01*
X96762417Y-98670653D01*
X96779871Y-98459993D01*
X96761561Y-98239017D01*
X96761879Y-98238990D01*
X96759634Y-98217736D01*
X96762254Y-98147919D01*
X96773556Y-98100474D01*
X96780879Y-98086820D01*
X96810779Y-98038513D01*
X96828678Y-98015912D01*
X98735855Y-96108735D01*
X98758396Y-96075000D01*
X101275000Y-96075000D01*
X102075000Y-96075000D01*
X102075000Y-95275000D01*
X102825000Y-95275000D01*
X102825000Y-96075000D01*
X103625000Y-96075000D01*
X103624999Y-95608855D01*
X103620991Y-95571596D01*
X103582512Y-95468429D01*
X103517888Y-95382105D01*
X103431565Y-95317483D01*
X103328401Y-95279006D01*
X103291139Y-95275000D01*
X102825000Y-95275000D01*
X102075000Y-95275000D01*
X101608855Y-95275000D01*
X101571596Y-95279007D01*
X101468429Y-95317486D01*
X101382105Y-95382110D01*
X101317483Y-95468433D01*
X101279006Y-95571597D01*
X101275000Y-95608860D01*
X101275000Y-96075000D01*
X98758396Y-96075000D01*
X98804310Y-96006284D01*
X98851461Y-95892451D01*
X98875500Y-95771608D01*
X98875500Y-93555052D01*
X98880564Y-93519834D01*
X98900249Y-93452795D01*
X98922855Y-93409579D01*
X98924687Y-93407359D01*
X98945459Y-93382764D01*
X98956746Y-93371041D01*
X99048210Y-93287661D01*
X99168325Y-93128604D01*
X99257170Y-92950178D01*
X99311716Y-92758470D01*
X99330107Y-92560000D01*
X99311716Y-92361531D01*
X99257164Y-92169807D01*
X99165385Y-91985489D01*
X99154220Y-91951707D01*
X99141959Y-91882921D01*
X99142932Y-91834158D01*
X99149634Y-91812909D01*
X99176507Y-91748414D01*
X99203689Y-91707918D01*
X99220818Y-91693663D01*
X99278294Y-91653936D01*
X99323055Y-91634565D01*
X99329501Y-91633353D01*
X99368413Y-91627089D01*
X99388280Y-91625500D01*
X100887770Y-91625500D01*
X100922988Y-91630564D01*
X100990027Y-91650249D01*
X101033242Y-91672854D01*
X101053884Y-91689488D01*
X101063839Y-91698431D01*
X101801569Y-92436161D01*
X101822891Y-92464643D01*
X101856376Y-92525966D01*
X101870950Y-92572509D01*
X101873784Y-92598867D01*
X101874500Y-92612231D01*
X101874499Y-92811606D01*
X101898538Y-92932454D01*
X101945690Y-93046286D01*
X102014147Y-93148740D01*
X105160714Y-96295306D01*
X105182036Y-96323788D01*
X105215521Y-96385111D01*
X105230095Y-96431655D01*
X105230493Y-96453934D01*
X105225509Y-96523626D01*
X105212606Y-96570660D01*
X105212103Y-96571654D01*
X105199030Y-96597200D01*
X105196844Y-96600921D01*
X105148536Y-96717550D01*
X105124500Y-96838390D01*
X105124500Y-102387770D01*
X105119436Y-102422988D01*
X105099751Y-102490027D01*
X105077146Y-102533242D01*
X105060512Y-102553884D01*
X105051569Y-102563839D01*
X104243839Y-103371569D01*
X104215357Y-103392891D01*
X104154034Y-103426376D01*
X104107491Y-103440950D01*
X104081133Y-103443784D01*
X104067770Y-103444500D01*
X103576663Y-103444500D01*
X103541445Y-103439436D01*
X103474406Y-103419751D01*
X103431190Y-103397145D01*
X103423007Y-103389940D01*
X103388471Y-103356748D01*
X103372694Y-103338320D01*
X103353922Y-103311511D01*
X103208489Y-103166078D01*
X103039987Y-103048094D01*
X102991896Y-103025669D01*
X102962121Y-103006198D01*
X102909682Y-102960027D01*
X102880067Y-102921275D01*
X102872073Y-102900474D01*
X102852921Y-102833281D01*
X102848959Y-102784670D01*
X102853479Y-102762852D01*
X102873694Y-102695970D01*
X102896642Y-102652933D01*
X102911492Y-102637665D01*
X102962869Y-102593148D01*
X102991898Y-102574329D01*
X103039997Y-102551899D01*
X103208485Y-102433924D01*
X103353924Y-102288485D01*
X103471901Y-102119994D01*
X103558828Y-101933581D01*
X103612064Y-101734900D01*
X103629990Y-101530000D01*
X103612064Y-101325099D01*
X103558828Y-101126418D01*
X103471901Y-100940005D01*
X103353921Y-100771510D01*
X103208489Y-100626078D01*
X103039990Y-100508096D01*
X102991898Y-100485671D01*
X102962122Y-100466199D01*
X102909682Y-100420027D01*
X102880067Y-100381275D01*
X102872073Y-100360474D01*
X102852921Y-100293281D01*
X102848959Y-100244670D01*
X102853479Y-100222852D01*
X102873694Y-100155970D01*
X102896642Y-100112933D01*
X102911492Y-100097665D01*
X102962869Y-100053148D01*
X102991898Y-100034329D01*
X103039997Y-100011899D01*
X103208485Y-99893924D01*
X103353924Y-99748485D01*
X103471901Y-99579994D01*
X103558828Y-99393581D01*
X103612064Y-99194900D01*
X103629990Y-98990000D01*
X103612064Y-98785099D01*
X103558828Y-98586418D01*
X103471901Y-98400005D01*
X103353921Y-98231510D01*
X103208489Y-98086078D01*
X103192215Y-98074683D01*
X103166271Y-98050336D01*
X103122646Y-97995759D01*
X103100212Y-97952453D01*
X103095951Y-97930579D01*
X103088759Y-97861080D01*
X103093300Y-97812519D01*
X103101540Y-97791818D01*
X103133062Y-97729464D01*
X103163135Y-97691066D01*
X103181260Y-97678105D01*
X103241490Y-97642691D01*
X103282894Y-97627388D01*
X103299828Y-97624367D01*
X103308417Y-97623140D01*
X103328405Y-97620990D01*
X103431570Y-97582511D01*
X103517893Y-97517888D01*
X103582515Y-97431565D01*
X103620992Y-97328401D01*
X103625000Y-97291124D01*
X103625000Y-96825000D01*
X102765686Y-96825000D01*
X102717851Y-96815485D01*
X102677298Y-96788388D01*
X102650201Y-96747835D01*
X102640686Y-96700000D01*
X102650201Y-96652165D01*
X102662627Y-96633568D01*
X102661827Y-96633106D01*
X102706258Y-96556147D01*
X102725000Y-96486203D01*
X102725000Y-96413796D01*
X102706258Y-96343852D01*
X102661827Y-96266894D01*
X102662627Y-96266431D01*
X102650987Y-96249012D01*
X102633568Y-96237372D01*
X102633106Y-96238173D01*
X102556147Y-96193741D01*
X102486204Y-96175000D01*
X102413796Y-96175000D01*
X102343852Y-96193741D01*
X102266894Y-96238173D01*
X102266431Y-96237372D01*
X102249012Y-96249012D01*
X102237372Y-96266431D01*
X102238173Y-96266894D01*
X102193741Y-96343852D01*
X102175000Y-96413796D01*
X102175000Y-96486203D01*
X102193741Y-96556147D01*
X102238173Y-96633106D01*
X102237372Y-96633568D01*
X102249799Y-96652165D01*
X102259314Y-96700000D01*
X102249799Y-96747835D01*
X102222702Y-96788388D01*
X102182149Y-96815485D01*
X102134314Y-96825000D01*
X101275000Y-96825000D01*
X101275000Y-97291143D01*
X101279007Y-97328402D01*
X101317486Y-97431569D01*
X101382110Y-97517893D01*
X101468433Y-97582515D01*
X101571597Y-97620992D01*
X101591582Y-97623141D01*
X101626054Y-97631940D01*
X101690605Y-97658678D01*
X101731157Y-97685775D01*
X101745446Y-97702871D01*
X101785295Y-97760263D01*
X101804761Y-97804983D01*
X101807538Y-97827095D01*
X101810031Y-97896920D01*
X101802229Y-97945064D01*
X101792613Y-97965163D01*
X101756961Y-98025252D01*
X101728082Y-98058646D01*
X101714711Y-98069464D01*
X101707785Y-98074681D01*
X101691514Y-98086073D01*
X101546076Y-98231511D01*
X101527307Y-98258318D01*
X101502959Y-98284264D01*
X101448382Y-98327889D01*
X101405076Y-98350323D01*
X101394479Y-98352894D01*
X101347481Y-98362146D01*
X101323337Y-98364500D01*
X100888388Y-98364500D01*
X100767543Y-98388538D01*
X100653713Y-98435689D01*
X100551264Y-98504142D01*
X99863838Y-99191569D01*
X99835356Y-99212891D01*
X99774033Y-99246376D01*
X99727490Y-99260950D01*
X99701132Y-99263784D01*
X99687769Y-99264500D01*
X98658820Y-99264500D01*
X98621486Y-99268513D01*
X98518188Y-99307042D01*
X98431748Y-99371753D01*
X98367040Y-99458192D01*
X98328514Y-99561487D01*
X98324500Y-99598832D01*
X98324500Y-101281178D01*
X98328513Y-101318512D01*
X98367042Y-101421810D01*
X98431753Y-101508250D01*
X98518191Y-101572957D01*
X98621488Y-101611485D01*
X98658829Y-101615499D01*
X100341172Y-101615499D01*
X100378512Y-101611485D01*
X100481809Y-101572957D01*
X100568249Y-101508249D01*
X100632957Y-101421809D01*
X100671485Y-101318511D01*
X100675499Y-101281170D01*
X100675499Y-100252228D01*
X100680562Y-100217012D01*
X100700246Y-100149974D01*
X100722852Y-100106757D01*
X100739482Y-100086120D01*
X100748425Y-100076165D01*
X101136160Y-99688431D01*
X101164642Y-99667109D01*
X101225965Y-99633624D01*
X101272508Y-99619050D01*
X101298866Y-99616216D01*
X101312229Y-99615500D01*
X101323337Y-99615500D01*
X101358555Y-99620564D01*
X101425594Y-99640249D01*
X101468810Y-99662855D01*
X101476993Y-99670060D01*
X101511529Y-99703252D01*
X101527306Y-99721680D01*
X101546074Y-99748484D01*
X101691517Y-99893926D01*
X101860002Y-100011899D01*
X101908102Y-100034329D01*
X101937880Y-100053802D01*
X101990319Y-100099975D01*
X102019933Y-100138728D01*
X102027926Y-100159527D01*
X102047078Y-100226720D01*
X102051040Y-100275331D01*
X102046519Y-100297151D01*
X102026303Y-100364032D01*
X102003355Y-100407069D01*
X101988508Y-100422333D01*
X101937133Y-100466850D01*
X101908101Y-100485671D01*
X101860000Y-100508100D01*
X101691513Y-100626074D01*
X101546078Y-100771509D01*
X101428098Y-100940004D01*
X101341167Y-101126428D01*
X101287934Y-101325102D01*
X101270009Y-101530000D01*
X101287936Y-101734905D01*
X101341171Y-101933582D01*
X101428099Y-102119997D01*
X101546072Y-102288482D01*
X101691517Y-102433926D01*
X101860002Y-102551899D01*
X101908102Y-102574329D01*
X101937880Y-102593802D01*
X101990319Y-102639975D01*
X102019933Y-102678728D01*
X102027926Y-102699527D01*
X102047078Y-102766720D01*
X102051040Y-102815331D01*
X102046519Y-102837151D01*
X102026303Y-102904032D01*
X102003355Y-102947069D01*
X101988508Y-102962333D01*
X101937133Y-103006850D01*
X101908101Y-103025671D01*
X101860000Y-103048100D01*
X101691513Y-103166074D01*
X101546078Y-103311509D01*
X101428098Y-103480004D01*
X101341167Y-103666428D01*
X101287934Y-103865102D01*
X101270009Y-104070000D01*
X101287936Y-104274905D01*
X101341171Y-104473582D01*
X101428099Y-104659997D01*
X101546072Y-104828482D01*
X101691517Y-104973926D01*
X101860005Y-105091901D01*
X102046418Y-105178828D01*
X102245099Y-105232064D01*
X102450001Y-105249990D01*
X102654900Y-105232064D01*
X102853581Y-105178828D01*
X103039994Y-105091901D01*
X103208485Y-104973924D01*
X103353924Y-104828485D01*
X103372694Y-104801680D01*
X103397041Y-104775736D01*
X103451618Y-104732111D01*
X103494924Y-104709677D01*
X103505521Y-104707106D01*
X103552519Y-104697854D01*
X103576663Y-104695500D01*
X104491608Y-104695500D01*
X104612451Y-104671461D01*
X104726284Y-104624310D01*
X104828735Y-104555856D01*
X105949431Y-103435161D01*
X105977913Y-103413839D01*
X106039236Y-103380354D01*
X106085780Y-103365780D01*
X106108059Y-103365382D01*
X106177751Y-103370366D01*
X106224785Y-103383269D01*
X106243745Y-103394981D01*
X106299678Y-103436853D01*
X106332270Y-103473138D01*
X106341886Y-103493237D01*
X106366303Y-103558701D01*
X106374104Y-103597922D01*
X106374420Y-103606768D01*
X106374500Y-103611230D01*
X106374500Y-103637769D01*
X106369436Y-103672987D01*
X106349751Y-103740026D01*
X106327146Y-103783241D01*
X106310512Y-103803883D01*
X106301569Y-103813838D01*
X103454141Y-106661266D01*
X103385687Y-106763718D01*
X103338536Y-106877552D01*
X103314500Y-106998390D01*
X103314500Y-107254947D01*
X103309436Y-107290165D01*
X103289751Y-107357204D01*
X103267145Y-107400420D01*
X103265308Y-107402646D01*
X103244531Y-107427244D01*
X103233249Y-107438961D01*
X103141795Y-107522330D01*
X103139363Y-107525552D01*
X103114093Y-107550612D01*
X103057983Y-107592247D01*
X103013898Y-107613111D01*
X103005429Y-107614925D01*
X102962586Y-107622561D01*
X102940653Y-107624500D01*
X100752574Y-107624500D01*
X100717356Y-107619436D01*
X100650317Y-107599751D01*
X100607101Y-107577145D01*
X100591393Y-107562048D01*
X100546050Y-107510138D01*
X100526903Y-107480732D01*
X100521899Y-107470002D01*
X100403921Y-107301510D01*
X100258489Y-107156078D01*
X100089994Y-107038098D01*
X99903570Y-106951167D01*
X99704896Y-106897934D01*
X99499998Y-106880009D01*
X99295093Y-106897936D01*
X99096416Y-106951171D01*
X98910001Y-107038099D01*
X98741513Y-107156074D01*
X98596078Y-107301509D01*
X98478098Y-107470004D01*
X98391167Y-107656428D01*
X98337934Y-107855102D01*
X98320009Y-108060000D01*
X98337936Y-108264905D01*
X98391171Y-108463582D01*
X98478099Y-108649997D01*
X98596074Y-108818485D01*
X98741510Y-108963921D01*
X98910005Y-109081901D01*
X99055677Y-109149830D01*
X99085454Y-109169302D01*
X99137893Y-109215475D01*
X99167507Y-109254228D01*
X99175500Y-109275027D01*
X99194652Y-109342220D01*
X99198614Y-109390831D01*
X99194093Y-109412651D01*
X99173877Y-109479532D01*
X99150929Y-109522569D01*
X99135330Y-109538480D01*
X99082165Y-109583815D01*
X99039593Y-109607612D01*
X99027144Y-109610948D01*
X98976529Y-109621748D01*
X98950444Y-109624500D01*
X96623687Y-109624500D01*
X96588469Y-109619436D01*
X96521430Y-109599751D01*
X96478214Y-109577145D01*
X96462179Y-109561673D01*
X96416424Y-109508869D01*
X96392290Y-109466486D01*
X96387165Y-109444801D01*
X96377221Y-109375643D01*
X96379832Y-109326941D01*
X96387245Y-109305926D01*
X96416270Y-109242370D01*
X96444792Y-109202814D01*
X96464190Y-109184752D01*
X96474469Y-109176162D01*
X96481335Y-109171022D01*
X96671024Y-108981333D01*
X96831802Y-108766559D01*
X96960371Y-108531102D01*
X97054127Y-108279735D01*
X97111151Y-108017598D01*
X97130290Y-107750000D01*
X97111151Y-107482401D01*
X97054127Y-107220264D01*
X96960371Y-106968897D01*
X96831800Y-106733437D01*
X96671030Y-106518673D01*
X96481322Y-106328965D01*
X96266557Y-106168196D01*
X96031108Y-106039630D01*
X95779726Y-105945869D01*
X95517603Y-105888848D01*
X95249999Y-105869709D01*
X94982395Y-105888848D01*
X94720272Y-105945869D01*
X94468894Y-106039628D01*
X94233434Y-106168200D01*
X94018673Y-106328968D01*
X93828967Y-106518674D01*
X93823835Y-106525531D01*
X93798674Y-106550693D01*
X93742739Y-106592564D01*
X93698742Y-106613613D01*
X93676746Y-106617177D01*
X93607055Y-106622160D01*
X93558663Y-106616080D01*
X93538232Y-106607187D01*
X93476909Y-106573701D01*
X93439486Y-106542424D01*
X93427106Y-106523896D01*
X93393622Y-106462572D01*
X93379049Y-106416028D01*
X93379049Y-106416027D01*
X93376216Y-106389671D01*
X93375500Y-106376312D01*
X93375500Y-101941143D01*
X94225000Y-101941143D01*
X94229007Y-101978402D01*
X94267486Y-102081569D01*
X94332110Y-102167893D01*
X94418433Y-102232515D01*
X94521597Y-102270992D01*
X94558874Y-102275000D01*
X95125000Y-102275000D01*
X95125000Y-101375277D01*
X95125059Y-101374977D01*
X95124722Y-101375000D01*
X94225000Y-101375000D01*
X94225000Y-101941143D01*
X93375500Y-101941143D01*
X93375500Y-101374940D01*
X95874977Y-101374940D01*
X95875000Y-101375277D01*
X95875000Y-102274999D01*
X96441143Y-102274999D01*
X96478402Y-102270991D01*
X96581569Y-102232512D01*
X96667893Y-102167888D01*
X96732515Y-102081565D01*
X96770992Y-101978401D01*
X96775000Y-101941124D01*
X96775000Y-101375000D01*
X95875278Y-101375000D01*
X95874977Y-101374940D01*
X93375500Y-101374940D01*
X93375500Y-93264499D01*
X93380564Y-93229281D01*
X93400249Y-93162242D01*
X93422855Y-93119026D01*
X93438327Y-93102991D01*
X93491131Y-93057236D01*
X93533514Y-93033102D01*
X93546417Y-93029562D01*
X93597928Y-93018356D01*
X93624500Y-93015499D01*
X95141173Y-93015499D01*
X95178512Y-93011485D01*
X95281809Y-92972957D01*
X95368249Y-92908249D01*
X95432957Y-92821809D01*
X95471485Y-92718511D01*
X95475499Y-92681170D01*
X95475499Y-91874499D01*
X95480562Y-91839283D01*
X95500246Y-91772245D01*
X95522853Y-91729028D01*
X95538325Y-91712992D01*
X95591129Y-91667237D01*
X95633512Y-91643103D01*
X95646416Y-91639563D01*
X95697928Y-91628357D01*
X95724499Y-91625500D01*
X97111720Y-91625500D01*
X97146938Y-91630564D01*
G37*
%TD.AperFunction*%
%TA.AperFunction,Conductor*%
G36*
X119911531Y-82630564D02*
G01*
X119978570Y-82650249D01*
X120021786Y-82672855D01*
X120037821Y-82688327D01*
X120083576Y-82741131D01*
X120107710Y-82783514D01*
X120112835Y-82805199D01*
X120122779Y-82874357D01*
X120120168Y-82923059D01*
X120112755Y-82944074D01*
X120083730Y-83007630D01*
X120055203Y-83047190D01*
X120035804Y-83065251D01*
X120025541Y-83073828D01*
X120018665Y-83078975D01*
X119828962Y-83268680D01*
X119668196Y-83483441D01*
X119539630Y-83718891D01*
X119445869Y-83970272D01*
X119388848Y-84232395D01*
X119369709Y-84500000D01*
X119388848Y-84767603D01*
X119445872Y-85029735D01*
X119539628Y-85281104D01*
X119668200Y-85516564D01*
X119828968Y-85731325D01*
X120018676Y-85921033D01*
X120233441Y-86081802D01*
X120468897Y-86210371D01*
X120720273Y-86304129D01*
X120982400Y-86361151D01*
X121250000Y-86380290D01*
X121517598Y-86361151D01*
X121779735Y-86304127D01*
X122031102Y-86210371D01*
X122266559Y-86081802D01*
X122481333Y-85921024D01*
X122671024Y-85731333D01*
X122676161Y-85724471D01*
X122701325Y-85699306D01*
X122757257Y-85657437D01*
X122801253Y-85636388D01*
X122823247Y-85632825D01*
X122892939Y-85627840D01*
X122941331Y-85633917D01*
X122961762Y-85642810D01*
X123023085Y-85676294D01*
X123060509Y-85707570D01*
X123072889Y-85726097D01*
X123106375Y-85787420D01*
X123120950Y-85833964D01*
X123120950Y-85833966D01*
X123123784Y-85860325D01*
X123124500Y-85873687D01*
X123124500Y-97736000D01*
X123119436Y-97771218D01*
X123099751Y-97838257D01*
X123077145Y-97881473D01*
X123061673Y-97897508D01*
X123008869Y-97943263D01*
X122966486Y-97967397D01*
X122953583Y-97970937D01*
X122902072Y-97982143D01*
X122875500Y-97985000D01*
X122625000Y-97985000D01*
X122625000Y-98776988D01*
X122615485Y-98824823D01*
X122588388Y-98865376D01*
X122547835Y-98892473D01*
X122500000Y-98901988D01*
X122452165Y-98892473D01*
X122437500Y-98885241D01*
X122394746Y-98860557D01*
X122299367Y-98835000D01*
X122200633Y-98835000D01*
X122105253Y-98860557D01*
X122062500Y-98885241D01*
X122016316Y-98900919D01*
X121967648Y-98897729D01*
X121923905Y-98876157D01*
X121891747Y-98839488D01*
X121876069Y-98793304D01*
X121875000Y-98776988D01*
X121875000Y-97985000D01*
X121358855Y-97985000D01*
X121321596Y-97989007D01*
X121218429Y-98027486D01*
X121129811Y-98093827D01*
X121108671Y-98114966D01*
X121052736Y-98156835D01*
X121008739Y-98177882D01*
X120986743Y-98181446D01*
X120917051Y-98186428D01*
X120868659Y-98180348D01*
X120848228Y-98171454D01*
X120786906Y-98137967D01*
X120749483Y-98106689D01*
X120737104Y-98088162D01*
X120703621Y-98026838D01*
X120689049Y-97980295D01*
X120686216Y-97953941D01*
X120685500Y-97940581D01*
X120685500Y-96995052D01*
X120690564Y-96959834D01*
X120710249Y-96892795D01*
X120732855Y-96849579D01*
X120734687Y-96847359D01*
X120755459Y-96822764D01*
X120766746Y-96811041D01*
X120858210Y-96727661D01*
X120978325Y-96568604D01*
X121067170Y-96390178D01*
X121121716Y-96198470D01*
X121140107Y-96000000D01*
X121121716Y-95801529D01*
X121067171Y-95609821D01*
X120978323Y-95431392D01*
X120858208Y-95272334D01*
X120710909Y-95138054D01*
X120541440Y-95033126D01*
X120355588Y-94961126D01*
X120159658Y-94924500D01*
X119960342Y-94924500D01*
X119764411Y-94961126D01*
X119578550Y-95033128D01*
X119409089Y-95138055D01*
X119261794Y-95272331D01*
X119141672Y-95431401D01*
X119052827Y-95609825D01*
X118998282Y-95801528D01*
X118979892Y-95999999D01*
X118998283Y-96198469D01*
X119052833Y-96390189D01*
X119141675Y-96568606D01*
X119261789Y-96727662D01*
X119353251Y-96811040D01*
X119375866Y-96838508D01*
X119412146Y-96898218D01*
X119428853Y-96944039D01*
X119429261Y-96946895D01*
X119433442Y-96978821D01*
X119434500Y-96995052D01*
X119434500Y-100681201D01*
X119432098Y-100705588D01*
X119422659Y-100753040D01*
X119415547Y-100776487D01*
X119398535Y-100817557D01*
X119374499Y-100938393D01*
X119374499Y-101061606D01*
X119398538Y-101182451D01*
X119445689Y-101296283D01*
X119514147Y-101398740D01*
X120351266Y-102235858D01*
X120453719Y-102304313D01*
X120567550Y-102351462D01*
X120688394Y-102375500D01*
X121062299Y-102375500D01*
X121097517Y-102380564D01*
X121164556Y-102400249D01*
X121207772Y-102422855D01*
X121215955Y-102430060D01*
X121250490Y-102463251D01*
X121266267Y-102481679D01*
X121307625Y-102540744D01*
X121459259Y-102692377D01*
X121635855Y-102816031D01*
X121661799Y-102840378D01*
X121705424Y-102894955D01*
X121727858Y-102938261D01*
X121732119Y-102960132D01*
X121739313Y-103029630D01*
X121734773Y-103078190D01*
X121726532Y-103098896D01*
X121695009Y-103161251D01*
X121665311Y-103199324D01*
X121646015Y-103216044D01*
X121635855Y-103223969D01*
X121459250Y-103347627D01*
X121307627Y-103499250D01*
X121184632Y-103674907D01*
X121094003Y-103869261D01*
X121038506Y-104076385D01*
X121019818Y-104289999D01*
X121038508Y-104503621D01*
X121094008Y-104710751D01*
X121184631Y-104905092D01*
X121307627Y-105080747D01*
X121459252Y-105232372D01*
X121634906Y-105355366D01*
X121829264Y-105445996D01*
X121854903Y-105452866D01*
X121887610Y-105466871D01*
X121893426Y-105470415D01*
X121908239Y-105470063D01*
X121931484Y-105473971D01*
X121943113Y-105476500D01*
X122036385Y-105501492D01*
X122250000Y-105520181D01*
X122463616Y-105501492D01*
X122670748Y-105445992D01*
X122770269Y-105399584D01*
X122804327Y-105389289D01*
X122873402Y-105378798D01*
X122922124Y-105381023D01*
X122943194Y-105388268D01*
X123006978Y-105416787D01*
X123046763Y-105444999D01*
X123060573Y-105462488D01*
X123098813Y-105520965D01*
X123117030Y-105566207D01*
X123117852Y-105571096D01*
X123123156Y-105606974D01*
X123124500Y-105625255D01*
X123124500Y-106376312D01*
X123119436Y-106411530D01*
X123099751Y-106478569D01*
X123077145Y-106521785D01*
X123061673Y-106537820D01*
X123008869Y-106583575D01*
X122966486Y-106607709D01*
X122944801Y-106612834D01*
X122875643Y-106622778D01*
X122826941Y-106620167D01*
X122805926Y-106612754D01*
X122742370Y-106583729D01*
X122702810Y-106555202D01*
X122684747Y-106535801D01*
X122676174Y-106525544D01*
X122671024Y-106518666D01*
X122481318Y-106328962D01*
X122266557Y-106168196D01*
X122031108Y-106039630D01*
X121791650Y-105950316D01*
X121774852Y-105941143D01*
X121752220Y-105938982D01*
X121737532Y-105936691D01*
X121517603Y-105888848D01*
X121249999Y-105869709D01*
X120982395Y-105888848D01*
X120720272Y-105945869D01*
X120468894Y-106039628D01*
X120233434Y-106168200D01*
X120018673Y-106328968D01*
X119828965Y-106518676D01*
X119668196Y-106733441D01*
X119539630Y-106968891D01*
X119445869Y-107220272D01*
X119388848Y-107482395D01*
X119369709Y-107750000D01*
X119388848Y-108017603D01*
X119445872Y-108279735D01*
X119539628Y-108531104D01*
X119668200Y-108766564D01*
X119828965Y-108981321D01*
X120018674Y-109171031D01*
X120025531Y-109176164D01*
X120050692Y-109201323D01*
X120092562Y-109257255D01*
X120113611Y-109301252D01*
X120117175Y-109323247D01*
X120122160Y-109392939D01*
X120116083Y-109441331D01*
X120107190Y-109461762D01*
X120073706Y-109523085D01*
X120042430Y-109560509D01*
X120023903Y-109572889D01*
X119962580Y-109606375D01*
X119916036Y-109620950D01*
X119916034Y-109620950D01*
X119889675Y-109623784D01*
X119876313Y-109624500D01*
X112258248Y-109624500D01*
X112223030Y-109619436D01*
X112155991Y-109599751D01*
X112112775Y-109577145D01*
X112096740Y-109561673D01*
X112050985Y-109508869D01*
X112026851Y-109466486D01*
X112021726Y-109444801D01*
X112011782Y-109375643D01*
X112014393Y-109326941D01*
X112021806Y-109305926D01*
X112050831Y-109242370D01*
X112079358Y-109202810D01*
X112083475Y-109199143D01*
X112111911Y-109174919D01*
X112127167Y-109163796D01*
X112210909Y-109111944D01*
X112358204Y-108977667D01*
X112360638Y-108974445D01*
X112385909Y-108949386D01*
X112442019Y-108907752D01*
X112486104Y-108886889D01*
X112494571Y-108885075D01*
X112537414Y-108877439D01*
X112559347Y-108875500D01*
X114061608Y-108875500D01*
X114182451Y-108851461D01*
X114296284Y-108804310D01*
X114398735Y-108735856D01*
X116235855Y-106898735D01*
X116304310Y-106796284D01*
X116351461Y-106682451D01*
X116375500Y-106561608D01*
X116375500Y-106376662D01*
X116380564Y-106341444D01*
X116400249Y-106274405D01*
X116422855Y-106231189D01*
X116430062Y-106223004D01*
X116463256Y-106188467D01*
X116481682Y-106172692D01*
X116508486Y-106153923D01*
X116653924Y-106008485D01*
X116771901Y-105839994D01*
X116858828Y-105653581D01*
X116912064Y-105454900D01*
X116929990Y-105250000D01*
X116912064Y-105045099D01*
X116858828Y-104846418D01*
X116771901Y-104660005D01*
X116653921Y-104491510D01*
X116508489Y-104346078D01*
X116339994Y-104228098D01*
X116153570Y-104141167D01*
X115954896Y-104087934D01*
X115749998Y-104070009D01*
X115545093Y-104087936D01*
X115346416Y-104141171D01*
X115160001Y-104228099D01*
X114991513Y-104346074D01*
X114846078Y-104491509D01*
X114728098Y-104660004D01*
X114641167Y-104846428D01*
X114613287Y-104950485D01*
X114599281Y-104983192D01*
X114562916Y-105042853D01*
X114529895Y-105078747D01*
X114510799Y-105090231D01*
X114447952Y-105120760D01*
X114400767Y-105133103D01*
X114378494Y-105132440D01*
X114309119Y-105124145D01*
X114262751Y-105109018D01*
X114253896Y-105103548D01*
X114215027Y-105077241D01*
X114196702Y-105062110D01*
X113448431Y-104313839D01*
X113427109Y-104285357D01*
X113393624Y-104224034D01*
X113379050Y-104177491D01*
X113376216Y-104151133D01*
X113375500Y-104137770D01*
X113375500Y-102188390D01*
X113351461Y-102067548D01*
X113304310Y-101953714D01*
X113235858Y-101851266D01*
X112687416Y-101302824D01*
X115227502Y-101302824D01*
X115346598Y-101358358D01*
X115545191Y-101411570D01*
X115750001Y-101429488D01*
X115954816Y-101411568D01*
X116153420Y-101358352D01*
X116272496Y-101302825D01*
X115749999Y-100780328D01*
X115227502Y-101302824D01*
X112687416Y-101302824D01*
X112428735Y-101044143D01*
X112326275Y-100975684D01*
X112212448Y-100928536D01*
X112091608Y-100904500D01*
X111196663Y-100904500D01*
X111161445Y-100899436D01*
X111094406Y-100879751D01*
X111051190Y-100857145D01*
X111043007Y-100849940D01*
X111008471Y-100816748D01*
X110992694Y-100798320D01*
X110973922Y-100771511D01*
X110828489Y-100626078D01*
X110659990Y-100508096D01*
X110611898Y-100485671D01*
X110582122Y-100466199D01*
X110529682Y-100420027D01*
X110500067Y-100381275D01*
X110492073Y-100360474D01*
X110472921Y-100293281D01*
X110468959Y-100244670D01*
X110473479Y-100222852D01*
X110493694Y-100155970D01*
X110516642Y-100112933D01*
X110531492Y-100097665D01*
X110582869Y-100053148D01*
X110611898Y-100034329D01*
X110659997Y-100011899D01*
X110828485Y-99893924D01*
X110973924Y-99748485D01*
X110992694Y-99721680D01*
X111017041Y-99695736D01*
X111071618Y-99652111D01*
X111114924Y-99629677D01*
X111125521Y-99627106D01*
X111172519Y-99617854D01*
X111196663Y-99615500D01*
X114071608Y-99615500D01*
X114192449Y-99591462D01*
X114308130Y-99543545D01*
X114342606Y-99534746D01*
X114412076Y-99527278D01*
X114460654Y-99531626D01*
X114481389Y-99539784D01*
X114543868Y-99571059D01*
X114582384Y-99600980D01*
X114595417Y-99619054D01*
X114631069Y-99679143D01*
X114647295Y-99725137D01*
X114648565Y-99743669D01*
X114648192Y-99806428D01*
X114643935Y-99838037D01*
X114588428Y-100045191D01*
X114570511Y-100249997D01*
X114588430Y-100454816D01*
X114641646Y-100653420D01*
X114697173Y-100772496D01*
X115261612Y-100208058D01*
X115302165Y-100180961D01*
X115350000Y-100171446D01*
X115397835Y-100180961D01*
X115438388Y-100208058D01*
X115465485Y-100248611D01*
X115469848Y-100270548D01*
X115470741Y-100270309D01*
X115493741Y-100356147D01*
X115529945Y-100418855D01*
X115581144Y-100470054D01*
X115643852Y-100506258D01*
X115729691Y-100529259D01*
X115729451Y-100530151D01*
X115750000Y-100534238D01*
X115770548Y-100530151D01*
X115770309Y-100529259D01*
X115856147Y-100506258D01*
X115918855Y-100470054D01*
X115970054Y-100418855D01*
X116006258Y-100356147D01*
X116029259Y-100270309D01*
X116030151Y-100270548D01*
X116034239Y-100249999D01*
X116280328Y-100249999D01*
X116802824Y-100772495D01*
X116858358Y-100653400D01*
X116911570Y-100454807D01*
X116929488Y-100249997D01*
X116911568Y-100045182D01*
X116858352Y-99846578D01*
X116802825Y-99727501D01*
X116280328Y-100249999D01*
X116034239Y-100249999D01*
X116030151Y-100229451D01*
X116029259Y-100229691D01*
X116006258Y-100143852D01*
X115970054Y-100081144D01*
X115918855Y-100029945D01*
X115856147Y-99993741D01*
X115770309Y-99970741D01*
X115770548Y-99969848D01*
X115748611Y-99965485D01*
X115708058Y-99938388D01*
X115680961Y-99897835D01*
X115671446Y-99850000D01*
X115680961Y-99802165D01*
X115708058Y-99761612D01*
X116272495Y-99197174D01*
X116153400Y-99141640D01*
X115954807Y-99088428D01*
X115749998Y-99070511D01*
X115545180Y-99088430D01*
X115419614Y-99122076D01*
X115384287Y-99126300D01*
X115314437Y-99124637D01*
X115266841Y-99113986D01*
X115247347Y-99103190D01*
X115189485Y-99064027D01*
X115155204Y-99029335D01*
X115144642Y-99009715D01*
X115117138Y-98945486D01*
X115107055Y-98897767D01*
X115108777Y-98875550D01*
X115120364Y-98806648D01*
X115137680Y-98761053D01*
X115141809Y-98754873D01*
X115165661Y-98721376D01*
X115179097Y-98705493D01*
X118485855Y-95398735D01*
X118554310Y-95296284D01*
X118601461Y-95182452D01*
X118625500Y-95061606D01*
X118625500Y-84938390D01*
X118601462Y-84817550D01*
X118554306Y-84703707D01*
X118485856Y-84601265D01*
X116935162Y-83050569D01*
X116913840Y-83022087D01*
X116880355Y-82960764D01*
X116865781Y-82914220D01*
X116865383Y-82891941D01*
X116870367Y-82822249D01*
X116883270Y-82775215D01*
X116894982Y-82756255D01*
X116936854Y-82700322D01*
X116973139Y-82667730D01*
X116993238Y-82658114D01*
X117058702Y-82633697D01*
X117097923Y-82625896D01*
X117106769Y-82625580D01*
X117111231Y-82625500D01*
X119876313Y-82625500D01*
X119911531Y-82630564D01*
G37*
%TD.AperFunction*%
%TA.AperFunction,Conductor*%
G36*
X97137682Y-85331342D02*
G01*
X97203146Y-85355759D01*
X97244640Y-85381391D01*
X97255461Y-85392820D01*
X97292150Y-85436814D01*
X97308047Y-85461154D01*
X97331675Y-85508605D01*
X97451789Y-85667662D01*
X97543251Y-85751040D01*
X97565866Y-85778508D01*
X97602146Y-85838218D01*
X97618853Y-85884039D01*
X97619261Y-85886895D01*
X97623442Y-85918821D01*
X97624500Y-85935052D01*
X97624499Y-89811606D01*
X97648538Y-89932450D01*
X97689032Y-90030211D01*
X97697831Y-90064685D01*
X97705300Y-90134155D01*
X97700953Y-90182733D01*
X97692794Y-90203470D01*
X97661519Y-90265949D01*
X97631598Y-90304465D01*
X97613524Y-90317498D01*
X97553435Y-90353150D01*
X97507441Y-90369376D01*
X97505231Y-90369673D01*
X97474565Y-90373525D01*
X97458986Y-90374500D01*
X95436389Y-90374500D01*
X95401171Y-90369436D01*
X95334132Y-90349751D01*
X95290916Y-90327145D01*
X95274881Y-90311673D01*
X95229126Y-90258869D01*
X95204992Y-90216486D01*
X95199867Y-90194801D01*
X95189923Y-90125643D01*
X95192534Y-90076941D01*
X95197422Y-90061854D01*
X95218586Y-90008377D01*
X95232421Y-89982679D01*
X95314930Y-89864842D01*
X95405521Y-89670570D01*
X95417732Y-89625000D01*
X94683012Y-89625000D01*
X94635177Y-89615485D01*
X94594624Y-89588388D01*
X94567527Y-89547835D01*
X94558012Y-89500000D01*
X94567527Y-89452165D01*
X94574759Y-89437500D01*
X94599442Y-89394746D01*
X94625000Y-89299367D01*
X94625000Y-89200632D01*
X94599442Y-89105253D01*
X94574759Y-89062500D01*
X94559081Y-89016316D01*
X94562271Y-88967648D01*
X94583843Y-88923905D01*
X94620512Y-88891747D01*
X94666696Y-88876069D01*
X94683012Y-88875000D01*
X95417730Y-88874999D01*
X95405518Y-88829422D01*
X95314931Y-88635156D01*
X95191985Y-88459573D01*
X95040427Y-88308015D01*
X94864842Y-88185067D01*
X94670569Y-88094477D01*
X94625000Y-88082267D01*
X94625000Y-88816988D01*
X94615485Y-88864823D01*
X94588388Y-88905376D01*
X94547835Y-88932473D01*
X94500000Y-88941988D01*
X94452165Y-88932473D01*
X94437500Y-88925241D01*
X94394746Y-88900557D01*
X94299367Y-88875000D01*
X94200633Y-88875000D01*
X94105253Y-88900557D01*
X94062500Y-88925241D01*
X94016316Y-88940919D01*
X93967648Y-88937729D01*
X93923905Y-88916157D01*
X93891747Y-88879488D01*
X93876069Y-88833304D01*
X93875000Y-88816988D01*
X93874999Y-88082268D01*
X93829415Y-88094482D01*
X93729732Y-88140966D01*
X93695675Y-88151261D01*
X93626598Y-88161753D01*
X93577876Y-88159529D01*
X93556804Y-88152282D01*
X93493020Y-88123762D01*
X93453235Y-88095550D01*
X93439425Y-88078061D01*
X93401186Y-88019584D01*
X93382970Y-87974341D01*
X93382148Y-87969454D01*
X93376844Y-87933577D01*
X93375500Y-87915296D01*
X93375500Y-85873687D01*
X93380564Y-85838469D01*
X93400249Y-85771430D01*
X93422855Y-85728214D01*
X93438327Y-85712179D01*
X93491131Y-85666424D01*
X93533514Y-85642290D01*
X93555199Y-85637165D01*
X93624357Y-85627221D01*
X93673059Y-85629832D01*
X93694074Y-85637245D01*
X93757630Y-85666270D01*
X93797188Y-85694795D01*
X93815249Y-85714193D01*
X93823828Y-85724458D01*
X93828975Y-85731333D01*
X94018680Y-85921036D01*
X94233441Y-86081802D01*
X94468897Y-86210371D01*
X94720273Y-86304129D01*
X94982400Y-86361151D01*
X95250000Y-86380290D01*
X95517598Y-86361151D01*
X95779735Y-86304127D01*
X96031102Y-86210371D01*
X96266559Y-86081802D01*
X96481333Y-85921024D01*
X96671024Y-85731333D01*
X96831803Y-85516557D01*
X96866612Y-85452812D01*
X96887932Y-85424332D01*
X96937337Y-85374926D01*
X96977889Y-85347829D01*
X96999155Y-85341170D01*
X97067428Y-85326318D01*
X97116193Y-85325447D01*
X97137682Y-85331342D01*
G37*
%TD.AperFunction*%
%TD*%
M02*
