M48
; DRILL file {KiCad 7.0.11+dfsg-1build4} date Sat Oct  3 05:41:24 2026
; FORMAT={-:-/ absolute / metric / decimal}
; #@! TF.CreationDate,2026-10-03T05:41:24+00:00
; #@! TF.GenerationSoftware,Kicad,Pcbnew,7.0.11+dfsg-1build4
; #@! TF.FileFunction,Plated,1,2,PTH
FMAT,2
METRIC
; #@! TA.AperFunction,Plated,PTH,ComponentDrill
T1C0.800
; #@! TA.AperFunction,Plated,PTH,ComponentDrill
T2C0.900
; #@! TA.AperFunction,Plated,PTH,ComponentDrill
T3C1.000
; #@! TA.AperFunction,Plated,PTH,ComponentDrill
T4C1.100
; #@! TA.AperFunction,Plated,PTH,ComponentDrill
T5C1.200
; #@! TA.AperFunction,Plated,PTH,ComponentDrill
T6C1.520
%
G90
G05
T1
X89.5Y-87.63
X89.5Y-95.25
X94.5Y-110.13
X94.5Y-117.75
X108.25Y-93.75
X108.69Y-115.5
X108.88Y-110.75
X113.25Y-93.75
X116.31Y-115.5
X116.5Y-110.75
T2
X87.71Y-113.0
X90.25Y-113.0
X119.0Y-92.25
X119.0Y-99.87
X120.75Y-103.63
X120.75Y-111.25
T3
X111.0Y-99.632
X111.0Y-104.632
X126.95Y-95.0
X130.75Y-95.0
T4
X98.25Y-93.17
X98.25Y-103.33
X98.25Y-106.92
X98.25Y-117.08
X103.25Y-93.17
X103.25Y-103.33
X103.25Y-106.92
X103.25Y-117.08
X116.21Y-88.195
X118.75Y-88.195
X121.29Y-88.195
T5
X94.5Y-87.75
X109.5Y-87.75
T6
X90.0Y-100.25
X90.0Y-105.33
X130.25Y-106.92
X130.25Y-112.0
M30
