%TF.GenerationSoftware,KiCad,Pcbnew,7.0.11+dfsg-1build4*%
%TF.CreationDate,2026-10-03T07:13:53+00:00*%
%TF.ProjectId,t,742e6b69-6361-4645-9f70-636258585858,rev?*%
%TF.SameCoordinates,Original*%
%TF.FileFunction,Soldermask,Top*%
%TF.FilePolarity,Negative*%
%FSLAX46Y46*%
G04 Gerber Fmt 4.6, Leading zero omitted, Abs format (unit mm)*
G04 Created by KiCad (PCBNEW 7.0.11+dfsg-1build4) date 2026-10-03 07:13:53*
%MOMM*%
%LPD*%
G01*
G04 APERTURE LIST*
G04 Aperture macros list*
%AMRoundRect*
0 Rectangle with rounded corners*
0 $1 Rounding radius*
0 $2 $3 $4 $5 $6 $7 $8 $9 X,Y pos of 4 corners*
0 Add a 4 corners polygon primitive as box body*
4,1,4,$2,$3,$4,$5,$6,$7,$8,$9,$2,$3,0*
0 Add four circle primitives for the rounded corners*
1,1,$1+$1,$2,$3*
1,1,$1+$1,$4,$5*
1,1,$1+$1,$6,$7*
1,1,$1+$1,$8,$9*
0 Add four rect primitives between the rounded corners*
20,1,$1+$1,$2,$3,$4,$5,0*
20,1,$1+$1,$4,$5,$6,$7,0*
20,1,$1+$1,$6,$7,$8,$9,0*
20,1,$1+$1,$8,$9,$2,$3,0*%
G04 Aperture macros list end*
%ADD10R,2.500000X2.500000*%
%ADD11O,2.500000X2.500000*%
%ADD12C,2.200000*%
%ADD13C,1.700000*%
%ADD14RoundRect,0.225000X-0.225000X-0.375000X0.225000X-0.375000X0.225000X0.375000X-0.225000X0.375000X0*%
%ADD15RoundRect,0.225000X0.250000X-0.225000X0.250000X0.225000X-0.250000X0.225000X-0.250000X-0.225000X0*%
%ADD16RoundRect,0.200000X-0.200000X-0.275000X0.200000X-0.275000X0.200000X0.275000X-0.200000X0.275000X0*%
%ADD17C,1.800000*%
%ADD18RoundRect,0.218750X-0.256250X0.218750X-0.256250X-0.218750X0.256250X-0.218750X0.256250X0.218750X0*%
%ADD19C,1.500000*%
%ADD20RoundRect,0.150000X0.150000X-0.587500X0.150000X0.587500X-0.150000X0.587500X-0.150000X-0.587500X0*%
%ADD21C,2.700000*%
%ADD22RoundRect,0.250000X-0.725000X0.600000X-0.725000X-0.600000X0.725000X-0.600000X0.725000X0.600000X0*%
%ADD23O,1.950000X1.700000*%
%ADD24RoundRect,0.200000X0.200000X0.275000X-0.200000X0.275000X-0.200000X-0.275000X0.200000X-0.275000X0*%
%ADD25RoundRect,0.225000X-0.225000X-0.250000X0.225000X-0.250000X0.225000X0.250000X-0.225000X0.250000X0*%
%ADD26RoundRect,0.218750X0.218750X0.256250X-0.218750X0.256250X-0.218750X-0.256250X0.218750X-0.256250X0*%
%ADD27C,2.000000*%
%ADD28R,0.550000X1.600000*%
%ADD29R,1.600000X0.550000*%
%ADD30RoundRect,0.250000X-0.450000X-0.425000X0.450000X-0.425000X0.450000X0.425000X-0.450000X0.425000X0*%
%ADD31RoundRect,0.250000X-1.500000X-1.000000X1.500000X-1.000000X1.500000X1.000000X-1.500000X1.000000X0*%
%ADD32R,0.400000X1.900000*%
%ADD33RoundRect,0.250000X0.425000X-0.450000X0.425000X0.450000X-0.425000X0.450000X-0.425000X-0.450000X0*%
%ADD34R,3.000000X3.000000*%
%ADD35C,3.000000*%
%ADD36RoundRect,0.375000X-0.625000X-0.375000X0.625000X-0.375000X0.625000X0.375000X-0.625000X0.375000X0*%
%ADD37RoundRect,0.500000X-0.500000X-1.400000X0.500000X-1.400000X0.500000X1.400000X-0.500000X1.400000X0*%
%ADD38R,2.000000X1.700000*%
%ADD39O,2.000000X1.700000*%
%ADD40RoundRect,0.200000X-0.275000X0.200000X-0.275000X-0.200000X0.275000X-0.200000X0.275000X0.200000X0*%
%ADD41R,2.311400X2.311400*%
%ADD42R,1.700000X1.700000*%
%ADD43O,1.700000X1.700000*%
G04 APERTURE END LIST*
D10*
%TO.C,K1*%
X158050000Y-81277500D03*
D11*
X164050000Y-79277500D03*
X164050000Y-67077500D03*
X152050000Y-67077500D03*
X152050000Y-79277500D03*
%TD*%
D12*
%TO.C,SW1*%
X166075000Y-131800000D03*
X166075000Y-138800000D03*
D13*
X168575000Y-133050000D03*
X168575000Y-137550000D03*
%TD*%
D14*
%TO.C,D1*%
X152737500Y-90087500D03*
X156037500Y-90087500D03*
%TD*%
D15*
%TO.C,C5*%
X136900000Y-123775000D03*
X136900000Y-122225000D03*
%TD*%
D16*
%TO.C,R12*%
X165225000Y-141900000D03*
X166875000Y-141900000D03*
%TD*%
D17*
%TO.C,RV1*%
X128550000Y-64250000D03*
X136050000Y-66950000D03*
%TD*%
D18*
%TO.C,D2*%
X156050000Y-93325000D03*
X156050000Y-94900000D03*
%TD*%
D19*
%TO.C,TP3*%
X155250000Y-127600000D03*
%TD*%
D20*
%TO.C,Q1*%
X159062500Y-91787500D03*
X160962500Y-91787500D03*
X160012500Y-89912500D03*
%TD*%
D21*
%TO.C,H3*%
X125300000Y-148100000D03*
%TD*%
D22*
%TO.C,J3*%
X168150000Y-89450000D03*
D23*
X168150000Y-91950000D03*
X168150000Y-94450000D03*
%TD*%
D19*
%TO.C,FID1*%
X122950000Y-143350000D03*
%TD*%
D16*
%TO.C,R13*%
X164862500Y-121840000D03*
X166512500Y-121840000D03*
%TD*%
D21*
%TO.C,H1*%
X125300000Y-56100000D03*
%TD*%
D24*
%TO.C,R8*%
X155050000Y-116800000D03*
X153400000Y-116800000D03*
%TD*%
D25*
%TO.C,C10*%
X147825000Y-134050000D03*
X149375000Y-134050000D03*
%TD*%
D26*
%TO.C,D4*%
X170187500Y-123800000D03*
X168612500Y-123800000D03*
%TD*%
D16*
%TO.C,R14*%
X164875000Y-123800000D03*
X166525000Y-123800000D03*
%TD*%
D27*
%TO.C,C1*%
X127750000Y-72350000D03*
X137750000Y-72350000D03*
%TD*%
D28*
%TO.C,U3*%
X151800000Y-136750000D03*
X151000000Y-136750000D03*
X150200000Y-136750000D03*
X149400000Y-136750000D03*
X148600000Y-136750000D03*
X147800000Y-136750000D03*
X147000000Y-136750000D03*
X146200000Y-136750000D03*
D29*
X144750000Y-138200000D03*
X144750000Y-139000000D03*
X144750000Y-139800000D03*
X144750000Y-140600000D03*
X144750000Y-141400000D03*
X144750000Y-142200000D03*
X144750000Y-143000000D03*
X144750000Y-143800000D03*
D28*
X146200000Y-145250000D03*
X147000000Y-145250000D03*
X147800000Y-145250000D03*
X148600000Y-145250000D03*
X149400000Y-145250000D03*
X150200000Y-145250000D03*
X151000000Y-145250000D03*
X151800000Y-145250000D03*
D29*
X153250000Y-143800000D03*
X153250000Y-143000000D03*
X153250000Y-142200000D03*
X153250000Y-141400000D03*
X153250000Y-140600000D03*
X153250000Y-139800000D03*
X153250000Y-139000000D03*
X153250000Y-138200000D03*
%TD*%
D21*
%TO.C,H2*%
X167300000Y-56100000D03*
%TD*%
D30*
%TO.C,C9*%
X147850000Y-131750000D03*
X150550000Y-131750000D03*
%TD*%
D31*
%TO.C,C3*%
X124250000Y-124000000D03*
X130750000Y-124000000D03*
%TD*%
D32*
%TO.C,Y1*%
X140450000Y-132550000D03*
X141650000Y-132550000D03*
X142850000Y-132550000D03*
%TD*%
D19*
%TO.C,TP4*%
X150750000Y-116600000D03*
%TD*%
D15*
%TO.C,C11*%
X163150000Y-94425000D03*
X163150000Y-92875000D03*
%TD*%
D19*
%TO.C,FID3*%
X163450000Y-53600000D03*
%TD*%
D24*
%TO.C,R5*%
X159675000Y-95700000D03*
X158025000Y-95700000D03*
%TD*%
%TO.C,R10*%
X155075000Y-114750000D03*
X153425000Y-114750000D03*
%TD*%
D20*
%TO.C,Q2*%
X153055000Y-112487500D03*
X154955000Y-112487500D03*
X154005000Y-110612500D03*
%TD*%
D19*
%TO.C,TP1*%
X158200000Y-149100000D03*
%TD*%
D33*
%TO.C,C6*%
X151200000Y-125400000D03*
X151200000Y-122700000D03*
%TD*%
D25*
%TO.C,C7*%
X148625000Y-147650000D03*
X150175000Y-147650000D03*
%TD*%
D15*
%TO.C,C8*%
X148900000Y-124005000D03*
X148900000Y-122455000D03*
%TD*%
D24*
%TO.C,R6*%
X159675000Y-93950000D03*
X158025000Y-93950000D03*
%TD*%
D26*
%TO.C,D3*%
X170175000Y-121850000D03*
X168600000Y-121850000D03*
%TD*%
D19*
%TO.C,TP2*%
X161450000Y-149100000D03*
%TD*%
D21*
%TO.C,H4*%
X167300000Y-148100000D03*
%TD*%
D27*
%TO.C,F1*%
X143600000Y-66910000D03*
X143590000Y-71990000D03*
%TD*%
D34*
%TO.C,J1*%
X136140000Y-56300000D03*
D35*
X141220000Y-56300000D03*
X146300000Y-56300000D03*
X151380000Y-56300000D03*
X156460000Y-56300000D03*
%TD*%
D36*
%TO.C,U2*%
X140000000Y-122850000D03*
X140000000Y-125150000D03*
D37*
X146300000Y-125150000D03*
D36*
X140000000Y-127450000D03*
%TD*%
D38*
%TO.C,PS1*%
X137500000Y-80300000D03*
D39*
X131500000Y-80300000D03*
X143500000Y-113900000D03*
X125500000Y-113900000D03*
%TD*%
D19*
%TO.C,FID2*%
X130550000Y-54150000D03*
%TD*%
D40*
%TO.C,R7*%
X152750000Y-93287500D03*
X152750000Y-94937500D03*
%TD*%
D41*
%TO.C,LS1*%
X153999999Y-99749999D03*
X153999999Y-106850001D03*
X161100001Y-99749999D03*
X161100001Y-106850001D03*
%TD*%
D42*
%TO.C,J2*%
X128410000Y-135510000D03*
D43*
X130950000Y-135510000D03*
X128410000Y-138050000D03*
X130950000Y-138050000D03*
X128410000Y-140590000D03*
X130950000Y-140590000D03*
%TD*%
D40*
%TO.C,R11*%
X136900000Y-126375000D03*
X136900000Y-128025000D03*
%TD*%
M02*
