M48
; DRILL file KiCad 10.0.6 date 2026-10-03T22:06:43
; FORMAT={-:-/ absolute / metric / decimal}
; #@! TF.CreationDate,2026-10-03T22:06:43+05:30
; #@! TF.GenerationSoftware,Kicad,Pcbnew,10.0.6
; #@! TF.FileFunction,Plated,1,4,PTH
FMAT,2
METRIC
; #@! TA.AperFunction,Plated,PTH,ViaDrill
T1C0.300
; #@! TA.AperFunction,Plated,PTH,ViaDrill
T2C0.400
; #@! TA.AperFunction,Plated,PTH,ViaDrill
T3C0.500
; #@! TA.AperFunction,Plated,PTH,ComponentDrill
T4C0.800
; #@! TA.AperFunction,Plated,PTH,ComponentDrill
T5C1.000
; #@! TA.AperFunction,Plated,PTH,ComponentDrill
T6C1.200
; #@! TA.AperFunction,Plated,PTH,ComponentDrill
T7C1.300
; #@! TA.AperFunction,Plated,PTH,ComponentDrill
T8C1.500
; #@! TA.AperFunction,Plated,PTH,ComponentDrill
T9C1.600
; #@! TA.AperFunction,Plated,PTH,ComponentDrill
T10C2.000
; #@! TA.AperFunction,Plated,PTH,ComponentDrill
T11C4.300
%
G90
G05
T1
X55.97Y-107.75
X56.22Y-105.5
X56.97Y-99.25
X59.22Y-99.0
X61.97Y-113.25
X62.97Y-113.5
X68.97Y-108.25
X68.97Y-113.75
X69.97Y-111.25
X70.47Y-105.25
X70.47Y-113.5
X71.47Y-112.75
X75.97Y-112.5
X77.47Y-112.5
X80.22Y-105.5
X80.22Y-109.5
X81.97Y-113.5
X82.97Y-113.25
X88.22Y-85.5
X88.47Y-88.25
X88.97Y-84.25
X89.72Y-89.5
X89.97Y-86.75
X91.22Y-80.0
X93.72Y-80.0
X94.72Y-101.0
X94.72Y-105.0
X101.97Y-109.75
X103.97Y-98.25
X103.97Y-109.75
X106.22Y-97.5
X107.97Y-100.0
X110.47Y-97.0
X113.47Y-107.75
X113.72Y-105.5
X119.47Y-113.25
X120.47Y-113.5
X126.72Y-113.0
X126.97Y-110.0
X127.47Y-40.25
X127.47Y-111.25
X127.97Y-105.25
X127.97Y-113.0
X128.72Y-44.5
X128.72Y-47.0
X128.97Y-112.75
X129.72Y-77.75
X130.72Y-43.75
X131.47Y-44.75
X131.47Y-47.25
X133.47Y-42.75
X136.72Y-59.5
X137.72Y-105.5
X137.72Y-109.5
X137.97Y-104.5
X139.47Y-113.5
X140.47Y-108.25
X140.47Y-113.25
X141.22Y-107.5
X141.47Y-39.5
X144.47Y-39.5
X144.47Y-42.5
X144.97Y-38.5
X145.22Y-32.5
X146.97Y-36.75
X147.47Y-46.25
X147.47Y-70.25
X147.72Y-41.5
X147.97Y-43.5
X148.97Y-41.5
X149.22Y-44.0
X149.22Y-48.0
X149.72Y-37.5
X150.72Y-35.0
X150.97Y-107.75
X151.22Y-105.5
X151.72Y-50.5
X152.47Y-41.5
X153.22Y-44.75
X153.22Y-45.75
X153.22Y-46.75
X156.22Y-45.25
X156.97Y-113.25
X157.97Y-113.5
X160.22Y-44.0
X160.47Y-111.75
X160.47Y-113.75
X162.72Y-35.0
X163.47Y-108.25
X163.97Y-114.0
X164.97Y-102.25
X164.97Y-111.25
X165.22Y-113.5
X165.47Y-105.25
X166.47Y-112.75
X167.47Y-34.75
X167.97Y-38.75
X167.97Y-110.25
X171.97Y-38.75
X172.47Y-34.75
X175.22Y-105.5
X175.22Y-109.5
X176.97Y-113.5
X177.97Y-113.25
X190.47Y-74.75
X192.97Y-74.75
X193.22Y-22.0
X193.22Y-26.0
X193.22Y-34.0
X193.47Y-59.0
X193.72Y-58.0
X195.72Y-97.25
X195.97Y-59.75
X198.97Y-62.0
X199.97Y-63.25
X200.72Y-64.5
X200.97Y-30.75
X203.72Y-26.25
X203.97Y-27.5
X206.47Y-107.75
X206.72Y-105.5
X209.22Y-109.5
X212.47Y-113.25
X213.47Y-113.5
X217.22Y-113.5
X220.22Y-112.25
X220.47Y-111.25
X220.97Y-105.25
X221.97Y-112.75
X223.22Y-113.5
X225.72Y-113.5
X230.72Y-105.5
X230.72Y-109.5
X232.47Y-113.5
X233.47Y-113.25
T2
X68.22Y-127.5
X68.97Y-88.25
X71.72Y-89.75
X74.47Y-124.75
X74.72Y-131.0
X75.97Y-130.5
X77.97Y-133.25
X78.47Y-131.5
X82.97Y-130.75
X125.72Y-127.5
X131.97Y-124.75
X133.47Y-130.5
X135.47Y-133.25
X135.97Y-131.5
X138.72Y-134.75
X140.47Y-130.75
X141.72Y-135.25
X142.97Y-136.0
X155.72Y-131.5
X163.22Y-127.5
X169.47Y-124.75
X169.72Y-131.0
X170.97Y-130.5
X172.97Y-133.25
X173.47Y-131.5
X177.97Y-130.75
X210.47Y-76.5
X211.97Y-64.75
X211.97Y-84.5
X216.22Y-82.5
X218.72Y-127.5
X224.97Y-124.75
X226.47Y-130.5
X228.47Y-133.25
X228.97Y-131.5
X231.72Y-134.75
X233.47Y-130.75
T3
X69.22Y-86.0
X69.72Y-79.5
X72.72Y-84.5
X73.22Y-49.0
X73.22Y-79.0
X74.57Y-142.0
X74.97Y-91.25
X75.97Y-85.5
X76.22Y-76.0
X132.07Y-142.0
X169.57Y-142.0
X208.22Y-84.0
X210.72Y-82.0
X211.72Y-77.5
X212.22Y-87.0
X212.97Y-63.25
X213.22Y-82.0
X215.72Y-59.0
X215.72Y-89.0
X225.07Y-142.0
T4
X98.462Y-111.38
X100.367Y-111.38
X102.272Y-111.38
X104.177Y-111.38
X205.35Y-26.492
X205.35Y-28.397
X205.35Y-30.302
X205.35Y-32.207
T5
X57.97Y-85.26
X57.97Y-87.8
X57.97Y-90.34
X57.97Y-97.96
X57.97Y-100.5
X60.47Y-112.65
X60.47Y-115.19
X60.47Y-122.81
X60.47Y-125.35
X60.47Y-127.89
X84.47Y-112.65
X84.47Y-115.19
X84.47Y-122.81
X84.47Y-125.35
X84.47Y-127.89
X117.97Y-112.65
X117.97Y-115.19
X117.97Y-122.81
X117.97Y-125.35
X117.97Y-127.89
X135.97Y-22.0
X135.97Y-24.54
X135.97Y-27.08
X135.97Y-29.62
X135.97Y-32.16
X135.97Y-34.7
X135.97Y-37.24
X135.97Y-39.78
X135.97Y-42.32
X135.97Y-44.86
X138.51Y-22.0
X138.51Y-24.54
X138.51Y-27.08
X138.51Y-29.62
X138.51Y-32.16
X138.51Y-34.7
X138.51Y-37.24
X138.51Y-39.78
X138.51Y-42.32
X138.51Y-44.86
X141.97Y-112.65
X141.97Y-115.19
X141.97Y-122.81
X141.97Y-125.35
X141.97Y-127.89
X155.47Y-112.65
X155.47Y-115.19
X155.47Y-122.81
X155.47Y-125.35
X155.47Y-127.89
X179.47Y-112.65
X179.47Y-115.19
X179.47Y-122.81
X179.47Y-125.35
X179.47Y-127.89
X191.47Y-76.0
X194.01Y-76.0
X201.63Y-76.0
X204.17Y-76.0
X206.71Y-76.0
X210.97Y-112.65
X210.97Y-115.19
X210.97Y-122.81
X210.97Y-125.35
X210.97Y-127.89
X234.97Y-112.65
X234.97Y-115.19
X234.97Y-122.81
X234.97Y-125.35
X234.97Y-127.89
T6
X58.47Y-146.0
X66.97Y-21.0
X66.97Y-46.4
X80.97Y-146.0
X115.97Y-146.0
X138.47Y-146.0
X153.47Y-146.0
X175.97Y-146.0
X208.97Y-146.0
X211.97Y-55.0
X231.47Y-146.0
X237.37Y-55.0
T7
X94.97Y-119.0
X94.97Y-121.54
X94.97Y-124.08
X107.67Y-119.0
X107.67Y-121.54
X107.67Y-124.08
X157.97Y-25.0
X163.05Y-25.0
X212.97Y-23.0
X212.97Y-35.7
X215.51Y-23.0
X215.51Y-35.7
X218.05Y-23.0
X218.05Y-35.7
T8
X58.87Y-156.0
X63.95Y-156.0
X66.49Y-156.0
X69.03Y-156.0
X75.87Y-156.0
X80.95Y-156.0
X83.49Y-156.0
X86.03Y-156.0
X116.37Y-156.0
X121.45Y-156.0
X123.99Y-156.0
X126.53Y-156.0
X133.37Y-156.0
X138.45Y-156.0
X140.99Y-156.0
X143.53Y-156.0
X153.87Y-156.0
X158.95Y-156.0
X161.49Y-156.0
X164.03Y-156.0
X170.87Y-156.0
X175.95Y-156.0
X178.49Y-156.0
X181.03Y-156.0
X209.37Y-156.0
X214.45Y-156.0
X216.99Y-156.0
X219.53Y-156.0
X226.37Y-156.0
X231.45Y-156.0
X233.99Y-156.0
X236.53Y-156.0
T9
X52.43Y-21.0
X52.43Y-46.4
X57.51Y-21.0
X57.51Y-46.4
X233.43Y-20.0
X233.43Y-45.4
X238.51Y-20.0
X238.51Y-45.4
T10
X48.97Y-66.5
X58.97Y-66.5
X228.97Y-77.0
X238.97Y-77.0
T11
X42.97Y-30.0
X42.97Y-44.0
X94.47Y-148.0
X100.47Y-137.0
X189.17Y-143.0
X200.87Y-143.0
X248.97Y-45.0
X248.97Y-59.0
M30
