%TF.GenerationSoftware,KiCad,Pcbnew,7.0.11+dfsg-1build4*%
%TF.CreationDate,2026-10-03T06:30:34+00:00*%
%TF.ProjectId,t,742e6b69-6361-4645-9f70-636258585858,rev?*%
%TF.SameCoordinates,Original*%
%TF.FileFunction,Paste,Top*%
%TF.FilePolarity,Positive*%
%FSLAX46Y46*%
G04 Gerber Fmt 4.6, Leading zero omitted, Abs format (unit mm)*
G04 Created by KiCad (PCBNEW 7.0.11+dfsg-1build4) date 2026-10-03 06:30:34*
%MOMM*%
%LPD*%
G01*
G04 APERTURE LIST*
G04 Aperture macros list*
%AMRoundRect*
0 Rectangle with rounded corners*
0 $1 Rounding radius*
0 $2 $3 $4 $5 $6 $7 $8 $9 X,Y pos of 4 corners*
0 Add a 4 corners polygon primitive as box body*
4,1,4,$2,$3,$4,$5,$6,$7,$8,$9,$2,$3,0*
0 Add four circle primitives for the rounded corners*
1,1,$1+$1,$2,$3*
1,1,$1+$1,$4,$5*
1,1,$1+$1,$6,$7*
1,1,$1+$1,$8,$9*
0 Add four rect primitives between the rounded corners*
20,1,$1+$1,$2,$3,$4,$5,0*
20,1,$1+$1,$4,$5,$6,$7,0*
20,1,$1+$1,$6,$7,$8,$9,0*
20,1,$1+$1,$8,$9,$2,$3,0*%
G04 Aperture macros list end*
%ADD10RoundRect,0.250000X0.312500X0.625000X-0.312500X0.625000X-0.312500X-0.625000X0.312500X-0.625000X0*%
%ADD11RoundRect,0.225000X0.250000X-0.225000X0.250000X0.225000X-0.250000X0.225000X-0.250000X-0.225000X0*%
%ADD12RoundRect,0.250000X-0.325000X-0.650000X0.325000X-0.650000X0.325000X0.650000X-0.325000X0.650000X0*%
%ADD13RoundRect,0.375000X0.375000X-0.625000X0.375000X0.625000X-0.375000X0.625000X-0.375000X-0.625000X0*%
%ADD14RoundRect,0.500000X1.400000X-0.500000X1.400000X0.500000X-1.400000X0.500000X-1.400000X-0.500000X0*%
%ADD15RoundRect,0.250000X1.000000X0.650000X-1.000000X0.650000X-1.000000X-0.650000X1.000000X-0.650000X0*%
%ADD16RoundRect,0.250000X0.325000X0.650000X-0.325000X0.650000X-0.325000X-0.650000X0.325000X-0.650000X0*%
%ADD17R,2.500000X1.000000*%
%ADD18R,1.000000X1.800000*%
%ADD19RoundRect,0.200000X-0.275000X0.200000X-0.275000X-0.200000X0.275000X-0.200000X0.275000X0.200000X0*%
%ADD20RoundRect,0.200000X-0.200000X-0.800000X0.200000X-0.800000X0.200000X0.800000X-0.200000X0.800000X0*%
%ADD21R,0.400000X0.480000*%
%ADD22RoundRect,0.250000X-0.255000X-0.440000X0.255000X-0.440000X0.255000X0.440000X-0.255000X0.440000X0*%
%ADD23RoundRect,0.150000X-0.825000X-0.150000X0.825000X-0.150000X0.825000X0.150000X-0.825000X0.150000X0*%
%ADD24RoundRect,0.218750X-0.218750X-0.256250X0.218750X-0.256250X0.218750X0.256250X-0.218750X0.256250X0*%
%ADD25R,2.700000X3.600000*%
%ADD26RoundRect,0.250000X-0.625000X0.312500X-0.625000X-0.312500X0.625000X-0.312500X0.625000X0.312500X0*%
%ADD27RoundRect,0.225000X0.225000X0.250000X-0.225000X0.250000X-0.225000X-0.250000X0.225000X-0.250000X0*%
%ADD28RoundRect,0.250000X-0.312500X-0.625000X0.312500X-0.625000X0.312500X0.625000X-0.312500X0.625000X0*%
%ADD29RoundRect,0.250000X-0.650000X0.325000X-0.650000X-0.325000X0.650000X-0.325000X0.650000X0.325000X0*%
%ADD30RoundRect,0.150000X-0.587500X-0.150000X0.587500X-0.150000X0.587500X0.150000X-0.587500X0.150000X0*%
%ADD31RoundRect,0.225000X-0.225000X-0.250000X0.225000X-0.250000X0.225000X0.250000X-0.225000X0.250000X0*%
%ADD32RoundRect,0.150000X0.150000X-0.825000X0.150000X0.825000X-0.150000X0.825000X-0.150000X-0.825000X0*%
%ADD33RoundRect,0.200000X0.200000X0.800000X-0.200000X0.800000X-0.200000X-0.800000X0.200000X-0.800000X0*%
%ADD34RoundRect,0.200000X0.200000X0.275000X-0.200000X0.275000X-0.200000X-0.275000X0.200000X-0.275000X0*%
%ADD35RoundRect,0.250000X-1.000000X-0.650000X1.000000X-0.650000X1.000000X0.650000X-1.000000X0.650000X0*%
%ADD36RoundRect,0.150000X0.512500X0.150000X-0.512500X0.150000X-0.512500X-0.150000X0.512500X-0.150000X0*%
%ADD37RoundRect,0.225000X-0.250000X0.225000X-0.250000X-0.225000X0.250000X-0.225000X0.250000X0.225000X0*%
%ADD38RoundRect,0.150000X0.500000X-0.150000X0.500000X0.150000X-0.500000X0.150000X-0.500000X-0.150000X0*%
%ADD39RoundRect,0.075000X0.575000X-0.075000X0.575000X0.075000X-0.575000X0.075000X-0.575000X-0.075000X0*%
G04 APERTURE END LIST*
D10*
%TO.C,R12*%
X137150000Y-114100000D03*
X134225000Y-114100000D03*
%TD*%
%TO.C,R2*%
X112425000Y-115500000D03*
X109500000Y-115500000D03*
%TD*%
D11*
%TO.C,C24*%
X102000000Y-96300000D03*
X102000000Y-94750000D03*
%TD*%
D12*
%TO.C,C27*%
X129275000Y-73750000D03*
X132225000Y-73750000D03*
%TD*%
D13*
%TO.C,U6*%
X140950000Y-103125000D03*
X143250000Y-103125000D03*
D14*
X143250000Y-96825000D03*
D13*
X145550000Y-103125000D03*
%TD*%
D10*
%TO.C,R1*%
X117425000Y-115500000D03*
X114500000Y-115500000D03*
%TD*%
D15*
%TO.C,D10*%
X119000000Y-104250000D03*
X115000000Y-104250000D03*
%TD*%
D16*
%TO.C,C6*%
X131225000Y-115500000D03*
X128275000Y-115500000D03*
%TD*%
D17*
%TO.C,U1*%
X105400000Y-80500000D03*
X105400000Y-82500000D03*
X105400000Y-84500000D03*
X105400000Y-86500000D03*
X105400000Y-88500000D03*
X105400000Y-90500000D03*
X105400000Y-92500000D03*
X105400000Y-94500000D03*
D18*
X108000000Y-96000000D03*
X110000000Y-96000000D03*
X112000000Y-96000000D03*
X114000000Y-96000000D03*
X116000000Y-96000000D03*
X118000000Y-96000000D03*
D17*
X120600000Y-94500000D03*
X120600000Y-92500000D03*
X120600000Y-90500000D03*
X120600000Y-88500000D03*
X120600000Y-86500000D03*
X120600000Y-84500000D03*
X120600000Y-82500000D03*
X120600000Y-80500000D03*
%TD*%
D19*
%TO.C,R11*%
X139600000Y-106650000D03*
X139600000Y-108300000D03*
%TD*%
D20*
%TO.C,SW1*%
X95150000Y-76750000D03*
X99350000Y-76750000D03*
%TD*%
D21*
%TO.C,D9*%
X138500000Y-86090000D03*
X138500000Y-87410000D03*
%TD*%
D22*
%TO.C,U5*%
X127950000Y-110225000D03*
X127950000Y-111875000D03*
X129150000Y-110225000D03*
X129150000Y-111875000D03*
D23*
X126075000Y-109145000D03*
X126075000Y-110415000D03*
X126075000Y-111685000D03*
X126075000Y-112955000D03*
X131025000Y-112955000D03*
X131025000Y-111685000D03*
X131025000Y-110415000D03*
X131025000Y-109145000D03*
%TD*%
D19*
%TO.C,R10*%
X124500000Y-81475000D03*
X124500000Y-83125000D03*
%TD*%
D24*
%TO.C,D1*%
X139400000Y-114100000D03*
X140975000Y-114100000D03*
%TD*%
D25*
%TO.C,L1*%
X99100000Y-106000000D03*
X107400000Y-106000000D03*
%TD*%
D26*
%TO.C,R15*%
X100500000Y-85812500D03*
X100500000Y-88737500D03*
%TD*%
D27*
%TO.C,C28*%
X135775000Y-94750000D03*
X134225000Y-94750000D03*
%TD*%
D28*
%TO.C,R4*%
X93787500Y-80250000D03*
X96712500Y-80250000D03*
%TD*%
D10*
%TO.C,R3*%
X137150000Y-111600000D03*
X134225000Y-111600000D03*
%TD*%
D29*
%TO.C,C2*%
X112750000Y-108600000D03*
X112750000Y-111550000D03*
%TD*%
D30*
%TO.C,Q3*%
X126895833Y-81300000D03*
X126895833Y-83200000D03*
X128770833Y-82250000D03*
%TD*%
D21*
%TO.C,D6*%
X138500000Y-80000000D03*
X138500000Y-81320000D03*
%TD*%
D28*
%TO.C,R13*%
X120537500Y-110400000D03*
X123462500Y-110400000D03*
%TD*%
D29*
%TO.C,C1*%
X98750000Y-113025000D03*
X98750000Y-115975000D03*
%TD*%
D10*
%TO.C,R16*%
X96712500Y-83000000D03*
X93787500Y-83000000D03*
%TD*%
D24*
%TO.C,D3*%
X110962500Y-99500000D03*
X112537500Y-99500000D03*
%TD*%
D16*
%TO.C,C7*%
X123475000Y-113000000D03*
X120525000Y-113000000D03*
%TD*%
D31*
%TO.C,C22*%
X97725000Y-73750000D03*
X99275000Y-73750000D03*
%TD*%
D10*
%TO.C,R5*%
X130212500Y-101500000D03*
X127287500Y-101500000D03*
%TD*%
D32*
%TO.C,U7*%
X126805000Y-91725000D03*
X128075000Y-91725000D03*
X129345000Y-91725000D03*
X130615000Y-91725000D03*
X131885000Y-91725000D03*
X133155000Y-91725000D03*
X134425000Y-91725000D03*
X135695000Y-91725000D03*
X135695000Y-86775000D03*
X134425000Y-86775000D03*
X133155000Y-86775000D03*
X131885000Y-86775000D03*
X130615000Y-86775000D03*
X129345000Y-86775000D03*
X128075000Y-86775000D03*
X126805000Y-86775000D03*
%TD*%
D33*
%TO.C,SW2*%
X131350000Y-98000000D03*
X127150000Y-98000000D03*
%TD*%
D34*
%TO.C,R6*%
X139575000Y-73500000D03*
X137925000Y-73500000D03*
%TD*%
D28*
%TO.C,R8*%
X93787500Y-85750000D03*
X96712500Y-85750000D03*
%TD*%
D19*
%TO.C,R9*%
X131200000Y-81475000D03*
X131200000Y-83125000D03*
%TD*%
D35*
%TO.C,D8*%
X129250000Y-77000000D03*
X133250000Y-77000000D03*
%TD*%
D34*
%TO.C,R7*%
X139575000Y-75250000D03*
X137925000Y-75250000D03*
%TD*%
D36*
%TO.C,U4*%
X104637500Y-115200000D03*
X104637500Y-114250000D03*
X104637500Y-113300000D03*
X102362500Y-113300000D03*
X102362500Y-114250000D03*
X102362500Y-115200000D03*
%TD*%
D29*
%TO.C,C4*%
X142800000Y-106000000D03*
X142800000Y-108950000D03*
%TD*%
%TO.C,C3*%
X145600000Y-106000000D03*
X145600000Y-108950000D03*
%TD*%
D11*
%TO.C,C25*%
X100250000Y-96300000D03*
X100250000Y-94750000D03*
%TD*%
D37*
%TO.C,C5*%
X115500000Y-108550000D03*
X115500000Y-110100000D03*
%TD*%
D24*
%TO.C,D2*%
X139400000Y-116100000D03*
X140975000Y-116100000D03*
%TD*%
D37*
%TO.C,C23*%
X133000000Y-98225000D03*
X133000000Y-99775000D03*
%TD*%
D28*
%TO.C,R14*%
X115037500Y-99500000D03*
X117962500Y-99500000D03*
%TD*%
D21*
%TO.C,D7*%
X138500000Y-83090000D03*
X138500000Y-84410000D03*
%TD*%
D38*
%TO.C,J23*%
X141505000Y-86950000D03*
X141505000Y-86150000D03*
D39*
X141505000Y-85000000D03*
X141505000Y-84000000D03*
X141505000Y-83500000D03*
X141505000Y-82500000D03*
D38*
X141505000Y-81350000D03*
X141505000Y-80550000D03*
X141505000Y-80550000D03*
X141505000Y-81350000D03*
D39*
X141505000Y-82000000D03*
X141505000Y-83000000D03*
X141505000Y-84500000D03*
X141505000Y-85500000D03*
D38*
X141505000Y-86150000D03*
X141505000Y-86950000D03*
%TD*%
D30*
%TO.C,Q4*%
X133562500Y-81300000D03*
X133562500Y-83200000D03*
X135437500Y-82250000D03*
%TD*%
M02*
