%TF.GenerationSoftware,KiCad,Pcbnew,7.0.11+dfsg-1build4*%
%TF.CreationDate,2026-10-03T06:30:34+00:00*%
%TF.ProjectId,t,742e6b69-6361-4645-9f70-636258585858,rev?*%
%TF.SameCoordinates,Original*%
%TF.FileFunction,Copper,L2,Bot*%
%TF.FilePolarity,Positive*%
%FSLAX46Y46*%
G04 Gerber Fmt 4.6, Leading zero omitted, Abs format (unit mm)*
G04 Created by KiCad (PCBNEW 7.0.11+dfsg-1build4) date 2026-10-03 06:30:34*
%MOMM*%
%LPD*%
G01*
G04 APERTURE LIST*
G04 Aperture macros list*
%AMRoundRect*
0 Rectangle with rounded corners*
0 $1 Rounding radius*
0 $2 $3 $4 $5 $6 $7 $8 $9 X,Y pos of 4 corners*
0 Add a 4 corners polygon primitive as box body*
4,1,4,$2,$3,$4,$5,$6,$7,$8,$9,$2,$3,0*
0 Add four circle primitives for the rounded corners*
1,1,$1+$1,$2,$3*
1,1,$1+$1,$4,$5*
1,1,$1+$1,$6,$7*
1,1,$1+$1,$8,$9*
0 Add four rect primitives between the rounded corners*
20,1,$1+$1,$2,$3,$4,$5,0*
20,1,$1+$1,$4,$5,$6,$7,0*
20,1,$1+$1,$6,$7,$8,$9,0*
20,1,$1+$1,$8,$9,$2,$3,0*%
G04 Aperture macros list end*
%TA.AperFunction,HeatsinkPad*%
%ADD10C,0.500000*%
%TD*%
%TA.AperFunction,HeatsinkPad*%
%ADD11R,1.900000X2.900000*%
%TD*%
%TA.AperFunction,ComponentPad*%
%ADD12C,0.700000*%
%TD*%
%TA.AperFunction,ComponentPad*%
%ADD13C,4.400000*%
%TD*%
%TA.AperFunction,ComponentPad*%
%ADD14RoundRect,0.250000X-0.625000X0.350000X-0.625000X-0.350000X0.625000X-0.350000X0.625000X0.350000X0*%
%TD*%
%TA.AperFunction,ComponentPad*%
%ADD15O,1.750000X1.200000*%
%TD*%
%TA.AperFunction,HeatsinkPad*%
%ADD16O,2.100000X1.000000*%
%TD*%
%TA.AperFunction,HeatsinkPad*%
%ADD17O,1.600000X1.000000*%
%TD*%
%TA.AperFunction,ComponentPad*%
%ADD18R,1.700000X1.700000*%
%TD*%
%TA.AperFunction,ComponentPad*%
%ADD19O,1.700000X1.700000*%
%TD*%
%TA.AperFunction,ComponentPad*%
%ADD20R,2.000000X2.000000*%
%TD*%
%TA.AperFunction,ComponentPad*%
%ADD21C,2.000000*%
%TD*%
%TA.AperFunction,ViaPad*%
%ADD22C,0.800000*%
%TD*%
%TA.AperFunction,Conductor*%
%ADD23C,0.500000*%
%TD*%
%TA.AperFunction,Conductor*%
%ADD24C,1.000000*%
%TD*%
%TA.AperFunction,Conductor*%
%ADD25C,0.300000*%
%TD*%
%TA.AperFunction,Conductor*%
%ADD26C,0.200000*%
%TD*%
G04 APERTURE END LIST*
D10*
%TO.P,U5,9,EPAD*%
%TO.N,unconnected-(U5-EPAD-Pad9)*%
X127850000Y-109850000D03*
X127850000Y-111050000D03*
X127850000Y-112250000D03*
D11*
X128550000Y-111050000D03*
D10*
X129250000Y-109850000D03*
X129250000Y-111050000D03*
X129250000Y-112250000D03*
%TD*%
D12*
%TO.P,REFe,1*%
%TO.N,N/C*%
X82350000Y-116000000D03*
X82833274Y-114833274D03*
X82833274Y-117166726D03*
X84000000Y-114350000D03*
D13*
X84000000Y-116000000D03*
D12*
X84000000Y-117650000D03*
X85166726Y-114833274D03*
X85166726Y-117166726D03*
X85650000Y-116000000D03*
%TD*%
%TO.P,REFe,1*%
%TO.N,N/C*%
X144350000Y-115878680D03*
X144833274Y-114711954D03*
X144833274Y-117045406D03*
X146000000Y-114228680D03*
D13*
X146000000Y-115878680D03*
D12*
X146000000Y-117528680D03*
X147166726Y-114711954D03*
X147166726Y-117045406D03*
X147650000Y-115878680D03*
%TD*%
%TO.P,REFe,1*%
%TO.N,N/C*%
X82350000Y-74500000D03*
X82833274Y-73333274D03*
X82833274Y-75666726D03*
X84000000Y-72850000D03*
D13*
X84000000Y-74500000D03*
D12*
X84000000Y-76150000D03*
X85166726Y-73333274D03*
X85166726Y-75666726D03*
X85650000Y-74500000D03*
%TD*%
%TO.P,REFe,1*%
%TO.N,N/C*%
X144228680Y-74500000D03*
X144711954Y-73333274D03*
X144711954Y-75666726D03*
X145878680Y-72850000D03*
D13*
X145878680Y-74500000D03*
D12*
X145878680Y-76150000D03*
X147045406Y-73333274D03*
X147045406Y-75666726D03*
X147528680Y-74500000D03*
%TD*%
D14*
%TO.P,J1,1,Pin_1*%
%TO.N,VBATT*%
X87950000Y-107250000D03*
D15*
%TO.P,J1,2,Pin_2*%
%TO.N,GND*%
X87950000Y-109250000D03*
%TD*%
D16*
%TO.P,J23,S1,SHIELD*%
%TO.N,GND*%
X142145000Y-88070000D03*
D17*
X146325000Y-88070000D03*
D16*
X142145000Y-79430000D03*
D17*
X146325000Y-79430000D03*
%TD*%
D18*
%TO.P,J3,1,Pin_1*%
%TO.N,VBATT{slash}PWR*%
X94250000Y-115500000D03*
D19*
%TO.P,J3,2,Pin_2*%
%TO.N,VBATT*%
X91710000Y-115500000D03*
%TO.P,J3,3,Pin_3*%
%TO.N,unconnected-(J3-Pin_3-Pad3)*%
X89170000Y-115500000D03*
%TD*%
D18*
%TO.P,J2,1,Pin_1*%
%TO.N,SDA{slash}IO4*%
X123900000Y-99800000D03*
D19*
%TO.P,J2,2,Pin_2*%
%TO.N,SCL{slash}IO5*%
X123900000Y-97260000D03*
%TO.P,J2,3,Pin_3*%
%TO.N,+5V*%
X123900000Y-94720000D03*
%TO.P,J2,4,Pin_4*%
%TO.N,GND*%
X123900000Y-92180000D03*
%TD*%
D20*
%TO.P,U2,1,B1*%
%TO.N,+5V*%
X89390000Y-92640000D03*
D21*
%TO.P,U2,2,VH+*%
X92750000Y-91250000D03*
%TO.P,U2,3,B2*%
X96110000Y-92640000D03*
%TO.P,U2,4,A2*%
%TO.N,Net-(U2-A1)*%
X96110000Y-99360000D03*
%TO.P,U2,5,VH-*%
%TO.N,GND*%
X92750000Y-100750000D03*
%TO.P,U2,6,A1*%
%TO.N,Net-(U2-A1)*%
X89390000Y-99360000D03*
%TD*%
D22*
%TO.N,Net-(U4-FB)*%
X106400000Y-112800000D03*
X109200000Y-112800000D03*
%TO.N,GND*%
X107700000Y-115500000D03*
X121300000Y-106700000D03*
X137900000Y-85300000D03*
X100600000Y-115900000D03*
X112700000Y-113300000D03*
X124400000Y-111700000D03*
X128300000Y-113600000D03*
X105950000Y-114250000D03*
X140400000Y-110100000D03*
%TO.N,MCU_3V3*%
X130300000Y-103800000D03*
X103200000Y-94750000D03*
%TO.N,+5V*%
X133300000Y-109145000D03*
X121700000Y-115500000D03*
X110200000Y-108600000D03*
X126700000Y-78600000D03*
%TO.N,+3.3V*%
X126800000Y-84900000D03*
X140900000Y-106000000D03*
%TO.N,RESET*%
X118100000Y-82200000D03*
X126200000Y-82200000D03*
%TO.N,LED{slash}IO14*%
X118800000Y-97600000D03*
X116400000Y-93700000D03*
%TO.N,IO0{slash}D3*%
X136700000Y-83400000D03*
X118300000Y-88500000D03*
X127150000Y-95300000D03*
%TO.N,SDA{slash}IO4*%
X118300000Y-92300000D03*
%TO.N,SCL{slash}IO5*%
X118600000Y-93800000D03*
%TO.N,Net-(J23-CC1)*%
X141300000Y-77200000D03*
X140150000Y-85550000D03*
%TO.N,Net-(U2-A1)*%
X92300000Y-85700000D03*
%TO.N,Net-(J23-CC2)*%
X140000000Y-82200000D03*
X140500000Y-77900000D03*
%TD*%
D23*
%TO.N,Net-(U4-FB)*%
X106400000Y-112800000D02*
X109200000Y-112800000D01*
%TO.N,MCU_3V3*%
X128300000Y-108300000D02*
X129300000Y-107300000D01*
X129300000Y-107300000D02*
X130300000Y-106300000D01*
X103200000Y-94750000D02*
X103200000Y-105200000D01*
X104800000Y-106800000D02*
X110300000Y-106800000D01*
X124000000Y-108300000D02*
X128300000Y-108300000D01*
X111800000Y-108300000D02*
X124000000Y-108300000D01*
X130300000Y-106300000D02*
X130300000Y-103800000D01*
X103200000Y-105200000D02*
X104800000Y-106800000D01*
X110300000Y-106800000D02*
X111800000Y-108300000D01*
X130300000Y-103800000D02*
X130300000Y-103700000D01*
%TO.N,+5V*%
X97240000Y-92640000D02*
X98300000Y-93700000D01*
D24*
X125800000Y-80400000D02*
X114900000Y-80400000D01*
D23*
X98300000Y-93700000D02*
X98300000Y-105500000D01*
D24*
X126700000Y-78600000D02*
X126700000Y-79500000D01*
D23*
X98300000Y-105500000D02*
X100900000Y-108100000D01*
D24*
X121700000Y-115500000D02*
X131800000Y-115500000D01*
X131800000Y-115500000D02*
X133300000Y-114000000D01*
X126700000Y-79500000D02*
X125800000Y-80400000D01*
X114900000Y-80400000D02*
X102660000Y-92640000D01*
D23*
X96110000Y-92640000D02*
X97240000Y-92640000D01*
D24*
X133300000Y-114000000D02*
X133300000Y-109145000D01*
D23*
X100900000Y-108100000D02*
X109700000Y-108100000D01*
D24*
X102660000Y-92640000D02*
X96110000Y-92640000D01*
D23*
X109700000Y-108100000D02*
X110200000Y-108600000D01*
D25*
%TO.N,+3.3V*%
X118100000Y-84900000D02*
X115500000Y-87500000D01*
X137400000Y-102400000D02*
X141000000Y-106000000D01*
X119200000Y-102400000D02*
X137400000Y-102400000D01*
X115500000Y-87500000D02*
X115500000Y-98700000D01*
X126800000Y-84900000D02*
X118100000Y-84900000D01*
X115500000Y-98700000D02*
X119200000Y-102400000D01*
%TO.N,RESET*%
X118100000Y-82200000D02*
X126200000Y-82200000D01*
%TO.N,LED{slash}IO14*%
X117000000Y-97600000D02*
X118800000Y-97600000D01*
X116400000Y-97000000D02*
X117000000Y-97600000D01*
X116400000Y-93700000D02*
X116400000Y-97000000D01*
%TO.N,IO0{slash}D3*%
X136700000Y-87300000D02*
X136700000Y-83400000D01*
X128700000Y-88800000D02*
X135200000Y-88800000D01*
X127150000Y-90350000D02*
X127150000Y-95300000D01*
X135200000Y-88800000D02*
X136700000Y-87300000D01*
X125300000Y-88500000D02*
X127150000Y-90350000D01*
X127150000Y-90350000D02*
X128700000Y-88800000D01*
X118300000Y-88500000D02*
X125300000Y-88500000D01*
X118300000Y-88500000D02*
X118600000Y-88500000D01*
%TO.N,SDA{slash}IO4*%
X117700000Y-95200000D02*
X117700000Y-92800000D01*
X118200000Y-92300000D02*
X118300000Y-92300000D01*
X122300000Y-99800000D02*
X117700000Y-95200000D01*
X117700000Y-92800000D02*
X118200000Y-92300000D01*
X123900000Y-99800000D02*
X122300000Y-99800000D01*
%TO.N,SCL{slash}IO5*%
X123900000Y-97260000D02*
X120760000Y-97260000D01*
X120760000Y-97260000D02*
X118600000Y-95100000D01*
X118600000Y-95100000D02*
X118600000Y-93800000D01*
D26*
%TO.N,Net-(J23-CC1)*%
X140150000Y-83450000D02*
X140150000Y-85550000D01*
X140700000Y-82900000D02*
X140150000Y-83450000D01*
X141300000Y-78100000D02*
X140700000Y-78700000D01*
X141300000Y-77200000D02*
X141300000Y-78100000D01*
X140700000Y-78700000D02*
X140700000Y-82900000D01*
D23*
%TO.N,Net-(U2-A1)*%
X87100000Y-97200000D02*
X89260000Y-99360000D01*
X89300000Y-85700000D02*
X87100000Y-87900000D01*
X87100000Y-87900000D02*
X87100000Y-97200000D01*
X92300000Y-85700000D02*
X89300000Y-85700000D01*
X89260000Y-99360000D02*
X89390000Y-99360000D01*
D26*
%TO.N,Net-(J23-CC2)*%
X140000000Y-78400000D02*
X140500000Y-77900000D01*
X140000000Y-82200000D02*
X140000000Y-78400000D01*
%TD*%
%TA.AperFunction,Conductor*%
%TO.N,GND*%
G36*
X104160718Y-71880564D02*
G01*
X104227757Y-71900249D01*
X104270973Y-71922855D01*
X104287008Y-71938327D01*
X104332763Y-71991131D01*
X104356897Y-72033514D01*
X104360437Y-72046417D01*
X104371643Y-72097928D01*
X104374500Y-72124500D01*
X104374500Y-79049435D01*
X104400089Y-79144937D01*
X104449526Y-79230564D01*
X104519436Y-79300474D01*
X104605061Y-79349910D01*
X104700565Y-79375500D01*
X114085217Y-79375500D01*
X114120435Y-79380564D01*
X114187474Y-79400249D01*
X114230690Y-79422855D01*
X114246725Y-79438327D01*
X114292480Y-79491131D01*
X114316614Y-79533514D01*
X114321739Y-79555199D01*
X114331683Y-79624357D01*
X114329072Y-79673059D01*
X114321659Y-79694074D01*
X114292634Y-79757630D01*
X114270411Y-79790886D01*
X114264379Y-79797364D01*
X114261286Y-79800569D01*
X102370287Y-91691569D01*
X102341805Y-91712891D01*
X102280482Y-91746376D01*
X102233939Y-91760950D01*
X102207581Y-91763784D01*
X102194218Y-91764500D01*
X97282889Y-91764500D01*
X97247671Y-91759436D01*
X97180632Y-91739751D01*
X97137417Y-91717146D01*
X97116775Y-91700512D01*
X97106820Y-91691569D01*
X97006079Y-91590828D01*
X96830920Y-91463567D01*
X96638011Y-91365274D01*
X96432095Y-91298367D01*
X96218255Y-91264500D01*
X96001740Y-91264500D01*
X95787903Y-91298367D01*
X95581987Y-91365274D01*
X95389078Y-91463567D01*
X95213921Y-91590827D01*
X95060828Y-91743921D01*
X94933566Y-91919081D01*
X94835274Y-92111987D01*
X94768367Y-92317903D01*
X94734500Y-92531739D01*
X94734500Y-92748259D01*
X94768367Y-92962095D01*
X94835274Y-93168011D01*
X94933567Y-93360920D01*
X95060828Y-93536079D01*
X95213920Y-93689171D01*
X95389078Y-93816431D01*
X95581993Y-93914726D01*
X95787901Y-93981630D01*
X96001745Y-94015500D01*
X96218259Y-94015500D01*
X96432097Y-93981630D01*
X96638006Y-93914726D01*
X96830921Y-93816431D01*
X97006077Y-93689172D01*
X97029257Y-93665992D01*
X97057741Y-93644667D01*
X97119060Y-93611184D01*
X97165605Y-93596610D01*
X97187880Y-93596212D01*
X97257572Y-93601194D01*
X97304607Y-93614096D01*
X97316238Y-93620719D01*
X97360589Y-93649221D01*
X97381398Y-93665989D01*
X97601569Y-93886159D01*
X97622891Y-93914642D01*
X97656376Y-93975965D01*
X97670950Y-94022508D01*
X97673784Y-94048866D01*
X97674500Y-94062229D01*
X97674500Y-98406866D01*
X97669436Y-98442084D01*
X97649751Y-98509123D01*
X97627145Y-98552339D01*
X97611673Y-98568374D01*
X97558869Y-98614129D01*
X97516486Y-98638263D01*
X97494801Y-98643388D01*
X97425643Y-98653332D01*
X97376941Y-98650721D01*
X97355926Y-98643308D01*
X97292370Y-98614283D01*
X97252810Y-98585756D01*
X97252205Y-98585101D01*
X97233090Y-98564274D01*
X97224055Y-98553225D01*
X97159171Y-98463920D01*
X97006079Y-98310828D01*
X96830920Y-98183567D01*
X96638011Y-98085274D01*
X96432095Y-98018367D01*
X96218255Y-97984500D01*
X96001740Y-97984500D01*
X95787903Y-98018367D01*
X95581987Y-98085274D01*
X95389078Y-98183567D01*
X95213921Y-98310827D01*
X95060828Y-98463921D01*
X94933566Y-98639081D01*
X94835274Y-98831987D01*
X94768367Y-99037903D01*
X94734500Y-99251739D01*
X94734500Y-99468259D01*
X94768367Y-99682095D01*
X94835274Y-99888011D01*
X94933567Y-100080920D01*
X95060828Y-100256079D01*
X95213920Y-100409171D01*
X95389078Y-100536431D01*
X95581993Y-100634726D01*
X95787901Y-100701630D01*
X96001745Y-100735500D01*
X96218259Y-100735500D01*
X96432097Y-100701630D01*
X96638006Y-100634726D01*
X96830921Y-100536431D01*
X97006079Y-100409171D01*
X97159171Y-100256079D01*
X97224055Y-100166774D01*
X97248852Y-100141259D01*
X97304182Y-100098594D01*
X97347873Y-100076918D01*
X97369815Y-100073041D01*
X97439428Y-100067062D01*
X97487902Y-100072448D01*
X97508459Y-100081049D01*
X97570254Y-100113655D01*
X97608120Y-100144394D01*
X97620763Y-100162742D01*
X97655120Y-100223580D01*
X97670357Y-100269911D01*
X97670462Y-100270796D01*
X97673685Y-100298882D01*
X97674500Y-100313133D01*
X97674499Y-105561606D01*
X97698539Y-105682456D01*
X97745687Y-105796281D01*
X97814147Y-105898740D01*
X100501267Y-108585858D01*
X100603719Y-108654313D01*
X100717550Y-108701462D01*
X100838394Y-108725500D01*
X109246212Y-108725500D01*
X109281430Y-108730564D01*
X109348469Y-108750249D01*
X109391685Y-108772855D01*
X109407720Y-108788327D01*
X109453475Y-108841131D01*
X109473617Y-108873096D01*
X109475384Y-108877155D01*
X109476258Y-108879212D01*
X109512764Y-108967344D01*
X109597630Y-109094353D01*
X109705648Y-109202370D01*
X109832670Y-109287243D01*
X109973799Y-109345699D01*
X110123618Y-109375499D01*
X110276383Y-109375499D01*
X110426204Y-109345697D01*
X110567337Y-109287239D01*
X110694353Y-109202369D01*
X110802369Y-109094353D01*
X110887239Y-108967337D01*
X110948341Y-108819822D01*
X110966497Y-108789222D01*
X111010335Y-108734824D01*
X111047759Y-108703548D01*
X111068187Y-108694656D01*
X111134481Y-108672590D01*
X111182873Y-108666511D01*
X111204871Y-108670076D01*
X111272570Y-108687355D01*
X111316567Y-108708404D01*
X111318337Y-108709755D01*
X111342742Y-108728712D01*
X111354450Y-108739041D01*
X111401267Y-108785858D01*
X111503719Y-108854313D01*
X111617550Y-108901462D01*
X111738391Y-108925500D01*
X127138429Y-108925500D01*
X127173647Y-108930564D01*
X127240686Y-108950249D01*
X127283902Y-108972855D01*
X127299937Y-108988327D01*
X127345692Y-109041131D01*
X127369826Y-109083514D01*
X127374951Y-109105199D01*
X127384895Y-109174357D01*
X127382284Y-109223059D01*
X127376651Y-109239984D01*
X127353179Y-109296648D01*
X127337762Y-109323722D01*
X127267039Y-109418194D01*
X127228514Y-109521487D01*
X127224500Y-109558832D01*
X127224500Y-112541178D01*
X127228513Y-112578512D01*
X127267042Y-112681810D01*
X127331753Y-112768250D01*
X127418192Y-112832958D01*
X127521488Y-112871485D01*
X127558829Y-112875499D01*
X129541172Y-112875499D01*
X129578512Y-112871485D01*
X129681809Y-112832957D01*
X129768249Y-112768249D01*
X129832957Y-112681809D01*
X129871485Y-112578511D01*
X129875499Y-112541170D01*
X129875499Y-109558827D01*
X129871485Y-109521489D01*
X129832955Y-109418187D01*
X129768245Y-109331748D01*
X129681807Y-109267041D01*
X129578510Y-109228513D01*
X129541174Y-109224500D01*
X128861109Y-109224500D01*
X128825891Y-109219436D01*
X128758852Y-109199751D01*
X128715636Y-109177145D01*
X128699601Y-109161673D01*
X128653846Y-109108869D01*
X128629712Y-109066486D01*
X128624587Y-109044801D01*
X128614643Y-108975643D01*
X128617254Y-108926941D01*
X128624667Y-108905926D01*
X128653692Y-108842370D01*
X128680185Y-108804747D01*
X128684795Y-108800256D01*
X128685721Y-108798872D01*
X130785856Y-106698734D01*
X130854309Y-106596286D01*
X130901463Y-106482448D01*
X130925500Y-106361606D01*
X130925500Y-104335269D01*
X130930564Y-104300051D01*
X130950249Y-104233012D01*
X130965618Y-104199742D01*
X130966831Y-104197890D01*
X130967465Y-104196930D01*
X130987240Y-104167334D01*
X131045697Y-104026204D01*
X131075499Y-103876380D01*
X131075499Y-103723615D01*
X131045696Y-103573792D01*
X130987239Y-103432663D01*
X130907174Y-103312837D01*
X130891819Y-103280743D01*
X130870941Y-103214066D01*
X130865727Y-103165573D01*
X130869684Y-103143645D01*
X130888168Y-103076265D01*
X130909999Y-103032651D01*
X130925183Y-103016342D01*
X130977162Y-102969651D01*
X131019106Y-102944764D01*
X131033034Y-102940742D01*
X131086551Y-102928599D01*
X131114210Y-102925500D01*
X137079192Y-102925500D01*
X137114410Y-102930564D01*
X137181449Y-102950249D01*
X137224664Y-102972854D01*
X137245306Y-102989488D01*
X137255261Y-102998431D01*
X140051569Y-105794739D01*
X140072891Y-105823221D01*
X140106376Y-105884544D01*
X140120950Y-105931087D01*
X140123784Y-105957445D01*
X140124500Y-105970808D01*
X140124500Y-106076383D01*
X140154301Y-106226204D01*
X140212764Y-106367344D01*
X140297630Y-106494353D01*
X140405648Y-106602370D01*
X140532670Y-106687243D01*
X140673799Y-106745699D01*
X140823618Y-106775499D01*
X140976383Y-106775499D01*
X141126204Y-106745697D01*
X141267337Y-106687239D01*
X141394353Y-106602369D01*
X141502369Y-106494353D01*
X141587239Y-106367337D01*
X141645697Y-106226205D01*
X141675499Y-106076381D01*
X141675499Y-105923615D01*
X141645697Y-105773794D01*
X141587234Y-105632654D01*
X141502368Y-105505645D01*
X141394350Y-105397628D01*
X141267332Y-105312758D01*
X141126196Y-105254299D01*
X141039587Y-105237072D01*
X141006035Y-105225236D01*
X140944124Y-105192851D01*
X140914440Y-105171237D01*
X140912862Y-105169686D01*
X140912096Y-105168926D01*
X137734988Y-101991818D01*
X137648916Y-101934308D01*
X137553276Y-101894693D01*
X137451759Y-101874500D01*
X119520807Y-101874500D01*
X119485589Y-101869436D01*
X119418550Y-101849751D01*
X119375335Y-101827146D01*
X119354693Y-101810512D01*
X119344738Y-101801569D01*
X116098431Y-98555261D01*
X116077109Y-98526779D01*
X116043624Y-98465456D01*
X116029050Y-98418913D01*
X116026216Y-98392555D01*
X116025500Y-98379192D01*
X116025500Y-97969807D01*
X116030563Y-97934592D01*
X116033015Y-97926237D01*
X116033637Y-97917554D01*
X116046540Y-97870520D01*
X116058247Y-97851568D01*
X116059448Y-97849963D01*
X116072861Y-97824327D01*
X116088325Y-97808301D01*
X116094906Y-97802598D01*
X116100125Y-97795627D01*
X116136410Y-97763036D01*
X116156499Y-97753424D01*
X116158378Y-97752722D01*
X116183522Y-97738407D01*
X116205195Y-97733286D01*
X116213813Y-97732046D01*
X116221974Y-97729003D01*
X116270119Y-97721203D01*
X116292218Y-97723978D01*
X116294172Y-97724403D01*
X116323069Y-97725954D01*
X116344074Y-97733365D01*
X116351993Y-97736981D01*
X116360499Y-97738832D01*
X116405218Y-97758298D01*
X116408834Y-97760905D01*
X116426559Y-97774173D01*
X116426127Y-97774748D01*
X116440886Y-97784613D01*
X116447364Y-97790645D01*
X116450569Y-97793738D01*
X116665012Y-98008181D01*
X116751083Y-98065691D01*
X116846721Y-98105305D01*
X116948243Y-98125500D01*
X118125638Y-98125500D01*
X118160856Y-98130564D01*
X118227895Y-98150249D01*
X118271110Y-98172854D01*
X118291752Y-98189488D01*
X118301704Y-98198427D01*
X118305646Y-98202368D01*
X118432670Y-98287243D01*
X118573799Y-98345699D01*
X118723618Y-98375499D01*
X118876383Y-98375499D01*
X119026204Y-98345697D01*
X119167337Y-98287239D01*
X119294353Y-98202369D01*
X119402368Y-98094354D01*
X119413573Y-98077585D01*
X119437349Y-98051115D01*
X119490960Y-98006310D01*
X119533766Y-97982935D01*
X119555538Y-97978199D01*
X119624863Y-97969490D01*
X119673512Y-97972968D01*
X119694391Y-97980755D01*
X119757419Y-98010909D01*
X119789467Y-98032950D01*
X119794287Y-98037519D01*
X119796680Y-98039850D01*
X121965011Y-100208181D01*
X122051081Y-100265691D01*
X122146719Y-100305305D01*
X122248243Y-100325500D01*
X122425501Y-100325500D01*
X122460719Y-100330564D01*
X122527758Y-100350249D01*
X122570974Y-100372855D01*
X122587009Y-100388327D01*
X122632764Y-100441131D01*
X122656898Y-100483514D01*
X122660438Y-100496417D01*
X122671644Y-100547928D01*
X122674501Y-100574500D01*
X122674501Y-100691178D01*
X122678513Y-100728512D01*
X122717042Y-100831810D01*
X122781753Y-100918250D01*
X122868191Y-100982957D01*
X122971488Y-101021485D01*
X123008829Y-101025499D01*
X124791172Y-101025499D01*
X124828512Y-101021485D01*
X124931809Y-100982957D01*
X125018249Y-100918249D01*
X125082957Y-100831809D01*
X125121485Y-100728511D01*
X125125499Y-100691170D01*
X125125499Y-98908827D01*
X125121485Y-98871489D01*
X125082955Y-98768187D01*
X125018245Y-98681748D01*
X124931806Y-98617040D01*
X124817235Y-98574308D01*
X124786008Y-98557257D01*
X124730074Y-98515386D01*
X124697482Y-98479103D01*
X124687864Y-98459001D01*
X124663447Y-98393536D01*
X124655646Y-98345391D01*
X124658423Y-98323282D01*
X124673275Y-98255009D01*
X124692741Y-98210290D01*
X124695348Y-98206673D01*
X124716493Y-98178425D01*
X124728175Y-98164943D01*
X124834761Y-98058357D01*
X124948139Y-97902304D01*
X125035715Y-97730426D01*
X125095324Y-97546972D01*
X125125500Y-97356449D01*
X125125500Y-97163550D01*
X125095324Y-96973027D01*
X125035715Y-96789573D01*
X124948139Y-96617695D01*
X124834759Y-96461639D01*
X124698359Y-96325239D01*
X124542246Y-96211817D01*
X124513226Y-96191362D01*
X124462431Y-96143389D01*
X124434187Y-96103626D01*
X124426925Y-96082561D01*
X124410129Y-96014741D01*
X124407865Y-95966021D01*
X124413144Y-95944374D01*
X124435680Y-95878238D01*
X124460115Y-95836028D01*
X124472141Y-95824088D01*
X124517196Y-95785047D01*
X124542285Y-95768153D01*
X124698357Y-95654760D01*
X124834761Y-95518356D01*
X124948142Y-95362299D01*
X125035715Y-95190426D01*
X125095324Y-95006972D01*
X125125500Y-94816449D01*
X125125500Y-94623550D01*
X125095324Y-94433027D01*
X125035715Y-94249573D01*
X124948139Y-94077695D01*
X124834759Y-93921639D01*
X124698356Y-93785236D01*
X124542305Y-93671860D01*
X124541757Y-93671581D01*
X124512677Y-93651081D01*
X124461880Y-93603107D01*
X124433636Y-93563345D01*
X124426372Y-93542277D01*
X124409577Y-93474456D01*
X124407315Y-93425736D01*
X124412593Y-93404089D01*
X124435130Y-93337954D01*
X124459566Y-93295745D01*
X124471593Y-93283804D01*
X124516651Y-93244762D01*
X124541755Y-93227858D01*
X124542042Y-93227711D01*
X124698029Y-93114380D01*
X124834383Y-92978025D01*
X124947712Y-92822040D01*
X125035252Y-92650235D01*
X125066196Y-92555000D01*
X124333012Y-92555000D01*
X124285177Y-92545485D01*
X124244624Y-92518388D01*
X124217527Y-92477835D01*
X124208012Y-92430000D01*
X124217527Y-92382165D01*
X124224759Y-92367500D01*
X124249442Y-92324746D01*
X124275000Y-92229367D01*
X124275000Y-92130632D01*
X124249442Y-92035253D01*
X124224759Y-91992500D01*
X124209081Y-91946316D01*
X124212271Y-91897648D01*
X124233843Y-91853905D01*
X124270512Y-91821747D01*
X124316696Y-91806069D01*
X124333012Y-91805000D01*
X125066196Y-91805000D01*
X125035252Y-91709762D01*
X124947712Y-91537958D01*
X124834380Y-91381969D01*
X124698025Y-91245615D01*
X124542040Y-91132286D01*
X124370233Y-91044745D01*
X124275000Y-91013802D01*
X124275000Y-91746988D01*
X124265485Y-91794823D01*
X124238388Y-91835376D01*
X124197835Y-91862473D01*
X124150000Y-91871988D01*
X124102165Y-91862473D01*
X124087500Y-91855241D01*
X124044746Y-91830557D01*
X123949367Y-91805000D01*
X123850633Y-91805000D01*
X123755253Y-91830557D01*
X123712500Y-91855241D01*
X123666316Y-91870919D01*
X123617648Y-91867729D01*
X123573905Y-91846157D01*
X123541747Y-91809488D01*
X123526069Y-91763304D01*
X123525000Y-91746988D01*
X123524999Y-91013802D01*
X123429765Y-91044745D01*
X123257958Y-91132286D01*
X123101969Y-91245618D01*
X122965615Y-91381973D01*
X122852286Y-91537958D01*
X122764746Y-91709763D01*
X122733803Y-91805000D01*
X123466988Y-91805000D01*
X123514823Y-91814515D01*
X123555376Y-91841612D01*
X123582473Y-91882165D01*
X123591988Y-91930000D01*
X123582473Y-91977835D01*
X123575241Y-91992500D01*
X123550557Y-92035253D01*
X123525000Y-92130632D01*
X123525000Y-92229367D01*
X123550557Y-92324746D01*
X123575241Y-92367500D01*
X123590919Y-92413684D01*
X123587729Y-92462352D01*
X123566157Y-92506095D01*
X123529488Y-92538253D01*
X123483304Y-92553931D01*
X123466988Y-92555000D01*
X122733803Y-92555000D01*
X122764746Y-92650236D01*
X122852286Y-92822040D01*
X122965618Y-92978029D01*
X123101973Y-93114383D01*
X123257959Y-93227713D01*
X123258247Y-93227860D01*
X123287322Y-93248357D01*
X123338119Y-93296331D01*
X123366363Y-93336093D01*
X123373627Y-93357161D01*
X123390422Y-93424982D01*
X123392684Y-93473702D01*
X123387406Y-93495349D01*
X123364869Y-93561484D01*
X123340433Y-93603693D01*
X123328409Y-93615632D01*
X123283358Y-93654670D01*
X123258245Y-93671579D01*
X123257696Y-93671858D01*
X123101642Y-93785236D01*
X122965239Y-93921639D01*
X122851859Y-94077695D01*
X122764285Y-94249570D01*
X122704675Y-94433030D01*
X122674500Y-94623550D01*
X122674500Y-94816448D01*
X122704675Y-95006971D01*
X122764285Y-95190428D01*
X122851859Y-95362303D01*
X122965239Y-95518359D01*
X123101642Y-95654762D01*
X123257699Y-95768142D01*
X123257700Y-95768143D01*
X123286775Y-95788640D01*
X123337571Y-95836615D01*
X123365814Y-95876378D01*
X123373077Y-95897446D01*
X123389871Y-95965267D01*
X123392133Y-96013987D01*
X123386854Y-96035633D01*
X123364316Y-96101768D01*
X123339879Y-96143977D01*
X123327855Y-96155917D01*
X123282803Y-96194954D01*
X123257710Y-96211848D01*
X123101642Y-96325236D01*
X122965237Y-96461641D01*
X122843213Y-96629597D01*
X122824086Y-96647276D01*
X122824600Y-96647844D01*
X122778155Y-96689862D01*
X122736299Y-96714897D01*
X122722172Y-96719018D01*
X122668259Y-96731352D01*
X122640382Y-96734500D01*
X121080808Y-96734500D01*
X121045590Y-96729436D01*
X120978551Y-96709751D01*
X120935336Y-96687146D01*
X120914694Y-96670512D01*
X120904739Y-96661569D01*
X119198431Y-94955261D01*
X119177109Y-94926779D01*
X119143624Y-94865456D01*
X119129050Y-94818913D01*
X119126216Y-94792555D01*
X119125500Y-94779192D01*
X119125500Y-94474361D01*
X119130564Y-94439143D01*
X119150249Y-94372104D01*
X119172851Y-94328893D01*
X119189482Y-94308253D01*
X119198431Y-94298290D01*
X119202372Y-94294348D01*
X119287239Y-94167337D01*
X119345697Y-94026205D01*
X119375499Y-93876381D01*
X119375499Y-93723615D01*
X119345697Y-93573794D01*
X119287234Y-93432654D01*
X119202368Y-93305645D01*
X119094349Y-93197627D01*
X118982372Y-93122806D01*
X118955904Y-93099031D01*
X118911099Y-93045419D01*
X118887725Y-93002613D01*
X118882988Y-92980838D01*
X118874281Y-92911513D01*
X118877761Y-92862865D01*
X118881986Y-92850172D01*
X118901285Y-92801119D01*
X118913673Y-92777436D01*
X118987239Y-92667337D01*
X119045697Y-92526205D01*
X119075499Y-92376381D01*
X119075499Y-92223614D01*
X119045698Y-92073797D01*
X118987234Y-91932654D01*
X118902368Y-91805645D01*
X118794350Y-91697628D01*
X118667328Y-91612755D01*
X118526198Y-91554299D01*
X118376382Y-91524500D01*
X118223617Y-91524500D01*
X118073794Y-91554301D01*
X117932654Y-91612764D01*
X117805645Y-91697630D01*
X117697628Y-91805648D01*
X117612758Y-91932666D01*
X117554299Y-92073802D01*
X117537072Y-92160411D01*
X117525236Y-92193963D01*
X117492851Y-92255874D01*
X117471265Y-92285530D01*
X117469715Y-92287108D01*
X117468928Y-92287902D01*
X117291815Y-92465014D01*
X117234304Y-92551088D01*
X117194693Y-92646719D01*
X117174500Y-92748239D01*
X117174500Y-92818971D01*
X117169436Y-92854189D01*
X117149751Y-92921228D01*
X117127145Y-92964444D01*
X117111673Y-92980479D01*
X117058869Y-93026234D01*
X117016486Y-93050368D01*
X116994801Y-93055493D01*
X116925643Y-93065437D01*
X116876941Y-93062826D01*
X116863125Y-93058433D01*
X116811882Y-93038797D01*
X116787169Y-93026010D01*
X116767332Y-93012757D01*
X116626198Y-92954299D01*
X116476382Y-92924500D01*
X116323619Y-92924500D01*
X116323076Y-92924608D01*
X116287546Y-92926512D01*
X116217955Y-92920283D01*
X116171158Y-92906541D01*
X116152415Y-92894495D01*
X116097238Y-92851632D01*
X116065299Y-92814773D01*
X116056042Y-92794503D01*
X116032798Y-92728613D01*
X116025723Y-92690380D01*
X116025545Y-92683744D01*
X116025500Y-92680392D01*
X116025500Y-88576383D01*
X117524500Y-88576383D01*
X117554301Y-88726204D01*
X117612764Y-88867344D01*
X117697630Y-88994353D01*
X117805648Y-89102370D01*
X117932670Y-89187243D01*
X118073799Y-89245699D01*
X118223618Y-89275499D01*
X118376383Y-89275499D01*
X118526204Y-89245697D01*
X118667337Y-89187239D01*
X118794355Y-89102367D01*
X118798296Y-89098427D01*
X118826775Y-89077109D01*
X118888098Y-89043624D01*
X118934641Y-89029050D01*
X118960999Y-89026216D01*
X118974362Y-89025500D01*
X124979192Y-89025500D01*
X125014410Y-89030564D01*
X125081449Y-89050249D01*
X125124664Y-89072854D01*
X125145306Y-89089488D01*
X125155261Y-89098431D01*
X126551569Y-90494739D01*
X126572891Y-90523221D01*
X126606376Y-90584544D01*
X126620950Y-90631087D01*
X126623784Y-90657445D01*
X126624500Y-90670808D01*
X126624500Y-94625638D01*
X126619436Y-94660856D01*
X126599751Y-94727895D01*
X126577146Y-94771110D01*
X126560512Y-94791752D01*
X126551569Y-94801707D01*
X126547630Y-94805645D01*
X126462755Y-94932670D01*
X126404299Y-95073799D01*
X126374500Y-95223614D01*
X126374500Y-95376383D01*
X126404301Y-95526204D01*
X126462764Y-95667344D01*
X126547630Y-95794353D01*
X126655648Y-95902370D01*
X126782670Y-95987243D01*
X126923799Y-96045699D01*
X127073618Y-96075499D01*
X127226383Y-96075499D01*
X127376204Y-96045697D01*
X127517337Y-95987239D01*
X127644353Y-95902369D01*
X127752369Y-95794353D01*
X127837239Y-95667337D01*
X127895697Y-95526204D01*
X127925499Y-95376380D01*
X127925499Y-95223615D01*
X127895697Y-95073794D01*
X127837234Y-94932654D01*
X127752366Y-94805642D01*
X127748431Y-94801707D01*
X127727109Y-94773225D01*
X127693624Y-94711902D01*
X127679050Y-94665359D01*
X127676216Y-94639001D01*
X127675500Y-94625638D01*
X127675500Y-90670808D01*
X127680564Y-90635590D01*
X127700249Y-90568551D01*
X127722854Y-90525336D01*
X127739488Y-90504694D01*
X127748431Y-90494739D01*
X128844739Y-89398431D01*
X128873221Y-89377109D01*
X128934544Y-89343624D01*
X128981087Y-89329050D01*
X129007445Y-89326216D01*
X129020808Y-89325500D01*
X135251759Y-89325500D01*
X135353280Y-89305305D01*
X135448918Y-89265690D01*
X135534988Y-89208181D01*
X137011558Y-87731612D01*
X137048170Y-87695000D01*
X140803235Y-87695000D01*
X141428012Y-87695000D01*
X141475847Y-87704515D01*
X141516400Y-87731612D01*
X141543497Y-87772165D01*
X141553012Y-87820000D01*
X141543497Y-87867835D01*
X141516400Y-87908388D01*
X141490511Y-87928254D01*
X141487544Y-87929966D01*
X141454965Y-87962545D01*
X141431926Y-88002450D01*
X141420000Y-88046960D01*
X141420000Y-88093039D01*
X141431926Y-88137549D01*
X141454965Y-88177454D01*
X141487544Y-88210033D01*
X141490511Y-88211746D01*
X141527180Y-88243904D01*
X141548752Y-88287646D01*
X141551943Y-88336314D01*
X141536266Y-88382499D01*
X141504108Y-88419168D01*
X141460366Y-88440740D01*
X141428012Y-88445000D01*
X140803237Y-88445000D01*
X140819588Y-88484475D01*
X140915343Y-88627781D01*
X141037220Y-88749657D01*
X141180535Y-88845416D01*
X141339781Y-88911376D01*
X141508818Y-88945000D01*
X141770000Y-88945000D01*
X141770000Y-88370000D01*
X141779515Y-88322165D01*
X141806612Y-88281612D01*
X141847165Y-88254515D01*
X141895000Y-88245000D01*
X142395000Y-88245000D01*
X142442835Y-88254515D01*
X142483388Y-88281612D01*
X142510485Y-88322165D01*
X142520000Y-88370000D01*
X142520000Y-88944999D01*
X142781183Y-88944999D01*
X142950229Y-88911373D01*
X143109475Y-88845410D01*
X143252781Y-88749655D01*
X143374657Y-88627778D01*
X143470419Y-88484459D01*
X143486764Y-88445000D01*
X145233237Y-88445000D01*
X145249588Y-88484475D01*
X145345343Y-88627781D01*
X145467220Y-88749657D01*
X145610535Y-88845416D01*
X145769781Y-88911376D01*
X145938818Y-88945000D01*
X145950000Y-88945000D01*
X145950000Y-88403000D01*
X146700000Y-88403000D01*
X146700000Y-88944999D01*
X146711183Y-88944999D01*
X146880229Y-88911373D01*
X147039475Y-88845410D01*
X147182781Y-88749655D01*
X147304657Y-88627778D01*
X147400419Y-88484459D01*
X147416764Y-88445000D01*
X146791988Y-88445000D01*
X146744153Y-88435485D01*
X146703600Y-88408388D01*
X146700000Y-88403000D01*
X145950000Y-88403000D01*
X145950000Y-88401046D01*
X145934108Y-88419168D01*
X145890366Y-88440740D01*
X145858012Y-88445000D01*
X145233237Y-88445000D01*
X143486764Y-88445000D01*
X142861988Y-88445000D01*
X142814153Y-88435485D01*
X142773600Y-88408388D01*
X142746503Y-88367835D01*
X142736988Y-88320000D01*
X142746503Y-88272165D01*
X142773600Y-88231612D01*
X142799489Y-88211746D01*
X142802455Y-88210033D01*
X142835034Y-88177454D01*
X142858073Y-88137549D01*
X142870000Y-88093039D01*
X145850000Y-88093039D01*
X145861926Y-88137549D01*
X145884965Y-88177454D01*
X145917544Y-88210033D01*
X145920511Y-88211746D01*
X145957180Y-88243904D01*
X145978752Y-88287646D01*
X145979094Y-88292863D01*
X145986612Y-88281612D01*
X146027165Y-88254515D01*
X146075000Y-88245000D01*
X146575000Y-88245000D01*
X146622835Y-88254515D01*
X146663388Y-88281612D01*
X146672046Y-88294569D01*
X146676503Y-88272165D01*
X146703600Y-88231612D01*
X146729489Y-88211746D01*
X146732455Y-88210033D01*
X146765034Y-88177454D01*
X146788073Y-88137549D01*
X146800000Y-88093039D01*
X146800000Y-88046960D01*
X146788073Y-88002450D01*
X146765034Y-87962545D01*
X146732455Y-87929966D01*
X146729489Y-87928254D01*
X146692820Y-87896096D01*
X146671248Y-87852354D01*
X146670905Y-87847136D01*
X146663388Y-87858388D01*
X146622835Y-87885485D01*
X146575000Y-87895000D01*
X146075000Y-87895000D01*
X146027165Y-87885485D01*
X145986612Y-87858388D01*
X145977953Y-87845430D01*
X145973497Y-87867835D01*
X145946400Y-87908388D01*
X145920511Y-87928254D01*
X145917544Y-87929966D01*
X145884965Y-87962545D01*
X145861926Y-88002450D01*
X145850000Y-88046960D01*
X145850000Y-88093039D01*
X142870000Y-88093039D01*
X142870000Y-88046960D01*
X142858073Y-88002450D01*
X142835034Y-87962545D01*
X142802455Y-87929966D01*
X142799489Y-87928254D01*
X142762820Y-87896096D01*
X142741248Y-87852354D01*
X142738057Y-87803686D01*
X142753734Y-87757501D01*
X142785892Y-87720832D01*
X142829634Y-87699260D01*
X142861988Y-87695000D01*
X143486762Y-87695000D01*
X145233235Y-87695000D01*
X145858012Y-87695000D01*
X145905847Y-87704515D01*
X145946400Y-87731612D01*
X145950000Y-87736999D01*
X145950000Y-87195000D01*
X146700000Y-87195000D01*
X146700000Y-87738953D01*
X146715892Y-87720832D01*
X146759634Y-87699260D01*
X146791988Y-87695000D01*
X147416762Y-87695000D01*
X147400410Y-87655523D01*
X147304655Y-87512217D01*
X147182778Y-87390341D01*
X147039463Y-87294582D01*
X146880217Y-87228622D01*
X146711185Y-87195000D01*
X146700000Y-87195000D01*
X145950000Y-87195000D01*
X145938815Y-87195000D01*
X145769769Y-87228625D01*
X145610523Y-87294588D01*
X145467217Y-87390343D01*
X145345341Y-87512220D01*
X145249579Y-87655539D01*
X145233235Y-87695000D01*
X143486762Y-87695000D01*
X143470410Y-87655523D01*
X143374655Y-87512217D01*
X143252778Y-87390341D01*
X143105017Y-87291611D01*
X143080723Y-87277197D01*
X143026320Y-87233356D01*
X142995044Y-87195932D01*
X142986151Y-87175501D01*
X142964086Y-87109206D01*
X142958007Y-87060813D01*
X142961572Y-87038816D01*
X142978852Y-86971117D01*
X142995474Y-86934142D01*
X142995395Y-86934096D01*
X142995849Y-86933308D01*
X142996455Y-86931962D01*
X142997625Y-86930233D01*
X143064799Y-86813885D01*
X143095500Y-86699308D01*
X143095500Y-86580691D01*
X143064799Y-86466112D01*
X143005489Y-86363385D01*
X142921615Y-86279511D01*
X142818886Y-86220200D01*
X142704309Y-86189500D01*
X142585691Y-86189500D01*
X142471112Y-86220200D01*
X142368384Y-86279511D01*
X142284510Y-86363386D01*
X142225200Y-86466112D01*
X142194500Y-86580690D01*
X142194500Y-86699308D01*
X142225200Y-86813887D01*
X142284511Y-86916615D01*
X142368385Y-87000489D01*
X142395500Y-87016144D01*
X142423466Y-87038137D01*
X142471682Y-87088704D01*
X142497806Y-87129890D01*
X142502693Y-87145495D01*
X142516477Y-87202315D01*
X142520000Y-87231784D01*
X142520000Y-87770000D01*
X142510485Y-87817835D01*
X142483388Y-87858388D01*
X142442835Y-87885485D01*
X142395000Y-87895000D01*
X141895000Y-87895000D01*
X141847165Y-87885485D01*
X141806612Y-87858388D01*
X141779515Y-87817835D01*
X141770000Y-87770000D01*
X141770000Y-87195000D01*
X141508815Y-87195000D01*
X141339769Y-87228625D01*
X141180523Y-87294588D01*
X141037217Y-87390343D01*
X140915341Y-87512220D01*
X140819579Y-87655539D01*
X140803235Y-87695000D01*
X137048170Y-87695000D01*
X137108182Y-87634987D01*
X137165690Y-87548918D01*
X137205305Y-87453281D01*
X137225500Y-87351757D01*
X137225500Y-84074361D01*
X137230564Y-84039143D01*
X137250249Y-83972104D01*
X137272851Y-83928893D01*
X137289482Y-83908253D01*
X137298431Y-83898290D01*
X137302372Y-83894348D01*
X137387239Y-83767337D01*
X137445697Y-83626204D01*
X137475499Y-83476380D01*
X137475499Y-83323615D01*
X137445697Y-83173794D01*
X137387234Y-83032654D01*
X137302368Y-82905645D01*
X137194350Y-82797628D01*
X137067328Y-82712755D01*
X136926198Y-82654299D01*
X136776382Y-82624500D01*
X136623617Y-82624500D01*
X136473794Y-82654301D01*
X136332654Y-82712764D01*
X136205645Y-82797630D01*
X136097628Y-82905648D01*
X136012755Y-83032670D01*
X135954299Y-83173799D01*
X135924500Y-83323614D01*
X135924500Y-83476383D01*
X135954301Y-83626204D01*
X136012764Y-83767344D01*
X136097630Y-83894353D01*
X136101568Y-83898291D01*
X136122889Y-83926770D01*
X136156374Y-83988090D01*
X136170948Y-84034633D01*
X136173783Y-84060995D01*
X136174500Y-84074361D01*
X136174500Y-86979192D01*
X136169436Y-87014410D01*
X136149751Y-87081449D01*
X136127146Y-87124664D01*
X136110512Y-87145306D01*
X136101569Y-87155261D01*
X135055261Y-88201569D01*
X135026779Y-88222891D01*
X134965456Y-88256376D01*
X134918913Y-88270950D01*
X134892555Y-88273784D01*
X134879192Y-88274500D01*
X128648241Y-88274500D01*
X128546716Y-88294695D01*
X128451084Y-88334307D01*
X128365006Y-88391821D01*
X127326068Y-89430760D01*
X127297586Y-89452082D01*
X127236263Y-89485567D01*
X127189719Y-89500141D01*
X127167440Y-89500539D01*
X127097748Y-89495555D01*
X127050714Y-89482652D01*
X127039083Y-89476029D01*
X126994736Y-89447528D01*
X126973930Y-89430760D01*
X125634992Y-88091821D01*
X125548916Y-88034308D01*
X125453276Y-87994693D01*
X125351759Y-87974500D01*
X118974362Y-87974500D01*
X118939144Y-87969436D01*
X118872105Y-87949751D01*
X118828890Y-87927146D01*
X118808248Y-87910512D01*
X118798296Y-87901573D01*
X118794352Y-87897630D01*
X118667328Y-87812755D01*
X118526198Y-87754299D01*
X118376382Y-87724500D01*
X118223617Y-87724500D01*
X118073794Y-87754301D01*
X117932654Y-87812764D01*
X117805645Y-87897630D01*
X117697628Y-88005648D01*
X117612755Y-88132670D01*
X117554299Y-88273799D01*
X117524500Y-88423614D01*
X117524500Y-88576383D01*
X116025500Y-88576383D01*
X116025500Y-87820808D01*
X116030564Y-87785590D01*
X116050249Y-87718551D01*
X116072854Y-87675336D01*
X116089488Y-87654694D01*
X116098431Y-87644739D01*
X118244739Y-85498431D01*
X118273221Y-85477109D01*
X118334544Y-85443624D01*
X118381087Y-85429050D01*
X118407445Y-85426216D01*
X118420808Y-85425500D01*
X126125638Y-85425500D01*
X126160856Y-85430564D01*
X126227895Y-85450249D01*
X126271110Y-85472854D01*
X126291752Y-85489488D01*
X126301704Y-85498427D01*
X126305646Y-85502368D01*
X126432670Y-85587243D01*
X126573799Y-85645699D01*
X126723618Y-85675499D01*
X126876383Y-85675499D01*
X127026204Y-85645697D01*
X127167337Y-85587239D01*
X127294353Y-85502369D01*
X127402369Y-85394353D01*
X127487239Y-85267337D01*
X127545697Y-85126205D01*
X127575499Y-84976381D01*
X127575499Y-84823615D01*
X127545697Y-84673794D01*
X127487234Y-84532654D01*
X127402368Y-84405645D01*
X127294350Y-84297628D01*
X127167328Y-84212755D01*
X127026198Y-84154299D01*
X126876382Y-84124500D01*
X126723617Y-84124500D01*
X126573794Y-84154301D01*
X126432654Y-84212764D01*
X126305647Y-84297628D01*
X126301711Y-84301566D01*
X126273225Y-84322891D01*
X126211902Y-84356376D01*
X126165359Y-84370950D01*
X126139001Y-84373784D01*
X126125638Y-84374500D01*
X118048241Y-84374500D01*
X117946715Y-84394695D01*
X117851079Y-84434308D01*
X117765005Y-84491822D01*
X115091817Y-87165010D01*
X115034307Y-87251082D01*
X114994693Y-87346721D01*
X114974500Y-87448239D01*
X114974500Y-98751759D01*
X114994694Y-98853280D01*
X115034309Y-98948918D01*
X115091822Y-99034993D01*
X118865012Y-102808181D01*
X118951083Y-102865691D01*
X119046721Y-102905305D01*
X119148243Y-102925500D01*
X129485790Y-102925500D01*
X129521008Y-102930564D01*
X129588047Y-102950249D01*
X129631263Y-102972855D01*
X129647298Y-102988327D01*
X129693053Y-103041131D01*
X129717187Y-103083514D01*
X129722312Y-103105199D01*
X129732256Y-103174357D01*
X129729645Y-103223059D01*
X129725252Y-103236874D01*
X129705616Y-103288118D01*
X129692826Y-103312837D01*
X129612755Y-103432670D01*
X129554299Y-103573799D01*
X129524500Y-103723614D01*
X129524500Y-103876383D01*
X129554302Y-104026206D01*
X129612759Y-104167334D01*
X129632535Y-104196930D01*
X129647891Y-104229026D01*
X129668769Y-104295703D01*
X129674475Y-104331926D01*
X129674495Y-104334140D01*
X129674500Y-104335269D01*
X129674500Y-105937770D01*
X129669436Y-105972988D01*
X129649751Y-106040027D01*
X129627146Y-106083242D01*
X129610512Y-106103884D01*
X129601569Y-106113839D01*
X128113839Y-107601569D01*
X128085357Y-107622891D01*
X128024034Y-107656376D01*
X127977491Y-107670950D01*
X127951133Y-107673784D01*
X127937770Y-107674500D01*
X112162229Y-107674500D01*
X112127011Y-107669436D01*
X112059972Y-107649751D01*
X112016757Y-107627146D01*
X111996115Y-107610512D01*
X111986160Y-107601569D01*
X110698739Y-106314146D01*
X110596278Y-106245685D01*
X110482447Y-106198536D01*
X110361608Y-106174500D01*
X105162230Y-106174500D01*
X105127012Y-106169436D01*
X105059973Y-106149751D01*
X105016758Y-106127146D01*
X104996116Y-106110512D01*
X104986161Y-106101569D01*
X103898431Y-105013839D01*
X103877109Y-104985357D01*
X103843624Y-104924034D01*
X103829050Y-104877491D01*
X103826216Y-104851133D01*
X103825500Y-104837770D01*
X103825500Y-95285269D01*
X103830564Y-95250051D01*
X103850249Y-95183012D01*
X103865618Y-95149742D01*
X103866831Y-95147890D01*
X103867465Y-95146930D01*
X103887240Y-95117334D01*
X103945697Y-94976204D01*
X103975499Y-94826380D01*
X103975499Y-94673615D01*
X103945697Y-94523794D01*
X103887234Y-94382654D01*
X103802368Y-94255645D01*
X103694350Y-94147628D01*
X103567328Y-94062755D01*
X103426198Y-94004299D01*
X103276382Y-93974500D01*
X103123617Y-93974500D01*
X102973794Y-94004301D01*
X102832654Y-94062764D01*
X102705645Y-94147630D01*
X102597628Y-94255648D01*
X102512755Y-94382670D01*
X102454299Y-94523799D01*
X102424500Y-94673614D01*
X102424500Y-94826383D01*
X102454302Y-94976206D01*
X102512759Y-95117334D01*
X102532535Y-95146930D01*
X102547891Y-95179026D01*
X102568769Y-95245703D01*
X102574475Y-95281926D01*
X102574495Y-95284140D01*
X102574500Y-95285269D01*
X102574499Y-105261606D01*
X102598538Y-105382454D01*
X102645690Y-105496286D01*
X102714147Y-105598740D01*
X104164839Y-107049431D01*
X104186161Y-107077913D01*
X104219646Y-107139236D01*
X104234220Y-107185780D01*
X104234618Y-107208059D01*
X104229634Y-107277751D01*
X104216731Y-107324785D01*
X104205019Y-107343745D01*
X104163147Y-107399678D01*
X104126862Y-107432270D01*
X104106763Y-107441886D01*
X104041299Y-107466303D01*
X104002078Y-107474104D01*
X103993232Y-107474420D01*
X103988770Y-107474500D01*
X101262229Y-107474500D01*
X101227011Y-107469436D01*
X101159972Y-107449751D01*
X101116757Y-107427146D01*
X101096115Y-107410512D01*
X101086160Y-107401569D01*
X98998431Y-105313839D01*
X98977109Y-105285357D01*
X98943624Y-105224034D01*
X98929050Y-105177491D01*
X98926216Y-105151133D01*
X98925500Y-105137770D01*
X98925500Y-93764500D01*
X98930564Y-93729282D01*
X98950249Y-93662243D01*
X98972855Y-93619027D01*
X98988327Y-93602992D01*
X99041131Y-93557237D01*
X99083514Y-93533103D01*
X99096417Y-93529563D01*
X99147928Y-93518357D01*
X99174500Y-93515500D01*
X102746231Y-93515500D01*
X102915375Y-93481854D01*
X103074703Y-93415858D01*
X103218101Y-93320043D01*
X103355819Y-93182323D01*
X103355820Y-93182322D01*
X115189713Y-81348431D01*
X115218195Y-81327109D01*
X115279518Y-81293624D01*
X115326061Y-81279050D01*
X115352419Y-81276216D01*
X115365782Y-81275500D01*
X117326638Y-81275500D01*
X117361856Y-81280564D01*
X117428895Y-81300249D01*
X117472111Y-81322855D01*
X117488146Y-81338327D01*
X117533901Y-81391131D01*
X117558035Y-81433514D01*
X117563160Y-81455199D01*
X117573104Y-81524357D01*
X117570493Y-81573059D01*
X117563080Y-81594074D01*
X117534055Y-81657630D01*
X117511832Y-81690886D01*
X117505800Y-81697364D01*
X117502707Y-81700569D01*
X117497630Y-81705645D01*
X117412755Y-81832670D01*
X117354299Y-81973799D01*
X117324500Y-82123614D01*
X117324500Y-82276383D01*
X117354301Y-82426204D01*
X117412764Y-82567344D01*
X117497630Y-82694353D01*
X117605648Y-82802370D01*
X117732670Y-82887243D01*
X117873799Y-82945699D01*
X118023618Y-82975499D01*
X118176383Y-82975499D01*
X118326204Y-82945697D01*
X118467337Y-82887239D01*
X118594355Y-82802367D01*
X118598296Y-82798427D01*
X118626775Y-82777109D01*
X118688098Y-82743624D01*
X118734641Y-82729050D01*
X118760999Y-82726216D01*
X118774362Y-82725500D01*
X125525638Y-82725500D01*
X125560856Y-82730564D01*
X125627895Y-82750249D01*
X125671110Y-82772854D01*
X125691752Y-82789488D01*
X125701704Y-82798427D01*
X125705646Y-82802368D01*
X125832670Y-82887243D01*
X125973799Y-82945699D01*
X126123618Y-82975499D01*
X126276383Y-82975499D01*
X126426204Y-82945697D01*
X126567337Y-82887239D01*
X126694353Y-82802369D01*
X126802369Y-82694353D01*
X126887239Y-82567337D01*
X126945697Y-82426204D01*
X126975498Y-82276383D01*
X139224500Y-82276383D01*
X139254301Y-82426204D01*
X139312764Y-82567344D01*
X139397630Y-82694353D01*
X139505649Y-82802371D01*
X139647965Y-82897465D01*
X139664704Y-82914204D01*
X139664946Y-82913958D01*
X139708009Y-82956254D01*
X139735468Y-82996562D01*
X139742318Y-83017769D01*
X139757781Y-83085906D01*
X139759089Y-83134661D01*
X139755553Y-83149674D01*
X139739182Y-83203938D01*
X139727764Y-83230333D01*
X139706904Y-83266463D01*
X139674499Y-83387402D01*
X139674500Y-84825638D01*
X139669436Y-84860856D01*
X139649751Y-84927895D01*
X139627146Y-84971110D01*
X139610512Y-84991752D01*
X139601569Y-85001707D01*
X139547630Y-85055645D01*
X139462755Y-85182670D01*
X139404299Y-85323799D01*
X139374500Y-85473614D01*
X139374500Y-85626383D01*
X139404301Y-85776204D01*
X139462764Y-85917344D01*
X139547630Y-86044353D01*
X139655648Y-86152370D01*
X139782670Y-86237243D01*
X139923799Y-86295699D01*
X140073619Y-86325500D01*
X140226381Y-86325500D01*
X140376205Y-86295697D01*
X140517337Y-86237239D01*
X140644353Y-86152369D01*
X140752369Y-86044353D01*
X140837239Y-85917337D01*
X140895697Y-85776205D01*
X140925499Y-85626381D01*
X140925499Y-85473615D01*
X140895697Y-85323794D01*
X140837234Y-85182654D01*
X140752366Y-85055642D01*
X140698431Y-85001707D01*
X140677109Y-84973225D01*
X140643624Y-84911902D01*
X140629050Y-84865359D01*
X140626216Y-84839001D01*
X140625500Y-84825638D01*
X140625500Y-83750096D01*
X140630564Y-83714878D01*
X140650249Y-83647839D01*
X140672852Y-83604627D01*
X140689482Y-83583989D01*
X140698427Y-83574030D01*
X141080495Y-83191963D01*
X141143094Y-83083537D01*
X141175500Y-82962599D01*
X141175500Y-80542106D01*
X141180564Y-80506888D01*
X141200249Y-80439849D01*
X141222855Y-80396633D01*
X141238327Y-80380598D01*
X141291131Y-80334843D01*
X141333514Y-80310709D01*
X141355199Y-80305584D01*
X141424357Y-80295640D01*
X141463252Y-80296163D01*
X141469796Y-80297284D01*
X141473076Y-80297891D01*
X141508817Y-80305000D01*
X141770000Y-80305000D01*
X141770000Y-79730000D01*
X141779515Y-79682165D01*
X141806612Y-79641612D01*
X141847165Y-79614515D01*
X141895000Y-79605000D01*
X142395000Y-79605000D01*
X142442835Y-79614515D01*
X142483388Y-79641612D01*
X142510485Y-79682165D01*
X142520000Y-79730000D01*
X142520000Y-80268215D01*
X142514936Y-80303433D01*
X142495251Y-80370472D01*
X142472645Y-80413688D01*
X142461577Y-80425719D01*
X142419264Y-80466066D01*
X142395504Y-80483853D01*
X142368385Y-80499510D01*
X142284510Y-80583386D01*
X142225200Y-80686112D01*
X142194500Y-80800690D01*
X142194500Y-80919308D01*
X142225200Y-81033887D01*
X142284511Y-81136615D01*
X142368385Y-81220489D01*
X142471111Y-81279798D01*
X142585693Y-81310500D01*
X142704309Y-81310500D01*
X142818887Y-81279799D01*
X142921614Y-81220489D01*
X143005489Y-81136614D01*
X143064799Y-81033887D01*
X143095500Y-80919308D01*
X143095500Y-80800691D01*
X143064799Y-80686114D01*
X142993198Y-80562098D01*
X142985317Y-80538884D01*
X142966455Y-80490107D01*
X142958076Y-80442060D01*
X142960588Y-80419918D01*
X142974620Y-80351472D01*
X142993548Y-80306522D01*
X143007631Y-80289254D01*
X143056440Y-80239260D01*
X143091254Y-80214151D01*
X143104535Y-80207698D01*
X143109174Y-80205612D01*
X143252781Y-80109655D01*
X143374657Y-79987778D01*
X143470419Y-79844459D01*
X143486764Y-79805000D01*
X145233237Y-79805000D01*
X145249588Y-79844475D01*
X145345343Y-79987781D01*
X145467220Y-80109657D01*
X145610535Y-80205416D01*
X145769781Y-80271376D01*
X145938818Y-80305000D01*
X145950000Y-80305000D01*
X145950000Y-79763000D01*
X146700000Y-79763000D01*
X146700000Y-80304999D01*
X146711183Y-80304999D01*
X146880229Y-80271373D01*
X147039475Y-80205410D01*
X147182781Y-80109655D01*
X147304657Y-79987778D01*
X147400419Y-79844459D01*
X147416764Y-79805000D01*
X146791988Y-79805000D01*
X146744153Y-79795485D01*
X146703600Y-79768388D01*
X146700000Y-79763000D01*
X145950000Y-79763000D01*
X145950000Y-79761046D01*
X145934108Y-79779168D01*
X145890366Y-79800740D01*
X145858012Y-79805000D01*
X145233237Y-79805000D01*
X143486764Y-79805000D01*
X142861988Y-79805000D01*
X142814153Y-79795485D01*
X142773600Y-79768388D01*
X142746503Y-79727835D01*
X142736988Y-79680000D01*
X142746503Y-79632165D01*
X142773600Y-79591612D01*
X142799489Y-79571746D01*
X142802455Y-79570033D01*
X142835034Y-79537454D01*
X142858073Y-79497549D01*
X142870000Y-79453039D01*
X145850000Y-79453039D01*
X145861926Y-79497549D01*
X145884965Y-79537454D01*
X145917544Y-79570033D01*
X145920511Y-79571746D01*
X145957180Y-79603904D01*
X145978752Y-79647646D01*
X145979094Y-79652863D01*
X145986612Y-79641612D01*
X146027165Y-79614515D01*
X146075000Y-79605000D01*
X146575000Y-79605000D01*
X146622835Y-79614515D01*
X146663388Y-79641612D01*
X146672046Y-79654569D01*
X146676503Y-79632165D01*
X146703600Y-79591612D01*
X146729489Y-79571746D01*
X146732455Y-79570033D01*
X146765034Y-79537454D01*
X146788073Y-79497549D01*
X146800000Y-79453039D01*
X146800000Y-79406960D01*
X146788073Y-79362450D01*
X146765034Y-79322545D01*
X146732455Y-79289966D01*
X146729489Y-79288254D01*
X146692820Y-79256096D01*
X146671248Y-79212354D01*
X146670905Y-79207136D01*
X146663388Y-79218388D01*
X146622835Y-79245485D01*
X146575000Y-79255000D01*
X146075000Y-79255000D01*
X146027165Y-79245485D01*
X145986612Y-79218388D01*
X145977953Y-79205430D01*
X145973497Y-79227835D01*
X145946400Y-79268388D01*
X145920511Y-79288254D01*
X145917544Y-79289966D01*
X145884965Y-79322545D01*
X145861926Y-79362450D01*
X145850000Y-79406960D01*
X145850000Y-79453039D01*
X142870000Y-79453039D01*
X142870000Y-79406960D01*
X142858073Y-79362450D01*
X142835034Y-79322545D01*
X142802455Y-79289966D01*
X142799489Y-79288254D01*
X142762820Y-79256096D01*
X142741248Y-79212354D01*
X142738057Y-79163686D01*
X142753734Y-79117501D01*
X142785892Y-79080832D01*
X142829634Y-79059260D01*
X142861988Y-79055000D01*
X143486762Y-79055000D01*
X145233235Y-79055000D01*
X145858012Y-79055000D01*
X145905847Y-79064515D01*
X145946400Y-79091612D01*
X145950000Y-79096999D01*
X145950000Y-78555000D01*
X146700000Y-78555000D01*
X146700000Y-79098953D01*
X146715892Y-79080832D01*
X146759634Y-79059260D01*
X146791988Y-79055000D01*
X147416762Y-79055000D01*
X147400410Y-79015523D01*
X147304655Y-78872217D01*
X147182778Y-78750341D01*
X147039463Y-78654582D01*
X146880217Y-78588622D01*
X146711185Y-78555000D01*
X146700000Y-78555000D01*
X145950000Y-78555000D01*
X145938815Y-78555000D01*
X145769769Y-78588625D01*
X145610523Y-78654588D01*
X145467217Y-78750343D01*
X145345341Y-78872220D01*
X145249579Y-79015539D01*
X145233235Y-79055000D01*
X143486762Y-79055000D01*
X143470410Y-79015523D01*
X143374655Y-78872217D01*
X143252778Y-78750341D01*
X143109463Y-78654582D01*
X142950217Y-78588622D01*
X142781185Y-78555000D01*
X142520000Y-78555000D01*
X142520000Y-79130000D01*
X142510485Y-79177835D01*
X142483388Y-79218388D01*
X142442835Y-79245485D01*
X142395000Y-79255000D01*
X141895000Y-79255000D01*
X141847165Y-79245485D01*
X141806612Y-79218388D01*
X141779515Y-79177835D01*
X141770000Y-79130000D01*
X141770000Y-78460300D01*
X141753735Y-78430514D01*
X141739161Y-78383969D01*
X141738480Y-78367635D01*
X141739870Y-78309186D01*
X141744094Y-78279805D01*
X141775500Y-78162598D01*
X141775500Y-77924361D01*
X141780564Y-77889143D01*
X141800249Y-77822104D01*
X141822850Y-77778895D01*
X141839479Y-77758257D01*
X141848426Y-77748295D01*
X141902371Y-77694350D01*
X141987239Y-77567337D01*
X142045697Y-77426204D01*
X142075499Y-77276380D01*
X142075499Y-77123615D01*
X142045697Y-76973794D01*
X141987234Y-76832654D01*
X141902368Y-76705645D01*
X141794350Y-76597628D01*
X141667328Y-76512755D01*
X141526198Y-76454299D01*
X141376382Y-76424500D01*
X141223617Y-76424500D01*
X141073794Y-76454301D01*
X140932654Y-76512764D01*
X140805645Y-76597630D01*
X140697628Y-76705648D01*
X140612758Y-76832665D01*
X140548939Y-76986741D01*
X140530784Y-77017340D01*
X140486943Y-77071743D01*
X140449519Y-77103019D01*
X140438478Y-77108362D01*
X140391950Y-77128123D01*
X140367472Y-77135668D01*
X140273794Y-77154301D01*
X140132654Y-77212764D01*
X140005645Y-77297630D01*
X139897628Y-77405648D01*
X139812755Y-77532670D01*
X139754299Y-77673799D01*
X139724500Y-77823614D01*
X139724500Y-77899902D01*
X139719436Y-77935120D01*
X139699751Y-78002159D01*
X139683000Y-78037496D01*
X139678989Y-78043362D01*
X139676912Y-78046306D01*
X139671183Y-78054187D01*
X139658464Y-78069075D01*
X139619505Y-78108033D01*
X139556904Y-78216462D01*
X139524499Y-78337402D01*
X139524500Y-81475638D01*
X139519436Y-81510856D01*
X139499751Y-81577895D01*
X139477146Y-81621110D01*
X139460512Y-81641752D01*
X139451569Y-81651707D01*
X139397630Y-81705645D01*
X139312755Y-81832670D01*
X139254299Y-81973799D01*
X139224500Y-82123614D01*
X139224500Y-82276383D01*
X126975498Y-82276383D01*
X126975499Y-82276380D01*
X126975499Y-82123615D01*
X126945697Y-81973794D01*
X126887234Y-81832654D01*
X126802368Y-81705645D01*
X126694350Y-81597628D01*
X126567328Y-81512755D01*
X126457697Y-81467346D01*
X126427098Y-81449192D01*
X126403285Y-81430003D01*
X126378810Y-81411682D01*
X126374251Y-81406606D01*
X126372695Y-81405353D01*
X126366954Y-81398484D01*
X126346217Y-81375399D01*
X126344281Y-81371355D01*
X126341418Y-81367929D01*
X126332524Y-81347498D01*
X126322863Y-81318473D01*
X126312180Y-81289831D01*
X126311089Y-81283098D01*
X126310449Y-81281174D01*
X126309327Y-81272226D01*
X126304379Y-81241687D01*
X126304939Y-81237217D01*
X126304383Y-81232780D01*
X126307944Y-81210815D01*
X126315505Y-81181189D01*
X126322006Y-81151304D01*
X126324977Y-81144477D01*
X126324881Y-81144453D01*
X126325238Y-81143057D01*
X126329159Y-81134871D01*
X126341472Y-81106585D01*
X126344067Y-81102985D01*
X126345084Y-81101625D01*
X126346308Y-81099071D01*
X126347626Y-81097343D01*
X126366586Y-81072936D01*
X126376913Y-81061232D01*
X127380043Y-80058101D01*
X127475858Y-79914703D01*
X127541854Y-79755374D01*
X127575500Y-79586231D01*
X127575500Y-78513768D01*
X127541852Y-78344622D01*
X127475853Y-78185287D01*
X127380043Y-78041898D01*
X127258097Y-77919953D01*
X127114695Y-77824136D01*
X126955370Y-77758143D01*
X126786231Y-77724500D01*
X126613769Y-77724500D01*
X126444623Y-77758145D01*
X126285287Y-77824145D01*
X126141898Y-77919955D01*
X126019953Y-78041901D01*
X125924136Y-78185303D01*
X125858143Y-78344629D01*
X125824500Y-78513766D01*
X125824500Y-79034218D01*
X125819436Y-79069436D01*
X125799751Y-79136475D01*
X125777146Y-79179690D01*
X125760512Y-79200332D01*
X125751569Y-79210287D01*
X125510287Y-79451569D01*
X125481805Y-79472891D01*
X125420482Y-79506376D01*
X125373939Y-79520950D01*
X125347581Y-79523784D01*
X125334218Y-79524500D01*
X121812051Y-79524500D01*
X121776833Y-79519436D01*
X121709794Y-79499751D01*
X121666578Y-79477145D01*
X121650543Y-79461673D01*
X121604788Y-79408869D01*
X121580654Y-79366486D01*
X121575529Y-79344801D01*
X121565585Y-79275643D01*
X121568196Y-79226941D01*
X121571188Y-79216970D01*
X121586539Y-79172616D01*
X121596411Y-79150998D01*
X121599910Y-79144936D01*
X121625500Y-79049434D01*
X121625500Y-72124500D01*
X121630564Y-72089282D01*
X121650249Y-72022243D01*
X121672855Y-71979027D01*
X121688327Y-71962992D01*
X121741131Y-71917237D01*
X121783514Y-71893103D01*
X121796417Y-71889563D01*
X121847928Y-71878357D01*
X121874500Y-71875500D01*
X144350376Y-71875500D01*
X144385594Y-71880564D01*
X144452633Y-71900249D01*
X144495849Y-71922855D01*
X144511884Y-71938327D01*
X144557639Y-71991131D01*
X144581773Y-72033514D01*
X144586898Y-72055199D01*
X144596842Y-72124357D01*
X144594231Y-72173059D01*
X144586818Y-72194074D01*
X144557793Y-72257630D01*
X144529266Y-72297190D01*
X144525464Y-72300588D01*
X144497723Y-72324379D01*
X144482852Y-72335335D01*
X144385961Y-72396215D01*
X144159797Y-72576574D01*
X143955254Y-72781117D01*
X143774890Y-73007287D01*
X143620990Y-73252216D01*
X143495478Y-73512845D01*
X143399937Y-73785883D01*
X143335564Y-74067922D01*
X143303180Y-74355354D01*
X143303180Y-74644642D01*
X143335568Y-74932090D01*
X143399941Y-75214126D01*
X143495478Y-75487153D01*
X143620992Y-75747785D01*
X143774891Y-75992713D01*
X143955255Y-76218882D01*
X144159797Y-76423424D01*
X144385966Y-76603788D01*
X144630894Y-76757687D01*
X144891529Y-76883202D01*
X145164563Y-76978741D01*
X145446602Y-77043114D01*
X145734041Y-77075499D01*
X146023321Y-77075499D01*
X146310771Y-77043112D01*
X146592795Y-76978741D01*
X146865830Y-76883202D01*
X147126465Y-76757687D01*
X147371393Y-76603788D01*
X147597562Y-76423424D01*
X147802104Y-76218882D01*
X147982468Y-75992713D01*
X148136367Y-75747785D01*
X148143113Y-75733778D01*
X148162952Y-75704249D01*
X148209773Y-75652388D01*
X148248891Y-75623258D01*
X148269791Y-75615523D01*
X148337218Y-75597209D01*
X148385875Y-75593853D01*
X148407635Y-75598645D01*
X148474259Y-75619691D01*
X148517006Y-75643173D01*
X148532722Y-75658968D01*
X148577392Y-75712693D01*
X148600659Y-75755559D01*
X148603719Y-75767459D01*
X148613898Y-75817013D01*
X148616454Y-75842518D01*
X148507978Y-114181909D01*
X148502815Y-114217112D01*
X148482940Y-114284095D01*
X148460211Y-114327248D01*
X148444695Y-114343237D01*
X148391762Y-114388843D01*
X148349311Y-114412858D01*
X148327609Y-114417922D01*
X148258423Y-114427669D01*
X148209728Y-114424920D01*
X148188738Y-114417448D01*
X148125264Y-114388244D01*
X148087214Y-114361125D01*
X148071735Y-114344955D01*
X148064303Y-114336453D01*
X147923424Y-114159797D01*
X147718881Y-113955254D01*
X147492713Y-113774891D01*
X147247782Y-113620990D01*
X146987153Y-113495478D01*
X146714115Y-113399937D01*
X146432076Y-113335564D01*
X146144638Y-113303180D01*
X145855356Y-113303180D01*
X145567908Y-113335568D01*
X145285872Y-113399941D01*
X145012845Y-113495478D01*
X144752216Y-113620990D01*
X144507287Y-113774890D01*
X144281117Y-113955254D01*
X144076574Y-114159797D01*
X143896211Y-114385966D01*
X143742310Y-114630896D01*
X143616798Y-114891525D01*
X143521257Y-115164563D01*
X143456884Y-115446602D01*
X143424500Y-115734034D01*
X143424500Y-116023322D01*
X143456888Y-116310770D01*
X143521261Y-116592806D01*
X143616798Y-116865833D01*
X143742312Y-117126465D01*
X143896211Y-117371393D01*
X144076575Y-117597562D01*
X144281117Y-117802104D01*
X144507286Y-117982468D01*
X144604172Y-118043346D01*
X144631297Y-118066370D01*
X144677588Y-118118705D01*
X144702154Y-118160839D01*
X144707499Y-118182471D01*
X144718147Y-118251524D01*
X144716033Y-118300251D01*
X144708835Y-118321338D01*
X144680460Y-118385187D01*
X144652338Y-118425036D01*
X144634881Y-118438885D01*
X144576491Y-118477257D01*
X144531290Y-118495576D01*
X144526261Y-118496430D01*
X144490115Y-118501815D01*
X144471696Y-118503180D01*
X85703493Y-118503180D01*
X85668275Y-118498116D01*
X85601236Y-118478431D01*
X85558020Y-118455825D01*
X85541985Y-118440353D01*
X85496230Y-118387549D01*
X85472096Y-118345166D01*
X85466971Y-118323481D01*
X85457027Y-118254323D01*
X85459638Y-118205621D01*
X85467051Y-118184606D01*
X85496076Y-118121050D01*
X85523214Y-118082804D01*
X85539614Y-118067060D01*
X85548244Y-118059504D01*
X85718882Y-117923424D01*
X85923424Y-117718882D01*
X86103788Y-117492713D01*
X86257687Y-117247785D01*
X86383202Y-116987150D01*
X86478741Y-116714115D01*
X86543111Y-116432092D01*
X86575499Y-116144639D01*
X86575499Y-115855355D01*
X86546327Y-115596448D01*
X87944500Y-115596448D01*
X87974675Y-115786971D01*
X88034285Y-115970428D01*
X88121859Y-116142303D01*
X88235239Y-116298359D01*
X88371641Y-116434761D01*
X88527696Y-116548140D01*
X88699573Y-116635715D01*
X88883027Y-116695324D01*
X89073551Y-116725500D01*
X89266450Y-116725500D01*
X89456972Y-116695324D01*
X89640426Y-116635715D01*
X89812304Y-116548139D01*
X89968357Y-116434760D01*
X90104761Y-116298356D01*
X90218246Y-116142156D01*
X90238638Y-116113225D01*
X90286612Y-116062430D01*
X90326375Y-116034187D01*
X90347439Y-116026925D01*
X90415259Y-116010129D01*
X90463979Y-116007865D01*
X90485626Y-116013144D01*
X90551762Y-116035680D01*
X90593972Y-116060115D01*
X90605913Y-116072142D01*
X90644955Y-116117199D01*
X90661840Y-116142277D01*
X90775239Y-116298359D01*
X90911641Y-116434761D01*
X91067696Y-116548140D01*
X91239573Y-116635715D01*
X91423027Y-116695324D01*
X91613551Y-116725500D01*
X91806450Y-116725500D01*
X91996972Y-116695324D01*
X92180426Y-116635715D01*
X92352304Y-116548139D01*
X92508357Y-116434761D01*
X92614940Y-116328178D01*
X92643424Y-116306856D01*
X92704743Y-116273374D01*
X92751287Y-116258800D01*
X92773565Y-116258402D01*
X92843257Y-116263386D01*
X92890291Y-116276289D01*
X92909249Y-116288000D01*
X92965183Y-116329871D01*
X92997775Y-116366154D01*
X92999984Y-116370034D01*
X93016899Y-116401012D01*
X93024308Y-116417233D01*
X93067044Y-116531812D01*
X93131753Y-116618250D01*
X93218191Y-116682957D01*
X93321488Y-116721485D01*
X93358829Y-116725499D01*
X95141172Y-116725499D01*
X95178512Y-116721485D01*
X95281809Y-116682957D01*
X95368249Y-116618249D01*
X95432957Y-116531809D01*
X95471485Y-116428511D01*
X95475500Y-116391170D01*
X95475500Y-115598543D01*
X95475500Y-115586230D01*
X120824499Y-115586230D01*
X120858146Y-115755376D01*
X120924145Y-115914711D01*
X121019955Y-116058100D01*
X121141901Y-116180045D01*
X121285303Y-116275862D01*
X121444628Y-116341855D01*
X121613770Y-116375500D01*
X131886231Y-116375500D01*
X132055375Y-116341854D01*
X132214703Y-116275858D01*
X132358101Y-116180043D01*
X132498959Y-116039183D01*
X132498960Y-116039182D01*
X133980043Y-114558101D01*
X134075858Y-114414703D01*
X134141854Y-114255375D01*
X134175500Y-114086231D01*
X134175500Y-109058767D01*
X134141855Y-108889628D01*
X134075853Y-108730287D01*
X133980043Y-108586898D01*
X133858097Y-108464953D01*
X133714695Y-108369136D01*
X133555370Y-108303143D01*
X133386231Y-108269500D01*
X133213769Y-108269500D01*
X133044623Y-108303145D01*
X132885287Y-108369145D01*
X132741898Y-108464955D01*
X132619953Y-108586901D01*
X132524136Y-108730303D01*
X132458143Y-108889629D01*
X132424500Y-109058766D01*
X132424500Y-113534217D01*
X132419436Y-113569435D01*
X132399751Y-113636474D01*
X132377146Y-113679689D01*
X132360512Y-113700331D01*
X132351569Y-113710286D01*
X131510287Y-114551569D01*
X131481805Y-114572891D01*
X131420482Y-114606376D01*
X131373939Y-114620950D01*
X131347581Y-114623784D01*
X131334218Y-114624500D01*
X121613769Y-114624500D01*
X121444623Y-114658145D01*
X121285287Y-114724145D01*
X121141898Y-114819955D01*
X121019953Y-114941901D01*
X120924136Y-115085303D01*
X120858143Y-115244628D01*
X120824499Y-115413769D01*
X120824499Y-115586230D01*
X95475500Y-115586230D01*
X95475499Y-114608827D01*
X95471485Y-114571489D01*
X95432955Y-114468187D01*
X95368245Y-114381748D01*
X95281807Y-114317041D01*
X95178510Y-114278513D01*
X95141167Y-114274500D01*
X93358820Y-114274500D01*
X93321486Y-114278513D01*
X93218188Y-114317042D01*
X93131747Y-114381753D01*
X93067041Y-114468190D01*
X93024308Y-114582765D01*
X93007256Y-114613994D01*
X92965384Y-114669927D01*
X92929099Y-114702519D01*
X92909000Y-114712135D01*
X92843536Y-114736552D01*
X92795392Y-114744353D01*
X92773282Y-114741576D01*
X92705009Y-114726724D01*
X92660290Y-114707258D01*
X92656670Y-114704648D01*
X92628416Y-114683497D01*
X92614938Y-114671818D01*
X92508359Y-114565239D01*
X92352303Y-114451859D01*
X92180426Y-114364284D01*
X91996969Y-114304675D01*
X91806450Y-114274500D01*
X91613550Y-114274500D01*
X91423030Y-114304675D01*
X91239570Y-114364285D01*
X91067695Y-114451859D01*
X90911639Y-114565239D01*
X90775236Y-114701642D01*
X90661826Y-114857740D01*
X90641360Y-114886775D01*
X90593385Y-114937571D01*
X90553622Y-114965814D01*
X90532554Y-114973077D01*
X90464733Y-114989871D01*
X90416013Y-114992133D01*
X90394367Y-114986854D01*
X90328232Y-114964316D01*
X90286023Y-114939879D01*
X90274083Y-114927855D01*
X90235046Y-114882803D01*
X90218143Y-114857700D01*
X90218142Y-114857699D01*
X90104762Y-114701642D01*
X89968359Y-114565239D01*
X89812303Y-114451859D01*
X89640426Y-114364284D01*
X89456969Y-114304675D01*
X89266450Y-114274500D01*
X89073550Y-114274500D01*
X88883030Y-114304675D01*
X88699570Y-114364285D01*
X88527695Y-114451859D01*
X88371639Y-114565239D01*
X88235239Y-114701639D01*
X88121859Y-114857695D01*
X88034285Y-115029570D01*
X87974675Y-115213030D01*
X87944500Y-115403550D01*
X87944500Y-115596448D01*
X86546327Y-115596448D01*
X86543112Y-115567911D01*
X86509701Y-115421529D01*
X86509701Y-115421528D01*
X86478741Y-115285883D01*
X86383202Y-115012849D01*
X86257687Y-114752214D01*
X86103788Y-114507286D01*
X85923424Y-114281117D01*
X85718882Y-114076575D01*
X85492713Y-113896211D01*
X85247782Y-113742310D01*
X84987153Y-113616798D01*
X84714115Y-113521257D01*
X84432076Y-113456884D01*
X84144638Y-113424500D01*
X83855356Y-113424500D01*
X83567908Y-113456888D01*
X83285872Y-113521261D01*
X83012845Y-113616798D01*
X82752216Y-113742310D01*
X82507287Y-113896210D01*
X82281117Y-114076574D01*
X82076574Y-114281117D01*
X81896215Y-114507281D01*
X81835335Y-114604172D01*
X81812310Y-114631297D01*
X81759975Y-114677588D01*
X81717841Y-114702154D01*
X81696209Y-114707499D01*
X81627156Y-114718147D01*
X81578429Y-114716033D01*
X81557342Y-114708835D01*
X81493493Y-114680460D01*
X81453644Y-114652338D01*
X81439795Y-114634881D01*
X81401423Y-114576491D01*
X81383104Y-114531290D01*
X81382250Y-114526261D01*
X81376865Y-114490115D01*
X81375500Y-114471696D01*
X81375500Y-112876383D01*
X105624500Y-112876383D01*
X105654301Y-113026204D01*
X105712764Y-113167344D01*
X105797630Y-113294353D01*
X105905648Y-113402370D01*
X106032670Y-113487243D01*
X106173799Y-113545699D01*
X106323618Y-113575499D01*
X106476383Y-113575499D01*
X106626202Y-113545698D01*
X106767342Y-113487235D01*
X106796932Y-113467465D01*
X106829024Y-113452111D01*
X106895701Y-113431232D01*
X106931926Y-113425525D01*
X106934141Y-113425505D01*
X106935270Y-113425500D01*
X108664730Y-113425500D01*
X108699948Y-113430564D01*
X108766987Y-113450249D01*
X108800271Y-113465626D01*
X108802124Y-113466840D01*
X108803068Y-113467465D01*
X108832664Y-113487240D01*
X108973800Y-113545699D01*
X109123618Y-113575499D01*
X109276383Y-113575499D01*
X109426204Y-113545697D01*
X109567337Y-113487239D01*
X109694353Y-113402369D01*
X109802369Y-113294353D01*
X109887239Y-113167337D01*
X109945697Y-113026204D01*
X109975499Y-112876380D01*
X109975499Y-112723615D01*
X109945697Y-112573794D01*
X109887234Y-112432654D01*
X109802368Y-112305645D01*
X109694350Y-112197628D01*
X109567328Y-112112755D01*
X109426198Y-112054299D01*
X109276382Y-112024500D01*
X109123617Y-112024500D01*
X108973792Y-112054302D01*
X108832661Y-112112760D01*
X108803072Y-112132533D01*
X108770976Y-112147889D01*
X108704299Y-112168768D01*
X108668074Y-112174475D01*
X108665859Y-112174495D01*
X108664730Y-112174500D01*
X106935270Y-112174500D01*
X106900052Y-112169436D01*
X106833013Y-112149751D01*
X106799729Y-112134374D01*
X106797876Y-112133160D01*
X106796932Y-112132535D01*
X106767336Y-112112760D01*
X106626196Y-112054298D01*
X106476382Y-112024500D01*
X106323617Y-112024500D01*
X106173794Y-112054301D01*
X106032654Y-112112764D01*
X105905645Y-112197630D01*
X105797628Y-112305648D01*
X105712755Y-112432670D01*
X105654299Y-112573799D01*
X105624500Y-112723614D01*
X105624500Y-112876383D01*
X81375500Y-112876383D01*
X81375500Y-109625000D01*
X86771804Y-109625000D01*
X86841106Y-109761012D01*
X86931312Y-109885171D01*
X87039827Y-109993686D01*
X87163987Y-110083893D01*
X87300727Y-110153566D01*
X87446686Y-110200992D01*
X87575000Y-110221314D01*
X87575000Y-109625000D01*
X88325000Y-109625000D01*
X88325000Y-110221314D01*
X88453312Y-110200992D01*
X88599271Y-110153566D01*
X88736011Y-110083893D01*
X88860171Y-109993686D01*
X88968686Y-109885171D01*
X89058892Y-109761012D01*
X89128195Y-109625000D01*
X88325000Y-109625000D01*
X87575000Y-109625000D01*
X86771804Y-109625000D01*
X81375500Y-109625000D01*
X81375500Y-107643648D01*
X86699500Y-107643648D01*
X86707962Y-107726476D01*
X86754245Y-107866147D01*
X86831008Y-107990600D01*
X86934399Y-108093991D01*
X86986602Y-108126190D01*
X87013917Y-108148986D01*
X87060641Y-108200932D01*
X87085557Y-108242861D01*
X87091082Y-108264448D01*
X87102305Y-108333411D01*
X87100597Y-108382153D01*
X87093574Y-108403302D01*
X87065731Y-108467384D01*
X87043360Y-108501894D01*
X87035841Y-108510122D01*
X87031954Y-108514187D01*
X86931309Y-108614831D01*
X86841106Y-108738986D01*
X86771804Y-108875000D01*
X87669670Y-108875000D01*
X87717505Y-108884515D01*
X87758058Y-108911612D01*
X87785155Y-108952165D01*
X87794670Y-109000000D01*
X87785155Y-109047835D01*
X87758058Y-109088388D01*
X87749950Y-109096495D01*
X87717038Y-109153501D01*
X87700000Y-109217088D01*
X87700000Y-109282911D01*
X87717038Y-109346498D01*
X87749950Y-109403504D01*
X87758058Y-109411612D01*
X87770206Y-109429793D01*
X87788388Y-109441942D01*
X87796495Y-109450049D01*
X87853501Y-109482961D01*
X87917088Y-109500000D01*
X87982912Y-109500000D01*
X88046498Y-109482961D01*
X88103504Y-109450049D01*
X88111612Y-109441942D01*
X88129793Y-109429793D01*
X88141942Y-109411612D01*
X88150049Y-109403504D01*
X88182961Y-109346498D01*
X88200000Y-109282911D01*
X88200000Y-109217088D01*
X88182961Y-109153501D01*
X88150049Y-109096495D01*
X88141942Y-109088388D01*
X88114845Y-109047835D01*
X88105330Y-109000000D01*
X88114845Y-108952165D01*
X88141942Y-108911612D01*
X88182495Y-108884515D01*
X88230330Y-108875000D01*
X89128194Y-108874999D01*
X89058892Y-108738986D01*
X88968686Y-108614827D01*
X88868046Y-108514187D01*
X88846724Y-108485705D01*
X88813239Y-108424382D01*
X88798665Y-108377838D01*
X88798267Y-108355559D01*
X88803251Y-108285867D01*
X88816154Y-108238833D01*
X88827866Y-108219873D01*
X88869738Y-108163940D01*
X88899456Y-108135526D01*
X88908646Y-108129269D01*
X88913375Y-108126203D01*
X88965601Y-108093990D01*
X89068991Y-107990600D01*
X89145754Y-107866147D01*
X89192037Y-107726474D01*
X89200499Y-107643638D01*
X89200499Y-106856361D01*
X89192037Y-106773524D01*
X89145754Y-106633852D01*
X89068991Y-106509399D01*
X88965600Y-106406008D01*
X88841145Y-106329244D01*
X88701472Y-106282961D01*
X88618640Y-106274500D01*
X87281351Y-106274500D01*
X87198522Y-106282962D01*
X87058851Y-106329245D01*
X86934396Y-106406010D01*
X86831009Y-106509397D01*
X86754245Y-106633852D01*
X86707961Y-106773526D01*
X86699500Y-106856353D01*
X86699500Y-107643648D01*
X81375500Y-107643648D01*
X81375500Y-100858214D01*
X91375000Y-100858214D01*
X91408856Y-101071976D01*
X91475738Y-101277816D01*
X91548685Y-101420983D01*
X92178649Y-100791020D01*
X92219202Y-100763923D01*
X92267037Y-100754408D01*
X92314872Y-100763923D01*
X92355425Y-100791020D01*
X92382522Y-100831573D01*
X92387778Y-100847055D01*
X92400557Y-100894746D01*
X92449926Y-100980256D01*
X92519743Y-101050073D01*
X92605254Y-101099443D01*
X92652942Y-101112221D01*
X92696685Y-101133793D01*
X92728843Y-101170462D01*
X92744521Y-101216646D01*
X92741331Y-101265314D01*
X92719759Y-101309057D01*
X92708978Y-101321350D01*
X92079014Y-101951313D01*
X92222180Y-102024259D01*
X92428024Y-102091143D01*
X92641785Y-102125000D01*
X92858214Y-102125000D01*
X93071976Y-102091142D01*
X93277816Y-102024260D01*
X93420983Y-101951312D01*
X92791020Y-101321350D01*
X92763923Y-101280798D01*
X92754408Y-101232962D01*
X92763923Y-101185127D01*
X92791020Y-101144574D01*
X92831572Y-101117477D01*
X92847057Y-101112221D01*
X92894745Y-101099443D01*
X92980256Y-101050073D01*
X93050073Y-100980256D01*
X93099442Y-100894746D01*
X93112221Y-100847057D01*
X93133793Y-100803314D01*
X93170462Y-100771156D01*
X93216646Y-100755478D01*
X93265314Y-100758668D01*
X93309057Y-100780240D01*
X93321350Y-100791021D01*
X93951313Y-101420983D01*
X94024260Y-101277816D01*
X94091142Y-101071976D01*
X94125000Y-100858213D01*
X94125000Y-100641785D01*
X94091142Y-100428022D01*
X94024260Y-100222182D01*
X93951313Y-100079014D01*
X93321350Y-100708978D01*
X93280798Y-100736075D01*
X93232962Y-100745590D01*
X93185127Y-100736075D01*
X93144574Y-100708978D01*
X93117477Y-100668426D01*
X93112221Y-100652942D01*
X93099443Y-100605254D01*
X93050073Y-100519743D01*
X92980256Y-100449926D01*
X92894743Y-100400555D01*
X92847055Y-100387777D01*
X92803313Y-100366205D01*
X92771155Y-100329536D01*
X92755478Y-100283351D01*
X92758669Y-100234683D01*
X92780241Y-100190941D01*
X92791021Y-100178649D01*
X93420983Y-99548685D01*
X93277818Y-99475739D01*
X93071975Y-99408855D01*
X92858215Y-99375000D01*
X92641785Y-99375000D01*
X92428022Y-99408856D01*
X92222182Y-99475738D01*
X92079015Y-99548685D01*
X92708979Y-100178649D01*
X92736076Y-100219202D01*
X92745591Y-100267037D01*
X92736076Y-100314872D01*
X92708979Y-100355425D01*
X92668426Y-100382522D01*
X92652945Y-100387777D01*
X92605256Y-100400555D01*
X92519743Y-100449926D01*
X92449926Y-100519743D01*
X92400555Y-100605256D01*
X92387777Y-100652945D01*
X92366205Y-100696687D01*
X92329536Y-100728845D01*
X92283351Y-100744522D01*
X92234683Y-100741331D01*
X92190941Y-100719759D01*
X92178649Y-100708979D01*
X91548685Y-100079015D01*
X91475738Y-100222182D01*
X91408856Y-100428022D01*
X91375000Y-100641784D01*
X91375000Y-100858214D01*
X81375500Y-100858214D01*
X81375500Y-97261606D01*
X86474499Y-97261606D01*
X86498538Y-97382454D01*
X86545690Y-97496286D01*
X86614147Y-97598740D01*
X87959332Y-98943923D01*
X87980654Y-98972405D01*
X88014139Y-99033728D01*
X88028713Y-99080272D01*
X88029378Y-99090065D01*
X88030685Y-99135820D01*
X88029197Y-99158943D01*
X88014500Y-99251738D01*
X88014500Y-99468259D01*
X88048367Y-99682095D01*
X88115274Y-99888011D01*
X88213567Y-100080920D01*
X88340828Y-100256079D01*
X88493920Y-100409171D01*
X88669078Y-100536431D01*
X88861993Y-100634726D01*
X89067901Y-100701630D01*
X89281745Y-100735500D01*
X89498259Y-100735500D01*
X89712097Y-100701630D01*
X89918006Y-100634726D01*
X90110917Y-100536433D01*
X90118644Y-100530820D01*
X90118645Y-100530820D01*
X90286079Y-100409171D01*
X90439171Y-100256079D01*
X90566431Y-100080921D01*
X90664726Y-99888006D01*
X90731630Y-99682097D01*
X90765500Y-99468258D01*
X90765500Y-99251740D01*
X90731631Y-99037903D01*
X90664724Y-98831987D01*
X90566431Y-98639078D01*
X90439171Y-98463920D01*
X90286079Y-98310828D01*
X90110920Y-98183567D01*
X89918011Y-98085274D01*
X89712095Y-98018367D01*
X89498255Y-97984500D01*
X89281740Y-97984500D01*
X89067902Y-98018368D01*
X89013049Y-98036191D01*
X88977989Y-98042258D01*
X88908148Y-98044252D01*
X88860061Y-98036106D01*
X88842337Y-98027704D01*
X88786181Y-97995459D01*
X88760037Y-97975446D01*
X87798431Y-97013839D01*
X87777109Y-96985357D01*
X87743624Y-96924034D01*
X87729050Y-96877491D01*
X87726216Y-96851133D01*
X87725500Y-96837770D01*
X87725500Y-94109057D01*
X87730564Y-94073839D01*
X87750249Y-94006800D01*
X87772855Y-93963584D01*
X87788327Y-93947549D01*
X87841131Y-93901794D01*
X87883514Y-93877660D01*
X87905199Y-93872535D01*
X87974357Y-93862591D01*
X88023059Y-93865202D01*
X88039983Y-93870834D01*
X88096646Y-93894305D01*
X88123720Y-93909723D01*
X88208191Y-93972957D01*
X88311488Y-94011485D01*
X88348829Y-94015499D01*
X90431172Y-94015499D01*
X90468512Y-94011485D01*
X90571809Y-93972957D01*
X90658249Y-93908249D01*
X90722957Y-93821809D01*
X90761485Y-93718511D01*
X90765499Y-93681170D01*
X90765499Y-91598827D01*
X90761485Y-91561489D01*
X90722955Y-91458186D01*
X90658248Y-91371750D01*
X90640226Y-91358259D01*
X91374500Y-91358259D01*
X91408367Y-91572095D01*
X91475274Y-91778011D01*
X91573567Y-91970920D01*
X91700828Y-92146079D01*
X91853920Y-92299171D01*
X92029078Y-92426431D01*
X92221993Y-92524726D01*
X92427901Y-92591630D01*
X92641745Y-92625500D01*
X92858259Y-92625500D01*
X93072097Y-92591630D01*
X93278006Y-92524726D01*
X93470921Y-92426431D01*
X93646079Y-92299171D01*
X93799171Y-92146079D01*
X93926431Y-91970921D01*
X94024726Y-91778006D01*
X94091630Y-91572097D01*
X94125500Y-91358258D01*
X94125500Y-91141740D01*
X94091631Y-90927903D01*
X94024724Y-90721987D01*
X93926431Y-90529078D01*
X93799171Y-90353920D01*
X93646079Y-90200828D01*
X93470920Y-90073567D01*
X93278011Y-89975274D01*
X93072095Y-89908367D01*
X92858255Y-89874500D01*
X92641740Y-89874500D01*
X92427903Y-89908367D01*
X92221987Y-89975274D01*
X92029078Y-90073567D01*
X91853921Y-90200827D01*
X91700828Y-90353921D01*
X91573566Y-90529081D01*
X91475274Y-90721987D01*
X91408367Y-90927903D01*
X91374500Y-91141739D01*
X91374500Y-91358259D01*
X90640226Y-91358259D01*
X90571807Y-91307041D01*
X90468510Y-91268513D01*
X90431167Y-91264500D01*
X88348820Y-91264500D01*
X88311490Y-91268513D01*
X88208188Y-91307043D01*
X88123721Y-91370276D01*
X88092494Y-91387328D01*
X88027030Y-91411745D01*
X87978886Y-91419546D01*
X87956776Y-91416769D01*
X87888503Y-91401917D01*
X87843784Y-91382451D01*
X87826687Y-91368163D01*
X87777281Y-91318758D01*
X87750184Y-91278206D01*
X87744551Y-91261283D01*
X87729383Y-91201856D01*
X87725500Y-91170942D01*
X87725500Y-88262230D01*
X87730564Y-88227012D01*
X87750249Y-88159973D01*
X87772854Y-88116758D01*
X87789488Y-88096116D01*
X87798431Y-88086161D01*
X89486161Y-86398431D01*
X89514643Y-86377109D01*
X89575966Y-86343624D01*
X89622509Y-86329050D01*
X89648867Y-86326216D01*
X89662230Y-86325500D01*
X91764730Y-86325500D01*
X91799948Y-86330564D01*
X91866987Y-86350249D01*
X91900271Y-86365626D01*
X91902124Y-86366840D01*
X91903068Y-86367465D01*
X91932664Y-86387240D01*
X92073800Y-86445699D01*
X92223618Y-86475499D01*
X92376383Y-86475499D01*
X92526204Y-86445697D01*
X92667337Y-86387239D01*
X92794353Y-86302369D01*
X92902369Y-86194353D01*
X92987239Y-86067337D01*
X93045697Y-85926204D01*
X93075499Y-85776380D01*
X93075499Y-85623615D01*
X93045697Y-85473794D01*
X92987234Y-85332654D01*
X92902368Y-85205645D01*
X92794350Y-85097628D01*
X92667328Y-85012755D01*
X92526198Y-84954299D01*
X92376382Y-84924500D01*
X92223617Y-84924500D01*
X92073792Y-84954302D01*
X91932661Y-85012760D01*
X91903072Y-85032533D01*
X91870976Y-85047889D01*
X91804299Y-85068768D01*
X91768074Y-85074475D01*
X91765859Y-85074495D01*
X91764730Y-85074500D01*
X89238392Y-85074500D01*
X89117546Y-85098538D01*
X89003715Y-85145688D01*
X88901261Y-85214144D01*
X86614146Y-87501259D01*
X86545686Y-87603718D01*
X86498536Y-87717551D01*
X86474499Y-87838392D01*
X86474499Y-97261606D01*
X81375500Y-97261606D01*
X81375500Y-76028303D01*
X81380564Y-75993085D01*
X81400249Y-75926046D01*
X81422855Y-75882830D01*
X81438327Y-75866795D01*
X81491131Y-75821040D01*
X81533514Y-75796906D01*
X81555199Y-75791781D01*
X81624357Y-75781837D01*
X81673059Y-75784448D01*
X81694074Y-75791861D01*
X81757630Y-75820886D01*
X81797190Y-75849413D01*
X81800589Y-75853216D01*
X81824378Y-75880955D01*
X81835332Y-75895825D01*
X81896211Y-75992713D01*
X82076575Y-76218882D01*
X82281117Y-76423424D01*
X82507286Y-76603788D01*
X82752214Y-76757687D01*
X83012849Y-76883202D01*
X83285883Y-76978741D01*
X83567922Y-77043114D01*
X83855361Y-77075499D01*
X84144641Y-77075499D01*
X84432091Y-77043112D01*
X84714115Y-76978741D01*
X84987150Y-76883202D01*
X85247785Y-76757687D01*
X85492713Y-76603788D01*
X85718882Y-76423424D01*
X85923424Y-76218882D01*
X86103788Y-75992713D01*
X86257687Y-75747785D01*
X86383202Y-75487150D01*
X86478741Y-75214115D01*
X86543112Y-74932091D01*
X86575500Y-74644638D01*
X86575500Y-74355361D01*
X86543112Y-74067908D01*
X86478741Y-73785884D01*
X86383202Y-73512849D01*
X86257687Y-73252214D01*
X86103788Y-73007286D01*
X85923424Y-72781117D01*
X85718882Y-72576575D01*
X85492713Y-72396211D01*
X85395828Y-72335334D01*
X85368703Y-72312310D01*
X85322412Y-72259975D01*
X85297846Y-72217841D01*
X85292501Y-72196209D01*
X85281853Y-72127156D01*
X85283967Y-72078429D01*
X85291165Y-72057342D01*
X85319540Y-71993493D01*
X85347662Y-71953644D01*
X85365119Y-71939795D01*
X85423509Y-71901423D01*
X85468710Y-71883104D01*
X85473739Y-71882250D01*
X85509885Y-71876865D01*
X85528304Y-71875500D01*
X104125500Y-71875500D01*
X104160718Y-71880564D01*
G37*
%TD.AperFunction*%
%TD*%
M02*
