%TF.GenerationSoftware,KiCad,Pcbnew,7.0.11+dfsg-1build4*%
%TF.CreationDate,2026-10-03T06:30:34+00:00*%
%TF.ProjectId,t,742e6b69-6361-4645-9f70-636258585858,rev?*%
%TF.SameCoordinates,Original*%
%TF.FileFunction,Soldermask,Bot*%
%TF.FilePolarity,Negative*%
%FSLAX46Y46*%
G04 Gerber Fmt 4.6, Leading zero omitted, Abs format (unit mm)*
G04 Created by KiCad (PCBNEW 7.0.11+dfsg-1build4) date 2026-10-03 06:30:34*
%MOMM*%
%LPD*%
G01*
G04 APERTURE LIST*
G04 Aperture macros list*
%AMRoundRect*
0 Rectangle with rounded corners*
0 $1 Rounding radius*
0 $2 $3 $4 $5 $6 $7 $8 $9 X,Y pos of 4 corners*
0 Add a 4 corners polygon primitive as box body*
4,1,4,$2,$3,$4,$5,$6,$7,$8,$9,$2,$3,0*
0 Add four circle primitives for the rounded corners*
1,1,$1+$1,$2,$3*
1,1,$1+$1,$4,$5*
1,1,$1+$1,$6,$7*
1,1,$1+$1,$8,$9*
0 Add four rect primitives between the rounded corners*
20,1,$1+$1,$2,$3,$4,$5,0*
20,1,$1+$1,$4,$5,$6,$7,0*
20,1,$1+$1,$6,$7,$8,$9,0*
20,1,$1+$1,$8,$9,$2,$3,0*%
G04 Aperture macros list end*
%ADD10C,0.700000*%
%ADD11C,4.400000*%
%ADD12RoundRect,0.250000X-0.625000X0.350000X-0.625000X-0.350000X0.625000X-0.350000X0.625000X0.350000X0*%
%ADD13O,1.750000X1.200000*%
%ADD14C,0.650000*%
%ADD15O,2.100000X1.000000*%
%ADD16O,1.600000X1.000000*%
%ADD17R,1.700000X1.700000*%
%ADD18O,1.700000X1.700000*%
%ADD19R,2.000000X2.000000*%
%ADD20C,2.000000*%
G04 APERTURE END LIST*
D10*
%TO.C,REFe*%
X82350000Y-116000000D03*
X82833274Y-114833274D03*
X82833274Y-117166726D03*
X84000000Y-114350000D03*
D11*
X84000000Y-116000000D03*
D10*
X84000000Y-117650000D03*
X85166726Y-114833274D03*
X85166726Y-117166726D03*
X85650000Y-116000000D03*
%TD*%
%TO.C,REFe*%
X144350000Y-115878680D03*
X144833274Y-114711954D03*
X144833274Y-117045406D03*
X146000000Y-114228680D03*
D11*
X146000000Y-115878680D03*
D10*
X146000000Y-117528680D03*
X147166726Y-114711954D03*
X147166726Y-117045406D03*
X147650000Y-115878680D03*
%TD*%
%TO.C,REFe*%
X82350000Y-74500000D03*
X82833274Y-73333274D03*
X82833274Y-75666726D03*
X84000000Y-72850000D03*
D11*
X84000000Y-74500000D03*
D10*
X84000000Y-76150000D03*
X85166726Y-73333274D03*
X85166726Y-75666726D03*
X85650000Y-74500000D03*
%TD*%
%TO.C,REFe*%
X144228680Y-74500000D03*
X144711954Y-73333274D03*
X144711954Y-75666726D03*
X145878680Y-72850000D03*
D11*
X145878680Y-74500000D03*
D10*
X145878680Y-76150000D03*
X147045406Y-73333274D03*
X147045406Y-75666726D03*
X147528680Y-74500000D03*
%TD*%
D12*
%TO.C,J1*%
X87950000Y-107250000D03*
D13*
X87950000Y-109250000D03*
%TD*%
D14*
%TO.C,J23*%
X142645000Y-86640000D03*
X142645000Y-80860000D03*
D15*
X142145000Y-88070000D03*
D16*
X146325000Y-88070000D03*
D15*
X142145000Y-79430000D03*
D16*
X146325000Y-79430000D03*
%TD*%
D17*
%TO.C,J3*%
X94250000Y-115500000D03*
D18*
X91710000Y-115500000D03*
X89170000Y-115500000D03*
%TD*%
D17*
%TO.C,J2*%
X123900000Y-99800000D03*
D18*
X123900000Y-97260000D03*
X123900000Y-94720000D03*
X123900000Y-92180000D03*
%TD*%
D19*
%TO.C,U2*%
X89390000Y-92640000D03*
D20*
X92750000Y-91250000D03*
X96110000Y-92640000D03*
X96110000Y-99360000D03*
X92750000Y-100750000D03*
X89390000Y-99360000D03*
%TD*%
M02*
