%TF.GenerationSoftware,KiCad,Pcbnew,10.0.6*%
%TF.CreationDate,2026-09-06T14:44:13+05:30*%
%TF.ProjectId,AC-DC CONVERTER,41432d44-4320-4434-9f4e-564552544552,rev?*%
%TF.SameCoordinates,Original*%
%TF.FileFunction,Copper,L2,Bot*%
%TF.FilePolarity,Positive*%
%FSLAX46Y46*%
G04 Gerber Fmt 4.6, Leading zero omitted, Abs format (unit mm)*
G04 Created by KiCad (PCBNEW 10.0.6) date 2026-09-06 14:44:13*
%MOMM*%
%LPD*%
G01*
G04 APERTURE LIST*
G04 Aperture macros list*
%AMRoundRect*
0 Rectangle with rounded corners*
0 $1 Rounding radius*
0 $2 $3 $4 $5 $6 $7 $8 $9 X,Y pos of 4 corners*
0 Add a 4 corners polygon primitive as box body*
4,1,4,$2,$3,$4,$5,$6,$7,$8,$9,$2,$3,0*
0 Add four circle primitives for the rounded corners*
1,1,$1+$1,$2,$3*
1,1,$1+$1,$4,$5*
1,1,$1+$1,$6,$7*
1,1,$1+$1,$8,$9*
0 Add four rect primitives between the rounded corners*
20,1,$1+$1,$2,$3,$4,$5,0*
20,1,$1+$1,$4,$5,$6,$7,0*
20,1,$1+$1,$6,$7,$8,$9,0*
20,1,$1+$1,$8,$9,$2,$3,0*%
G04 Aperture macros list end*
%TA.AperFunction,ComponentPad*%
%ADD10C,2.200000*%
%TD*%
%TA.AperFunction,ComponentPad*%
%ADD11RoundRect,0.249999X-0.850001X0.850001X-0.850001X-0.850001X0.850001X-0.850001X0.850001X0.850001X0*%
%TD*%
%TA.AperFunction,ComponentPad*%
%ADD12C,2.400000*%
%TD*%
%TA.AperFunction,ComponentPad*%
%ADD13RoundRect,0.250001X0.949999X-0.949999X0.949999X0.949999X-0.949999X0.949999X-0.949999X-0.949999X0*%
%TD*%
%TA.AperFunction,ComponentPad*%
%ADD14C,1.400000*%
%TD*%
%TA.AperFunction,ComponentPad*%
%ADD15R,1.800000X1.800000*%
%TD*%
%TA.AperFunction,ComponentPad*%
%ADD16C,1.800000*%
%TD*%
%TA.AperFunction,ComponentPad*%
%ADD17RoundRect,0.250000X-0.550000X0.550000X-0.550000X-0.550000X0.550000X-0.550000X0.550000X0.550000X0*%
%TD*%
%TA.AperFunction,ComponentPad*%
%ADD18C,1.600000*%
%TD*%
%TA.AperFunction,Conductor*%
%ADD19C,1.000000*%
%TD*%
%TA.AperFunction,Conductor*%
%ADD20C,0.500000*%
%TD*%
G04 APERTURE END LIST*
D10*
%TO.P,D1,2,A_2*%
%TO.N,Net-(D1-A)*%
X110000000Y-87000000D03*
D11*
%TO.P,D1,1,K_1*%
%TO.N,/+VE*%
X110000000Y-76840000D03*
%TD*%
D12*
%TO.P,J2,2,Pin_2_2*%
%TO.N,/+VE*%
X101500000Y-92750000D03*
D13*
%TO.P,J2,1,Pin_1_1*%
%TO.N,GND*%
X101500000Y-96250000D03*
%TD*%
D10*
%TO.P,D3,2,A_2*%
%TO.N,GND*%
X110000000Y-101080000D03*
D11*
%TO.P,D3,1,K_1*%
%TO.N,Net-(D1-A)*%
X110000000Y-90920000D03*
%TD*%
D10*
%TO.P,D4,2,A_2*%
%TO.N,GND*%
X114500000Y-101080000D03*
D11*
%TO.P,D4,1,K_1*%
%TO.N,Net-(D2-A)*%
X114500000Y-90920000D03*
%TD*%
D14*
%TO.P,R2,1*%
%TO.N,/+VE*%
X119190000Y-90000000D03*
%TO.P,R2,2*%
%TO.N,Net-(D5-A)*%
X126810000Y-90000000D03*
%TD*%
%TO.P,R1,1*%
%TO.N,/+VE*%
X119310000Y-78190000D03*
%TO.P,R1,2*%
%TO.N,GND*%
X119310000Y-85810000D03*
%TD*%
D13*
%TO.P,J1,1,Pin_1_1*%
%TO.N,Net-(D2-A)*%
X101500000Y-85250000D03*
D12*
%TO.P,J1,2,Pin_2_2*%
%TO.N,Net-(D1-A)*%
X101500000Y-81750000D03*
%TD*%
D15*
%TO.P,D5,1,K_1*%
%TO.N,GND*%
X124230000Y-82000000D03*
D16*
%TO.P,D5,2,A_2*%
%TO.N,Net-(D5-A)*%
X126770000Y-82000000D03*
%TD*%
D11*
%TO.P,D2,1,K_1*%
%TO.N,/+VE*%
X114500000Y-76920000D03*
D10*
%TO.P,D2,2,A_2*%
%TO.N,Net-(D2-A)*%
X114500000Y-87080000D03*
%TD*%
D17*
%TO.P,C1,1*%
%TO.N,/+VE*%
X123500000Y-95847349D03*
D18*
%TO.P,C1,2*%
%TO.N,GND*%
X123500000Y-99347349D03*
%TD*%
%TO.N,/+VE*%
D19*
X110000000Y-76840000D02*
X102195534Y-76840000D01*
X98500000Y-89750000D02*
X98500000Y-80500000D01*
X101500000Y-92750000D02*
X98500000Y-89750000D01*
%TO.N,Net-(D5-A)*%
D20*
X128000000Y-83230000D02*
X126770000Y-82000000D01*
X128000000Y-88810000D02*
X128000000Y-83230000D01*
X126810000Y-90000000D02*
X128000000Y-88810000D01*
%TO.N,/+VE*%
D19*
X114920000Y-76920000D02*
X114500000Y-76920000D01*
X117000000Y-87810000D02*
X117000000Y-79000000D01*
X117000000Y-79000000D02*
X114920000Y-76920000D01*
X119190000Y-90000000D02*
X117000000Y-87810000D01*
X118040000Y-76920000D02*
X119310000Y-78190000D01*
X114500000Y-76920000D02*
X118040000Y-76920000D01*
X119190000Y-93690000D02*
X119190000Y-90000000D01*
X121347349Y-95847349D02*
X119190000Y-93690000D01*
X123500000Y-95847349D02*
X121347349Y-95847349D01*
X114420000Y-76840000D02*
X114500000Y-76920000D01*
X110000000Y-76840000D02*
X114420000Y-76840000D01*
%TO.N,Net-(D2-A)*%
X107000000Y-93000000D02*
X108000000Y-94000000D01*
X105750000Y-85250000D02*
X101500000Y-85250000D01*
X107000000Y-86500000D02*
X105750000Y-85250000D01*
X113500000Y-94000000D02*
X108000000Y-94000000D01*
X107000000Y-93000000D02*
X107000000Y-86500000D01*
X114500000Y-93000000D02*
X113500000Y-94000000D01*
X114500000Y-90920000D02*
X114500000Y-93000000D01*
%TO.N,Net-(D1-A)*%
X110000000Y-84000000D02*
X110000000Y-87000000D01*
X107750000Y-81750000D02*
X110000000Y-84000000D01*
X101500000Y-81750000D02*
X107750000Y-81750000D01*
%TO.N,Net-(D2-A)*%
X114500000Y-90920000D02*
X114500000Y-87080000D01*
%TO.N,Net-(D1-A)*%
X110000000Y-90920000D02*
X110000000Y-87000000D01*
%TO.N,/+VE*%
X98535534Y-80500000D02*
X102195534Y-76840000D01*
X98500000Y-80500000D02*
X98535534Y-80500000D01*
%TD*%
%TA.AperFunction,Conductor*%
%TO.N,GND*%
G36*
X128444625Y-74520185D02*
G01*
X128490380Y-74572989D01*
X128500324Y-74642147D01*
X128475961Y-74699987D01*
X128333075Y-74886196D01*
X128201958Y-75113299D01*
X128201953Y-75113309D01*
X128101605Y-75355571D01*
X128101602Y-75355581D01*
X128035751Y-75601344D01*
X128033730Y-75608885D01*
X127999500Y-75868872D01*
X127999500Y-76131127D01*
X128019964Y-76286559D01*
X128033730Y-76391116D01*
X128055178Y-76471161D01*
X128101602Y-76644418D01*
X128101605Y-76644428D01*
X128201953Y-76886690D01*
X128201958Y-76886700D01*
X128333075Y-77113803D01*
X128492718Y-77321851D01*
X128492726Y-77321860D01*
X128678140Y-77507274D01*
X128678148Y-77507281D01*
X128886196Y-77666924D01*
X129113299Y-77798041D01*
X129113309Y-77798046D01*
X129355571Y-77898394D01*
X129355581Y-77898398D01*
X129608884Y-77966270D01*
X129868880Y-78000500D01*
X129868887Y-78000500D01*
X130131113Y-78000500D01*
X130131120Y-78000500D01*
X130391116Y-77966270D01*
X130644419Y-77898398D01*
X130886697Y-77798043D01*
X131113803Y-77666924D01*
X131300015Y-77524036D01*
X131365182Y-77498843D01*
X131433627Y-77512881D01*
X131483617Y-77561694D01*
X131499500Y-77622413D01*
X131499500Y-100377586D01*
X131479815Y-100444625D01*
X131427011Y-100490380D01*
X131357853Y-100500324D01*
X131300013Y-100475961D01*
X131113803Y-100333075D01*
X130886700Y-100201958D01*
X130886690Y-100201953D01*
X130644428Y-100101605D01*
X130644421Y-100101603D01*
X130644419Y-100101602D01*
X130391116Y-100033730D01*
X130333339Y-100026123D01*
X130131127Y-99999500D01*
X130131120Y-99999500D01*
X129868880Y-99999500D01*
X129868872Y-99999500D01*
X129647105Y-100028698D01*
X129608884Y-100033730D01*
X129355581Y-100101602D01*
X129355571Y-100101605D01*
X129113309Y-100201953D01*
X129113299Y-100201958D01*
X128886196Y-100333075D01*
X128678148Y-100492718D01*
X128492718Y-100678148D01*
X128333075Y-100886196D01*
X128201958Y-101113299D01*
X128201953Y-101113309D01*
X128101605Y-101355571D01*
X128101602Y-101355581D01*
X128033730Y-101608885D01*
X127999500Y-101868872D01*
X127999500Y-102131127D01*
X128023157Y-102310806D01*
X128033730Y-102391116D01*
X128101602Y-102644418D01*
X128101605Y-102644428D01*
X128201953Y-102886690D01*
X128201958Y-102886700D01*
X128333075Y-103113803D01*
X128475961Y-103300013D01*
X128501156Y-103365182D01*
X128487118Y-103433627D01*
X128438304Y-103483617D01*
X128377586Y-103499500D01*
X101122414Y-103499500D01*
X101055375Y-103479815D01*
X101009620Y-103427011D01*
X100999676Y-103357853D01*
X101024039Y-103300013D01*
X101166924Y-103113803D01*
X101298041Y-102886700D01*
X101298046Y-102886690D01*
X101398394Y-102644428D01*
X101398398Y-102644419D01*
X101466270Y-102391116D01*
X101500500Y-102131120D01*
X101500500Y-101868880D01*
X101466270Y-101608884D01*
X101398398Y-101355581D01*
X101336410Y-101205928D01*
X101298046Y-101113309D01*
X101298041Y-101113299D01*
X101239097Y-101011205D01*
X101206111Y-100954071D01*
X108400000Y-100954071D01*
X108400000Y-101205928D01*
X108439397Y-101454669D01*
X108517219Y-101694184D01*
X108631557Y-101918583D01*
X108705748Y-102020697D01*
X108705748Y-102020698D01*
X109476212Y-101250234D01*
X109487482Y-101292292D01*
X109559890Y-101417708D01*
X109662292Y-101520110D01*
X109787708Y-101592518D01*
X109829765Y-101603787D01*
X109059300Y-102374250D01*
X109161416Y-102448442D01*
X109385815Y-102562780D01*
X109625330Y-102640602D01*
X109874072Y-102680000D01*
X110125928Y-102680000D01*
X110374669Y-102640602D01*
X110614184Y-102562780D01*
X110838575Y-102448446D01*
X110838581Y-102448442D01*
X110940697Y-102374250D01*
X110940698Y-102374250D01*
X110170234Y-101603787D01*
X110212292Y-101592518D01*
X110337708Y-101520110D01*
X110440110Y-101417708D01*
X110512518Y-101292292D01*
X110523787Y-101250235D01*
X111294250Y-102020698D01*
X111294250Y-102020697D01*
X111368442Y-101918581D01*
X111368446Y-101918575D01*
X111482780Y-101694184D01*
X111560602Y-101454669D01*
X111600000Y-101205928D01*
X111600000Y-100954071D01*
X112900000Y-100954071D01*
X112900000Y-101205928D01*
X112939397Y-101454669D01*
X113017219Y-101694184D01*
X113131557Y-101918583D01*
X113205748Y-102020697D01*
X113205748Y-102020698D01*
X113976212Y-101250234D01*
X113987482Y-101292292D01*
X114059890Y-101417708D01*
X114162292Y-101520110D01*
X114287708Y-101592518D01*
X114329765Y-101603787D01*
X113559300Y-102374250D01*
X113661416Y-102448442D01*
X113885815Y-102562780D01*
X114125330Y-102640602D01*
X114374072Y-102680000D01*
X114625928Y-102680000D01*
X114874669Y-102640602D01*
X115114184Y-102562780D01*
X115338575Y-102448446D01*
X115338581Y-102448442D01*
X115440697Y-102374250D01*
X115440698Y-102374250D01*
X114670234Y-101603787D01*
X114712292Y-101592518D01*
X114837708Y-101520110D01*
X114940110Y-101417708D01*
X115012518Y-101292292D01*
X115023787Y-101250235D01*
X115794250Y-102020698D01*
X115794250Y-102020697D01*
X115868442Y-101918581D01*
X115868446Y-101918575D01*
X115982780Y-101694184D01*
X116060602Y-101454669D01*
X116100000Y-101205928D01*
X116100000Y-100954071D01*
X116060602Y-100705330D01*
X115982779Y-100465812D01*
X115967518Y-100435860D01*
X115967517Y-100435859D01*
X115868442Y-100241416D01*
X115794250Y-100139301D01*
X115794250Y-100139300D01*
X115023787Y-100909764D01*
X115012518Y-100867708D01*
X114940110Y-100742292D01*
X114837708Y-100639890D01*
X114712292Y-100567482D01*
X114670232Y-100556212D01*
X115440698Y-99785748D01*
X115338583Y-99711557D01*
X115114184Y-99597219D01*
X114874669Y-99519397D01*
X114625928Y-99480000D01*
X114374072Y-99480000D01*
X114125330Y-99519397D01*
X113885815Y-99597219D01*
X113661413Y-99711559D01*
X113559301Y-99785747D01*
X113559300Y-99785748D01*
X114329765Y-100556212D01*
X114287708Y-100567482D01*
X114162292Y-100639890D01*
X114059890Y-100742292D01*
X113987482Y-100867708D01*
X113976212Y-100909765D01*
X113205748Y-100139300D01*
X113205747Y-100139301D01*
X113131559Y-100241413D01*
X113017219Y-100465815D01*
X112939397Y-100705330D01*
X112900000Y-100954071D01*
X111600000Y-100954071D01*
X111560602Y-100705330D01*
X111482780Y-100465815D01*
X111368442Y-100241416D01*
X111294250Y-100139301D01*
X111294250Y-100139300D01*
X110523787Y-100909764D01*
X110512518Y-100867708D01*
X110440110Y-100742292D01*
X110337708Y-100639890D01*
X110212292Y-100567482D01*
X110170232Y-100556212D01*
X110940698Y-99785748D01*
X110838583Y-99711557D01*
X110614184Y-99597219D01*
X110374669Y-99519397D01*
X110125928Y-99480000D01*
X109874072Y-99480000D01*
X109625330Y-99519397D01*
X109385815Y-99597219D01*
X109161413Y-99711559D01*
X109059301Y-99785747D01*
X109059300Y-99785748D01*
X109829765Y-100556212D01*
X109787708Y-100567482D01*
X109662292Y-100639890D01*
X109559890Y-100742292D01*
X109487482Y-100867708D01*
X109476212Y-100909765D01*
X108705748Y-100139300D01*
X108705747Y-100139301D01*
X108631559Y-100241413D01*
X108517219Y-100465815D01*
X108439397Y-100705330D01*
X108400000Y-100954071D01*
X101206111Y-100954071D01*
X101166924Y-100886196D01*
X101007281Y-100678148D01*
X101007274Y-100678140D01*
X100821860Y-100492726D01*
X100821851Y-100492718D01*
X100613803Y-100333075D01*
X100386700Y-100201958D01*
X100386690Y-100201953D01*
X100144428Y-100101605D01*
X100144421Y-100101603D01*
X100144419Y-100101602D01*
X99891116Y-100033730D01*
X99833339Y-100026123D01*
X99631127Y-99999500D01*
X99631120Y-99999500D01*
X99368880Y-99999500D01*
X99368872Y-99999500D01*
X99147105Y-100028698D01*
X99108884Y-100033730D01*
X98855581Y-100101602D01*
X98855571Y-100101605D01*
X98613309Y-100201953D01*
X98613299Y-100201958D01*
X98386196Y-100333075D01*
X98199987Y-100475961D01*
X98134818Y-100501156D01*
X98066373Y-100487118D01*
X98016383Y-100438304D01*
X98000500Y-100377586D01*
X98000500Y-99245031D01*
X122200000Y-99245031D01*
X122200000Y-99449666D01*
X122232009Y-99651766D01*
X122295244Y-99846380D01*
X122388141Y-100028699D01*
X122388147Y-100028708D01*
X122420523Y-100073270D01*
X122420524Y-100073271D01*
X123100000Y-99393795D01*
X123100000Y-99400010D01*
X123127259Y-99501743D01*
X123179920Y-99592955D01*
X123254394Y-99667429D01*
X123345606Y-99720090D01*
X123447339Y-99747349D01*
X123453553Y-99747349D01*
X122774076Y-100426823D01*
X122818650Y-100459208D01*
X123000968Y-100552104D01*
X123195582Y-100615339D01*
X123397683Y-100647349D01*
X123602317Y-100647349D01*
X123804417Y-100615339D01*
X123999031Y-100552104D01*
X124181349Y-100459208D01*
X124225921Y-100426823D01*
X123546447Y-99747349D01*
X123552661Y-99747349D01*
X123654394Y-99720090D01*
X123745606Y-99667429D01*
X123820080Y-99592955D01*
X123872741Y-99501743D01*
X123900000Y-99400010D01*
X123900000Y-99393796D01*
X124579474Y-100073270D01*
X124611859Y-100028698D01*
X124704755Y-99846380D01*
X124767990Y-99651766D01*
X124800000Y-99449666D01*
X124800000Y-99245031D01*
X124767990Y-99042931D01*
X124704755Y-98848317D01*
X124611859Y-98665999D01*
X124579474Y-98621426D01*
X124579474Y-98621425D01*
X123900000Y-99300900D01*
X123900000Y-99294688D01*
X123872741Y-99192955D01*
X123820080Y-99101743D01*
X123745606Y-99027269D01*
X123654394Y-98974608D01*
X123552661Y-98947349D01*
X123546446Y-98947349D01*
X124225922Y-98267873D01*
X124225921Y-98267872D01*
X124181359Y-98235496D01*
X124181350Y-98235490D01*
X123999031Y-98142593D01*
X123804417Y-98079358D01*
X123602317Y-98047349D01*
X123397683Y-98047349D01*
X123195582Y-98079358D01*
X123000968Y-98142593D01*
X122818644Y-98235492D01*
X122774077Y-98267872D01*
X122774077Y-98267873D01*
X123453554Y-98947349D01*
X123447339Y-98947349D01*
X123345606Y-98974608D01*
X123254394Y-99027269D01*
X123179920Y-99101743D01*
X123127259Y-99192955D01*
X123100000Y-99294688D01*
X123100000Y-99300902D01*
X122420524Y-98621426D01*
X122420523Y-98621426D01*
X122388143Y-98665993D01*
X122295244Y-98848317D01*
X122232009Y-99042931D01*
X122200000Y-99245031D01*
X98000500Y-99245031D01*
X98000500Y-90964782D01*
X98020185Y-90897743D01*
X98072989Y-90851988D01*
X98142147Y-90842044D01*
X98205703Y-90871069D01*
X98212179Y-90877099D01*
X99138296Y-91803217D01*
X99776516Y-92441437D01*
X99810001Y-92502760D01*
X99811774Y-92545302D01*
X99799500Y-92638540D01*
X99799500Y-92861450D01*
X99799501Y-92861466D01*
X99828594Y-93082452D01*
X99828595Y-93082457D01*
X99828596Y-93082463D01*
X99886290Y-93297780D01*
X99886293Y-93297790D01*
X99959245Y-93473911D01*
X99971595Y-93503726D01*
X100083052Y-93696774D01*
X100083057Y-93696780D01*
X100083058Y-93696782D01*
X100218751Y-93873622D01*
X100218757Y-93873629D01*
X100376370Y-94031242D01*
X100376376Y-94031247D01*
X100553226Y-94166948D01*
X100746274Y-94278405D01*
X100746279Y-94278407D01*
X100746283Y-94278409D01*
X100826024Y-94311439D01*
X100880428Y-94355280D01*
X100902493Y-94421574D01*
X100885214Y-94489273D01*
X100834077Y-94536884D01*
X100778572Y-94550000D01*
X100500014Y-94550000D01*
X100397310Y-94560493D01*
X100397303Y-94560494D01*
X100230881Y-94615641D01*
X100230876Y-94615643D01*
X100081655Y-94707684D01*
X99957684Y-94831655D01*
X99865643Y-94980876D01*
X99865641Y-94980881D01*
X99810494Y-95147303D01*
X99810493Y-95147310D01*
X99800000Y-95250014D01*
X99800000Y-96000000D01*
X100951518Y-96000000D01*
X100940889Y-96018409D01*
X100900000Y-96171009D01*
X100900000Y-96328991D01*
X100940889Y-96481591D01*
X100951518Y-96500000D01*
X99800000Y-96500000D01*
X99800000Y-97249985D01*
X99810493Y-97352689D01*
X99810494Y-97352696D01*
X99865641Y-97519118D01*
X99865643Y-97519123D01*
X99957684Y-97668344D01*
X100081655Y-97792315D01*
X100230876Y-97884356D01*
X100230881Y-97884358D01*
X100397303Y-97939505D01*
X100397310Y-97939506D01*
X100500014Y-97949999D01*
X100500027Y-97950000D01*
X101250000Y-97950000D01*
X101250000Y-96798482D01*
X101268409Y-96809111D01*
X101421009Y-96850000D01*
X101578991Y-96850000D01*
X101731591Y-96809111D01*
X101750000Y-96798482D01*
X101750000Y-97950000D01*
X102499973Y-97950000D01*
X102499985Y-97949999D01*
X102602689Y-97939506D01*
X102602696Y-97939505D01*
X102769118Y-97884358D01*
X102769123Y-97884356D01*
X102918344Y-97792315D01*
X103042315Y-97668344D01*
X103134356Y-97519123D01*
X103134358Y-97519118D01*
X103189505Y-97352696D01*
X103189506Y-97352689D01*
X103199999Y-97249985D01*
X103200000Y-97249972D01*
X103200000Y-96500000D01*
X102048482Y-96500000D01*
X102059111Y-96481591D01*
X102100000Y-96328991D01*
X102100000Y-96171009D01*
X102059111Y-96018409D01*
X102048482Y-96000000D01*
X103200000Y-96000000D01*
X103200000Y-95250027D01*
X103199999Y-95250014D01*
X103189506Y-95147310D01*
X103189505Y-95147303D01*
X103134358Y-94980881D01*
X103134356Y-94980876D01*
X103042315Y-94831655D01*
X102918344Y-94707684D01*
X102769123Y-94615643D01*
X102769118Y-94615641D01*
X102602696Y-94560494D01*
X102602689Y-94560493D01*
X102499985Y-94550000D01*
X102221428Y-94550000D01*
X102154389Y-94530315D01*
X102108634Y-94477511D01*
X102098690Y-94408353D01*
X102127715Y-94344797D01*
X102173976Y-94311439D01*
X102253716Y-94278409D01*
X102253714Y-94278409D01*
X102253726Y-94278405D01*
X102446774Y-94166948D01*
X102623624Y-94031247D01*
X102781247Y-93873624D01*
X102916948Y-93696774D01*
X103028405Y-93503726D01*
X103113710Y-93297781D01*
X103171404Y-93082463D01*
X103200500Y-92861457D01*
X103200500Y-92638543D01*
X103171404Y-92417537D01*
X103113710Y-92202219D01*
X103028405Y-91996274D01*
X102916948Y-91803226D01*
X102781247Y-91626376D01*
X102781242Y-91626370D01*
X102623629Y-91468757D01*
X102623622Y-91468751D01*
X102446782Y-91333058D01*
X102446780Y-91333057D01*
X102446774Y-91333052D01*
X102253726Y-91221595D01*
X102253722Y-91221593D01*
X102047790Y-91136293D01*
X102047783Y-91136291D01*
X102047781Y-91136290D01*
X101832463Y-91078596D01*
X101832457Y-91078595D01*
X101832452Y-91078594D01*
X101611466Y-91049501D01*
X101611463Y-91049500D01*
X101611457Y-91049500D01*
X101388543Y-91049500D01*
X101388541Y-91049500D01*
X101295302Y-91061774D01*
X101226267Y-91051008D01*
X101191437Y-91026516D01*
X99536819Y-89371898D01*
X99503334Y-89310575D01*
X99500500Y-89284217D01*
X99500500Y-81001316D01*
X99520185Y-80934277D01*
X99536819Y-80913635D01*
X102573636Y-77876819D01*
X102634959Y-77843334D01*
X102661317Y-77840500D01*
X108319699Y-77840500D01*
X108386738Y-77860185D01*
X108432493Y-77912989D01*
X108437401Y-77925487D01*
X108450916Y-77966270D01*
X108465185Y-78009332D01*
X108465187Y-78009337D01*
X108500070Y-78065890D01*
X108557288Y-78158656D01*
X108681344Y-78282712D01*
X108830665Y-78374814D01*
X108997202Y-78429999D01*
X109099990Y-78440500D01*
X109099995Y-78440500D01*
X110900005Y-78440500D01*
X110900010Y-78440500D01*
X111002798Y-78429999D01*
X111169335Y-78374814D01*
X111318656Y-78282712D01*
X111442712Y-78158656D01*
X111534814Y-78009335D01*
X111562596Y-77925494D01*
X111602368Y-77868051D01*
X111666883Y-77841228D01*
X111680301Y-77840500D01*
X112793189Y-77840500D01*
X112860228Y-77860185D01*
X112905983Y-77912989D01*
X112910895Y-77925496D01*
X112965185Y-78089332D01*
X112965187Y-78089337D01*
X112969000Y-78095519D01*
X113057288Y-78238656D01*
X113181344Y-78362712D01*
X113330665Y-78454814D01*
X113497202Y-78509999D01*
X113599990Y-78520500D01*
X115054218Y-78520500D01*
X115121257Y-78540185D01*
X115141899Y-78556819D01*
X115963181Y-79378101D01*
X115996666Y-79439424D01*
X115999500Y-79465782D01*
X115999500Y-86039317D01*
X115979815Y-86106356D01*
X115927011Y-86152111D01*
X115857853Y-86162055D01*
X115794297Y-86133030D01*
X115775182Y-86112203D01*
X115720794Y-86037345D01*
X115542654Y-85859205D01*
X115542649Y-85859201D01*
X115338848Y-85711132D01*
X115338847Y-85711131D01*
X115338845Y-85711130D01*
X115267749Y-85674905D01*
X115114383Y-85596760D01*
X114874785Y-85518910D01*
X114625962Y-85479500D01*
X114374038Y-85479500D01*
X114249626Y-85499205D01*
X114125214Y-85518910D01*
X113885616Y-85596760D01*
X113661151Y-85711132D01*
X113457350Y-85859201D01*
X113457345Y-85859205D01*
X113279205Y-86037345D01*
X113279201Y-86037350D01*
X113131132Y-86241151D01*
X113016760Y-86465616D01*
X112938910Y-86705214D01*
X112899500Y-86954038D01*
X112899500Y-87205961D01*
X112938910Y-87454785D01*
X113016760Y-87694383D01*
X113131132Y-87918848D01*
X113279201Y-88122649D01*
X113279205Y-88122654D01*
X113460789Y-88304238D01*
X113459714Y-88305312D01*
X113494225Y-88358180D01*
X113499500Y-88393962D01*
X113499500Y-89239698D01*
X113479815Y-89306737D01*
X113427011Y-89352492D01*
X113414505Y-89357404D01*
X113330665Y-89385186D01*
X113330662Y-89385187D01*
X113181342Y-89477289D01*
X113057289Y-89601342D01*
X112965187Y-89750662D01*
X112965186Y-89750665D01*
X112910001Y-89917202D01*
X112910001Y-89917203D01*
X112910000Y-89917203D01*
X112899500Y-90019982D01*
X112899500Y-91820017D01*
X112910000Y-91922796D01*
X112965185Y-92089332D01*
X112965186Y-92089335D01*
X113057288Y-92238656D01*
X113181344Y-92362712D01*
X113330665Y-92454814D01*
X113364868Y-92466147D01*
X113422312Y-92505920D01*
X113449135Y-92570436D01*
X113436820Y-92639211D01*
X113413544Y-92671534D01*
X113121897Y-92963182D01*
X113060577Y-92996666D01*
X113034218Y-92999500D01*
X108465783Y-92999500D01*
X108398744Y-92979815D01*
X108378102Y-92963181D01*
X108036819Y-92621898D01*
X108003334Y-92560575D01*
X108000500Y-92534217D01*
X108000500Y-86401456D01*
X107962052Y-86208170D01*
X107962051Y-86208169D01*
X107962051Y-86208165D01*
X107942579Y-86161155D01*
X107886635Y-86026092D01*
X107886628Y-86026079D01*
X107777139Y-85862218D01*
X107777136Y-85862214D01*
X107634686Y-85719764D01*
X107634655Y-85719735D01*
X106531479Y-84616559D01*
X106531459Y-84616537D01*
X106387785Y-84472863D01*
X106387781Y-84472860D01*
X106223920Y-84363371D01*
X106223907Y-84363364D01*
X106092097Y-84308768D01*
X106041836Y-84287949D01*
X106041828Y-84287947D01*
X105945188Y-84268724D01*
X105848544Y-84249500D01*
X105848541Y-84249500D01*
X103312163Y-84249500D01*
X103245124Y-84229815D01*
X103199369Y-84177011D01*
X103190912Y-84151467D01*
X103189999Y-84147204D01*
X103189999Y-84147203D01*
X103134814Y-83980666D01*
X103042711Y-83831345D01*
X102918655Y-83707289D01*
X102918651Y-83707286D01*
X102769337Y-83615187D01*
X102769335Y-83615186D01*
X102620511Y-83565871D01*
X102602797Y-83560001D01*
X102602795Y-83560000D01*
X102500015Y-83549500D01*
X102500008Y-83549500D01*
X102222635Y-83549500D01*
X102155596Y-83529815D01*
X102109841Y-83477011D01*
X102099897Y-83407853D01*
X102128922Y-83344297D01*
X102175183Y-83310939D01*
X102253717Y-83278409D01*
X102253718Y-83278407D01*
X102253726Y-83278405D01*
X102446774Y-83166948D01*
X102623624Y-83031247D01*
X102781247Y-82873624D01*
X102838497Y-82799013D01*
X102894924Y-82757811D01*
X102936873Y-82750500D01*
X107284218Y-82750500D01*
X107351257Y-82770185D01*
X107371899Y-82786819D01*
X108963181Y-84378101D01*
X108996666Y-84439424D01*
X108999500Y-84465782D01*
X108999500Y-85686037D01*
X108979815Y-85753076D01*
X108960376Y-85775350D01*
X108960788Y-85775762D01*
X108779205Y-85957345D01*
X108779201Y-85957350D01*
X108631132Y-86161151D01*
X108516760Y-86385616D01*
X108438910Y-86625214D01*
X108399500Y-86874038D01*
X108399500Y-87125961D01*
X108438910Y-87374785D01*
X108516760Y-87614383D01*
X108631132Y-87838848D01*
X108779201Y-88042649D01*
X108779205Y-88042654D01*
X108960789Y-88224238D01*
X108959714Y-88225312D01*
X108994225Y-88278180D01*
X108999500Y-88313962D01*
X108999500Y-89239698D01*
X108979815Y-89306737D01*
X108927011Y-89352492D01*
X108914505Y-89357404D01*
X108830665Y-89385186D01*
X108830662Y-89385187D01*
X108681342Y-89477289D01*
X108557289Y-89601342D01*
X108465187Y-89750662D01*
X108465186Y-89750665D01*
X108410001Y-89917202D01*
X108410001Y-89917203D01*
X108410000Y-89917203D01*
X108399500Y-90019982D01*
X108399500Y-91820017D01*
X108410000Y-91922796D01*
X108465185Y-92089332D01*
X108465186Y-92089335D01*
X108557288Y-92238656D01*
X108681344Y-92362712D01*
X108830665Y-92454814D01*
X108997202Y-92509999D01*
X109099990Y-92520500D01*
X109099995Y-92520500D01*
X110900005Y-92520500D01*
X110900010Y-92520500D01*
X111002798Y-92509999D01*
X111169335Y-92454814D01*
X111318656Y-92362712D01*
X111442712Y-92238656D01*
X111534814Y-92089335D01*
X111589999Y-91922798D01*
X111600500Y-91820010D01*
X111600500Y-90019990D01*
X111589999Y-89917202D01*
X111534814Y-89750665D01*
X111442712Y-89601344D01*
X111318656Y-89477288D01*
X111169335Y-89385186D01*
X111085495Y-89357404D01*
X111028050Y-89317631D01*
X111001228Y-89253114D01*
X111000500Y-89239698D01*
X111000500Y-88313962D01*
X111020185Y-88246923D01*
X111039623Y-88224650D01*
X111039211Y-88224238D01*
X111042656Y-88220793D01*
X111220793Y-88042656D01*
X111368870Y-87838845D01*
X111483241Y-87614379D01*
X111561090Y-87374785D01*
X111600500Y-87125962D01*
X111600500Y-86874038D01*
X111561090Y-86625215D01*
X111483241Y-86385621D01*
X111483239Y-86385618D01*
X111483239Y-86385616D01*
X111424423Y-86270185D01*
X111368870Y-86161155D01*
X111278917Y-86037345D01*
X111220798Y-85957350D01*
X111220794Y-85957345D01*
X111039212Y-85775762D01*
X111040285Y-85774688D01*
X111005774Y-85721815D01*
X111000500Y-85686037D01*
X111000500Y-84104675D01*
X111000501Y-84104654D01*
X111000501Y-83901457D01*
X111000500Y-83901455D01*
X110962053Y-83708172D01*
X110962052Y-83708165D01*
X110900680Y-83560000D01*
X110886633Y-83526088D01*
X110886628Y-83526079D01*
X110777140Y-83362219D01*
X110777137Y-83362215D01*
X108534209Y-81119289D01*
X108534206Y-81119285D01*
X108534206Y-81119286D01*
X108527139Y-81112219D01*
X108527139Y-81112218D01*
X108387782Y-80972861D01*
X108387781Y-80972860D01*
X108387780Y-80972859D01*
X108223920Y-80863371D01*
X108223907Y-80863364D01*
X108092097Y-80808768D01*
X108041836Y-80787949D01*
X108041828Y-80787947D01*
X107945188Y-80768724D01*
X107848544Y-80749500D01*
X107848541Y-80749500D01*
X102936873Y-80749500D01*
X102869834Y-80729815D01*
X102838497Y-80700986D01*
X102781248Y-80626377D01*
X102781242Y-80626370D01*
X102623629Y-80468757D01*
X102623622Y-80468751D01*
X102446782Y-80333058D01*
X102446780Y-80333057D01*
X102446774Y-80333052D01*
X102253726Y-80221595D01*
X102253722Y-80221593D01*
X102047790Y-80136293D01*
X102047783Y-80136291D01*
X102047781Y-80136290D01*
X101832463Y-80078596D01*
X101832457Y-80078595D01*
X101832452Y-80078594D01*
X101611466Y-80049501D01*
X101611463Y-80049500D01*
X101611457Y-80049500D01*
X101388543Y-80049500D01*
X101388537Y-80049500D01*
X101388533Y-80049501D01*
X101167547Y-80078594D01*
X101167540Y-80078595D01*
X101167537Y-80078596D01*
X100952219Y-80136290D01*
X100952209Y-80136293D01*
X100746277Y-80221593D01*
X100746273Y-80221595D01*
X100553226Y-80333052D01*
X100553217Y-80333058D01*
X100376377Y-80468751D01*
X100376370Y-80468757D01*
X100218757Y-80626370D01*
X100218751Y-80626377D01*
X100083058Y-80803217D01*
X100083052Y-80803226D01*
X99971595Y-80996273D01*
X99971593Y-80996277D01*
X99886293Y-81202209D01*
X99886290Y-81202219D01*
X99828597Y-81417534D01*
X99828594Y-81417547D01*
X99799501Y-81638533D01*
X99799500Y-81638549D01*
X99799500Y-81861450D01*
X99799501Y-81861466D01*
X99828594Y-82082452D01*
X99828595Y-82082457D01*
X99828596Y-82082463D01*
X99872262Y-82245428D01*
X99886290Y-82297780D01*
X99886293Y-82297790D01*
X99912099Y-82360090D01*
X99971595Y-82503726D01*
X100083052Y-82696774D01*
X100083057Y-82696780D01*
X100083058Y-82696782D01*
X100218751Y-82873622D01*
X100218757Y-82873629D01*
X100376370Y-83031242D01*
X100376377Y-83031248D01*
X100501477Y-83127240D01*
X100553226Y-83166948D01*
X100746274Y-83278405D01*
X100746277Y-83278406D01*
X100746282Y-83278409D01*
X100824817Y-83310939D01*
X100879221Y-83354780D01*
X100901286Y-83421074D01*
X100884007Y-83488773D01*
X100832870Y-83536384D01*
X100777365Y-83549500D01*
X100499984Y-83549500D01*
X100397204Y-83560000D01*
X100397203Y-83560001D01*
X100230664Y-83615186D01*
X100230662Y-83615187D01*
X100081348Y-83707286D01*
X100081344Y-83707289D01*
X99957289Y-83831344D01*
X99957286Y-83831348D01*
X99865187Y-83980662D01*
X99865186Y-83980664D01*
X99810001Y-84147203D01*
X99810000Y-84147204D01*
X99799500Y-84249984D01*
X99799500Y-86250015D01*
X99810000Y-86352795D01*
X99810001Y-86352796D01*
X99865186Y-86519335D01*
X99865187Y-86519337D01*
X99957286Y-86668651D01*
X99957289Y-86668655D01*
X100081344Y-86792710D01*
X100081348Y-86792713D01*
X100230662Y-86884812D01*
X100230664Y-86884813D01*
X100230666Y-86884814D01*
X100397203Y-86939999D01*
X100499992Y-86950500D01*
X100499997Y-86950500D01*
X102500003Y-86950500D01*
X102500008Y-86950500D01*
X102602797Y-86939999D01*
X102769334Y-86884814D01*
X102918655Y-86792711D01*
X103042711Y-86668655D01*
X103134814Y-86519334D01*
X103189999Y-86352797D01*
X103189999Y-86352793D01*
X103190912Y-86348533D01*
X103224199Y-86287102D01*
X103285414Y-86253419D01*
X103312163Y-86250500D01*
X105284218Y-86250500D01*
X105351257Y-86270185D01*
X105371899Y-86286819D01*
X105963181Y-86878101D01*
X105996666Y-86939424D01*
X105999500Y-86965782D01*
X105999500Y-93098544D01*
X106024438Y-93223915D01*
X106037946Y-93291828D01*
X106037949Y-93291837D01*
X106113364Y-93473907D01*
X106113371Y-93473920D01*
X106222859Y-93637780D01*
X106222860Y-93637781D01*
X106222861Y-93637782D01*
X106362218Y-93777139D01*
X106362219Y-93777139D01*
X106369286Y-93784206D01*
X106369285Y-93784206D01*
X106369289Y-93784209D01*
X107362215Y-94777137D01*
X107362219Y-94777140D01*
X107526079Y-94886628D01*
X107526085Y-94886631D01*
X107526086Y-94886632D01*
X107708165Y-94962052D01*
X107901455Y-95000500D01*
X107901458Y-95000501D01*
X107901460Y-95000501D01*
X108104655Y-95000501D01*
X108104675Y-95000500D01*
X113598542Y-95000500D01*
X113617870Y-94996655D01*
X113695188Y-94981275D01*
X113791836Y-94962051D01*
X113845165Y-94939961D01*
X113973914Y-94886632D01*
X114137782Y-94777139D01*
X114277139Y-94637782D01*
X114277139Y-94637780D01*
X114287347Y-94627573D01*
X114287348Y-94627570D01*
X115277140Y-93637781D01*
X115386632Y-93473914D01*
X115462052Y-93291835D01*
X115500501Y-93098540D01*
X115500501Y-92901459D01*
X115500501Y-92896349D01*
X115500500Y-92896323D01*
X115500500Y-92600301D01*
X115520185Y-92533262D01*
X115572989Y-92487507D01*
X115585487Y-92482598D01*
X115669335Y-92454814D01*
X115818656Y-92362712D01*
X115942712Y-92238656D01*
X116034814Y-92089335D01*
X116089999Y-91922798D01*
X116100500Y-91820010D01*
X116100500Y-90019990D01*
X116089999Y-89917202D01*
X116034814Y-89750665D01*
X115942712Y-89601344D01*
X115818656Y-89477288D01*
X115669335Y-89385186D01*
X115585495Y-89357404D01*
X115528050Y-89317631D01*
X115501228Y-89253114D01*
X115500500Y-89239698D01*
X115500500Y-88393962D01*
X115520185Y-88326923D01*
X115539623Y-88304650D01*
X115539211Y-88304238D01*
X115622656Y-88220793D01*
X115720793Y-88122656D01*
X115806403Y-88004823D01*
X115861731Y-87962159D01*
X115931344Y-87956180D01*
X115993140Y-87988785D01*
X116027497Y-88049624D01*
X116028337Y-88053517D01*
X116037947Y-88101830D01*
X116037950Y-88101839D01*
X116113364Y-88283907D01*
X116113371Y-88283920D01*
X116222859Y-88447780D01*
X116222860Y-88447781D01*
X116222861Y-88447782D01*
X116362218Y-88587139D01*
X116362219Y-88587139D01*
X116369286Y-88594206D01*
X116369285Y-88594206D01*
X116369289Y-88594209D01*
X117983581Y-90208501D01*
X118017066Y-90269824D01*
X118018372Y-90276779D01*
X118019058Y-90281109D01*
X118019059Y-90281114D01*
X118019060Y-90281118D01*
X118077453Y-90460832D01*
X118163240Y-90629199D01*
X118165814Y-90632742D01*
X118189297Y-90698546D01*
X118189500Y-90705632D01*
X118189500Y-93788541D01*
X118189500Y-93788543D01*
X118189499Y-93788543D01*
X118227947Y-93981829D01*
X118227950Y-93981839D01*
X118303364Y-94163907D01*
X118303371Y-94163920D01*
X118412860Y-94327781D01*
X118412863Y-94327785D01*
X118556537Y-94471459D01*
X118556559Y-94471479D01*
X120567084Y-96482004D01*
X120567113Y-96482035D01*
X120709563Y-96624485D01*
X120709567Y-96624488D01*
X120873428Y-96733977D01*
X120873441Y-96733984D01*
X121002182Y-96787310D01*
X121045093Y-96805084D01*
X121055513Y-96809400D01*
X121152161Y-96828624D01*
X121200484Y-96838236D01*
X121248807Y-96847849D01*
X121248808Y-96847849D01*
X121248809Y-96847849D01*
X121445889Y-96847849D01*
X122287769Y-96847849D01*
X122354808Y-96867534D01*
X122375450Y-96884167D01*
X122481344Y-96990061D01*
X122630666Y-97082163D01*
X122797203Y-97137348D01*
X122899991Y-97147849D01*
X124100008Y-97147848D01*
X124202797Y-97137348D01*
X124369334Y-97082163D01*
X124518656Y-96990061D01*
X124642712Y-96866005D01*
X124734814Y-96716683D01*
X124789999Y-96550146D01*
X124800500Y-96447358D01*
X124800499Y-95247341D01*
X124789999Y-95144552D01*
X124734814Y-94978015D01*
X124642712Y-94828693D01*
X124518656Y-94704637D01*
X124369334Y-94612535D01*
X124202797Y-94557350D01*
X124202795Y-94557349D01*
X124100010Y-94546849D01*
X122899998Y-94546849D01*
X122899981Y-94546850D01*
X122797203Y-94557349D01*
X122797200Y-94557350D01*
X122630668Y-94612534D01*
X122630663Y-94612536D01*
X122481345Y-94704636D01*
X122375450Y-94810531D01*
X122314127Y-94844015D01*
X122287769Y-94846849D01*
X121813131Y-94846849D01*
X121746092Y-94827164D01*
X121725450Y-94810530D01*
X120226819Y-93311899D01*
X120193334Y-93250576D01*
X120190500Y-93224218D01*
X120190500Y-90705632D01*
X120210185Y-90638593D01*
X120214177Y-90632753D01*
X120216760Y-90629199D01*
X120302547Y-90460832D01*
X120360940Y-90281118D01*
X120367929Y-90236991D01*
X120390500Y-90094486D01*
X120390500Y-89905513D01*
X120360940Y-89718881D01*
X120302545Y-89539163D01*
X120224090Y-89385187D01*
X120216760Y-89370801D01*
X120105690Y-89217927D01*
X119972073Y-89084310D01*
X119819199Y-88973240D01*
X119650832Y-88887453D01*
X119471118Y-88829060D01*
X119471116Y-88829059D01*
X119471114Y-88829059D01*
X119471109Y-88829058D01*
X119466779Y-88828372D01*
X119403645Y-88798440D01*
X119398501Y-88793581D01*
X118036819Y-87431898D01*
X118003334Y-87370575D01*
X118000500Y-87344217D01*
X118000500Y-86817882D01*
X118655669Y-86817882D01*
X118655670Y-86817883D01*
X118681059Y-86836329D01*
X118849362Y-86922085D01*
X119028997Y-86980451D01*
X119215553Y-87010000D01*
X119404447Y-87010000D01*
X119591002Y-86980451D01*
X119770637Y-86922085D01*
X119938937Y-86836331D01*
X119964328Y-86817883D01*
X119964328Y-86817882D01*
X119310001Y-86163554D01*
X119310000Y-86163554D01*
X118655669Y-86817882D01*
X118000500Y-86817882D01*
X118000500Y-86399686D01*
X118020185Y-86332647D01*
X118072989Y-86286892D01*
X118142147Y-86276948D01*
X118205703Y-86305973D01*
X118234985Y-86343391D01*
X118283666Y-86438933D01*
X118302116Y-86464328D01*
X118956446Y-85810000D01*
X118956446Y-85809999D01*
X118910369Y-85763922D01*
X118960000Y-85763922D01*
X118960000Y-85856078D01*
X118983852Y-85945095D01*
X119029930Y-86024905D01*
X119095095Y-86090070D01*
X119174905Y-86136148D01*
X119263922Y-86160000D01*
X119356078Y-86160000D01*
X119445095Y-86136148D01*
X119524905Y-86090070D01*
X119590070Y-86024905D01*
X119636148Y-85945095D01*
X119660000Y-85856078D01*
X119660000Y-85809999D01*
X119663554Y-85809999D01*
X119663554Y-85810000D01*
X120317882Y-86464328D01*
X120317883Y-86464328D01*
X120336331Y-86438937D01*
X120422085Y-86270637D01*
X120480451Y-86091002D01*
X120510000Y-85904447D01*
X120510000Y-85715552D01*
X120480451Y-85528997D01*
X120422085Y-85349362D01*
X120336329Y-85181059D01*
X120317883Y-85155670D01*
X120317882Y-85155669D01*
X119663554Y-85809999D01*
X119660000Y-85809999D01*
X119660000Y-85763922D01*
X119636148Y-85674905D01*
X119590070Y-85595095D01*
X119524905Y-85529930D01*
X119445095Y-85483852D01*
X119356078Y-85460000D01*
X119263922Y-85460000D01*
X119174905Y-85483852D01*
X119095095Y-85529930D01*
X119029930Y-85595095D01*
X118983852Y-85674905D01*
X118960000Y-85763922D01*
X118910369Y-85763922D01*
X118302116Y-85155669D01*
X118302116Y-85155670D01*
X118283668Y-85181063D01*
X118234984Y-85276609D01*
X118187010Y-85327404D01*
X118119188Y-85344199D01*
X118053054Y-85321661D01*
X118009603Y-85266946D01*
X118000500Y-85220313D01*
X118000500Y-84802116D01*
X118655669Y-84802116D01*
X119310000Y-85456446D01*
X119310001Y-85456446D01*
X119964328Y-84802116D01*
X119938933Y-84783666D01*
X119770637Y-84697914D01*
X119591002Y-84639548D01*
X119404447Y-84610000D01*
X119215553Y-84610000D01*
X119028997Y-84639548D01*
X118849362Y-84697914D01*
X118681060Y-84783669D01*
X118655670Y-84802116D01*
X118655669Y-84802116D01*
X118000500Y-84802116D01*
X118000500Y-81052155D01*
X122830000Y-81052155D01*
X122830000Y-81750000D01*
X123854722Y-81750000D01*
X123810667Y-81826306D01*
X123780000Y-81940756D01*
X123780000Y-82059244D01*
X123810667Y-82173694D01*
X123854722Y-82250000D01*
X122830000Y-82250000D01*
X122830000Y-82947844D01*
X122836401Y-83007372D01*
X122836403Y-83007379D01*
X122886645Y-83142086D01*
X122886649Y-83142093D01*
X122972809Y-83257187D01*
X122972812Y-83257190D01*
X123087906Y-83343350D01*
X123087913Y-83343354D01*
X123222620Y-83393596D01*
X123222627Y-83393598D01*
X123282155Y-83399999D01*
X123282172Y-83400000D01*
X123980000Y-83400000D01*
X123980000Y-82375277D01*
X124056306Y-82419333D01*
X124170756Y-82450000D01*
X124289244Y-82450000D01*
X124403694Y-82419333D01*
X124480000Y-82375277D01*
X124480000Y-83400000D01*
X125177828Y-83400000D01*
X125177844Y-83399999D01*
X125237372Y-83393598D01*
X125237379Y-83393596D01*
X125372086Y-83343354D01*
X125372093Y-83343350D01*
X125487187Y-83257190D01*
X125487190Y-83257187D01*
X125573350Y-83142093D01*
X125573354Y-83142086D01*
X125603213Y-83062031D01*
X125645084Y-83006097D01*
X125710548Y-82981680D01*
X125778821Y-82996531D01*
X125807076Y-83017683D01*
X125857636Y-83068243D01*
X125857641Y-83068247D01*
X125993493Y-83166948D01*
X126035978Y-83197815D01*
X126152501Y-83257187D01*
X126232393Y-83297895D01*
X126232396Y-83297896D01*
X126337221Y-83331955D01*
X126442049Y-83366015D01*
X126659778Y-83400500D01*
X126659779Y-83400500D01*
X126880220Y-83400500D01*
X126880222Y-83400500D01*
X127015432Y-83379084D01*
X127084723Y-83388038D01*
X127122506Y-83413874D01*
X127185644Y-83477011D01*
X127213181Y-83504548D01*
X127246666Y-83565871D01*
X127249500Y-83592229D01*
X127249500Y-88447770D01*
X127229815Y-88514809D01*
X127213181Y-88535451D01*
X126985451Y-88763181D01*
X126924128Y-88796666D01*
X126897770Y-88799500D01*
X126715514Y-88799500D01*
X126528881Y-88829059D01*
X126349163Y-88887454D01*
X126180800Y-88973240D01*
X126093579Y-89036610D01*
X126027927Y-89084310D01*
X126027925Y-89084312D01*
X126027924Y-89084312D01*
X125894312Y-89217924D01*
X125894312Y-89217925D01*
X125894310Y-89217927D01*
X125868745Y-89253114D01*
X125783240Y-89370800D01*
X125697454Y-89539163D01*
X125639059Y-89718881D01*
X125609500Y-89905513D01*
X125609500Y-90094486D01*
X125639059Y-90281118D01*
X125697454Y-90460836D01*
X125783239Y-90629198D01*
X125783240Y-90629199D01*
X125894310Y-90782073D01*
X126027927Y-90915690D01*
X126180801Y-91026760D01*
X126225431Y-91049500D01*
X126349163Y-91112545D01*
X126349165Y-91112545D01*
X126349168Y-91112547D01*
X126422241Y-91136290D01*
X126528881Y-91170940D01*
X126715514Y-91200500D01*
X126715519Y-91200500D01*
X126904486Y-91200500D01*
X127091118Y-91170940D01*
X127270832Y-91112547D01*
X127439199Y-91026760D01*
X127592073Y-90915690D01*
X127725690Y-90782073D01*
X127836760Y-90629199D01*
X127922547Y-90460832D01*
X127980940Y-90281118D01*
X127987929Y-90236991D01*
X128010500Y-90094486D01*
X128010500Y-89912228D01*
X128030185Y-89845189D01*
X128046819Y-89824547D01*
X128582947Y-89288420D01*
X128582947Y-89288419D01*
X128582951Y-89288416D01*
X128630050Y-89217927D01*
X128665084Y-89165495D01*
X128721658Y-89028913D01*
X128750500Y-88883918D01*
X128750500Y-83156082D01*
X128744763Y-83127241D01*
X128721659Y-83011088D01*
X128667408Y-82880117D01*
X128665764Y-82875522D01*
X128582954Y-82751588D01*
X128582953Y-82751587D01*
X128582951Y-82751584D01*
X128478416Y-82647049D01*
X128183876Y-82352508D01*
X128150391Y-82291185D01*
X128149084Y-82245434D01*
X128170500Y-82110222D01*
X128170500Y-81889778D01*
X128136015Y-81672049D01*
X128101955Y-81567221D01*
X128067896Y-81462396D01*
X128067895Y-81462393D01*
X128033237Y-81394375D01*
X127967815Y-81265978D01*
X127921492Y-81202219D01*
X127838247Y-81087641D01*
X127838243Y-81087636D01*
X127682363Y-80931756D01*
X127682358Y-80931752D01*
X127504025Y-80802187D01*
X127504024Y-80802186D01*
X127504022Y-80802185D01*
X127438352Y-80768724D01*
X127307606Y-80702104D01*
X127307603Y-80702103D01*
X127097952Y-80633985D01*
X126989086Y-80616742D01*
X126880222Y-80599500D01*
X126659778Y-80599500D01*
X126587201Y-80610995D01*
X126442047Y-80633985D01*
X126232396Y-80702103D01*
X126232393Y-80702104D01*
X126035974Y-80802187D01*
X125857641Y-80931752D01*
X125857636Y-80931756D01*
X125807075Y-80982317D01*
X125745752Y-81015801D01*
X125676060Y-81010816D01*
X125620127Y-80968945D01*
X125603213Y-80937968D01*
X125573354Y-80857913D01*
X125573350Y-80857906D01*
X125487190Y-80742812D01*
X125487187Y-80742809D01*
X125372093Y-80656649D01*
X125372086Y-80656645D01*
X125237379Y-80606403D01*
X125237372Y-80606401D01*
X125177844Y-80600000D01*
X124480000Y-80600000D01*
X124480000Y-81624722D01*
X124403694Y-81580667D01*
X124289244Y-81550000D01*
X124170756Y-81550000D01*
X124056306Y-81580667D01*
X123980000Y-81624722D01*
X123980000Y-80600000D01*
X123282155Y-80600000D01*
X123222627Y-80606401D01*
X123222620Y-80606403D01*
X123087913Y-80656645D01*
X123087906Y-80656649D01*
X122972812Y-80742809D01*
X122972809Y-80742812D01*
X122886649Y-80857906D01*
X122886645Y-80857913D01*
X122836403Y-80992620D01*
X122836401Y-80992627D01*
X122830000Y-81052155D01*
X118000500Y-81052155D01*
X118000500Y-78901457D01*
X117981275Y-78804813D01*
X117981275Y-78804812D01*
X117967492Y-78735519D01*
X117973720Y-78665930D01*
X118016584Y-78610753D01*
X118082474Y-78587509D01*
X118150471Y-78603577D01*
X118198986Y-78653857D01*
X118199595Y-78655036D01*
X118283240Y-78819199D01*
X118394310Y-78972073D01*
X118527927Y-79105690D01*
X118680801Y-79216760D01*
X118760347Y-79257290D01*
X118849163Y-79302545D01*
X118849165Y-79302545D01*
X118849168Y-79302547D01*
X118905194Y-79320751D01*
X119028881Y-79360940D01*
X119215514Y-79390500D01*
X119215519Y-79390500D01*
X119404486Y-79390500D01*
X119591118Y-79360940D01*
X119770832Y-79302547D01*
X119939199Y-79216760D01*
X120092073Y-79105690D01*
X120225690Y-78972073D01*
X120336760Y-78819199D01*
X120422547Y-78650832D01*
X120480940Y-78471118D01*
X120496193Y-78374814D01*
X120510500Y-78284486D01*
X120510500Y-78095513D01*
X120480940Y-77908881D01*
X120422545Y-77729163D01*
X120336759Y-77560800D01*
X120332817Y-77555374D01*
X120225690Y-77407927D01*
X120092073Y-77274310D01*
X119939199Y-77163240D01*
X119770832Y-77077453D01*
X119591118Y-77019060D01*
X119591116Y-77019059D01*
X119591114Y-77019059D01*
X119591109Y-77019058D01*
X119586779Y-77018372D01*
X119523645Y-76988440D01*
X119518501Y-76983581D01*
X118821479Y-76286559D01*
X118821459Y-76286537D01*
X118677785Y-76142863D01*
X118677781Y-76142860D01*
X118513920Y-76033371D01*
X118513911Y-76033366D01*
X118441315Y-76003296D01*
X118385165Y-75980038D01*
X118331836Y-75957949D01*
X118331832Y-75957948D01*
X118331828Y-75957946D01*
X118235188Y-75938724D01*
X118138544Y-75919500D01*
X118138541Y-75919500D01*
X116180301Y-75919500D01*
X116113262Y-75899815D01*
X116067507Y-75847011D01*
X116062598Y-75834512D01*
X116034814Y-75750665D01*
X115942712Y-75601344D01*
X115818656Y-75477288D01*
X115688957Y-75397289D01*
X115669337Y-75385187D01*
X115669332Y-75385185D01*
X115611206Y-75365924D01*
X115502798Y-75330001D01*
X115502796Y-75330000D01*
X115400017Y-75319500D01*
X115400010Y-75319500D01*
X113599990Y-75319500D01*
X113599982Y-75319500D01*
X113497203Y-75330000D01*
X113497202Y-75330001D01*
X113420037Y-75355571D01*
X113330667Y-75385185D01*
X113330662Y-75385187D01*
X113181342Y-75477289D01*
X113057289Y-75601342D01*
X112965187Y-75750662D01*
X112965184Y-75750669D01*
X112963913Y-75754507D01*
X112962328Y-75756796D01*
X112962136Y-75757208D01*
X112962065Y-75757175D01*
X112924139Y-75811951D01*
X112859622Y-75838772D01*
X112846208Y-75839500D01*
X111680301Y-75839500D01*
X111613262Y-75819815D01*
X111567507Y-75767011D01*
X111562598Y-75754512D01*
X111534814Y-75670665D01*
X111442712Y-75521344D01*
X111318656Y-75397288D01*
X111225890Y-75340070D01*
X111169337Y-75305187D01*
X111169332Y-75305185D01*
X111167863Y-75304698D01*
X111002798Y-75250001D01*
X111002796Y-75250000D01*
X110900017Y-75239500D01*
X110900010Y-75239500D01*
X109099990Y-75239500D01*
X109099982Y-75239500D01*
X108997203Y-75250000D01*
X108997202Y-75250001D01*
X108914669Y-75277349D01*
X108830667Y-75305185D01*
X108830662Y-75305187D01*
X108681342Y-75397289D01*
X108557289Y-75521342D01*
X108465187Y-75670662D01*
X108465186Y-75670665D01*
X108437403Y-75754505D01*
X108397632Y-75811949D01*
X108333117Y-75838772D01*
X108319699Y-75839500D01*
X102096988Y-75839500D01*
X102064925Y-75845876D01*
X102064926Y-75845877D01*
X101903704Y-75877946D01*
X101903698Y-75877948D01*
X101721622Y-75953366D01*
X101721615Y-75953370D01*
X101693390Y-75972230D01*
X101626712Y-75993107D01*
X101559332Y-75974622D01*
X101512643Y-75922643D01*
X101501354Y-75872891D01*
X101500765Y-75872930D01*
X101500522Y-75869224D01*
X101500500Y-75869127D01*
X101500500Y-75868886D01*
X101500499Y-75868872D01*
X101497472Y-75845878D01*
X101466270Y-75608884D01*
X101398398Y-75355581D01*
X101398394Y-75355571D01*
X101298046Y-75113309D01*
X101298041Y-75113299D01*
X101166924Y-74886196D01*
X101024039Y-74699987D01*
X100998844Y-74634818D01*
X101012882Y-74566373D01*
X101061696Y-74516383D01*
X101122414Y-74500500D01*
X128377586Y-74500500D01*
X128444625Y-74520185D01*
G37*
%TD.AperFunction*%
%TD*%
M02*
