%TF.GenerationSoftware,KiCad,Pcbnew,7.0.11+dfsg-1build4*%
%TF.CreationDate,2026-10-03T05:41:24+00:00*%
%TF.ProjectId,t,742e6b69-6361-4645-9f70-636258585858,rev?*%
%TF.SameCoordinates,Original*%
%TF.FileFunction,Legend,Top*%
%TF.FilePolarity,Positive*%
%FSLAX46Y46*%
G04 Gerber Fmt 4.6, Leading zero omitted, Abs format (unit mm)*
G04 Created by KiCad (PCBNEW 7.0.11+dfsg-1build4) date 2026-10-03 05:41:24*
%MOMM*%
%LPD*%
G01*
G04 APERTURE LIST*
%ADD10C,0.100000*%
%ADD11C,0.150000*%
%ADD12C,0.120000*%
G04 APERTURE END LIST*
D10*
X86256265Y-96836704D02*
X86732455Y-96836704D01*
X86161027Y-97122419D02*
X86494360Y-96122419D01*
X86494360Y-96122419D02*
X86827693Y-97122419D01*
X87732455Y-97027180D02*
X87684836Y-97074800D01*
X87684836Y-97074800D02*
X87541979Y-97122419D01*
X87541979Y-97122419D02*
X87446741Y-97122419D01*
X87446741Y-97122419D02*
X87303884Y-97074800D01*
X87303884Y-97074800D02*
X87208646Y-96979561D01*
X87208646Y-96979561D02*
X87161027Y-96884323D01*
X87161027Y-96884323D02*
X87113408Y-96693847D01*
X87113408Y-96693847D02*
X87113408Y-96550990D01*
X87113408Y-96550990D02*
X87161027Y-96360514D01*
X87161027Y-96360514D02*
X87208646Y-96265276D01*
X87208646Y-96265276D02*
X87303884Y-96170038D01*
X87303884Y-96170038D02*
X87446741Y-96122419D01*
X87446741Y-96122419D02*
X87541979Y-96122419D01*
X87541979Y-96122419D02*
X87684836Y-96170038D01*
X87684836Y-96170038D02*
X87732455Y-96217657D01*
X91161027Y-118622419D02*
X91732455Y-118622419D01*
X91446741Y-119622419D02*
X91446741Y-118622419D01*
X92065789Y-119622419D02*
X92065789Y-118955752D01*
X92065789Y-119146228D02*
X92113408Y-119050990D01*
X92113408Y-119050990D02*
X92161027Y-119003371D01*
X92161027Y-119003371D02*
X92256265Y-118955752D01*
X92256265Y-118955752D02*
X92351503Y-118955752D01*
X93113408Y-119622419D02*
X93113408Y-119098609D01*
X93113408Y-119098609D02*
X93065789Y-119003371D01*
X93065789Y-119003371D02*
X92970551Y-118955752D01*
X92970551Y-118955752D02*
X92780075Y-118955752D01*
X92780075Y-118955752D02*
X92684837Y-119003371D01*
X93113408Y-119574800D02*
X93018170Y-119622419D01*
X93018170Y-119622419D02*
X92780075Y-119622419D01*
X92780075Y-119622419D02*
X92684837Y-119574800D01*
X92684837Y-119574800D02*
X92637218Y-119479561D01*
X92637218Y-119479561D02*
X92637218Y-119384323D01*
X92637218Y-119384323D02*
X92684837Y-119289085D01*
X92684837Y-119289085D02*
X92780075Y-119241466D01*
X92780075Y-119241466D02*
X93018170Y-119241466D01*
X93018170Y-119241466D02*
X93113408Y-119193847D01*
X93589599Y-118955752D02*
X93589599Y-119622419D01*
X93589599Y-119050990D02*
X93637218Y-119003371D01*
X93637218Y-119003371D02*
X93732456Y-118955752D01*
X93732456Y-118955752D02*
X93875313Y-118955752D01*
X93875313Y-118955752D02*
X93970551Y-119003371D01*
X93970551Y-119003371D02*
X94018170Y-119098609D01*
X94018170Y-119098609D02*
X94018170Y-119622419D01*
X94446742Y-119574800D02*
X94541980Y-119622419D01*
X94541980Y-119622419D02*
X94732456Y-119622419D01*
X94732456Y-119622419D02*
X94827694Y-119574800D01*
X94827694Y-119574800D02*
X94875313Y-119479561D01*
X94875313Y-119479561D02*
X94875313Y-119431942D01*
X94875313Y-119431942D02*
X94827694Y-119336704D01*
X94827694Y-119336704D02*
X94732456Y-119289085D01*
X94732456Y-119289085D02*
X94589599Y-119289085D01*
X94589599Y-119289085D02*
X94494361Y-119241466D01*
X94494361Y-119241466D02*
X94446742Y-119146228D01*
X94446742Y-119146228D02*
X94446742Y-119098609D01*
X94446742Y-119098609D02*
X94494361Y-119003371D01*
X94494361Y-119003371D02*
X94589599Y-118955752D01*
X94589599Y-118955752D02*
X94732456Y-118955752D01*
X94732456Y-118955752D02*
X94827694Y-119003371D01*
X95161028Y-118955752D02*
X95541980Y-118955752D01*
X95303885Y-119622419D02*
X95303885Y-118765276D01*
X95303885Y-118765276D02*
X95351504Y-118670038D01*
X95351504Y-118670038D02*
X95446742Y-118622419D01*
X95446742Y-118622419D02*
X95541980Y-118622419D01*
X96018171Y-119622419D02*
X95922933Y-119574800D01*
X95922933Y-119574800D02*
X95875314Y-119527180D01*
X95875314Y-119527180D02*
X95827695Y-119431942D01*
X95827695Y-119431942D02*
X95827695Y-119146228D01*
X95827695Y-119146228D02*
X95875314Y-119050990D01*
X95875314Y-119050990D02*
X95922933Y-119003371D01*
X95922933Y-119003371D02*
X96018171Y-118955752D01*
X96018171Y-118955752D02*
X96161028Y-118955752D01*
X96161028Y-118955752D02*
X96256266Y-119003371D01*
X96256266Y-119003371D02*
X96303885Y-119050990D01*
X96303885Y-119050990D02*
X96351504Y-119146228D01*
X96351504Y-119146228D02*
X96351504Y-119431942D01*
X96351504Y-119431942D02*
X96303885Y-119527180D01*
X96303885Y-119527180D02*
X96256266Y-119574800D01*
X96256266Y-119574800D02*
X96161028Y-119622419D01*
X96161028Y-119622419D02*
X96018171Y-119622419D01*
X96780076Y-119622419D02*
X96780076Y-118955752D01*
X96780076Y-119146228D02*
X96827695Y-119050990D01*
X96827695Y-119050990D02*
X96875314Y-119003371D01*
X96875314Y-119003371D02*
X96970552Y-118955752D01*
X96970552Y-118955752D02*
X97065790Y-118955752D01*
X97399124Y-119622419D02*
X97399124Y-118955752D01*
X97399124Y-119050990D02*
X97446743Y-119003371D01*
X97446743Y-119003371D02*
X97541981Y-118955752D01*
X97541981Y-118955752D02*
X97684838Y-118955752D01*
X97684838Y-118955752D02*
X97780076Y-119003371D01*
X97780076Y-119003371D02*
X97827695Y-119098609D01*
X97827695Y-119098609D02*
X97827695Y-119622419D01*
X97827695Y-119098609D02*
X97875314Y-119003371D01*
X97875314Y-119003371D02*
X97970552Y-118955752D01*
X97970552Y-118955752D02*
X98113409Y-118955752D01*
X98113409Y-118955752D02*
X98208648Y-119003371D01*
X98208648Y-119003371D02*
X98256267Y-119098609D01*
X98256267Y-119098609D02*
X98256267Y-119622419D01*
X99113409Y-119574800D02*
X99018171Y-119622419D01*
X99018171Y-119622419D02*
X98827695Y-119622419D01*
X98827695Y-119622419D02*
X98732457Y-119574800D01*
X98732457Y-119574800D02*
X98684838Y-119479561D01*
X98684838Y-119479561D02*
X98684838Y-119098609D01*
X98684838Y-119098609D02*
X98732457Y-119003371D01*
X98732457Y-119003371D02*
X98827695Y-118955752D01*
X98827695Y-118955752D02*
X99018171Y-118955752D01*
X99018171Y-118955752D02*
X99113409Y-119003371D01*
X99113409Y-119003371D02*
X99161028Y-119098609D01*
X99161028Y-119098609D02*
X99161028Y-119193847D01*
X99161028Y-119193847D02*
X98684838Y-119289085D01*
X99589600Y-119622419D02*
X99589600Y-118955752D01*
X99589600Y-119146228D02*
X99637219Y-119050990D01*
X99637219Y-119050990D02*
X99684838Y-119003371D01*
X99684838Y-119003371D02*
X99780076Y-118955752D01*
X99780076Y-118955752D02*
X99875314Y-118955752D01*
X100351505Y-119622419D02*
X100256267Y-119574800D01*
X100256267Y-119574800D02*
X100208648Y-119479561D01*
X100208648Y-119479561D02*
X100208648Y-118622419D01*
X101113410Y-119574800D02*
X101018172Y-119622419D01*
X101018172Y-119622419D02*
X100827696Y-119622419D01*
X100827696Y-119622419D02*
X100732458Y-119574800D01*
X100732458Y-119574800D02*
X100684839Y-119479561D01*
X100684839Y-119479561D02*
X100684839Y-119098609D01*
X100684839Y-119098609D02*
X100732458Y-119003371D01*
X100732458Y-119003371D02*
X100827696Y-118955752D01*
X100827696Y-118955752D02*
X101018172Y-118955752D01*
X101018172Y-118955752D02*
X101113410Y-119003371D01*
X101113410Y-119003371D02*
X101161029Y-119098609D01*
X101161029Y-119098609D02*
X101161029Y-119193847D01*
X101161029Y-119193847D02*
X100684839Y-119289085D01*
X101541982Y-119574800D02*
X101637220Y-119622419D01*
X101637220Y-119622419D02*
X101827696Y-119622419D01*
X101827696Y-119622419D02*
X101922934Y-119574800D01*
X101922934Y-119574800D02*
X101970553Y-119479561D01*
X101970553Y-119479561D02*
X101970553Y-119431942D01*
X101970553Y-119431942D02*
X101922934Y-119336704D01*
X101922934Y-119336704D02*
X101827696Y-119289085D01*
X101827696Y-119289085D02*
X101684839Y-119289085D01*
X101684839Y-119289085D02*
X101589601Y-119241466D01*
X101589601Y-119241466D02*
X101541982Y-119146228D01*
X101541982Y-119146228D02*
X101541982Y-119098609D01*
X101541982Y-119098609D02*
X101589601Y-119003371D01*
X101589601Y-119003371D02*
X101684839Y-118955752D01*
X101684839Y-118955752D02*
X101827696Y-118955752D01*
X101827696Y-118955752D02*
X101922934Y-119003371D01*
X102351506Y-119574800D02*
X102446744Y-119622419D01*
X102446744Y-119622419D02*
X102637220Y-119622419D01*
X102637220Y-119622419D02*
X102732458Y-119574800D01*
X102732458Y-119574800D02*
X102780077Y-119479561D01*
X102780077Y-119479561D02*
X102780077Y-119431942D01*
X102780077Y-119431942D02*
X102732458Y-119336704D01*
X102732458Y-119336704D02*
X102637220Y-119289085D01*
X102637220Y-119289085D02*
X102494363Y-119289085D01*
X102494363Y-119289085D02*
X102399125Y-119241466D01*
X102399125Y-119241466D02*
X102351506Y-119146228D01*
X102351506Y-119146228D02*
X102351506Y-119098609D01*
X102351506Y-119098609D02*
X102399125Y-119003371D01*
X102399125Y-119003371D02*
X102494363Y-118955752D01*
X102494363Y-118955752D02*
X102637220Y-118955752D01*
X102637220Y-118955752D02*
X102732458Y-119003371D01*
X103970554Y-119622419D02*
X103970554Y-118622419D01*
X103970554Y-118622419D02*
X104351506Y-118622419D01*
X104351506Y-118622419D02*
X104446744Y-118670038D01*
X104446744Y-118670038D02*
X104494363Y-118717657D01*
X104494363Y-118717657D02*
X104541982Y-118812895D01*
X104541982Y-118812895D02*
X104541982Y-118955752D01*
X104541982Y-118955752D02*
X104494363Y-119050990D01*
X104494363Y-119050990D02*
X104446744Y-119098609D01*
X104446744Y-119098609D02*
X104351506Y-119146228D01*
X104351506Y-119146228D02*
X103970554Y-119146228D01*
X105113411Y-119622419D02*
X105018173Y-119574800D01*
X105018173Y-119574800D02*
X104970554Y-119527180D01*
X104970554Y-119527180D02*
X104922935Y-119431942D01*
X104922935Y-119431942D02*
X104922935Y-119146228D01*
X104922935Y-119146228D02*
X104970554Y-119050990D01*
X104970554Y-119050990D02*
X105018173Y-119003371D01*
X105018173Y-119003371D02*
X105113411Y-118955752D01*
X105113411Y-118955752D02*
X105256268Y-118955752D01*
X105256268Y-118955752D02*
X105351506Y-119003371D01*
X105351506Y-119003371D02*
X105399125Y-119050990D01*
X105399125Y-119050990D02*
X105446744Y-119146228D01*
X105446744Y-119146228D02*
X105446744Y-119431942D01*
X105446744Y-119431942D02*
X105399125Y-119527180D01*
X105399125Y-119527180D02*
X105351506Y-119574800D01*
X105351506Y-119574800D02*
X105256268Y-119622419D01*
X105256268Y-119622419D02*
X105113411Y-119622419D01*
X105780078Y-118955752D02*
X105970554Y-119622419D01*
X105970554Y-119622419D02*
X106161030Y-119146228D01*
X106161030Y-119146228D02*
X106351506Y-119622419D01*
X106351506Y-119622419D02*
X106541982Y-118955752D01*
X107303887Y-119574800D02*
X107208649Y-119622419D01*
X107208649Y-119622419D02*
X107018173Y-119622419D01*
X107018173Y-119622419D02*
X106922935Y-119574800D01*
X106922935Y-119574800D02*
X106875316Y-119479561D01*
X106875316Y-119479561D02*
X106875316Y-119098609D01*
X106875316Y-119098609D02*
X106922935Y-119003371D01*
X106922935Y-119003371D02*
X107018173Y-118955752D01*
X107018173Y-118955752D02*
X107208649Y-118955752D01*
X107208649Y-118955752D02*
X107303887Y-119003371D01*
X107303887Y-119003371D02*
X107351506Y-119098609D01*
X107351506Y-119098609D02*
X107351506Y-119193847D01*
X107351506Y-119193847D02*
X106875316Y-119289085D01*
X107780078Y-119622419D02*
X107780078Y-118955752D01*
X107780078Y-119146228D02*
X107827697Y-119050990D01*
X107827697Y-119050990D02*
X107875316Y-119003371D01*
X107875316Y-119003371D02*
X107970554Y-118955752D01*
X107970554Y-118955752D02*
X108065792Y-118955752D01*
X109113412Y-119574800D02*
X109256269Y-119622419D01*
X109256269Y-119622419D02*
X109494364Y-119622419D01*
X109494364Y-119622419D02*
X109589602Y-119574800D01*
X109589602Y-119574800D02*
X109637221Y-119527180D01*
X109637221Y-119527180D02*
X109684840Y-119431942D01*
X109684840Y-119431942D02*
X109684840Y-119336704D01*
X109684840Y-119336704D02*
X109637221Y-119241466D01*
X109637221Y-119241466D02*
X109589602Y-119193847D01*
X109589602Y-119193847D02*
X109494364Y-119146228D01*
X109494364Y-119146228D02*
X109303888Y-119098609D01*
X109303888Y-119098609D02*
X109208650Y-119050990D01*
X109208650Y-119050990D02*
X109161031Y-119003371D01*
X109161031Y-119003371D02*
X109113412Y-118908133D01*
X109113412Y-118908133D02*
X109113412Y-118812895D01*
X109113412Y-118812895D02*
X109161031Y-118717657D01*
X109161031Y-118717657D02*
X109208650Y-118670038D01*
X109208650Y-118670038D02*
X109303888Y-118622419D01*
X109303888Y-118622419D02*
X109541983Y-118622419D01*
X109541983Y-118622419D02*
X109684840Y-118670038D01*
X110541983Y-118955752D02*
X110541983Y-119622419D01*
X110113412Y-118955752D02*
X110113412Y-119479561D01*
X110113412Y-119479561D02*
X110161031Y-119574800D01*
X110161031Y-119574800D02*
X110256269Y-119622419D01*
X110256269Y-119622419D02*
X110399126Y-119622419D01*
X110399126Y-119622419D02*
X110494364Y-119574800D01*
X110494364Y-119574800D02*
X110541983Y-119527180D01*
X111018174Y-118955752D02*
X111018174Y-119955752D01*
X111018174Y-119003371D02*
X111113412Y-118955752D01*
X111113412Y-118955752D02*
X111303888Y-118955752D01*
X111303888Y-118955752D02*
X111399126Y-119003371D01*
X111399126Y-119003371D02*
X111446745Y-119050990D01*
X111446745Y-119050990D02*
X111494364Y-119146228D01*
X111494364Y-119146228D02*
X111494364Y-119431942D01*
X111494364Y-119431942D02*
X111446745Y-119527180D01*
X111446745Y-119527180D02*
X111399126Y-119574800D01*
X111399126Y-119574800D02*
X111303888Y-119622419D01*
X111303888Y-119622419D02*
X111113412Y-119622419D01*
X111113412Y-119622419D02*
X111018174Y-119574800D01*
X111922936Y-118955752D02*
X111922936Y-119955752D01*
X111922936Y-119003371D02*
X112018174Y-118955752D01*
X112018174Y-118955752D02*
X112208650Y-118955752D01*
X112208650Y-118955752D02*
X112303888Y-119003371D01*
X112303888Y-119003371D02*
X112351507Y-119050990D01*
X112351507Y-119050990D02*
X112399126Y-119146228D01*
X112399126Y-119146228D02*
X112399126Y-119431942D01*
X112399126Y-119431942D02*
X112351507Y-119527180D01*
X112351507Y-119527180D02*
X112303888Y-119574800D01*
X112303888Y-119574800D02*
X112208650Y-119622419D01*
X112208650Y-119622419D02*
X112018174Y-119622419D01*
X112018174Y-119622419D02*
X111922936Y-119574800D01*
X112970555Y-119622419D02*
X112875317Y-119574800D01*
X112875317Y-119574800D02*
X112827698Y-119479561D01*
X112827698Y-119479561D02*
X112827698Y-118622419D01*
X113256270Y-118955752D02*
X113494365Y-119622419D01*
X113732460Y-118955752D02*
X113494365Y-119622419D01*
X113494365Y-119622419D02*
X113399127Y-119860514D01*
X113399127Y-119860514D02*
X113351508Y-119908133D01*
X113351508Y-119908133D02*
X113256270Y-119955752D01*
X131803884Y-103372419D02*
X131803884Y-102372419D01*
X131803884Y-102372419D02*
X132041979Y-102372419D01*
X132041979Y-102372419D02*
X132184836Y-102420038D01*
X132184836Y-102420038D02*
X132280074Y-102515276D01*
X132280074Y-102515276D02*
X132327693Y-102610514D01*
X132327693Y-102610514D02*
X132375312Y-102800990D01*
X132375312Y-102800990D02*
X132375312Y-102943847D01*
X132375312Y-102943847D02*
X132327693Y-103134323D01*
X132327693Y-103134323D02*
X132280074Y-103229561D01*
X132280074Y-103229561D02*
X132184836Y-103324800D01*
X132184836Y-103324800D02*
X132041979Y-103372419D01*
X132041979Y-103372419D02*
X131803884Y-103372419D01*
X133375312Y-103277180D02*
X133327693Y-103324800D01*
X133327693Y-103324800D02*
X133184836Y-103372419D01*
X133184836Y-103372419D02*
X133089598Y-103372419D01*
X133089598Y-103372419D02*
X132946741Y-103324800D01*
X132946741Y-103324800D02*
X132851503Y-103229561D01*
X132851503Y-103229561D02*
X132803884Y-103134323D01*
X132803884Y-103134323D02*
X132756265Y-102943847D01*
X132756265Y-102943847D02*
X132756265Y-102800990D01*
X132756265Y-102800990D02*
X132803884Y-102610514D01*
X132803884Y-102610514D02*
X132851503Y-102515276D01*
X132851503Y-102515276D02*
X132946741Y-102420038D01*
X132946741Y-102420038D02*
X133089598Y-102372419D01*
X133089598Y-102372419D02*
X133184836Y-102372419D01*
X133184836Y-102372419D02*
X133327693Y-102420038D01*
X133327693Y-102420038D02*
X133375312Y-102467657D01*
D11*
X128683333Y-101609580D02*
X128635714Y-101657200D01*
X128635714Y-101657200D02*
X128492857Y-101704819D01*
X128492857Y-101704819D02*
X128397619Y-101704819D01*
X128397619Y-101704819D02*
X128254762Y-101657200D01*
X128254762Y-101657200D02*
X128159524Y-101561961D01*
X128159524Y-101561961D02*
X128111905Y-101466723D01*
X128111905Y-101466723D02*
X128064286Y-101276247D01*
X128064286Y-101276247D02*
X128064286Y-101133390D01*
X128064286Y-101133390D02*
X128111905Y-100942914D01*
X128111905Y-100942914D02*
X128159524Y-100847676D01*
X128159524Y-100847676D02*
X128254762Y-100752438D01*
X128254762Y-100752438D02*
X128397619Y-100704819D01*
X128397619Y-100704819D02*
X128492857Y-100704819D01*
X128492857Y-100704819D02*
X128635714Y-100752438D01*
X128635714Y-100752438D02*
X128683333Y-100800057D01*
X129016667Y-100704819D02*
X129635714Y-100704819D01*
X129635714Y-100704819D02*
X129302381Y-101085771D01*
X129302381Y-101085771D02*
X129445238Y-101085771D01*
X129445238Y-101085771D02*
X129540476Y-101133390D01*
X129540476Y-101133390D02*
X129588095Y-101181009D01*
X129588095Y-101181009D02*
X129635714Y-101276247D01*
X129635714Y-101276247D02*
X129635714Y-101514342D01*
X129635714Y-101514342D02*
X129588095Y-101609580D01*
X129588095Y-101609580D02*
X129540476Y-101657200D01*
X129540476Y-101657200D02*
X129445238Y-101704819D01*
X129445238Y-101704819D02*
X129159524Y-101704819D01*
X129159524Y-101704819D02*
X129064286Y-101657200D01*
X129064286Y-101657200D02*
X129016667Y-101609580D01*
X112523333Y-113574819D02*
X112190000Y-113098628D01*
X111951905Y-113574819D02*
X111951905Y-112574819D01*
X111951905Y-112574819D02*
X112332857Y-112574819D01*
X112332857Y-112574819D02*
X112428095Y-112622438D01*
X112428095Y-112622438D02*
X112475714Y-112670057D01*
X112475714Y-112670057D02*
X112523333Y-112765295D01*
X112523333Y-112765295D02*
X112523333Y-112908152D01*
X112523333Y-112908152D02*
X112475714Y-113003390D01*
X112475714Y-113003390D02*
X112428095Y-113051009D01*
X112428095Y-113051009D02*
X112332857Y-113098628D01*
X112332857Y-113098628D02*
X111951905Y-113098628D01*
X113475714Y-113574819D02*
X112904286Y-113574819D01*
X113190000Y-113574819D02*
X113190000Y-112574819D01*
X113190000Y-112574819D02*
X113094762Y-112717676D01*
X113094762Y-112717676D02*
X112999524Y-112812914D01*
X112999524Y-112812914D02*
X112904286Y-112860533D01*
X106174819Y-98988094D02*
X105174819Y-98988094D01*
X105174819Y-98988094D02*
X105174819Y-98749999D01*
X105174819Y-98749999D02*
X105222438Y-98607142D01*
X105222438Y-98607142D02*
X105317676Y-98511904D01*
X105317676Y-98511904D02*
X105412914Y-98464285D01*
X105412914Y-98464285D02*
X105603390Y-98416666D01*
X105603390Y-98416666D02*
X105746247Y-98416666D01*
X105746247Y-98416666D02*
X105936723Y-98464285D01*
X105936723Y-98464285D02*
X106031961Y-98511904D01*
X106031961Y-98511904D02*
X106127200Y-98607142D01*
X106127200Y-98607142D02*
X106174819Y-98749999D01*
X106174819Y-98749999D02*
X106174819Y-98988094D01*
X105174819Y-98083332D02*
X105174819Y-97464285D01*
X105174819Y-97464285D02*
X105555771Y-97797618D01*
X105555771Y-97797618D02*
X105555771Y-97654761D01*
X105555771Y-97654761D02*
X105603390Y-97559523D01*
X105603390Y-97559523D02*
X105651009Y-97511904D01*
X105651009Y-97511904D02*
X105746247Y-97464285D01*
X105746247Y-97464285D02*
X105984342Y-97464285D01*
X105984342Y-97464285D02*
X106079580Y-97511904D01*
X106079580Y-97511904D02*
X106127200Y-97559523D01*
X106127200Y-97559523D02*
X106174819Y-97654761D01*
X106174819Y-97654761D02*
X106174819Y-97940475D01*
X106174819Y-97940475D02*
X106127200Y-98035713D01*
X106127200Y-98035713D02*
X106079580Y-98083332D01*
X101833333Y-83859580D02*
X101785714Y-83907200D01*
X101785714Y-83907200D02*
X101642857Y-83954819D01*
X101642857Y-83954819D02*
X101547619Y-83954819D01*
X101547619Y-83954819D02*
X101404762Y-83907200D01*
X101404762Y-83907200D02*
X101309524Y-83811961D01*
X101309524Y-83811961D02*
X101261905Y-83716723D01*
X101261905Y-83716723D02*
X101214286Y-83526247D01*
X101214286Y-83526247D02*
X101214286Y-83383390D01*
X101214286Y-83383390D02*
X101261905Y-83192914D01*
X101261905Y-83192914D02*
X101309524Y-83097676D01*
X101309524Y-83097676D02*
X101404762Y-83002438D01*
X101404762Y-83002438D02*
X101547619Y-82954819D01*
X101547619Y-82954819D02*
X101642857Y-82954819D01*
X101642857Y-82954819D02*
X101785714Y-83002438D01*
X101785714Y-83002438D02*
X101833333Y-83050057D01*
X102690476Y-83288152D02*
X102690476Y-83954819D01*
X102452381Y-82907200D02*
X102214286Y-83621485D01*
X102214286Y-83621485D02*
X102833333Y-83621485D01*
X91954819Y-96663333D02*
X92669104Y-96663333D01*
X92669104Y-96663333D02*
X92811961Y-96710952D01*
X92811961Y-96710952D02*
X92907200Y-96806190D01*
X92907200Y-96806190D02*
X92954819Y-96949047D01*
X92954819Y-96949047D02*
X92954819Y-97044285D01*
X92954819Y-95663333D02*
X92954819Y-96234761D01*
X92954819Y-95949047D02*
X91954819Y-95949047D01*
X91954819Y-95949047D02*
X92097676Y-96044285D01*
X92097676Y-96044285D02*
X92192914Y-96139523D01*
X92192914Y-96139523D02*
X92240533Y-96234761D01*
X123674819Y-108178094D02*
X122674819Y-108178094D01*
X122674819Y-108178094D02*
X122674819Y-107939999D01*
X122674819Y-107939999D02*
X122722438Y-107797142D01*
X122722438Y-107797142D02*
X122817676Y-107701904D01*
X122817676Y-107701904D02*
X122912914Y-107654285D01*
X122912914Y-107654285D02*
X123103390Y-107606666D01*
X123103390Y-107606666D02*
X123246247Y-107606666D01*
X123246247Y-107606666D02*
X123436723Y-107654285D01*
X123436723Y-107654285D02*
X123531961Y-107701904D01*
X123531961Y-107701904D02*
X123627200Y-107797142D01*
X123627200Y-107797142D02*
X123674819Y-107939999D01*
X123674819Y-107939999D02*
X123674819Y-108178094D01*
X122674819Y-106749523D02*
X122674819Y-106939999D01*
X122674819Y-106939999D02*
X122722438Y-107035237D01*
X122722438Y-107035237D02*
X122770057Y-107082856D01*
X122770057Y-107082856D02*
X122912914Y-107178094D01*
X122912914Y-107178094D02*
X123103390Y-107225713D01*
X123103390Y-107225713D02*
X123484342Y-107225713D01*
X123484342Y-107225713D02*
X123579580Y-107178094D01*
X123579580Y-107178094D02*
X123627200Y-107130475D01*
X123627200Y-107130475D02*
X123674819Y-107035237D01*
X123674819Y-107035237D02*
X123674819Y-106844761D01*
X123674819Y-106844761D02*
X123627200Y-106749523D01*
X123627200Y-106749523D02*
X123579580Y-106701904D01*
X123579580Y-106701904D02*
X123484342Y-106654285D01*
X123484342Y-106654285D02*
X123246247Y-106654285D01*
X123246247Y-106654285D02*
X123151009Y-106701904D01*
X123151009Y-106701904D02*
X123103390Y-106749523D01*
X123103390Y-106749523D02*
X123055771Y-106844761D01*
X123055771Y-106844761D02*
X123055771Y-107035237D01*
X123055771Y-107035237D02*
X123103390Y-107130475D01*
X123103390Y-107130475D02*
X123151009Y-107178094D01*
X123151009Y-107178094D02*
X123246247Y-107225713D01*
X106174819Y-112738094D02*
X105174819Y-112738094D01*
X105174819Y-112738094D02*
X105174819Y-112499999D01*
X105174819Y-112499999D02*
X105222438Y-112357142D01*
X105222438Y-112357142D02*
X105317676Y-112261904D01*
X105317676Y-112261904D02*
X105412914Y-112214285D01*
X105412914Y-112214285D02*
X105603390Y-112166666D01*
X105603390Y-112166666D02*
X105746247Y-112166666D01*
X105746247Y-112166666D02*
X105936723Y-112214285D01*
X105936723Y-112214285D02*
X106031961Y-112261904D01*
X106031961Y-112261904D02*
X106127200Y-112357142D01*
X106127200Y-112357142D02*
X106174819Y-112499999D01*
X106174819Y-112499999D02*
X106174819Y-112738094D01*
X105508152Y-111309523D02*
X106174819Y-111309523D01*
X105127200Y-111547618D02*
X105841485Y-111785713D01*
X105841485Y-111785713D02*
X105841485Y-111166666D01*
X95954819Y-108166666D02*
X95478628Y-108499999D01*
X95954819Y-108738094D02*
X94954819Y-108738094D01*
X94954819Y-108738094D02*
X94954819Y-108357142D01*
X94954819Y-108357142D02*
X95002438Y-108261904D01*
X95002438Y-108261904D02*
X95050057Y-108214285D01*
X95050057Y-108214285D02*
X95145295Y-108166666D01*
X95145295Y-108166666D02*
X95288152Y-108166666D01*
X95288152Y-108166666D02*
X95383390Y-108214285D01*
X95383390Y-108214285D02*
X95431009Y-108261904D01*
X95431009Y-108261904D02*
X95478628Y-108357142D01*
X95478628Y-108357142D02*
X95478628Y-108738094D01*
X95288152Y-107309523D02*
X95954819Y-107309523D01*
X94907200Y-107547618D02*
X95621485Y-107785713D01*
X95621485Y-107785713D02*
X95621485Y-107166666D01*
X110583333Y-91609580D02*
X110535714Y-91657200D01*
X110535714Y-91657200D02*
X110392857Y-91704819D01*
X110392857Y-91704819D02*
X110297619Y-91704819D01*
X110297619Y-91704819D02*
X110154762Y-91657200D01*
X110154762Y-91657200D02*
X110059524Y-91561961D01*
X110059524Y-91561961D02*
X110011905Y-91466723D01*
X110011905Y-91466723D02*
X109964286Y-91276247D01*
X109964286Y-91276247D02*
X109964286Y-91133390D01*
X109964286Y-91133390D02*
X110011905Y-90942914D01*
X110011905Y-90942914D02*
X110059524Y-90847676D01*
X110059524Y-90847676D02*
X110154762Y-90752438D01*
X110154762Y-90752438D02*
X110297619Y-90704819D01*
X110297619Y-90704819D02*
X110392857Y-90704819D01*
X110392857Y-90704819D02*
X110535714Y-90752438D01*
X110535714Y-90752438D02*
X110583333Y-90800057D01*
X111535714Y-91704819D02*
X110964286Y-91704819D01*
X111250000Y-91704819D02*
X111250000Y-90704819D01*
X111250000Y-90704819D02*
X111154762Y-90847676D01*
X111154762Y-90847676D02*
X111059524Y-90942914D01*
X111059524Y-90942914D02*
X110964286Y-90990533D01*
X117609580Y-102298989D02*
X117657200Y-102346608D01*
X117657200Y-102346608D02*
X117704819Y-102489465D01*
X117704819Y-102489465D02*
X117704819Y-102584703D01*
X117704819Y-102584703D02*
X117657200Y-102727560D01*
X117657200Y-102727560D02*
X117561961Y-102822798D01*
X117561961Y-102822798D02*
X117466723Y-102870417D01*
X117466723Y-102870417D02*
X117276247Y-102918036D01*
X117276247Y-102918036D02*
X117133390Y-102918036D01*
X117133390Y-102918036D02*
X116942914Y-102870417D01*
X116942914Y-102870417D02*
X116847676Y-102822798D01*
X116847676Y-102822798D02*
X116752438Y-102727560D01*
X116752438Y-102727560D02*
X116704819Y-102584703D01*
X116704819Y-102584703D02*
X116704819Y-102489465D01*
X116704819Y-102489465D02*
X116752438Y-102346608D01*
X116752438Y-102346608D02*
X116800057Y-102298989D01*
X116800057Y-101918036D02*
X116752438Y-101870417D01*
X116752438Y-101870417D02*
X116704819Y-101775179D01*
X116704819Y-101775179D02*
X116704819Y-101537084D01*
X116704819Y-101537084D02*
X116752438Y-101441846D01*
X116752438Y-101441846D02*
X116800057Y-101394227D01*
X116800057Y-101394227D02*
X116895295Y-101346608D01*
X116895295Y-101346608D02*
X116990533Y-101346608D01*
X116990533Y-101346608D02*
X117133390Y-101394227D01*
X117133390Y-101394227D02*
X117704819Y-101965655D01*
X117704819Y-101965655D02*
X117704819Y-101346608D01*
X87584819Y-91606666D02*
X87108628Y-91939999D01*
X87584819Y-92178094D02*
X86584819Y-92178094D01*
X86584819Y-92178094D02*
X86584819Y-91797142D01*
X86584819Y-91797142D02*
X86632438Y-91701904D01*
X86632438Y-91701904D02*
X86680057Y-91654285D01*
X86680057Y-91654285D02*
X86775295Y-91606666D01*
X86775295Y-91606666D02*
X86918152Y-91606666D01*
X86918152Y-91606666D02*
X87013390Y-91654285D01*
X87013390Y-91654285D02*
X87061009Y-91701904D01*
X87061009Y-91701904D02*
X87108628Y-91797142D01*
X87108628Y-91797142D02*
X87108628Y-92178094D01*
X86584819Y-91273332D02*
X86584819Y-90654285D01*
X86584819Y-90654285D02*
X86965771Y-90987618D01*
X86965771Y-90987618D02*
X86965771Y-90844761D01*
X86965771Y-90844761D02*
X87013390Y-90749523D01*
X87013390Y-90749523D02*
X87061009Y-90701904D01*
X87061009Y-90701904D02*
X87156247Y-90654285D01*
X87156247Y-90654285D02*
X87394342Y-90654285D01*
X87394342Y-90654285D02*
X87489580Y-90701904D01*
X87489580Y-90701904D02*
X87537200Y-90749523D01*
X87537200Y-90749523D02*
X87584819Y-90844761D01*
X87584819Y-90844761D02*
X87584819Y-91130475D01*
X87584819Y-91130475D02*
X87537200Y-91225713D01*
X87537200Y-91225713D02*
X87489580Y-91273332D01*
X112333333Y-118324819D02*
X112000000Y-117848628D01*
X111761905Y-118324819D02*
X111761905Y-117324819D01*
X111761905Y-117324819D02*
X112142857Y-117324819D01*
X112142857Y-117324819D02*
X112238095Y-117372438D01*
X112238095Y-117372438D02*
X112285714Y-117420057D01*
X112285714Y-117420057D02*
X112333333Y-117515295D01*
X112333333Y-117515295D02*
X112333333Y-117658152D01*
X112333333Y-117658152D02*
X112285714Y-117753390D01*
X112285714Y-117753390D02*
X112238095Y-117801009D01*
X112238095Y-117801009D02*
X112142857Y-117848628D01*
X112142857Y-117848628D02*
X111761905Y-117848628D01*
X112714286Y-117420057D02*
X112761905Y-117372438D01*
X112761905Y-117372438D02*
X112857143Y-117324819D01*
X112857143Y-117324819D02*
X113095238Y-117324819D01*
X113095238Y-117324819D02*
X113190476Y-117372438D01*
X113190476Y-117372438D02*
X113238095Y-117420057D01*
X113238095Y-117420057D02*
X113285714Y-117515295D01*
X113285714Y-117515295D02*
X113285714Y-117610533D01*
X113285714Y-117610533D02*
X113238095Y-117753390D01*
X113238095Y-117753390D02*
X112666667Y-118324819D01*
X112666667Y-118324819D02*
X113285714Y-118324819D01*
X121924819Y-96798094D02*
X120924819Y-96798094D01*
X120924819Y-96798094D02*
X120924819Y-96559999D01*
X120924819Y-96559999D02*
X120972438Y-96417142D01*
X120972438Y-96417142D02*
X121067676Y-96321904D01*
X121067676Y-96321904D02*
X121162914Y-96274285D01*
X121162914Y-96274285D02*
X121353390Y-96226666D01*
X121353390Y-96226666D02*
X121496247Y-96226666D01*
X121496247Y-96226666D02*
X121686723Y-96274285D01*
X121686723Y-96274285D02*
X121781961Y-96321904D01*
X121781961Y-96321904D02*
X121877200Y-96417142D01*
X121877200Y-96417142D02*
X121924819Y-96559999D01*
X121924819Y-96559999D02*
X121924819Y-96798094D01*
X120924819Y-95321904D02*
X120924819Y-95798094D01*
X120924819Y-95798094D02*
X121401009Y-95845713D01*
X121401009Y-95845713D02*
X121353390Y-95798094D01*
X121353390Y-95798094D02*
X121305771Y-95702856D01*
X121305771Y-95702856D02*
X121305771Y-95464761D01*
X121305771Y-95464761D02*
X121353390Y-95369523D01*
X121353390Y-95369523D02*
X121401009Y-95321904D01*
X121401009Y-95321904D02*
X121496247Y-95274285D01*
X121496247Y-95274285D02*
X121734342Y-95274285D01*
X121734342Y-95274285D02*
X121829580Y-95321904D01*
X121829580Y-95321904D02*
X121877200Y-95369523D01*
X121877200Y-95369523D02*
X121924819Y-95464761D01*
X121924819Y-95464761D02*
X121924819Y-95702856D01*
X121924819Y-95702856D02*
X121877200Y-95798094D01*
X121877200Y-95798094D02*
X121829580Y-95845713D01*
X117988095Y-83379819D02*
X117988095Y-84189342D01*
X117988095Y-84189342D02*
X118035714Y-84284580D01*
X118035714Y-84284580D02*
X118083333Y-84332200D01*
X118083333Y-84332200D02*
X118178571Y-84379819D01*
X118178571Y-84379819D02*
X118369047Y-84379819D01*
X118369047Y-84379819D02*
X118464285Y-84332200D01*
X118464285Y-84332200D02*
X118511904Y-84284580D01*
X118511904Y-84284580D02*
X118559523Y-84189342D01*
X118559523Y-84189342D02*
X118559523Y-83379819D01*
X119559523Y-84379819D02*
X118988095Y-84379819D01*
X119273809Y-84379819D02*
X119273809Y-83379819D01*
X119273809Y-83379819D02*
X119178571Y-83522676D01*
X119178571Y-83522676D02*
X119083333Y-83617914D01*
X119083333Y-83617914D02*
X118988095Y-83665533D01*
X101174819Y-112738094D02*
X100174819Y-112738094D01*
X100174819Y-112738094D02*
X100174819Y-112499999D01*
X100174819Y-112499999D02*
X100222438Y-112357142D01*
X100222438Y-112357142D02*
X100317676Y-112261904D01*
X100317676Y-112261904D02*
X100412914Y-112214285D01*
X100412914Y-112214285D02*
X100603390Y-112166666D01*
X100603390Y-112166666D02*
X100746247Y-112166666D01*
X100746247Y-112166666D02*
X100936723Y-112214285D01*
X100936723Y-112214285D02*
X101031961Y-112261904D01*
X101031961Y-112261904D02*
X101127200Y-112357142D01*
X101127200Y-112357142D02*
X101174819Y-112499999D01*
X101174819Y-112499999D02*
X101174819Y-112738094D01*
X100270057Y-111785713D02*
X100222438Y-111738094D01*
X100222438Y-111738094D02*
X100174819Y-111642856D01*
X100174819Y-111642856D02*
X100174819Y-111404761D01*
X100174819Y-111404761D02*
X100222438Y-111309523D01*
X100222438Y-111309523D02*
X100270057Y-111261904D01*
X100270057Y-111261904D02*
X100365295Y-111214285D01*
X100365295Y-111214285D02*
X100460533Y-111214285D01*
X100460533Y-111214285D02*
X100603390Y-111261904D01*
X100603390Y-111261904D02*
X101174819Y-111833332D01*
X101174819Y-111833332D02*
X101174819Y-111214285D01*
X88241905Y-109494819D02*
X88241905Y-108494819D01*
X88241905Y-108494819D02*
X88480000Y-108494819D01*
X88480000Y-108494819D02*
X88622857Y-108542438D01*
X88622857Y-108542438D02*
X88718095Y-108637676D01*
X88718095Y-108637676D02*
X88765714Y-108732914D01*
X88765714Y-108732914D02*
X88813333Y-108923390D01*
X88813333Y-108923390D02*
X88813333Y-109066247D01*
X88813333Y-109066247D02*
X88765714Y-109256723D01*
X88765714Y-109256723D02*
X88718095Y-109351961D01*
X88718095Y-109351961D02*
X88622857Y-109447200D01*
X88622857Y-109447200D02*
X88480000Y-109494819D01*
X88480000Y-109494819D02*
X88241905Y-109494819D01*
X89146667Y-108494819D02*
X89813333Y-108494819D01*
X89813333Y-108494819D02*
X89384762Y-109494819D01*
X101174819Y-98988094D02*
X100174819Y-98988094D01*
X100174819Y-98988094D02*
X100174819Y-98749999D01*
X100174819Y-98749999D02*
X100222438Y-98607142D01*
X100222438Y-98607142D02*
X100317676Y-98511904D01*
X100317676Y-98511904D02*
X100412914Y-98464285D01*
X100412914Y-98464285D02*
X100603390Y-98416666D01*
X100603390Y-98416666D02*
X100746247Y-98416666D01*
X100746247Y-98416666D02*
X100936723Y-98464285D01*
X100936723Y-98464285D02*
X101031961Y-98511904D01*
X101031961Y-98511904D02*
X101127200Y-98607142D01*
X101127200Y-98607142D02*
X101174819Y-98749999D01*
X101174819Y-98749999D02*
X101174819Y-98988094D01*
X101174819Y-97464285D02*
X101174819Y-98035713D01*
X101174819Y-97749999D02*
X100174819Y-97749999D01*
X100174819Y-97749999D02*
X100317676Y-97845237D01*
X100317676Y-97845237D02*
X100412914Y-97940475D01*
X100412914Y-97940475D02*
X100460533Y-98035713D01*
X127954819Y-116583333D02*
X128669104Y-116583333D01*
X128669104Y-116583333D02*
X128811961Y-116630952D01*
X128811961Y-116630952D02*
X128907200Y-116726190D01*
X128907200Y-116726190D02*
X128954819Y-116869047D01*
X128954819Y-116869047D02*
X128954819Y-116964285D01*
X128050057Y-116154761D02*
X128002438Y-116107142D01*
X128002438Y-116107142D02*
X127954819Y-116011904D01*
X127954819Y-116011904D02*
X127954819Y-115773809D01*
X127954819Y-115773809D02*
X128002438Y-115678571D01*
X128002438Y-115678571D02*
X128050057Y-115630952D01*
X128050057Y-115630952D02*
X128145295Y-115583333D01*
X128145295Y-115583333D02*
X128240533Y-115583333D01*
X128240533Y-115583333D02*
X128383390Y-115630952D01*
X128383390Y-115630952D02*
X128954819Y-116202380D01*
X128954819Y-116202380D02*
X128954819Y-115583333D01*
D12*
%TO.C,C3*%
X123769000Y-95599000D02*
X123769000Y-94401000D01*
X123809000Y-95862000D02*
X123809000Y-94138000D01*
X123849000Y-96062000D02*
X123849000Y-93938000D01*
X123889000Y-96230000D02*
X123889000Y-93770000D01*
X123929000Y-96378000D02*
X123929000Y-93622000D01*
X123969000Y-96510000D02*
X123969000Y-93490000D01*
X124009000Y-96630000D02*
X124009000Y-93370000D01*
X124049000Y-96742000D02*
X124049000Y-93258000D01*
X124089000Y-96846000D02*
X124089000Y-93154000D01*
X124129000Y-96944000D02*
X124129000Y-93056000D01*
X124169000Y-97037000D02*
X124169000Y-92963000D01*
X124209000Y-97125000D02*
X124209000Y-92875000D01*
X124249000Y-97209000D02*
X124249000Y-92791000D01*
X124289000Y-97289000D02*
X124289000Y-92711000D01*
X124329000Y-97365000D02*
X124329000Y-92635000D01*
X124369000Y-97439000D02*
X124369000Y-92561000D01*
X124409000Y-97510000D02*
X124409000Y-92490000D01*
X124449000Y-97579000D02*
X124449000Y-92421000D01*
X124489000Y-97645000D02*
X124489000Y-92355000D01*
X124529000Y-97709000D02*
X124529000Y-92291000D01*
X124569000Y-97770000D02*
X124569000Y-92230000D01*
X124609000Y-97830000D02*
X124609000Y-92170000D01*
X124649000Y-97889000D02*
X124649000Y-92111000D01*
X124689000Y-97945000D02*
X124689000Y-92055000D01*
X124729000Y-98000000D02*
X124729000Y-92000000D01*
X124769000Y-98054000D02*
X124769000Y-91946000D01*
X124809000Y-98106000D02*
X124809000Y-91894000D01*
X124849000Y-98156000D02*
X124849000Y-91844000D01*
X124889000Y-98206000D02*
X124889000Y-91794000D01*
X124929000Y-98254000D02*
X124929000Y-91746000D01*
X124969000Y-98301000D02*
X124969000Y-91699000D01*
X125009000Y-98347000D02*
X125009000Y-91653000D01*
X125049000Y-98392000D02*
X125049000Y-91608000D01*
X125089000Y-98436000D02*
X125089000Y-91564000D01*
X125129000Y-98478000D02*
X125129000Y-91522000D01*
X125169000Y-98520000D02*
X125169000Y-91480000D01*
X125209000Y-98561000D02*
X125209000Y-91439000D01*
X125249000Y-98601000D02*
X125249000Y-91399000D01*
X125289000Y-98640000D02*
X125289000Y-91360000D01*
X125329000Y-98679000D02*
X125329000Y-91321000D01*
X125369000Y-98716000D02*
X125369000Y-91284000D01*
X125409000Y-98753000D02*
X125409000Y-91247000D01*
X125449000Y-98789000D02*
X125449000Y-91211000D01*
X125489000Y-98824000D02*
X125489000Y-91176000D01*
X125529000Y-98858000D02*
X125529000Y-91142000D01*
X125569000Y-98892000D02*
X125569000Y-91108000D01*
X125609000Y-98925000D02*
X125609000Y-91075000D01*
X125649000Y-98957000D02*
X125649000Y-91043000D01*
X125689000Y-98989000D02*
X125689000Y-91011000D01*
X125729000Y-93759000D02*
X125729000Y-90980000D01*
X125729000Y-99020000D02*
X125729000Y-96241000D01*
X125769000Y-93759000D02*
X125769000Y-90950000D01*
X125769000Y-99050000D02*
X125769000Y-96241000D01*
X125809000Y-93759000D02*
X125809000Y-90920000D01*
X125809000Y-99080000D02*
X125809000Y-96241000D01*
X125849000Y-93759000D02*
X125849000Y-90890000D01*
X125849000Y-99110000D02*
X125849000Y-96241000D01*
X125889000Y-93759000D02*
X125889000Y-90862000D01*
X125889000Y-99138000D02*
X125889000Y-96241000D01*
X125929000Y-93759000D02*
X125929000Y-90834000D01*
X125929000Y-99166000D02*
X125929000Y-96241000D01*
X125969000Y-93759000D02*
X125969000Y-90806000D01*
X125969000Y-99194000D02*
X125969000Y-96241000D01*
X126009000Y-93759000D02*
X126009000Y-90779000D01*
X126009000Y-99221000D02*
X126009000Y-96241000D01*
X126049000Y-93759000D02*
X126049000Y-90753000D01*
X126049000Y-99247000D02*
X126049000Y-96241000D01*
X126089000Y-93759000D02*
X126089000Y-90727000D01*
X126089000Y-99273000D02*
X126089000Y-96241000D01*
X126129000Y-93759000D02*
X126129000Y-90702000D01*
X126129000Y-99298000D02*
X126129000Y-96241000D01*
X126169000Y-93759000D02*
X126169000Y-90677000D01*
X126169000Y-99323000D02*
X126169000Y-96241000D01*
X126209000Y-93759000D02*
X126209000Y-90653000D01*
X126209000Y-99347000D02*
X126209000Y-96241000D01*
X126249000Y-93759000D02*
X126249000Y-90629000D01*
X126249000Y-99371000D02*
X126249000Y-96241000D01*
X126289000Y-93759000D02*
X126289000Y-90605000D01*
X126289000Y-99395000D02*
X126289000Y-96241000D01*
X126329000Y-93759000D02*
X126329000Y-90583000D01*
X126329000Y-99417000D02*
X126329000Y-96241000D01*
X126369000Y-93759000D02*
X126369000Y-90560000D01*
X126369000Y-99440000D02*
X126369000Y-96241000D01*
X126409000Y-93759000D02*
X126409000Y-90538000D01*
X126409000Y-99462000D02*
X126409000Y-96241000D01*
X126449000Y-93759000D02*
X126449000Y-90517000D01*
X126449000Y-99483000D02*
X126449000Y-96241000D01*
X126489000Y-93759000D02*
X126489000Y-90496000D01*
X126489000Y-99504000D02*
X126489000Y-96241000D01*
X126529000Y-93759000D02*
X126529000Y-90475000D01*
X126529000Y-99525000D02*
X126529000Y-96241000D01*
X126569000Y-93759000D02*
X126569000Y-90455000D01*
X126569000Y-99545000D02*
X126569000Y-96241000D01*
X126609000Y-93759000D02*
X126609000Y-90436000D01*
X126609000Y-99564000D02*
X126609000Y-96241000D01*
X126649000Y-93759000D02*
X126649000Y-90416000D01*
X126649000Y-99584000D02*
X126649000Y-96241000D01*
X126689000Y-93759000D02*
X126689000Y-90397000D01*
X126689000Y-99603000D02*
X126689000Y-96241000D01*
X126729000Y-93759000D02*
X126729000Y-90379000D01*
X126729000Y-99621000D02*
X126729000Y-96241000D01*
X126769000Y-93759000D02*
X126769000Y-90361000D01*
X126769000Y-99639000D02*
X126769000Y-96241000D01*
X126809000Y-93759000D02*
X126809000Y-90343000D01*
X126809000Y-99657000D02*
X126809000Y-96241000D01*
X126849000Y-93759000D02*
X126849000Y-90326000D01*
X126849000Y-99674000D02*
X126849000Y-96241000D01*
X126889000Y-93759000D02*
X126889000Y-90310000D01*
X126889000Y-99690000D02*
X126889000Y-96241000D01*
X126929000Y-93759000D02*
X126929000Y-90293000D01*
X126929000Y-99707000D02*
X126929000Y-96241000D01*
X126969000Y-93759000D02*
X126969000Y-90277000D01*
X126969000Y-99723000D02*
X126969000Y-96241000D01*
X127009000Y-93759000D02*
X127009000Y-90262000D01*
X127009000Y-99738000D02*
X127009000Y-96241000D01*
X127049000Y-93759000D02*
X127049000Y-90246000D01*
X127049000Y-99754000D02*
X127049000Y-96241000D01*
X127089000Y-93759000D02*
X127089000Y-90232000D01*
X127089000Y-99768000D02*
X127089000Y-96241000D01*
X127129000Y-93759000D02*
X127129000Y-90217000D01*
X127129000Y-99783000D02*
X127129000Y-96241000D01*
X127169000Y-93759000D02*
X127169000Y-90203000D01*
X127169000Y-99797000D02*
X127169000Y-96241000D01*
X127209000Y-93759000D02*
X127209000Y-90189000D01*
X127209000Y-99811000D02*
X127209000Y-96241000D01*
X127249000Y-93759000D02*
X127249000Y-90176000D01*
X127249000Y-99824000D02*
X127249000Y-96241000D01*
X127289000Y-93759000D02*
X127289000Y-90163000D01*
X127289000Y-99837000D02*
X127289000Y-96241000D01*
X127329000Y-93759000D02*
X127329000Y-90150000D01*
X127329000Y-99850000D02*
X127329000Y-96241000D01*
X127369000Y-93759000D02*
X127369000Y-90138000D01*
X127369000Y-99862000D02*
X127369000Y-96241000D01*
X127409000Y-93759000D02*
X127409000Y-90126000D01*
X127409000Y-99874000D02*
X127409000Y-96241000D01*
X127449000Y-93759000D02*
X127449000Y-90115000D01*
X127449000Y-99885000D02*
X127449000Y-96241000D01*
X127489000Y-93759000D02*
X127489000Y-90103000D01*
X127489000Y-99897000D02*
X127489000Y-96241000D01*
X127529000Y-93759000D02*
X127529000Y-90093000D01*
X127529000Y-99907000D02*
X127529000Y-96241000D01*
X127569000Y-93759000D02*
X127569000Y-90082000D01*
X127569000Y-99918000D02*
X127569000Y-96241000D01*
X127609000Y-93759000D02*
X127609000Y-90072000D01*
X127609000Y-99928000D02*
X127609000Y-96241000D01*
X127649000Y-93759000D02*
X127649000Y-90062000D01*
X127649000Y-99938000D02*
X127649000Y-96241000D01*
X127689000Y-93759000D02*
X127689000Y-90053000D01*
X127689000Y-99947000D02*
X127689000Y-96241000D01*
X127729000Y-93759000D02*
X127729000Y-90044000D01*
X127729000Y-99956000D02*
X127729000Y-96241000D01*
X127769000Y-93759000D02*
X127769000Y-90035000D01*
X127769000Y-99965000D02*
X127769000Y-96241000D01*
X127809000Y-93759000D02*
X127809000Y-90026000D01*
X127809000Y-99974000D02*
X127809000Y-96241000D01*
X127849000Y-93759000D02*
X127849000Y-90018000D01*
X127849000Y-99982000D02*
X127849000Y-96241000D01*
X127889000Y-93759000D02*
X127889000Y-90010000D01*
X127889000Y-99990000D02*
X127889000Y-96241000D01*
X127929000Y-93759000D02*
X127929000Y-90003000D01*
X127929000Y-99997000D02*
X127929000Y-96241000D01*
X127969000Y-93759000D02*
X127969000Y-89996000D01*
X127969000Y-100004000D02*
X127969000Y-96241000D01*
X128009000Y-93759000D02*
X128009000Y-89989000D01*
X128009000Y-100011000D02*
X128009000Y-96241000D01*
X128049000Y-93759000D02*
X128049000Y-89982000D01*
X128049000Y-100018000D02*
X128049000Y-96241000D01*
X128089000Y-93759000D02*
X128089000Y-89976000D01*
X128089000Y-100024000D02*
X128089000Y-96241000D01*
X128129000Y-93759000D02*
X128129000Y-89970000D01*
X128129000Y-100030000D02*
X128129000Y-96241000D01*
X128170000Y-93759000D02*
X128170000Y-89965000D01*
X128170000Y-100035000D02*
X128170000Y-96241000D01*
X128210000Y-100040000D02*
X128210000Y-89960000D01*
X128250000Y-100045000D02*
X128250000Y-89955000D01*
X128290000Y-100050000D02*
X128290000Y-89950000D01*
X128330000Y-100054000D02*
X128330000Y-89946000D01*
X128370000Y-100058000D02*
X128370000Y-89942000D01*
X128410000Y-100062000D02*
X128410000Y-89938000D01*
X128450000Y-100065000D02*
X128450000Y-89935000D01*
X128490000Y-100068000D02*
X128490000Y-89932000D01*
X128530000Y-100070000D02*
X128530000Y-89930000D01*
X128570000Y-100073000D02*
X128570000Y-89927000D01*
X128610000Y-100075000D02*
X128610000Y-89925000D01*
X128650000Y-100077000D02*
X128650000Y-89923000D01*
X128690000Y-100078000D02*
X128690000Y-89922000D01*
X128730000Y-100079000D02*
X128730000Y-89921000D01*
X128770000Y-100080000D02*
X128770000Y-89920000D01*
X128810000Y-100080000D02*
X128810000Y-89920000D01*
X128850000Y-100080000D02*
X128850000Y-89920000D01*
X133829646Y-98375000D02*
X133829646Y-97375000D01*
X134329646Y-97875000D02*
X133329646Y-97875000D01*
X133970000Y-95000000D02*
G75*
G03*
X123730000Y-95000000I-5120000J0D01*
G01*
X123730000Y-95000000D02*
G75*
G03*
X133970000Y-95000000I5120000J0D01*
G01*
%TO.C,R1*%
X109420000Y-109380000D02*
X109420000Y-109710000D01*
X109420000Y-112120000D02*
X109420000Y-111790000D01*
X115960000Y-109380000D02*
X109420000Y-109380000D01*
X115960000Y-109710000D02*
X115960000Y-109380000D01*
X115960000Y-111790000D02*
X115960000Y-112120000D01*
X115960000Y-112120000D02*
X109420000Y-112120000D01*
%TO.C,D3*%
X101780000Y-95530000D02*
X101780000Y-100970000D01*
X101780000Y-100970000D02*
X104720000Y-100970000D01*
X103250000Y-94510000D02*
X103250000Y-95530000D01*
X103250000Y-101990000D02*
X103250000Y-100970000D01*
X104720000Y-95530000D02*
X101780000Y-95530000D01*
X104720000Y-96310000D02*
X101780000Y-96310000D01*
X104720000Y-96430000D02*
X101780000Y-96430000D01*
X104720000Y-96550000D02*
X101780000Y-96550000D01*
X104720000Y-100970000D02*
X104720000Y-95530000D01*
%TO.C,C4*%
X92880000Y-84630000D02*
X92880000Y-90870000D01*
X92880000Y-84630000D02*
X111120000Y-84630000D01*
X92880000Y-90870000D02*
X111120000Y-90870000D01*
X111120000Y-84630000D02*
X111120000Y-90870000D01*
%TO.C,J1*%
X86190000Y-97710000D02*
X86190000Y-107870000D01*
X86190000Y-107870000D02*
X93810000Y-107870000D01*
X92540000Y-97710000D02*
X92540000Y-107870000D01*
X93810000Y-97710000D02*
X86190000Y-97710000D01*
X93810000Y-107870000D02*
X93810000Y-97710000D01*
%TO.C,D6*%
X119280000Y-104720000D02*
X119280000Y-110160000D01*
X119280000Y-110160000D02*
X119610000Y-110160000D01*
X119610000Y-104720000D02*
X119280000Y-104720000D01*
X121890000Y-104720000D02*
X122220000Y-104720000D01*
X122220000Y-104720000D02*
X122220000Y-110160000D01*
X122220000Y-105500000D02*
X119280000Y-105500000D01*
X122220000Y-105620000D02*
X119280000Y-105620000D01*
X122220000Y-105740000D02*
X119280000Y-105740000D01*
X122220000Y-110160000D02*
X121890000Y-110160000D01*
%TO.C,D4*%
X101780000Y-109280000D02*
X101780000Y-114720000D01*
X101780000Y-114720000D02*
X104720000Y-114720000D01*
X103250000Y-108260000D02*
X103250000Y-109280000D01*
X103250000Y-115740000D02*
X103250000Y-114720000D01*
X104720000Y-109280000D02*
X101780000Y-109280000D01*
X104720000Y-110060000D02*
X101780000Y-110060000D01*
X104720000Y-110180000D02*
X101780000Y-110180000D01*
X104720000Y-110300000D02*
X101780000Y-110300000D01*
X104720000Y-114720000D02*
X104720000Y-109280000D01*
%TO.C,R4*%
X93130000Y-110670000D02*
X93130000Y-117210000D01*
X93130000Y-117210000D02*
X93460000Y-117210000D01*
X93460000Y-110670000D02*
X93130000Y-110670000D01*
X95540000Y-110670000D02*
X95870000Y-110670000D01*
X95870000Y-110670000D02*
X95870000Y-117210000D01*
X95870000Y-117210000D02*
X95540000Y-117210000D01*
%TO.C,C1*%
X108280000Y-92380000D02*
X108280000Y-92695000D01*
X108280000Y-92380000D02*
X113220000Y-92380000D01*
X108280000Y-94805000D02*
X108280000Y-95120000D01*
X108280000Y-95120000D02*
X113220000Y-95120000D01*
X113220000Y-92380000D02*
X113220000Y-92695000D01*
X113220000Y-94805000D02*
X113220000Y-95120000D01*
%TO.C,C2*%
X109759000Y-103413323D02*
X106082000Y-103413323D01*
X109759000Y-103453323D02*
X106093000Y-103453323D01*
X109759000Y-103493323D02*
X106103000Y-103493323D01*
X109759000Y-103533323D02*
X106115000Y-103533323D01*
X109759000Y-103573323D02*
X106126000Y-103573323D01*
X109759000Y-103613323D02*
X106138000Y-103613323D01*
X109759000Y-103653323D02*
X106150000Y-103653323D01*
X109759000Y-103693323D02*
X106163000Y-103693323D01*
X109759000Y-103733323D02*
X106176000Y-103733323D01*
X109759000Y-103773323D02*
X106189000Y-103773323D01*
X109759000Y-103813323D02*
X106203000Y-103813323D01*
X109759000Y-103853323D02*
X106217000Y-103853323D01*
X109759000Y-103893323D02*
X106232000Y-103893323D01*
X109759000Y-103933323D02*
X106246000Y-103933323D01*
X109759000Y-103973323D02*
X106262000Y-103973323D01*
X109759000Y-104013323D02*
X106277000Y-104013323D01*
X109759000Y-104053323D02*
X106293000Y-104053323D01*
X109759000Y-104093323D02*
X106310000Y-104093323D01*
X109759000Y-104133323D02*
X106326000Y-104133323D01*
X109759000Y-104173323D02*
X106343000Y-104173323D01*
X109759000Y-104213323D02*
X106361000Y-104213323D01*
X109759000Y-104253323D02*
X106379000Y-104253323D01*
X109759000Y-104293323D02*
X106397000Y-104293323D01*
X109759000Y-104333323D02*
X106416000Y-104333323D01*
X109759000Y-104373323D02*
X106436000Y-104373323D01*
X109759000Y-104413323D02*
X106455000Y-104413323D01*
X109759000Y-104453323D02*
X106475000Y-104453323D01*
X109759000Y-104493323D02*
X106496000Y-104493323D01*
X109759000Y-104533323D02*
X106517000Y-104533323D01*
X109759000Y-104573323D02*
X106538000Y-104573323D01*
X109759000Y-104613323D02*
X106560000Y-104613323D01*
X109759000Y-104653323D02*
X106583000Y-104653323D01*
X109759000Y-104693323D02*
X106605000Y-104693323D01*
X109759000Y-104733323D02*
X106629000Y-104733323D01*
X109759000Y-104773323D02*
X106653000Y-104773323D01*
X109759000Y-104813323D02*
X106677000Y-104813323D01*
X109759000Y-104853323D02*
X106702000Y-104853323D01*
X109759000Y-104893323D02*
X106727000Y-104893323D01*
X109759000Y-104933323D02*
X106753000Y-104933323D01*
X109759000Y-104973323D02*
X106779000Y-104973323D01*
X109759000Y-105013323D02*
X106806000Y-105013323D01*
X109759000Y-105053323D02*
X106834000Y-105053323D01*
X109759000Y-105093323D02*
X106862000Y-105093323D01*
X109759000Y-105133323D02*
X106890000Y-105133323D01*
X109759000Y-105173323D02*
X106920000Y-105173323D01*
X109759000Y-105213323D02*
X106950000Y-105213323D01*
X109759000Y-105253323D02*
X106980000Y-105253323D01*
X109759000Y-105293323D02*
X107011000Y-105293323D01*
X109759000Y-105333323D02*
X107043000Y-105333323D01*
X109759000Y-105373323D02*
X107075000Y-105373323D01*
X109759000Y-105413323D02*
X107108000Y-105413323D01*
X109759000Y-105453323D02*
X107142000Y-105453323D01*
X109759000Y-105493323D02*
X107176000Y-105493323D01*
X109759000Y-105533323D02*
X107211000Y-105533323D01*
X109759000Y-105573323D02*
X107247000Y-105573323D01*
X109759000Y-105613323D02*
X107284000Y-105613323D01*
X109759000Y-105653323D02*
X107321000Y-105653323D01*
X109759000Y-105693323D02*
X107360000Y-105693323D01*
X109759000Y-105733323D02*
X107399000Y-105733323D01*
X109759000Y-105773323D02*
X107439000Y-105773323D01*
X109759000Y-105813323D02*
X107480000Y-105813323D01*
X109759000Y-105853323D02*
X107522000Y-105853323D01*
X111599000Y-107213323D02*
X110401000Y-107213323D01*
X111862000Y-107173323D02*
X110138000Y-107173323D01*
X112062000Y-107133323D02*
X109938000Y-107133323D01*
X112230000Y-107093323D02*
X109770000Y-107093323D01*
X112378000Y-107053323D02*
X109622000Y-107053323D01*
X112510000Y-107013323D02*
X109490000Y-107013323D01*
X112630000Y-106973323D02*
X109370000Y-106973323D01*
X112742000Y-106933323D02*
X109258000Y-106933323D01*
X112846000Y-106893323D02*
X109154000Y-106893323D01*
X112944000Y-106853323D02*
X109056000Y-106853323D01*
X113037000Y-106813323D02*
X108963000Y-106813323D01*
X113125000Y-106773323D02*
X108875000Y-106773323D01*
X113209000Y-106733323D02*
X108791000Y-106733323D01*
X113289000Y-106693323D02*
X108711000Y-106693323D01*
X113365000Y-106653323D02*
X108635000Y-106653323D01*
X113439000Y-106613323D02*
X108561000Y-106613323D01*
X113510000Y-106573323D02*
X108490000Y-106573323D01*
X113579000Y-106533323D02*
X108421000Y-106533323D01*
X113645000Y-106493323D02*
X108355000Y-106493323D01*
X113709000Y-106453323D02*
X108291000Y-106453323D01*
X113770000Y-106413323D02*
X108230000Y-106413323D01*
X113830000Y-106373323D02*
X108170000Y-106373323D01*
X113875000Y-96652677D02*
X113875000Y-97652677D01*
X113889000Y-106333323D02*
X108111000Y-106333323D01*
X113945000Y-106293323D02*
X108055000Y-106293323D01*
X114000000Y-106253323D02*
X108000000Y-106253323D01*
X114054000Y-106213323D02*
X107946000Y-106213323D01*
X114106000Y-106173323D02*
X107894000Y-106173323D01*
X114156000Y-106133323D02*
X107844000Y-106133323D01*
X114206000Y-106093323D02*
X107794000Y-106093323D01*
X114254000Y-106053323D02*
X107746000Y-106053323D01*
X114301000Y-106013323D02*
X107699000Y-106013323D01*
X114347000Y-105973323D02*
X107653000Y-105973323D01*
X114375000Y-97152677D02*
X113375000Y-97152677D01*
X114392000Y-105933323D02*
X107608000Y-105933323D01*
X114436000Y-105893323D02*
X107564000Y-105893323D01*
X114478000Y-105853323D02*
X112241000Y-105853323D01*
X114520000Y-105813323D02*
X112241000Y-105813323D01*
X114561000Y-105773323D02*
X112241000Y-105773323D01*
X114601000Y-105733323D02*
X112241000Y-105733323D01*
X114640000Y-105693323D02*
X112241000Y-105693323D01*
X114679000Y-105653323D02*
X112241000Y-105653323D01*
X114716000Y-105613323D02*
X112241000Y-105613323D01*
X114753000Y-105573323D02*
X112241000Y-105573323D01*
X114789000Y-105533323D02*
X112241000Y-105533323D01*
X114824000Y-105493323D02*
X112241000Y-105493323D01*
X114858000Y-105453323D02*
X112241000Y-105453323D01*
X114892000Y-105413323D02*
X112241000Y-105413323D01*
X114925000Y-105373323D02*
X112241000Y-105373323D01*
X114957000Y-105333323D02*
X112241000Y-105333323D01*
X114989000Y-105293323D02*
X112241000Y-105293323D01*
X115020000Y-105253323D02*
X112241000Y-105253323D01*
X115050000Y-105213323D02*
X112241000Y-105213323D01*
X115080000Y-105173323D02*
X112241000Y-105173323D01*
X115110000Y-105133323D02*
X112241000Y-105133323D01*
X115138000Y-105093323D02*
X112241000Y-105093323D01*
X115166000Y-105053323D02*
X112241000Y-105053323D01*
X115194000Y-105013323D02*
X112241000Y-105013323D01*
X115221000Y-104973323D02*
X112241000Y-104973323D01*
X115247000Y-104933323D02*
X112241000Y-104933323D01*
X115273000Y-104893323D02*
X112241000Y-104893323D01*
X115298000Y-104853323D02*
X112241000Y-104853323D01*
X115323000Y-104813323D02*
X112241000Y-104813323D01*
X115347000Y-104773323D02*
X112241000Y-104773323D01*
X115371000Y-104733323D02*
X112241000Y-104733323D01*
X115395000Y-104693323D02*
X112241000Y-104693323D01*
X115417000Y-104653323D02*
X112241000Y-104653323D01*
X115440000Y-104613323D02*
X112241000Y-104613323D01*
X115462000Y-104573323D02*
X112241000Y-104573323D01*
X115483000Y-104533323D02*
X112241000Y-104533323D01*
X115504000Y-104493323D02*
X112241000Y-104493323D01*
X115525000Y-104453323D02*
X112241000Y-104453323D01*
X115545000Y-104413323D02*
X112241000Y-104413323D01*
X115564000Y-104373323D02*
X112241000Y-104373323D01*
X115584000Y-104333323D02*
X112241000Y-104333323D01*
X115603000Y-104293323D02*
X112241000Y-104293323D01*
X115621000Y-104253323D02*
X112241000Y-104253323D01*
X115639000Y-104213323D02*
X112241000Y-104213323D01*
X115657000Y-104173323D02*
X112241000Y-104173323D01*
X115674000Y-104133323D02*
X112241000Y-104133323D01*
X115690000Y-104093323D02*
X112241000Y-104093323D01*
X115707000Y-104053323D02*
X112241000Y-104053323D01*
X115723000Y-104013323D02*
X112241000Y-104013323D01*
X115738000Y-103973323D02*
X112241000Y-103973323D01*
X115754000Y-103933323D02*
X112241000Y-103933323D01*
X115768000Y-103893323D02*
X112241000Y-103893323D01*
X115783000Y-103853323D02*
X112241000Y-103853323D01*
X115797000Y-103813323D02*
X112241000Y-103813323D01*
X115811000Y-103773323D02*
X112241000Y-103773323D01*
X115824000Y-103733323D02*
X112241000Y-103733323D01*
X115837000Y-103693323D02*
X112241000Y-103693323D01*
X115850000Y-103653323D02*
X112241000Y-103653323D01*
X115862000Y-103613323D02*
X112241000Y-103613323D01*
X115874000Y-103573323D02*
X112241000Y-103573323D01*
X115885000Y-103533323D02*
X112241000Y-103533323D01*
X115897000Y-103493323D02*
X112241000Y-103493323D01*
X115907000Y-103453323D02*
X112241000Y-103453323D01*
X115918000Y-103413323D02*
X112241000Y-103413323D01*
X115928000Y-103373323D02*
X106072000Y-103373323D01*
X115938000Y-103333323D02*
X106062000Y-103333323D01*
X115947000Y-103293323D02*
X106053000Y-103293323D01*
X115956000Y-103253323D02*
X106044000Y-103253323D01*
X115965000Y-103213323D02*
X106035000Y-103213323D01*
X115974000Y-103173323D02*
X106026000Y-103173323D01*
X115982000Y-103133323D02*
X106018000Y-103133323D01*
X115990000Y-103093323D02*
X106010000Y-103093323D01*
X115997000Y-103053323D02*
X106003000Y-103053323D01*
X116004000Y-103013323D02*
X105996000Y-103013323D01*
X116011000Y-102973323D02*
X105989000Y-102973323D01*
X116018000Y-102933323D02*
X105982000Y-102933323D01*
X116024000Y-102893323D02*
X105976000Y-102893323D01*
X116030000Y-102853323D02*
X105970000Y-102853323D01*
X116035000Y-102812323D02*
X105965000Y-102812323D01*
X116040000Y-102772323D02*
X105960000Y-102772323D01*
X116045000Y-102732323D02*
X105955000Y-102732323D01*
X116050000Y-102692323D02*
X105950000Y-102692323D01*
X116054000Y-102652323D02*
X105946000Y-102652323D01*
X116058000Y-102612323D02*
X105942000Y-102612323D01*
X116062000Y-102572323D02*
X105938000Y-102572323D01*
X116065000Y-102532323D02*
X105935000Y-102532323D01*
X116068000Y-102492323D02*
X105932000Y-102492323D01*
X116070000Y-102452323D02*
X105930000Y-102452323D01*
X116073000Y-102412323D02*
X105927000Y-102412323D01*
X116075000Y-102372323D02*
X105925000Y-102372323D01*
X116077000Y-102332323D02*
X105923000Y-102332323D01*
X116078000Y-102292323D02*
X105922000Y-102292323D01*
X116079000Y-102252323D02*
X105921000Y-102252323D01*
X116080000Y-102132323D02*
X105920000Y-102132323D01*
X116080000Y-102172323D02*
X105920000Y-102172323D01*
X116080000Y-102212323D02*
X105920000Y-102212323D01*
X116120000Y-102132323D02*
G75*
G03*
X105880000Y-102132323I-5120000J0D01*
G01*
X105880000Y-102132323D02*
G75*
G03*
X116120000Y-102132323I5120000J0D01*
G01*
%TO.C,R3*%
X88130000Y-88170000D02*
X88460000Y-88170000D01*
X88130000Y-94710000D02*
X88130000Y-88170000D01*
X88460000Y-94710000D02*
X88130000Y-94710000D01*
X90540000Y-94710000D02*
X90870000Y-94710000D01*
X90870000Y-88170000D02*
X90540000Y-88170000D01*
X90870000Y-94710000D02*
X90870000Y-88170000D01*
%TO.C,R2*%
X109230000Y-114130000D02*
X109230000Y-114460000D01*
X109230000Y-116870000D02*
X109230000Y-116540000D01*
X115770000Y-114130000D02*
X109230000Y-114130000D01*
X115770000Y-114460000D02*
X115770000Y-114130000D01*
X115770000Y-116540000D02*
X115770000Y-116870000D01*
X115770000Y-116870000D02*
X109230000Y-116870000D01*
%TO.C,D5*%
X117530000Y-93340000D02*
X117530000Y-98780000D01*
X117530000Y-98780000D02*
X117860000Y-98780000D01*
X117860000Y-93340000D02*
X117530000Y-93340000D01*
X120140000Y-93340000D02*
X120470000Y-93340000D01*
X120470000Y-93340000D02*
X120470000Y-98780000D01*
X120470000Y-94120000D02*
X117530000Y-94120000D01*
X120470000Y-94240000D02*
X117530000Y-94240000D01*
X120470000Y-94360000D02*
X117530000Y-94360000D01*
X120470000Y-98780000D02*
X120140000Y-98780000D01*
%TO.C,U1*%
X113630000Y-84925000D02*
X113630000Y-89566000D01*
X113630000Y-84925000D02*
X123870000Y-84925000D01*
X113630000Y-86435000D02*
X123870000Y-86435000D01*
X113630000Y-89566000D02*
X123870000Y-89566000D01*
X116900000Y-84925000D02*
X116900000Y-86435000D01*
X120601000Y-84925000D02*
X120601000Y-86435000D01*
X123870000Y-84925000D02*
X123870000Y-89566000D01*
%TO.C,D2*%
X96780000Y-109280000D02*
X96780000Y-114720000D01*
X96780000Y-114720000D02*
X99720000Y-114720000D01*
X98250000Y-108260000D02*
X98250000Y-109280000D01*
X98250000Y-115740000D02*
X98250000Y-114720000D01*
X99720000Y-109280000D02*
X96780000Y-109280000D01*
X99720000Y-110060000D02*
X96780000Y-110060000D01*
X99720000Y-110180000D02*
X96780000Y-110180000D01*
X99720000Y-110300000D02*
X96780000Y-110300000D01*
X99720000Y-114720000D02*
X99720000Y-109280000D01*
%TO.C,D7*%
X86420000Y-111455000D02*
X86420000Y-114545000D01*
X91969999Y-113000462D02*
G75*
G03*
X86420001Y-111455170I-2989999J462D01*
G01*
X86420000Y-114544830D02*
G75*
G03*
X91970000Y-112999538I2560000J1544830D01*
G01*
X91480000Y-113000000D02*
G75*
G03*
X86480000Y-113000000I-2500000J0D01*
G01*
X86480000Y-113000000D02*
G75*
G03*
X91480000Y-113000000I2500000J0D01*
G01*
%TO.C,D1*%
X96780000Y-95530000D02*
X96780000Y-100970000D01*
X96780000Y-100970000D02*
X99720000Y-100970000D01*
X98250000Y-94510000D02*
X98250000Y-95530000D01*
X98250000Y-101990000D02*
X98250000Y-100970000D01*
X99720000Y-95530000D02*
X96780000Y-95530000D01*
X99720000Y-96310000D02*
X96780000Y-96310000D01*
X99720000Y-96430000D02*
X96780000Y-96430000D01*
X99720000Y-96550000D02*
X96780000Y-96550000D01*
X99720000Y-100970000D02*
X99720000Y-95530000D01*
%TO.C,J2*%
X126440000Y-104380000D02*
X126440000Y-114540000D01*
X126440000Y-114540000D02*
X134060000Y-114540000D01*
X127710000Y-114540000D02*
X127710000Y-104380000D01*
X134060000Y-104380000D02*
X126440000Y-104380000D01*
X134060000Y-114540000D02*
X134060000Y-104380000D01*
%TD*%
M02*
