M48
; DRILL file {KiCad 7.0.11+dfsg-1build4} date Sat Oct  3 06:30:34 2026
; FORMAT={-:-/ absolute / metric / decimal}
; #@! TF.CreationDate,2026-10-03T06:30:34+00:00
; #@! TF.GenerationSoftware,Kicad,Pcbnew,7.0.11+dfsg-1build4
; #@! TF.FileFunction,Plated,1,2,PTH
FMAT,2
METRIC
; #@! TA.AperFunction,Plated,PTH,ComponentDrill
T1C0.200
; #@! TA.AperFunction,Plated,PTH,ComponentDrill
T2C0.400
; #@! TA.AperFunction,Plated,PTH,ViaDrill
T3C0.500
; #@! TA.AperFunction,Plated,PTH,ComponentDrill
T4C0.600
; #@! TA.AperFunction,Plated,PTH,ComponentDrill
T5C0.750
; #@! TA.AperFunction,Plated,PTH,ComponentDrill
T6C1.000
; #@! TA.AperFunction,Plated,PTH,ComponentDrill
T7C2.200
%
G90
G05
T1
X127.85Y-109.85
X127.85Y-111.05
X127.85Y-112.25
X129.25Y-109.85
X129.25Y-111.05
X129.25Y-112.25
T2
X82.35Y-74.5
X82.35Y-116.0
X82.833Y-73.333
X82.833Y-75.667
X82.833Y-114.833
X82.833Y-117.167
X84.0Y-72.85
X84.0Y-76.15
X84.0Y-114.35
X84.0Y-117.65
X85.167Y-73.333
X85.167Y-75.667
X85.167Y-114.833
X85.167Y-117.167
X85.65Y-74.5
X85.65Y-116.0
X144.229Y-74.5
X144.35Y-115.879
X144.712Y-73.333
X144.712Y-75.667
X144.833Y-114.712
X144.833Y-117.045
X145.879Y-72.85
X145.879Y-76.15
X146.0Y-114.229
X146.0Y-117.529
X147.045Y-73.333
X147.045Y-75.667
X147.167Y-114.712
X147.167Y-117.045
X147.529Y-74.5
X147.65Y-115.879
T3
X92.3Y-85.7
X100.6Y-115.9
X103.2Y-94.75
X105.95Y-114.25
X106.4Y-112.8
X107.7Y-115.5
X109.2Y-112.8
X110.2Y-108.6
X112.7Y-113.3
X116.4Y-93.7
X118.1Y-82.2
X118.3Y-88.5
X118.3Y-92.3
X118.6Y-93.8
X118.8Y-97.6
X121.3Y-106.7
X121.7Y-115.5
X124.4Y-111.7
X126.2Y-82.2
X126.7Y-78.6
X126.8Y-84.9
X127.15Y-95.3
X128.3Y-113.6
X130.3Y-103.8
X133.3Y-109.145
X136.7Y-83.4
X137.9Y-85.3
X140.0Y-82.2
X140.15Y-85.55
X140.4Y-110.1
X140.5Y-77.9
X140.9Y-106.0
X141.3Y-77.2
T5
X87.95Y-107.25
X87.95Y-109.25
T6
X89.17Y-115.5
X89.39Y-92.64
X89.39Y-99.36
X91.71Y-115.5
X92.75Y-91.25
X92.75Y-100.75
X94.25Y-115.5
X96.11Y-92.64
X96.11Y-99.36
X123.9Y-92.18
X123.9Y-94.72
X123.9Y-97.26
X123.9Y-99.8
T7
X84.0Y-74.5
X84.0Y-116.0
X145.879Y-74.5
X146.0Y-115.879
T4
X141.595Y-79.43G85X142.695Y-79.43
G05
X141.595Y-88.07G85X142.695Y-88.07
G05
X146.025Y-79.43G85X146.625Y-79.43
G05
X146.025Y-88.07G85X146.625Y-88.07
G05
M30
